<?xml version="1.0" encoding="UTF-8"?>
<svg id="Capa_2" data-name="Capa 2" xmlns="http://www.w3.org/2000/svg" viewBox="0 0 683.5 299.93">
  <defs>
    <style>
      .cls-1, .cls-2 {
        fill: #dca3c4;
      }

      .cls-3 {
        fill: #484379;
      }

      .cls-2 {
        stroke: #dca3c4;
        stroke-miterlimit: 10;
        stroke-width: 3px;
      }
    </style>
  </defs>
  <g id="Capa_1-2" data-name="Capa 1">
    <g>
      <path class="cls-3" d="m51.41,200.37c0-11.35-5.6-16.64-13.84-16.64h-17.11v59.87H4.3v-124.25h33.9c19.44,0,29.08,13.22,29.08,32.66,0,14.46-5.44,26.28-17.1,29.86,10.26,1.87,17.42,10.11,17.42,24.88v23.33c0,7.93,2.95,12.75,9.02,14.46-1.87.47-2.8.93-6.38.93-13.53,0-18.82-6.53-18.82-15.39v-29.7Zm-14-21.15c9.02,0,13.68-9.64,13.68-25.5,0-20.84-7.93-30.01-23.33-30.01h-7.31v55.51h16.95Z"/>
      <path class="cls-3" d="m82.2,243.6v-124.25h62.2v4.35h-46.03v55.36h26.59v4.51h-26.59v55.67h46.03v4.35h-62.2Z"/>
      <path class="cls-3" d="m152.96,243.6v-124.25h34.21c21.93,0,29.86,12.91,29.86,34.05,0,24.88-10.73,36.54-39.34,36.54h-8.55v53.65h-16.17Zm25.35-58.16c18.97,0,22.24-15.86,22.24-31.26,0-16.17-3.58-30.48-22.86-30.48h-8.55v61.73h9.17Z"/>
      <path class="cls-3" d="m257.92,243.6l-5.13-28.15h-30.63l-5.29,28.15h-5.91l23.33-124.25h16.17l23.79,124.25h-16.33Zm-20.22-110.25l-14.77,77.6h29.08l-14.31-77.6Z"/>
      <path class="cls-3" d="m401.45,243.6l-5.13-28.15h-30.63l-5.29,28.15h-5.91l23.33-124.25h16.17l23.79,124.25h-16.33Zm-20.22-110.25l-14.77,77.6h29.08l-14.31-77.6Z"/>
      <g>
        <path class="cls-3" d="m10.27,296.41c-5.62,0-10.27-2.36-10.27-15.88,0-11.12,3.11-17.04,11.89-17.04,6.75,0,10.67,3.52,10.67,15.72,0,8.24-1.82,13.52-5.98,15.8,2.71,2.32,4.85,3.6,7.12,4.08-1.37.56-2.34.84-3.44.84-2.3,0-4.41-1.44-6.19-3.92-1.17.28-2.38.4-3.8.4Zm7.72-16.44c0-9.12-2.38-15.28-6.71-15.28s-6.83,5.96-6.83,15.04,2.43,15.52,6.83,15.52,6.71-6.08,6.71-15.28Z"/>
        <path class="cls-3" d="m54.01,263.81h1.78v25.24c0,6.64-5.26,7.36-8.69,7.36-5.38,0-7.76-1.76-7.76-6.16v-26.44h4.24v25.88c0,3,2.51,5.36,5.86,5.36,3.03,0,4.57-1.88,4.57-4.8v-26.44Z"/>
        <path class="cls-3" d="m72.9,295.77v-31.96h16.17v1.12h-11.97v14.24h6.91v1.16h-6.91v14.32h11.97v1.12h-16.17Z"/>
        <path class="cls-3" d="m134.96,295.77v-30.83h-5.9v-1.12h15.89v1.12h-5.74v30.83h-4.24Z"/>
        <path class="cls-3" d="m173.25,284.65c0-2.92-1.46-4.28-3.6-4.28h-4.45v15.4h-4.2v-31.96h8.81c5.05,0,7.56,3.4,7.56,8.4,0,3.72-1.41,6.76-4.45,7.68,2.67.48,4.53,2.6,4.53,6.4v6c0,2.04.77,3.28,2.35,3.72-.49.12-.73.24-1.66.24-3.52,0-4.89-1.68-4.89-3.96v-7.64Zm-3.64-5.44c2.35,0,3.56-2.48,3.56-6.56,0-5.36-2.06-7.72-6.06-7.72h-1.9v14.28h4.41Z"/>
        <path class="cls-3" d="m206.61,295.77l-1.33-7.24h-7.96l-1.37,7.24h-1.54l6.06-31.96h4.2l6.19,31.96h-4.25Zm-5.25-28.36l-3.84,19.96h7.56l-3.72-19.96Z"/>
        <path class="cls-3" d="m242.75,295.77l-14.11-27v26.96h-1.78v-31.92h3.72l10.96,21.76v-21.76h1.78v31.96h-.57Z"/>
        <path class="cls-3" d="m261.07,290.85c.57,2.04,2.38,4.12,5.26,4.12s4.85-2.04,4.85-5.96c0-2.16-.65-3.64-1.86-5.12-1.66-2-4.61-4.24-6.39-6.36-1.62-1.88-2.51-3.92-2.51-6.36,0-4.4,2.95-7.68,7.92-7.68,3.07,0,4.45,1.24,6.06,3.48l-1.25.96c-1.09-1.72-2.47-3-4.61-3-2.59,0-4.45,1.88-4.45,5.44,0,1.92.53,3.44,1.98,4.96,1.17,1.2,4.89,4.52,6.19,5.88,1.7,1.88,3.03,4.48,3.03,7.2,0,4.48-3.68,8-8.89,8-3.8,0-5.74-1.84-6.83-4.64l1.5-.92Z"/>
        <path class="cls-3" d="m291.88,295.77v-31.96h16.13v1.12h-11.93v14.6h8.41v1.12h-8.41v15.12h-4.2Z"/>
        <path class="cls-3" d="m321.6,280.53c0-11.12,3.11-17.04,11.89-17.04,6.75,0,10.67,3.52,10.67,15.72,0,11.52-3.48,17.2-12.25,17.2-5.66,0-10.31-2.36-10.31-15.88Zm17.99-.56c0-9.12-2.38-15.28-6.71-15.28s-6.83,5.96-6.83,15.04,2.43,15.52,6.83,15.52,6.71-6.08,6.71-15.28Z"/>
        <path class="cls-3" d="m373.31,284.65c0-2.92-1.46-4.28-3.6-4.28h-4.45v15.4h-4.2v-31.96h8.81c5.05,0,7.56,3.4,7.56,8.4,0,3.72-1.41,6.76-4.45,7.68,2.67.48,4.53,2.6,4.53,6.4v6c0,2.04.77,3.28,2.35,3.72-.49.12-.73.24-1.66.24-3.52,0-4.89-1.68-4.89-3.96v-7.64Zm-3.64-5.44c2.35,0,3.56-2.48,3.56-6.56,0-5.36-2.06-7.72-6.06-7.72h-1.9v14.28h4.41Z"/>
        <path class="cls-3" d="m413.42,295.77v-24.24l-7.76,21.72-8.37-21.72v24.24h-1.7v-31.96h3.4l8.05,21.88,7.76-21.88h2.79v31.96h-4.16Z"/>
        <path class="cls-3" d="m445.85,295.77l-1.33-7.24h-7.96l-1.37,7.24h-1.54l6.06-31.96h4.2l6.19,31.96h-4.25Zm-5.25-28.36l-3.84,19.96h7.56l-3.72-19.96Z"/>
        <path class="cls-3" d="m490.73,295.77v-31.96h4.2v30.83h8.73v1.12h-12.94Z"/>
        <path class="cls-3" d="m530.79,295.77l-1.33-7.24h-7.96l-1.37,7.24h-1.54l6.06-31.96h4.2l6.19,31.96h-4.25Zm-5.25-28.36l-3.84,19.96h7.56l-3.72-19.96Z"/>
        <path class="cls-3" d="m580.69,295.77l-6.14-31.96h4.16l5.3,28.04,5.42-28.04h1.62l-6.14,31.96h-4.2Z"/>
        <path class="cls-3" d="m607.05,295.77v-31.96h4.2v31.96h-4.2Z"/>
        <path class="cls-3" d="m628.48,295.77v-31.96h9.18c8.93,0,10.79,9.16,10.79,16.8,0,11.16-3.92,15.16-13.95,15.16h-6.02Zm7.4-1.12c6.06,0,8.29-5.88,8.29-14,0-10.2-3.52-15.72-9.46-15.72h-2.02v29.71h3.19Z"/>
        <path class="cls-3" d="m674.94,295.77l-1.33-7.24h-7.96l-1.37,7.24h-1.54l6.06-31.96h4.2l6.19,31.96h-4.25Zm-5.25-28.36l-3.84,19.96h7.56l-3.72-19.96Z"/>
      </g>
      <g>
        <path class="cls-3" d="m608.37,151.72l.27-.23c3.66-3,3.16-3.87,3-4.15-.55-.95-2.13-1.39-4.76-1.33v6.55c.43-.22.85-.44,1.28-.66.07-.06.14-.12.21-.18Z"/>
        <path class="cls-3" d="m670.16,230.07v-23.33c0-14.77-7.15-23.01-17.42-24.88,11.66-3.58,17.1-15.39,17.1-29.86,0-19.44-9.64-32.66-29.08-32.66h-33.9v17.84c.36.02.73.03,1.08.05l.87.04c6.41.29,10.59,3.01,11.49,7.47.67,3.32-.3,8.35-3.4,11.1-3.05,2.72-6.41,5.25-10.03,7.58v80.15h16.17v-59.87h17.11c8.24,0,13.84,5.29,13.84,16.64v29.7c0,8.86,5.29,15.39,18.82,15.39,3.58,0,4.51-.47,6.38-.93-6.06-1.71-9.02-6.53-9.02-14.46Zm-30.17-50.85h-16.95v-55.51h7.31c15.39,0,23.33,9.17,23.33,30.01,0,15.86-4.67,25.5-13.68,25.5Z"/>
      </g>
      <path class="cls-2" d="m578.44,173.35c7.4,4.66,7.98,9.35,1.79,14.9-9.88,8.85-18.7,10.63-32.31,7.02-2.58-.68-4.82-.96-7.59-2.4,2.85.43,6.08,1.37,7.51,1.53,12.05,3.26,20.66.78,29.83-6.51,1.28-1.02,2.45-2.23,3.31-3.55,2.69-4.16,1.38-7.03-3.8-8.77-1.21-.41-2.44-.77-4.78-1.51,2.39-1.21,4.03-2.03,5.66-2.87,10.78-5.52,21.56-11.04,32.34-16.57.37-.19.68-.49,1-.75,2.78-2.26,5.59-5.11,3.76-8.36-1.75-3.1-5.85-3.28-9.79-2.94-13.64,1.17-24.95,6.81-35.44,13.8-10.41,6.93-19.37,15.05-23.79,26.31-.07.19-.47.28-1.09.62,1.44-6.27,4.75-11.35,9.04-15.95,12.96-13.91,29.17-23.28,49.61-26.55,1.83-.29,3.8-.11,5.7,0,3.63.19,7.3,1.38,7.91,4.6.46,2.43-.42,5.94-2.28,7.58-4.38,3.86-9.41,7.3-14.71,10.16-7.6,4.1-15.05,7.07-21.85,10.21Z"/>
      <path class="cls-3" d="m344.23,230.07v-23.33c0-14.77-7.15-23.01-17.42-24.88,11.42-3.5,16.86-14.91,17.08-28.96-.05.04-.1.08-.15.12l-.64.5-.82.02c-.06,0-.11,0-.17,0-1.74,0-3.17-.81-3.94-2.25-1.5-2.82.31-8.69,3.13-14.89-4.06-10.56-12.86-17.05-26.47-17.05h-33.9v124.25h16.17v-59.87h17.11c8.24,0,13.84,5.29,13.84,16.64v29.7c0,8.86,5.29,15.39,18.82,15.39,3.58,0,4.51-.47,6.38-.93-6.06-1.71-9.02-6.53-9.02-14.46Zm-30.17-50.85h-16.95v-55.51h7.31c15.39,0,23.33,9.17,23.33,30.01,0,15.86-4.67,25.5-13.68,25.5Z"/>
      <g>
        <path class="cls-3" d="m487.08,228.09c-.24,1.06-.01,2,.61,2.52.2.17.44.27.7.33,3.5-3.62,6.24-8.09,8.27-13.53-4.76,1.43-8.35,5.25-9.58,10.67Z"/>
        <path class="cls-3" d="m484.34,234.21c-2.04-1.99-2.6-5.32-1.43-8.49,2.41-6.54,7.65-13.15,15.47-13.8,1.97-7.51,2.9-16.54,2.9-27.27,0-1.9-.03-3.83-.09-5.76-2.43-1.03-4.3-3.16-5.21-5.96-3.89-7.72-3.9-16.89-.02-25.87-5.55-15.79-16.31-27.72-36.19-27.72h-35.3v124.25h23.17c16.26,0,28.34-2.78,36.88-9.23-.06-.05-.12-.09-.18-.15Zm-31.42,5.03h-12.28v-115.54h7.78c22.86,0,36.39,21.46,36.39,61.11,0,31.57-8.55,54.43-31.88,54.43Z"/>
      </g>
      <path class="cls-1" d="m491.36,252.12c4.59-3.91,9.41-7.58,13.74-11.76,9.72-9.4,17.72-20.07,22.03-33.08,3.15-9.53,1.78-11.46-7.53-11.85-5.76-.24-10.2,1.88-10.18,7.69.01,3.48-.05,5.43.7,8.86.72,3.28-3.65,3.59-6.84,3.2-8.51-1.05-15.69,3.99-17.58,12.33-.74,3.26,1.77,5.71,4.92,4.38,6.62-2.77,13.1-5.9,19.63-8.89.89-.41,5.96-3.47,6.85-3.88.18.39-1.07,1.19-3.62,3.83-7.59,3.64-15.02,7.68-22.83,10.76-4.64,1.84-8.13-2.64-6.25-7.73,2.46-6.67,8.09-13.83,17.04-12.78,1.04.12,2.11.02,3.45.02-.67-2.82-1.28-5.31-1.86-7.81-1.75-7.5,4.56-16.56,11.97-17.19,9.09-.77,16.65,8.35,14.43,17.35-2.29,9.26-7.35,17.1-12.93,24.58-6.57,8.8-14,16.78-23.93,21.98-.28.15-.6.22-.9.33-.11-.11-.21-.23-.32-.34Z"/>
      <g>
        <path class="cls-3" d="m565.02,91.8c.59.45,1.19.88,1.79,1.29.06-.76.11-1.51.15-2.27-8-5.38-16-10.92-26.06-11.46-.19-.03-.37-.05-.56-.07-.09.55-.18,1.11-.26,1.67,4.33.78,8.61,1.96,12.78,3.58,4.64,1.43,8.54,4.31,12.16,7.26Z"/>
        <path class="cls-3" d="m518.55,79.98c0-.14,0-.28,0-.42,0-.45.02-.92.03-1.41-4.19.2-8.38.66-12.58,1.41-10.32.85-73.31,28.04-60.38.51,22.84.27,28.24-21.53,10.27-14.42-4.27,2.56-8.25,5.16-10.67,9.67-6.79,9.55-23.31-4.75-35.48,7.77-10.93,10.83-21.78,22.13-33.19,32.6-11.58,10.89-21.8,23.82-34.7,33.04-.14-.12-.29-.25-.43-.37,5.47-17.15,16.9-35.31,28.06-48.9,13.16-17.02,27.59-33.39,42.73-48.77,6.81-8.2,15.43-14.63,23.07-22.05,1.07-.99,2.12-1.05,3.39-.68,18.52,5.45,38.66,5.51,57.59,2.39,18.65-1.74,37.71-3.77,55.62-9.29-.06-.17-.11-.33-.17-.5-37.4,5.27-76.26,15.8-113.65,5.54,6.75-6.94,13.91-13.05,20.02-20.56,1.34-1.56,3.27-2.82,3.12-5.56-7.12,3.26-11.82,10.75-17.76,15.85-3.38,2.67-5.85,7.81-9.91,9.02-15.79-5.12-30.81-12.89-47.35-15.43-29.04-3.85-59.2-4.07-87.89,2.41.03.2.06.39.1.59,22.62-2.78,46.12-4.69,69.13-3.51,22.96,1.73,44.37,8.7,65.42,17.82-22.34,20.1-39.45,44.21-62.66,63.81-5.75,5.69-29.36,18.81-23.42.62,3.75-9.65,12.64-14.65,19.52-21.45-4.37-.85-8.58-.48-12.96-.72-.52,0-1.21.38-1.55.8-6.61,8.96-13.82,17.44-22.03,24.99-5.19,5.8-31.56,22.05-34.62,9.14,1.19-12.67,17.19-15.86,22.42-25.32-16.76-12.01-72.59-.54-93.27,3.67-69.59,12.63-44.34-6.09-95.94-9.48-37.36-2.45-59.37-.84-88.65,5.41-6.33,2.47-36.77,6.8-34.91,14.99,4.93-7.87,24.95-9.37,34.21-12.87,32.97-7.64,66.34-10.6,99.81-3.87,17.5,3,29.54,12.01,47.87,11.44,37.17.11,73.32-14.93,110.7-12.31-.02.19-.04.38-.07.57-5.7-.26-50.22,8.76-42.19,16.81,18.77,2.23,37.45-5.74,55.37-10.59-30.47,22.45-16.2,39.22,13.91,19.24,7.77-6.5,15.27-13.55,21.66-21.47,6.91-8.38,5.16-9.57,17-9.43-29.24,18.16-23.83,48.44,9.38,20.22-4.46,9.12-12.08,16.49-17.22,25.35-2.51,3.49-21.48,34.57-13.03,34.31,20.73-16.12,37.69-37.25,57.32-54.82,17.88-21.32,19.55-14.94,43.78-15.82-10.32,29.26,45.1,4.87,57.2,2.75,5.89-1.35,11.91-2.32,17.95-2.75Zm-56.01-14.21c2.03.33,3.01,2.88,1.8,4.58-4.34,6.46-11.73,6.49-18.77,8.11,3.43-6.84,9.39-12.59,16.97-12.7Zm-207.27,24.96c17.33-10.21,39.36-14.81,59.37-12.37,0,.15.02.29.03.44-17.13,5.32-41.85,15.83-59.4,11.93Z"/>
        <path class="cls-3" d="m682.85,91.44c.22-.04.42-.08.65-.12-.02-.06-.28,0-.65.12Z"/>
        <path class="cls-3" d="m671.86,93.57c2.59-.43,5.39-.89,8.51-1.39.04.15,1.57-.46,2.47-.74-8.66,1.62-8.97,1.64-10.98,2.13Z"/>
        <path class="cls-3" d="m579.39,96.7c-.29-.04-.58-.1-.87-.16-.14.62-.28,1.24-.43,1.87,10.11,3.14,21.31,3.34,31.73,4.68,18.2.08,35.88-4.06,53.63-7.5,5.18-1.22,7.14-1.72,8.41-2.03-20.65,3.43-26.38,4.85-51.59,7.01-13.69,1.43-27.31-2.41-40.89-3.88Z"/>
      </g>
      <path class="cls-2" d="m547.61,156.64c1.6-4.22,5.09-9.17,7.27-13.09,9.39-16.91,16.09-34.79,16.68-54.69.41-13.83,1.28-18.51-11.23-27.71-2.57-1.89-1.96-1.55-5.11-2.89-4.38-1.86-5.28-3.11-8.32-2.17-3.09.96-5.69,4.11-6.05,5.27-1.4,4.52-2.31,4.96-3.67,10.79-2.41,10.31-4.04,25.65-.78,36.72,1.27,4.32-1.22,10.88-2.77,15.14-1.8,4.97-7.23,7.02-9.43,7.99-13.46,5.99-25.52,39.81-19.28,39.07-1.3.15,9.09-.68,21.11-14.66.4.58,4.05-6.05,4.25-6.04,4.02-6.14-2.69,6.34-1.41,4.17-1.79,3.04-3.93,5.01-6.01,7.25,0,0-6.46,5.52-15.42,11.35-3.12,2.03-6.26.72-7.24-2.86-8.52-16.25,5.07-38.4,24.26-43.71,6.44-1.78,3.49-4.71,2.77-9.9-1.75-12.54-4.34-24.38-4.15-37.06.12-8.64,1.86-20.71,8.16-27.37,7.34-7.76,13.01-8.16,22.46-3.96,17.39,7.73,23.33,20.57,22.29,35.59-1.35,19.67-15.33,55.23-28.35,72.75Z"/>
    </g>
  </g>
</svg>