<?xml version="1.0" encoding="UTF-8"?>
<svg id="Capa_2" data-name="Capa 2" xmlns="http://www.w3.org/2000/svg" xmlns:xlink="http://www.w3.org/1999/xlink" viewBox="0 0 238.1 220.26">
  <defs>
    <style>
      .cls-1, .cls-2, .cls-3, .cls-4, .cls-5 {
        fill: none;
      }

      .cls-2 {
        stroke-width: 1.68px;
      }

      .cls-2, .cls-3, .cls-4 {
        stroke: #d3bede;
      }

      .cls-2, .cls-3, .cls-4, .cls-5 {
        stroke-miterlimit: 10;
      }

      .cls-3 {
        stroke-width: 3.02px;
      }

      .cls-6 {
        clip-path: url(#clippath);
      }

      .cls-7 {
        fill: #d3bede;
      }

      .cls-8 {
        fill: #3f3d6e;
      }

      .cls-4 {
        stroke-width: 3.35px;
      }

      .cls-9 {
        clip-path: url(#clippath-1);
      }

      .cls-10 {
        clip-path: url(#clippath-4);
      }

      .cls-11 {
        clip-path: url(#clippath-3);
      }

      .cls-12 {
        clip-path: url(#clippath-2);
      }

      .cls-13 {
        clip-path: url(#clippath-5);
      }

      .cls-14 {
        opacity: .4;
      }

      .cls-5 {
        stroke: #311f4d;
        stroke-width: .5px;
      }
    </style>
    <clipPath id="clippath">
      <rect class="cls-1" width="238.1" height="220.26" rx="25.06" ry="25.06"/>
    </clipPath>
    <clipPath id="clippath-1">
      <rect class="cls-1" x="3.02" y="-32.52" width="202.95" height="277.77"/>
    </clipPath>
    <clipPath id="clippath-2">
      <rect class="cls-1" x="3.02" y="-32.52" width="202.95" height="277.77"/>
    </clipPath>
    <clipPath id="clippath-3">
      <rect class="cls-1" x="0" y="153.17" width="71.12" height="92.41"/>
    </clipPath>
    <clipPath id="clippath-4">
      <rect class="cls-1" x="68.58" y="84.35" width="141.53" height="97.54"/>
    </clipPath>
    <clipPath id="clippath-5">
      <rect class="cls-1" x="19.82" y="-32.52" width="116.03" height="178.83"/>
    </clipPath>
  </defs>
  <g id="Capa_1-2" data-name="Capa 1">
    <g class="cls-6">
      <rect class="cls-5" x=".24" width="238.1" height="220.26" rx="25.06" ry="25.06"/>
      <rect class="cls-8" x=".02" width="238.1" height="220.26" rx="25.06" ry="25.06"/>
      <g class="cls-9">
        <g class="cls-12">
          <g class="cls-14">
            <g class="cls-11">
              <path class="cls-7" d="m14.61,243.03c6.21-5.25,12.72-10.2,18.56-15.82,13.14-12.64,23.94-27.01,29.76-44.5,4.26-12.82,2.4-15.42-10.17-15.94-7.78-.32-13.78,2.53-13.75,10.35.02,4.68-.07,7.31.94,11.92.97,4.42-4.93,4.83-9.23,4.3-11.49-1.41-21.19,5.37-23.75,16.59-1,4.39,2.39,7.68,6.65,5.9,8.95-3.73,17.7-7.94,26.53-11.96,1.2-.55,8.05-4.67,9.25-5.22.25.52-1.44,1.6-4.89,5.16-10.25,4.89-20.29,10.33-30.84,14.48-6.27,2.47-10.98-3.55-8.44-10.4,3.33-8.98,10.93-18.61,23.03-17.2,1.41.16,2.85.02,4.66.02-.91-3.79-1.73-7.15-2.52-10.51-2.37-10.09,6.16-22.28,16.17-23.13,12.28-1.03,22.5,11.24,19.5,23.34-3.09,12.46-9.93,23.01-17.47,33.07-8.87,11.84-18.92,22.57-32.33,29.56-.38.2-.81.3-1.22.44-.14-.15-.29-.31-.43-.46"/>
              <path class="cls-3" d="m14.61,243.03c6.21-5.25,12.72-10.2,18.56-15.82,13.14-12.64,23.94-27.01,29.76-44.5,4.26-12.82,2.4-15.42-10.17-15.94-7.78-.32-13.78,2.53-13.75,10.35.02,4.68-.07,7.31.94,11.92.97,4.42-4.93,4.83-9.23,4.3-11.49-1.41-21.19,5.37-23.75,16.59-1,4.39,2.39,7.68,6.65,5.9,8.95-3.73,17.7-7.94,26.53-11.96,1.2-.55,8.05-4.67,9.25-5.22.25.52-1.44,1.6-4.89,5.16-10.25,4.89-20.29,10.33-30.84,14.48-6.27,2.47-10.98-3.55-8.44-10.4,3.33-8.98,10.93-18.61,23.03-17.2,1.41.16,2.85.02,4.66.02-.91-3.79-1.73-7.15-2.52-10.51-2.37-10.09,6.16-22.28,16.17-23.13,12.28-1.03,22.5,11.24,19.5,23.34-3.09,12.46-9.93,23.01-17.47,33.07-8.87,11.84-18.92,22.57-32.33,29.56-.38.2-.81.3-1.22.44-.14-.15-.29-.31-.43-.46Z"/>
            </g>
          </g>
          <g class="cls-14">
            <g class="cls-10">
              <path class="cls-7" d="m142.34,140.78c10.42,7.54,10.65,14.15.64,21-15.99,10.94-29.42,12.18-49.27,5.23-3.76-1.32-7.07-2.02-11.02-4.41,4.21,1,8.9,2.76,11.02,3.19,17.58,6.23,30.78,4,45.49-4.87,2.05-1.24,3.98-2.77,5.43-4.48,4.59-5.41,3.04-9.6-4.48-12.75-1.76-.74-3.55-1.42-6.94-2.77,3.73-1.35,6.3-2.26,8.86-3.2,16.88-6.17,33.75-12.34,50.62-18.53.58-.21,1.08-.58,1.6-.9,4.47-2.76,9.06-6.34,6.77-11.12-2.19-4.57-8.3-5.39-14.24-5.47-20.56-.29-38.24,5.98-54.89,14.24-16.51,8.19-31.02,18.24-39.19,33.3-.14.25-.74.32-1.72.71,3.01-8.53,8.66-15.14,15.7-20.95,21.29-17.55,46.81-28.32,77.82-30.01,2.78-.15,5.69.38,8.52.79,5.4.77,10.72,2.94,11.2,7.52.36,3.45-1.45,8.22-4.45,10.24-7.08,4.76-15.08,8.84-23.39,12.08-11.92,4.65-23.46,7.73-34.07,11.15"/>
              <path class="cls-4" d="m142.34,140.78c10.42,7.54,10.65,14.15.64,21-15.99,10.94-29.42,12.18-49.27,5.23-3.76-1.32-7.07-2.02-11.02-4.41,4.21,1,8.9,2.76,11.02,3.19,17.58,6.23,30.78,4,45.49-4.87,2.05-1.24,3.98-2.77,5.43-4.48,4.59-5.41,3.04-9.6-4.48-12.75-1.76-.74-3.55-1.42-6.94-2.77,3.73-1.35,6.3-2.26,8.86-3.2,16.88-6.17,33.75-12.34,50.62-18.53.58-.21,1.08-.58,1.6-.9,4.47-2.76,9.06-6.34,6.77-11.12-2.19-4.57-8.3-5.39-14.24-5.47-20.56-.29-38.24,5.98-54.89,14.24-16.51,8.19-31.02,18.24-39.19,33.3-.14.25-.74.32-1.72.71,3.01-8.53,8.66-15.14,15.7-20.95,21.29-17.55,46.81-28.32,77.82-30.01,2.78-.15,5.69.38,8.52.79,5.4.77,10.72,2.94,11.2,7.52.36,3.45-1.45,8.22-4.45,10.24-7.08,4.76-15.08,8.84-23.39,12.08-11.92,4.65-23.46,7.73-34.07,11.15Z"/>
            </g>
          </g>
          <g class="cls-14">
            <g class="cls-13">
              <path class="cls-7" d="m92.71,121.4c2.2-5.73,7.03-12.46,10.03-17.78,12.96-22.96,22.21-47.25,23.01-74.28.56-18.78,1.77-25.14-15.49-37.63-3.55-2.57-2.71-2.11-7.06-3.92-6.05-2.52-7.29-4.23-11.49-2.95-4.26,1.3-7.86,5.58-8.35,7.16-1.93,6.13-3.18,6.74-5.06,14.66-3.32,14-5.57,34.83-1.07,49.86,1.76,5.86-1.69,14.77-3.82,20.56-2.48,6.75-9.98,9.53-13.01,10.86-18.58,8.14-35.22,54.06-26.61,53.06-1.8.21,12.54-.93,29.14-19.9.56.79,5.59-8.22,5.86-8.2,5.54-8.34-3.71,8.62-1.95,5.67-2.47,4.12-5.43,6.8-8.3,9.84,0,0-8.92,7.5-21.29,15.41-4.31,2.75-8.63.98-10-3.88-11.76-22.07,6.99-52.15,33.47-59.36,8.89-2.42,4.82-6.4,3.82-13.44-2.42-17.03-5.99-33.11-5.73-50.33.17-11.74,2.57-28.13,11.26-37.17,10.13-10.54,17.95-11.08,30.99-5.37,24,10.5,32.19,27.93,30.77,48.33-1.87,26.72-21.16,75-39.13,98.8"/>
              <path class="cls-2" d="m92.71,121.4c2.2-5.73,7.03-12.46,10.03-17.78,12.96-22.96,22.21-47.25,23.01-74.28.56-18.78,1.77-25.14-15.49-37.63-3.55-2.57-2.71-2.11-7.06-3.92-6.05-2.52-7.29-4.23-11.49-2.95-4.26,1.3-7.86,5.58-8.35,7.16-1.93,6.13-3.18,6.74-5.06,14.66-3.32,14-5.57,34.83-1.07,49.86,1.76,5.86-1.69,14.77-3.82,20.56-2.48,6.75-9.98,9.53-13.01,10.86-18.58,8.14-35.22,54.06-26.61,53.06-1.8.21,12.54-.93,29.14-19.9.56.79,5.59-8.22,5.86-8.2,5.54-8.34-3.71,8.62-1.95,5.67-2.47,4.12-5.43,6.8-8.3,9.84,0,0-8.92,7.5-21.29,15.41-4.31,2.75-8.63.98-10-3.88-11.76-22.07,6.99-52.15,33.47-59.36,8.89-2.42,4.82-6.4,3.82-13.44-2.42-17.03-5.99-33.11-5.73-50.33.17-11.74,2.57-28.13,11.26-37.17,10.13-10.54,17.95-11.08,30.99-5.37,24,10.5,32.19,27.93,30.77,48.33-1.87,26.72-21.16,75-39.13,98.8Z"/>
            </g>
          </g>
        </g>
      </g>
    </g>
  </g>
</svg>