<?xml version="1.0" encoding="UTF-8"?>
<svg id="Capa_2" data-name="Capa 2" xmlns="http://www.w3.org/2000/svg" xmlns:xlink="http://www.w3.org/1999/xlink" viewBox="0 0 708.43 56.76">
  <defs>
    <style>
      .cls-1 {
        fill: none;
      }

      .cls-2 {
        clip-path: url(#clippath);
      }

      .cls-3 {
        fill: #fffcf6;
      }

      .cls-4 {
        fill: #fcedc3;
      }

      .cls-5 {
        fill: #2f241d;
      }

      .cls-6 {
        clip-path: url(#clippath-1);
      }

      .cls-7 {
        opacity: .2;
      }
    </style>
    <clipPath id="clippath">
      <rect class="cls-1" width="708.43" height="56.76"/>
    </clipPath>
    <clipPath id="clippath-1">
      <rect class="cls-1" y="-63.7" width="708.43" height="291.97"/>
    </clipPath>
  </defs>
  <g id="Capa_1-2" data-name="Capa 1">
    <g class="cls-2">
      <g class="cls-6">
        <rect class="cls-5" y="-63.7" width="708.43" height="291.97"/>
        <rect class="cls-1" y="-63.7" width="708.43" height="291.97"/>
        <g>
          <path class="cls-3" d="m.74-16.66s0,0,0-.02c0,0,0-.01,0-.02h0c-3.15-7.04-7.97-12.61-14.43-16.66-6.53-4.1-14.62-6.08-24.14-6.08s-16.75,1.75-22.98,5.39h0s-.01,0-.02,0c0,0-.01,0-.02,0h0c-6.1,3.43-10.85,7.94-14.18,13.53-2.15,3.62-3.77,7.45-4.96,11.46-.69-2.55-1.5-5.05-2.56-7.41-3.14-7.03-7.88-12.6-14.18-16.66h0s0,0-.01,0c0,0-.01,0-.02-.01h0c-6.4-4.25-14.43-6.3-23.94-6.3s-16.69,1.68-22.79,5.18c-5.97,3.43-10.58,7.87-13.77,13.34-1.28,2.2-2.34,4.49-3.27,6.84v-23.23h-25.35v110.13h27.27V18.3c0-11.58,2.24-19.74,6.35-24.87h0s.02-.02.02-.02c3.96-5.08,11.11-7.91,22.18-7.91,9.97,0,16.57,2.3,20.39,6.36,3.86,4.11,6.03,11.04,6.03,21.33v59.64h27.05V18.3c0-11.58,2.24-19.73,6.35-24.87,4.11-5.11,11.29-7.94,22.2-7.94,10.13,0,16.79,2.3,20.6,6.36,3.86,4.11,6.03,11.04,6.03,21.33v59.64H5.61V7.01C5.61-1.76,4-9.66.73-16.65h0Z"/>
          <polygon class="cls-4" points="176.11 -74.15 172 -74.15 144.74 -74.15 143.61 -74.15 142.98 -73.23 101.86 -13.23 61.88 -13.23 61.88 -72.02 61.88 -74.15 59.75 -74.15 36.74 -74.15 34.61 -74.15 34.61 -72.02 34.61 70.7 34.61 72.83 36.74 72.83 59.75 72.83 61.88 72.83 61.88 70.7 61.88 13.18 102.29 13.18 142.77 71.91 143.4 72.83 144.52 72.83 171.79 72.83 175.84 72.83 173.55 69.49 124.75 -1.5 173.74 -70.79 176.11 -74.15"/>
        </g>
        <g class="cls-7">
          <path class="cls-3" d="m413.4-16.66s0,0,0-.02c0,0,0-.01,0-.02h0c-3.15-7.04-7.97-12.61-14.43-16.66-6.53-4.1-14.62-6.08-24.14-6.08s-16.75,1.75-22.98,5.39h0s-.01,0-.02,0c0,0-.01,0-.02,0h0c-6.1,3.43-10.85,7.94-14.18,13.53-2.15,3.62-3.77,7.45-4.96,11.46-.69-2.55-1.5-5.05-2.56-7.41-3.14-7.03-7.88-12.6-14.18-16.66h0s0,0-.01,0c0,0-.01,0-.02-.01h0c-6.4-4.25-14.43-6.3-23.94-6.3s-16.69,1.68-22.79,5.18c-5.97,3.43-10.58,7.87-13.77,13.34-1.28,2.2-2.34,4.49-3.27,6.84v-23.23h-25.35v110.13h27.27V18.3c0-11.58,2.24-19.74,6.35-24.87h0s.02-.02.02-.02c3.96-5.08,11.11-7.91,22.18-7.91,9.97,0,16.57,2.3,20.39,6.36,3.86,4.11,6.03,11.04,6.03,21.33v59.64h27.05V18.3c0-11.58,2.24-19.73,6.35-24.87,4.11-5.11,11.29-7.94,22.2-7.94,10.13,0,16.79,2.3,20.6,6.36,3.86,4.11,6.03,11.04,6.03,21.33v59.64h27.05V7.01c0-8.77-1.61-16.67-4.87-23.66h0Z"/>
          <polygon class="cls-4" points="588.78 -74.15 584.67 -74.15 557.4 -74.15 556.28 -74.15 555.64 -73.23 514.53 -13.23 474.54 -13.23 474.54 -72.02 474.54 -74.15 472.41 -74.15 449.41 -74.15 447.28 -74.15 447.28 -72.02 447.28 70.7 447.28 72.83 449.41 72.83 472.41 72.83 474.54 72.83 474.54 70.7 474.54 13.18 514.96 13.18 555.43 71.91 556.07 72.83 557.19 72.83 584.46 72.83 588.5 72.83 586.21 69.49 537.42 -1.5 586.41 -70.79 588.78 -74.15"/>
        </g>
        <path class="cls-3" d="m806.87-16.66s0,0,0-.02c0,0,0-.01,0-.02h0c-3.15-7.04-7.97-12.61-14.43-16.66-6.53-4.1-14.62-6.08-24.14-6.08s-16.75,1.75-22.98,5.39h0s-.01,0-.02,0c0,0-.01,0-.02,0h0c-6.1,3.43-10.85,7.94-14.18,13.53-2.15,3.62-3.77,7.45-4.96,11.46-.69-2.55-1.5-5.05-2.56-7.41-3.14-7.03-7.88-12.6-14.18-16.66h0s0,0-.01,0c0,0-.01,0-.02-.01h0c-6.4-4.25-14.43-6.3-23.94-6.3s-16.69,1.68-22.79,5.18c-5.97,3.43-10.58,7.87-13.77,13.34-1.28,2.2-2.34,4.49-3.27,6.84v-23.23h-25.35v110.13h27.27V18.3c0-11.58,2.24-19.74,6.35-24.87h0s.02-.02.02-.02c3.96-5.08,11.11-7.91,22.18-7.91,9.97,0,16.57,2.3,20.39,6.36,3.86,4.11,6.03,11.04,6.03,21.33v59.64h27.05V18.3c0-11.58,2.24-19.73,6.35-24.87,4.11-5.11,11.29-7.94,22.2-7.94,10.13,0,16.79,2.3,20.6,6.36,3.86,4.11,6.03,11.04,6.03,21.33v59.64h27.05V7.01c0-8.77-1.61-16.67-4.87-23.66h0Z"/>
      </g>
    </g>
  </g>
</svg>