<?xml version="1.0" encoding="UTF-8"?>
<svg id="Capa_2" data-name="Capa 2" xmlns="http://www.w3.org/2000/svg" xmlns:xlink="http://www.w3.org/1999/xlink" viewBox="0 0 708.43 56.76">
  <defs>
    <style>
      .cls-1 {
        fill: none;
      }

      .cls-2 {
        clip-path: url(#clippath);
      }

      .cls-3 {
        opacity: .1;
      }

      .cls-4 {
        fill: #fffcf6;
      }

      .cls-5 {
        clip-path: url(#clippath-1);
      }

      .cls-6 {
        fill: #4b1815;
        stroke: #4a1816;
        stroke-miterlimit: 10;
        stroke-width: .42px;
      }

      .cls-7 {
        opacity: .4;
      }

      .cls-8 {
        opacity: .6;
      }
    </style>
    <clipPath id="clippath">
      <rect class="cls-1" width="708.43" height="56.76"/>
    </clipPath>
    <clipPath id="clippath-1">
      <rect class="cls-1" width="708.43" height="291.97"/>
    </clipPath>
  </defs>
  <g id="Capa_1-2" data-name="Capa 1">
    <g class="cls-2">
      <g class="cls-5">
        <rect class="cls-6" width="708.43" height="291.97"/>
        <path class="cls-4" d="m378.02-66.46C413.83-47.66,435.8-25.58,443.93-.2c8.4,25.52,5.56,51.7-8.54,78.56-9.68,18.45-22.42,32.17-38.22,41.18-15.53,9.15-32.61,13.68-51.24,13.58-18.22-.22-36.55-5.17-55-14.86-6.51-3.42-13.14-7.59-19.9-12.52-6.61-5.2-13.14-11.22-19.58-18.06l9.64-9.47c-.96,7.11-3.12,15.49-6.46,25.16-2.93,9.53-6.48,19.26-10.65,29.18-3.76,9.79-7.7,18.62-11.83,26.49-9.97,18.99-22.2,31.08-36.69,36.28-14.22,5.34-30.42,3.24-48.59-6.3-13.83-7.26-22.98-16.21-27.43-26.85-4.04-10.77-3.69-24.6,1.02-41.5,4.99-16.76,14.11-37.75,27.35-62.98,17.94-34.18,35.28-62.27,52.02-84.28,17.01-21.86,33.23-37.92,48.64-48.17,15.41-10.25,34.28-14.88,56.6-13.89,22.32.99,46.63,8.39,72.94,22.2Zm-75.47,116.09c13.29,6.98,26.06,9.35,38.3,7.13,12.51-2.08,21.83-8.96,27.95-20.62,3.99-7.6,4.82-15.12,2.5-22.56-1.91-7.57-8.69-14.42-20.36-20.55-8.95-4.7-17.95-7-27-6.9-8.63-.03-16.55,1.87-23.75,5.7-6.93,3.97-12.18,9.35-15.73,16.13-3.84,7.32-4.47,14.78-1.88,22.37,3,7.46,9.66,13.89,19.97,19.31Z"/>
        <g class="cls-8">
          <path class="cls-4" d="m525.07-112.6c43.84-12.73,79-11.95,105.47,2.34,26.81,14.19,44.98,37.72,54.52,70.6,6.56,22.58,6.93,43.72,1.12,63.42-5.48,19.6-15.83,36.65-31.07,51.15-15,14.08-33.79,24.39-56.38,30.95-7.97,2.31-16.63,4.11-25.99,5.38-9.45.94-19.47,1.15-30.07.62l.43-15.25c4.78,6.54,9.59,15.04,14.43,25.52,5.08,10.05,9.8,20.74,14.17,32.08,4.61,10.91,8.31,21.18,11.1,30.81,6.75,23.25,6.26,42.66-1.47,58.22-7.39,15.47-22.22,26.44-44.47,32.89-16.94,4.92-31.38,4.79-43.33-.39-11.71-5.6-22.26-17.13-31.64-34.57-9.05-17.54-18.06-41.75-27.03-72.64-12.15-41.85-20.02-78.28-23.62-109.28-3.27-31.1-2.64-56.85,1.89-77.25,4.52-20.4,16.25-38.93,35.18-55.59,18.93-16.66,44.51-29.66,76.72-39.02Zm29.43,153.51c16.27-4.72,28.52-12.78,36.74-24.17,8.55-11.48,10.75-24.37,6.61-38.65-2.7-9.3-7.91-16.07-15.62-20.31-7.48-4.67-18.36-4.93-32.64-.79-10.96,3.18-20.08,8.35-27.37,15.51-7.05,6.73-12.01,14.47-14.87,23.22-2.53,8.66-2.59,17.14-.18,25.44,2.6,8.97,7.93,15.53,15.97,19.67,8.28,3.72,18.73,3.75,31.35.08Z"/>
        </g>
        <g class="cls-3">
          <path class="cls-4" d="m743.05,158.55c-28.86,16.35-53.84,21.69-74.96,16.04-21.33-5.53-38.12-19.12-50.39-40.77-8.42-14.87-12.23-29.75-11.43-44.64.58-14.77,5.05-28.56,13.38-41.37,8.24-12.47,19.8-22.91,34.67-31.33,5.25-2.97,11.07-5.69,17.47-8.16,6.52-2.25,13.57-4.08,21.15-5.48l2.25,10.85c-4.47-3.82-9.3-9.03-14.48-15.62-5.27-6.25-10.41-13.02-15.4-20.3-5.09-6.94-9.42-13.58-13.02-19.92-8.67-15.3-11.58-29.11-8.73-41.41,2.63-12.18,11.27-22.41,25.92-30.71,11.15-6.32,21.38-8.65,30.69-6.99,9.22,2,18.61,8.38,28.17,19.13,9.34,10.88,19.77,26.49,31.29,46.82,15.61,27.55,27.28,51.98,35.03,73.3,7.53,21.44,11.4,39.75,11.62,54.93.22,15.18-4.96,30.25-15.55,45.2-10.59,14.95-26.49,28.44-47.7,40.45Zm-46.55-103.59c-10.71,6.07-18.02,13.82-21.92,23.25-4.12,9.55-3.51,19.03,1.81,28.43,3.47,6.12,8.28,10.04,14.45,11.74,6.07,2.05,13.81.41,23.21-4.92,7.21-4.09,12.8-9.27,16.75-15.55,3.86-5.94,6.06-12.24,6.62-18.91.34-6.54-1.04-12.55-4.14-18.01-3.34-5.9-8.21-9.65-14.59-11.23-6.48-1.24-13.87.49-22.18,5.2Z"/>
        </g>
        <g class="cls-7">
          <path class="cls-4" d="m-131.94-62.18c3.42-32.99,13.56-56.45,30.41-70.36,16.88-14.17,37.69-19.97,62.43-17.4,17,1.76,31.33,7.29,43,16.58,11.69,9.04,20.34,20.68,25.94,34.9,5.38,13.95,7.18,29.42,5.42,46.41-.62,6-1.78,12.32-3.48,18.96-1.95,6.62-4.55,13.42-7.8,20.41l-10.15-4.46c5.71-1.43,12.75-2.34,21.13-2.74,8.15-.67,16.64-.93,25.47-.77,8.6-.12,16.53.2,23.77.95,17.5,1.81,30.43,7.45,38.79,16.9,8.39,9.21,11.72,22.18,9.99,38.93-1.32,12.75-5.36,22.43-12.11,29.06-6.97,6.35-17.61,10.3-31.92,11.85-14.28,1.3-33.04.74-56.29-1.67-31.49-3.26-58.17-7.92-80.02-13.98-21.83-6.3-38.99-13.77-51.49-22.39-12.5-8.62-21.76-21.58-27.8-38.88-6.04-17.3-7.8-38.07-5.29-62.31ZM-20.55-40.02c1.27-12.25-.81-22.69-6.23-31.34-5.39-8.9-13.46-13.9-24.21-15.01-7-.73-12.98.93-17.95,4.96-5.19,3.76-8.34,11.01-9.46,21.76-.85,8.25.13,15.8,2.96,22.66,2.6,6.59,6.46,12.04,11.57,16.36,5.14,4.07,10.83,6.43,17.08,7.08,6.75.7,12.62-1.09,17.61-5.37,4.77-4.56,7.64-11.59,8.63-21.08Z"/>
        </g>
      </g>
    </g>
  </g>
</svg>