<?xml version="1.0" encoding="UTF-8"?>
<svg id="Capa_2" data-name="Capa 2" xmlns="http://www.w3.org/2000/svg" xmlns:xlink="http://www.w3.org/1999/xlink" viewBox="0 0 708.43 222.57">
  <defs>
    <style>
      .cls-1 {
        fill: none;
      }

      .cls-2 {
        clip-path: url(#clippath);
      }

      .cls-3 {
        fill: #022f32;
      }

      .cls-4, .cls-5 {
        fill: #227b69;
      }

      .cls-5 {
        opacity: .2;
      }
    </style>
    <clipPath id="clippath">
      <rect class="cls-1" width="708.43" height="222.57"/>
    </clipPath>
  </defs>
  <g id="Capa_1-2" data-name="Capa 1">
    <g class="cls-2">
      <rect class="cls-3" x="-.02" y=".03" width="708.43" height="222.57"/>
      <path class="cls-5" d="m25.08-28.79c.21,1.84.55,3.67-.25,5.47-.25.58-.07,1.2.12,1.81.87,2.79,1.79,5.57,2.53,8.4.39,1.49,1.24,2.03,2.65,1.99.93-.02,1.86-.12,2.78-.07,1.96.11,3.25.98,3.89,2.99,1.29,4.11,2.84,8.14,4.73,12.02,1.38,2.82,2.03,3.15,4.77,1.69C51.39,2.8,56.44.05,61.76-2.13c5.76-2.35,11.6-4.53,17.42-6.73,2.25-.85,4.29-1.98,6.11-3.59,2.67-2.36,6.13-3.08,9.38-4.26,6.28-2.28,12.4-5.04,18.77-7.04,5.34-1.68,10.9-2.69,16.52-3.3,3.51-.38,6.89-1.54,10.22-2.72.97.43,1.75.01,2.59-.46,5.15-2.9,7.79-7.77,10.16-12.83,2.44-5.21,3.08-10.63,1.52-16.25-.82-2.95-.45-5.7,2.06-7.77,3.09-2.55,7.07-1.69,8.98,1.83,2.25,4.15,3.91,8.52,5.15,13.06,1.82,6.64,5.56,12.35,8.75,18.33,1.09,2.05,2.13,4.12,2.75,6.37.46,1.68-.01,2.78-1.85,3.33-3.72,1.1-7.54,1.43-11.36,1.78-10.4.96-20.39,3.35-29.22,9.08-8.44,5.47-17.34,9.78-27.08,12.32-1.2.31-2.4.71-3.62.8-3.78.25-6.91,1.78-9.78,4.2-2.93,2.47-6.31,4.26-9.87,5.76-1.43.6-2.43,2.02-3.7,2.99-3.59,2.75-7.16,5.55-10.44,8.69-.4.38-.89.79-.63,1.35.21.45.82.26,1.26.25,6.63-.25,13.14-1.44,19.7-2.29,6.09-.79,12.11-2.19,18.33-2,4,.12,6.66,1.96,8.44,5.45,3.08,6.04,4.61,12.6,6.46,19.05,2.26,7.88,5.06,15.56,8.34,23.07,1.71,3.92,3.44,7.92,6.48,10.98,1.85,1.86,3.95,3.4,4.96,5.94.23.58.78,1.14,1.39,1.13,2.43-.07,4.52,1.56,6.97,1.35,1.73-.15,3.04.21,3.21,2.34.07.93.67,1.82,1.82,1.75,2.46-.13,4.41,1.16,6.49,2.15,2.37,1.12,4.75,2.12,7.54,1.23,1.05-.34,2.32-.17,3.46,0,5.57.82,7.42,4.61,4.71,9.52-4.35,7.86-15.6,12.33-24.85,9.55-4.01-1.2-7.83-1.27-11.86-.38-3.29.73-6.64,1.45-10.1.67-5.93-1.35-8.56-5.34-7.27-11.26.46-2.11.82-4.25,1.42-6.33,1.25-4.34.35-8.24-2.14-11.88-4.76-6.95-9.11-14.19-14.44-20.73-4.08-5-6.13-10.86-7.39-17.05-.89-4.37-2.46-5.55-6.79-4.34-4.65,1.3-8.8,3.8-13.04,6.01-4.72,2.46-9.65,4.06-14.89,4.96-4.73.81-8.6,2.78-11.75,6.98-4.34,5.78-11.33,7.77-17.95,6-6.77-1.81-13.66-3.86-20.04-7.06-8.92-4.48-17.42-9.68-25.71-15.23-2.68-1.8-5.23-1.85-8.1-.65-3.06,1.27-6.17,2.49-9.44,3.17-3.82.79-5.66-.32-6.67-4.09-.91-3.38-1.02-6.88-1.18-10.34-.26-5.47-.65-10.97.22-16.41.67-4.19,2.92-7.28,7.08-8.69,1.56-.53,1.88-1.18.92-2.68C-21.73-.01-22.58-3.6-25.26-6.11c-.11-.1-.18-.26-.22-.41-1.54-6.27-3.85-12.46-1.42-19.07,1.21-3.29,3.06-6.01,5.75-8.25,7.16-5.94,19.35-1.66,22.61,7.52.74,2.1,1.53,4.19,1.53,6.49,0,.91-.18,1.55-1.18,1.62-1.58.11-1.81,1.1-1.72,2.42.21,2.85.16,5.73.61,8.54.43,2.72.12,5.21-.97,7.67-.41.93-.56,1.91-.64,2.93C-1.05,5.45-.01,6.53,1.98,6.82c2.38.35,4.76.6,7.17.47.45.28.87.72,1.35.81,2.98.57,5.73,1.81,8.55,2.84,1.57.57,3.23,1.24,4.46-.33,1.34-1.71-.53-2.61-1.37-3.64-3.34-4.13-3.42-4.28-.92-8.68.61-1.08.74-1.95-.2-2.88-1.24-1.23-1.61-2.77-1.4-4.46.21-1.74-.55-2.61-2.31-2.61-.84-.56-1.11-1.45-1.34-2.36-.79-3.13-.49-3.46,2.52-2.59,1.34.39,1.79.04,1.4-1.29-2.54-8.75-5.3-17.41-8.94-25.78-.59-1.37-1.76-2.11-3.06-2.68-1.13-.49-2.26-1-3.4-1.49-.39-.17-.68-.42-.52-.87.17-.49.58-.41.96-.3,1.04.32,2.07.64,3.1.98,1.56.53,2.13-.15,1.7-1.57-1.2-3.88-2.34-7.78-3.84-11.54-.91-2.29-1.4-4.68-2.18-6.99-5.06-15.03-9.96-30.11-14.98-45.15-.45-1.34-.06-2.58-.12-3.87,1.18-.38,2.36-.42,3.51.1-.39.75-.24,1.47.02,2.23C-.99-94.78,5.84-74.72,12.7-54.68c2.44,7.14,4.94,14.26,7.43,21.38.83,2.38,2.17,4.24,4.95,4.51ZM-6.96-108.33c-.22.06-.45.12-.67.18-.35,1.35.31,2.58.74,3.83.91,2.62,1.86,5.22,2.73,7.84,2.27,6.86,4.57,13.72,6.75,20.6,2.63,8.3,5.81,16.41,7.93,24.87.33,1.33,1.31,2.44,2.43,3.3.24-.1.48-.21.71-.31C6.79-68.12-.08-88.23-6.96-108.33ZM28.03,1.88c.03-2.29-.46-2.95-2.22-2.95-2.51,0-4.73,1.66-4.7,3.5.02,1.21,2.92,4.43,3.96,4.41,1.57-.04,2.92-2.3,2.95-4.96Zm-11.58-36.53c.25,1.75.84,3.47,1.9,5,.26.38.63.77,1.13.54.57-.25.37-.8.22-1.2-.59-1.64-1.48-3.18-1.66-4.96-.05-.47-.45-.88-.97-.78-.7.13-.6.77-.62,1.39Z"/>
      <path class="cls-4" d="m-28.86,184.74c.21,1.84.55,3.67-.25,5.47-.25.58-.07,1.2.12,1.81.87,2.79,1.79,5.57,2.53,8.4.39,1.49,1.24,2.03,2.65,1.99.93-.02,1.86-.12,2.78-.07,1.96.11,3.25.98,3.89,2.99,1.29,4.11,2.84,8.14,4.73,12.02,1.38,2.82,2.03,3.15,4.77,1.69,5.07-2.71,10.12-5.46,15.45-7.63,5.76-2.35,11.6-4.53,17.42-6.73,2.25-.85,4.29-1.98,6.11-3.59,2.67-2.36,6.13-3.08,9.38-4.26,6.28-2.28,12.4-5.04,18.77-7.04,5.34-1.68,10.9-2.69,16.52-3.3,3.51-.38,6.89-1.54,10.22-2.72.97.43,1.75.01,2.59-.46,5.15-2.9,7.79-7.77,10.16-12.83,2.44-5.21,3.08-10.63,1.52-16.25-.82-2.95-.45-5.7,2.06-7.77,3.09-2.55,7.07-1.69,8.98,1.83,2.25,4.15,3.91,8.52,5.15,13.06,1.82,6.64,5.56,12.35,8.75,18.33,1.09,2.05,2.13,4.12,2.75,6.37.46,1.68-.01,2.78-1.85,3.33-3.72,1.1-7.54,1.43-11.36,1.78-10.4.96-20.39,3.35-29.22,9.08-8.44,5.47-17.34,9.78-27.08,12.32-1.2.31-2.4.71-3.62.8-3.78.25-6.91,1.78-9.78,4.2-2.93,2.47-6.31,4.26-9.87,5.76-1.43.6-2.43,2.02-3.7,2.99-3.59,2.75-7.16,5.55-10.44,8.69-.4.38-.89.79-.63,1.35.21.45.82.26,1.26.25,6.63-.25,13.14-1.44,19.7-2.29,6.09-.79,12.11-2.19,18.33-2,4,.12,6.66,1.96,8.44,5.45,3.08,6.04,4.61,12.6,6.46,19.05,2.26,7.88,5.06,15.56,8.34,23.07,1.71,3.92,3.44,7.92,6.48,10.98,1.85,1.86,3.95,3.4,4.96,5.94.23.58.78,1.14,1.39,1.13,2.43-.07,4.52,1.56,6.97,1.35,1.73-.15,3.04.21,3.21,2.34.07.93.67,1.82,1.82,1.75,2.46-.13,4.41,1.16,6.49,2.15,2.37,1.12,4.75,2.12,7.54,1.23,1.05-.34,2.32-.17,3.46,0,5.57.82,7.42,4.61,4.71,9.52-4.35,7.86-15.6,12.33-24.85,9.55-4.01-1.2-7.83-1.27-11.86-.38-3.29.73-6.64,1.45-10.1.67-5.93-1.35-8.56-5.34-7.27-11.26.46-2.11.82-4.25,1.42-6.33,1.25-4.34.35-8.24-2.14-11.88-4.76-6.95-9.11-14.19-14.44-20.73-4.08-5-6.13-10.86-7.39-17.05-.89-4.37-2.46-5.55-6.79-4.34-4.65,1.3-8.8,3.8-13.04,6.01-4.72,2.46-9.65,4.06-14.89,4.96-4.73.81-8.6,2.78-11.75,6.98-4.34,5.78-11.33,7.77-17.95,6-6.77-1.81-13.66-3.86-20.04-7.06-8.92-4.48-17.42-9.68-25.71-15.23-2.68-1.8-5.23-1.85-8.1-.65-3.06,1.27-6.17,2.49-9.44,3.17-3.82.79-5.66-.32-6.67-4.09-.91-3.38-1.02-6.88-1.18-10.34-.26-5.47-.65-10.97.22-16.41.67-4.19,2.92-7.28,7.08-8.69,1.56-.53,1.88-1.18.92-2.68-1.9-2.96-2.75-6.55-5.43-9.06-.11-.1-.18-.26-.22-.41-1.54-6.27-3.85-12.46-1.42-19.07,1.21-3.29,3.06-6.01,5.75-8.25,7.16-5.94,19.35-1.66,22.61,7.52.74,2.1,1.53,4.19,1.53,6.49,0,.91-.18,1.55-1.18,1.62-1.58.11-1.81,1.1-1.72,2.42.21,2.85.16,5.73.61,8.54.43,2.72.12,5.21-.97,7.67-.41.93-.56,1.91-.64,2.93-.15,2.11.88,3.18,2.87,3.47,2.38.35,4.76.6,7.17.47.45.28.87.72,1.35.81,2.98.57,5.73,1.81,8.55,2.84,1.57.57,3.23,1.24,4.46-.33,1.34-1.71-.53-2.61-1.37-3.64-3.34-4.13-3.42-4.28-.92-8.68.61-1.08.74-1.95-.2-2.88-1.24-1.23-1.61-2.77-1.4-4.46.21-1.74-.55-2.61-2.31-2.61-.84-.56-1.11-1.45-1.34-2.36-.79-3.13-.49-3.46,2.52-2.59,1.34.39,1.79.04,1.4-1.29-2.54-8.75-5.3-17.41-8.94-25.78-.59-1.37-1.76-2.11-3.06-2.68-1.13-.49-2.26-1-3.4-1.49-.39-.17-.68-.42-.52-.87.17-.49.58-.41.96-.3,1.04.32,2.07.64,3.1.98,1.56.53,2.13-.15,1.7-1.57-1.2-3.88-2.34-7.78-3.84-11.54-.91-2.29-1.4-4.68-2.18-6.99-5.06-15.03-9.96-30.11-14.98-45.15-.45-1.34-.06-2.58-.12-3.87,1.18-.38,2.36-.42,3.51.1-.39.75-.24,1.47.02,2.23,6.86,20.04,13.69,40.1,20.55,60.14,2.44,7.14,4.94,14.26,7.43,21.38.83,2.38,2.17,4.24,4.95,4.51Zm-32.03-79.54c-.22.06-.45.12-.67.18-.35,1.35.31,2.58.74,3.83.91,2.62,1.86,5.22,2.73,7.84,2.27,6.86,4.57,13.72,6.75,20.6,2.63,8.3,5.81,16.41,7.93,24.87.33,1.33,1.31,2.44,2.43,3.3.24-.1.48-.21.71-.31-6.87-20.1-13.75-40.21-20.62-60.31Zm34.99,110.22c.03-2.29-.46-2.95-2.22-2.95-2.51,0-4.73,1.66-4.7,3.5.02,1.21,2.92,4.43,3.96,4.41,1.57-.04,2.92-2.3,2.95-4.96Zm-11.58-36.53c.25,1.75.84,3.47,1.9,5,.26.38.63.77,1.13.54.57-.25.37-.8.22-1.2-.59-1.64-1.48-3.18-1.66-4.96-.05-.47-.45-.88-.97-.78-.7.13-.6.77-.62,1.39Z"/>
      <path class="cls-4" d="m323.87,69.47c.21,1.84.55,3.67-.25,5.47-.25.58-.07,1.2.12,1.81.87,2.79,1.79,5.57,2.53,8.4.39,1.49,1.24,2.03,2.65,1.99.93-.02,1.86-.12,2.78-.07,1.96.11,3.25.98,3.89,2.99,1.29,4.11,2.84,8.14,4.73,12.02,1.38,2.82,2.03,3.15,4.77,1.69,5.07-2.71,10.12-5.46,15.45-7.63,5.76-2.35,11.6-4.53,17.42-6.73,2.25-.85,4.29-1.98,6.11-3.59,2.67-2.36,6.13-3.08,9.38-4.26,6.28-2.28,12.4-5.04,18.77-7.04,5.34-1.68,10.9-2.69,16.52-3.3,3.51-.38,6.89-1.54,10.22-2.72.97.43,1.75.01,2.59-.46,5.15-2.9,7.79-7.77,10.16-12.83,2.44-5.21,3.08-10.63,1.52-16.25-.82-2.95-.45-5.7,2.06-7.77,3.09-2.55,7.07-1.69,8.98,1.83,2.25,4.15,3.91,8.52,5.15,13.06,1.82,6.64,5.56,12.35,8.75,18.33,1.09,2.05,2.13,4.12,2.75,6.37.46,1.68-.01,2.78-1.85,3.33-3.72,1.1-7.54,1.43-11.36,1.78-10.4.96-20.39,3.35-29.22,9.08-8.44,5.47-17.34,9.78-27.08,12.32-1.2.31-2.4.71-3.62.8-3.78.25-6.91,1.78-9.78,4.2-2.93,2.47-6.31,4.26-9.87,5.76-1.43.6-2.43,2.02-3.7,2.99-3.59,2.75-7.16,5.55-10.44,8.69-.4.38-.89.79-.63,1.35.21.45.82.26,1.26.25,6.63-.25,13.14-1.44,19.7-2.29,6.09-.79,12.11-2.19,18.33-2,4,.12,6.66,1.96,8.44,5.45,3.08,6.04,4.61,12.6,6.46,19.05,2.26,7.88,5.06,15.56,8.34,23.07,1.71,3.92,3.44,7.92,6.48,10.98,1.85,1.86,3.95,3.4,4.96,5.94.23.58.78,1.14,1.39,1.13,2.43-.07,4.52,1.56,6.97,1.35,1.73-.15,3.04.21,3.21,2.34.07.93.67,1.82,1.82,1.75,2.46-.13,4.41,1.16,6.49,2.15,2.37,1.12,4.75,2.12,7.54,1.23,1.05-.34,2.32-.17,3.46,0,5.57.82,7.42,4.61,4.71,9.52-4.35,7.86-15.6,12.33-24.85,9.55-4.01-1.2-7.83-1.27-11.86-.38-3.29.73-6.64,1.45-10.1.67-5.93-1.35-8.56-5.34-7.27-11.26.46-2.11.82-4.25,1.42-6.33,1.25-4.34.35-8.24-2.14-11.88-4.76-6.95-9.11-14.19-14.44-20.73-4.08-5-6.13-10.86-7.39-17.05-.89-4.37-2.46-5.55-6.79-4.34-4.65,1.3-8.8,3.8-13.04,6.01-4.72,2.46-9.65,4.06-14.89,4.96-4.73.81-8.6,2.78-11.75,6.98-4.34,5.78-11.33,7.77-17.95,6-6.77-1.81-13.66-3.86-20.04-7.06-8.92-4.48-17.42-9.68-25.71-15.23-2.68-1.8-5.23-1.85-8.1-.65-3.06,1.27-6.17,2.49-9.44,3.17-3.82.79-5.66-.32-6.67-4.09-.91-3.38-1.02-6.88-1.18-10.34-.26-5.47-.65-10.97.22-16.41.67-4.19,2.92-7.28,7.08-8.69,1.56-.53,1.88-1.18.92-2.68-1.9-2.96-2.75-6.55-5.43-9.06-.11-.1-.18-.26-.22-.41-1.54-6.27-3.85-12.46-1.42-19.07,1.21-3.29,3.06-6.01,5.75-8.25,7.16-5.94,19.35-1.66,22.61,7.52.74,2.1,1.53,4.19,1.53,6.49,0,.91-.18,1.55-1.18,1.62-1.58.11-1.81,1.1-1.72,2.42.21,2.85.16,5.73.61,8.54.43,2.72.12,5.21-.97,7.67-.41.93-.56,1.91-.64,2.93-.15,2.11.88,3.18,2.87,3.47,2.38.35,4.76.6,7.17.47.45.28.87.72,1.35.81,2.98.57,5.73,1.81,8.55,2.84,1.57.57,3.23,1.24,4.46-.33,1.34-1.71-.53-2.61-1.37-3.64-3.34-4.13-3.42-4.28-.92-8.68.61-1.08.74-1.95-.2-2.88-1.24-1.23-1.61-2.77-1.4-4.46.21-1.74-.55-2.61-2.31-2.61-.84-.56-1.11-1.45-1.34-2.36-.79-3.13-.49-3.46,2.52-2.59,1.34.39,1.79.04,1.4-1.29-2.54-8.75-5.3-17.41-8.94-25.78-.59-1.37-1.76-2.11-3.06-2.68-1.13-.49-2.26-1-3.4-1.49-.39-.17-.68-.42-.52-.87.17-.49.58-.41.96-.3,1.04.32,2.07.64,3.1.98,1.56.53,2.13-.15,1.7-1.57-1.2-3.88-2.34-7.78-3.84-11.54-.91-2.29-1.4-4.68-2.18-6.99-5.06-15.03-9.96-30.11-14.98-45.15-.45-1.34-.06-2.58-.12-3.87,1.18-.38,2.36-.42,3.51.1-.39.75-.24,1.47.02,2.23,6.86,20.04,13.69,40.1,20.55,60.14,2.44,7.14,4.94,14.26,7.43,21.38.83,2.38,2.17,4.24,4.95,4.51Zm-32.03-79.54c-.22.06-.45.12-.67.18-.35,1.35.31,2.58.74,3.83.91,2.62,1.86,5.22,2.73,7.84,2.27,6.86,4.57,13.72,6.75,20.6,2.63,8.3,5.81,16.41,7.93,24.87.33,1.33,1.31,2.44,2.43,3.3.24-.1.48-.21.71-.31-6.87-20.1-13.75-40.21-20.62-60.31Zm34.99,110.22c.03-2.29-.46-2.95-2.22-2.95-2.51,0-4.73,1.66-4.7,3.5.02,1.21,2.92,4.43,3.96,4.41,1.57-.04,2.92-2.3,2.95-4.96Zm-11.58-36.53c.25,1.75.84,3.47,1.9,5,.26.38.63.77,1.13.54.57-.25.37-.8.22-1.2-.59-1.64-1.48-3.18-1.66-4.96-.05-.47-.45-.88-.97-.78-.7.13-.6.77-.62,1.39Z"/>
      <path class="cls-5" d="m605.93,30.29c.21,1.84.55,3.67-.25,5.47-.25.58-.07,1.2.12,1.81.87,2.79,1.79,5.57,2.53,8.4.39,1.49,1.24,2.03,2.65,1.99.93-.02,1.86-.12,2.78-.07,1.96.11,3.25.98,3.89,2.99,1.29,4.11,2.84,8.14,4.73,12.02,1.38,2.82,2.03,3.15,4.77,1.69,5.07-2.71,10.12-5.46,15.45-7.63,5.76-2.35,11.6-4.53,17.42-6.73,2.25-.85,4.29-1.98,6.11-3.59,2.67-2.36,6.13-3.08,9.38-4.26,6.28-2.28,12.4-5.04,18.77-7.04,5.34-1.68,10.9-2.69,16.52-3.3,3.51-.38,6.89-1.54,10.22-2.72.97.43,1.75.01,2.59-.46,5.15-2.9,7.79-7.77,10.16-12.83,2.44-5.21,3.08-10.63,1.52-16.25-.82-2.95-.45-5.7,2.06-7.77,3.09-2.55,7.07-1.69,8.98,1.83,2.25,4.15,3.91,8.52,5.15,13.06,1.82,6.64,5.56,12.35,8.75,18.33,1.09,2.05,2.13,4.12,2.75,6.37.46,1.68-.01,2.78-1.85,3.33-3.72,1.1-7.54,1.43-11.36,1.78-10.4.96-20.39,3.35-29.22,9.08-8.44,5.47-17.34,9.78-27.08,12.32-1.2.31-2.4.71-3.62.8-3.78.25-6.91,1.78-9.78,4.2-2.93,2.47-6.31,4.26-9.87,5.76-1.43.6-2.43,2.02-3.7,2.99-3.59,2.75-7.16,5.55-10.44,8.69-.4.38-.89.79-.63,1.35.21.45.82.26,1.26.25,6.63-.25,13.14-1.44,19.7-2.29,6.09-.79,12.11-2.19,18.33-2,4,.12,6.66,1.96,8.44,5.45,3.08,6.04,4.61,12.6,6.46,19.05,2.26,7.88,5.06,15.56,8.34,23.07,1.71,3.92,3.44,7.92,6.48,10.98,1.85,1.86,3.95,3.4,4.96,5.94.23.58.78,1.14,1.39,1.13,2.43-.07,4.52,1.56,6.97,1.35,1.73-.15,3.04.21,3.21,2.34.07.93.67,1.82,1.82,1.75,2.46-.13,4.41,1.16,6.49,2.15,2.37,1.12,4.75,2.12,7.54,1.23,1.05-.34,2.32-.17,3.46,0,5.57.82,7.42,4.61,4.71,9.52-4.35,7.86-15.6,12.33-24.85,9.55-4.01-1.2-7.83-1.27-11.86-.38-3.29.73-6.64,1.45-10.1.67-5.93-1.35-8.56-5.34-7.27-11.26.46-2.11.82-4.25,1.42-6.33,1.25-4.34.35-8.24-2.14-11.88-4.76-6.95-9.11-14.19-14.44-20.73-4.08-5-6.13-10.86-7.39-17.05-.89-4.37-2.46-5.55-6.79-4.34-4.65,1.3-8.8,3.8-13.04,6.01-4.72,2.46-9.65,4.06-14.89,4.96-4.73.81-8.6,2.78-11.75,6.98-4.34,5.78-11.33,7.77-17.95,6-6.77-1.81-13.66-3.86-20.04-7.06-8.92-4.48-17.42-9.68-25.71-15.23-2.68-1.8-5.23-1.85-8.1-.65-3.06,1.27-6.17,2.49-9.44,3.17-3.82.79-5.66-.32-6.67-4.09-.91-3.38-1.02-6.88-1.18-10.34-.26-5.47-.65-10.97.22-16.41.67-4.19,2.92-7.28,7.08-8.69,1.56-.53,1.88-1.18.92-2.68-1.9-2.96-2.75-6.55-5.43-9.06-.11-.1-.18-.26-.22-.41-1.54-6.27-3.85-12.46-1.42-19.07,1.21-3.29,3.06-6.01,5.75-8.25,7.16-5.94,19.35-1.66,22.61,7.52.74,2.1,1.53,4.19,1.53,6.49,0,.91-.18,1.55-1.18,1.62-1.58.11-1.81,1.1-1.72,2.42.21,2.85.16,5.73.61,8.54.43,2.72.12,5.21-.97,7.67-.41.93-.56,1.91-.64,2.93-.15,2.11.88,3.18,2.87,3.47,2.38.35,4.76.6,7.17.47.45.28.87.72,1.35.81,2.98.57,5.73,1.81,8.55,2.84,1.57.57,3.23,1.24,4.46-.33,1.34-1.71-.53-2.61-1.37-3.64-3.34-4.13-3.42-4.28-.92-8.68.61-1.08.74-1.95-.2-2.88-1.24-1.23-1.61-2.77-1.4-4.46.21-1.74-.55-2.61-2.31-2.61-.84-.56-1.11-1.45-1.34-2.36-.79-3.13-.49-3.46,2.52-2.59,1.34.39,1.79.04,1.4-1.29-2.54-8.75-5.3-17.41-8.94-25.78-.59-1.37-1.76-2.11-3.06-2.68-1.13-.49-2.26-1-3.4-1.49-.39-.17-.68-.42-.52-.87.17-.49.58-.41.96-.3,1.04.32,2.07.64,3.1.98,1.56.53,2.13-.15,1.7-1.57-1.2-3.88-2.34-7.78-3.84-11.54-.91-2.29-1.4-4.68-2.18-6.99-5.06-15.03-9.96-30.11-14.98-45.15-.45-1.34-.06-2.58-.12-3.87,1.18-.38,2.36-.42,3.51.1-.39.75-.24,1.47.02,2.23,6.86,20.04,13.69,40.1,20.55,60.14,2.44,7.14,4.94,14.26,7.43,21.38.83,2.38,2.17,4.24,4.95,4.51Zm-32.03-79.54c-.22.06-.45.12-.67.18-.35,1.35.31,2.58.74,3.83.91,2.62,1.86,5.22,2.73,7.84,2.27,6.86,4.57,13.72,6.75,20.6,2.63,8.3,5.81,16.41,7.93,24.87.33,1.33,1.31,2.44,2.43,3.3.24-.1.48-.21.71-.31-6.87-20.1-13.75-40.21-20.62-60.31Zm34.99,110.22c.03-2.29-.46-2.95-2.22-2.95-2.51,0-4.73,1.66-4.7,3.5.02,1.21,2.92,4.43,3.96,4.41,1.57-.04,2.92-2.3,2.95-4.96Zm-11.58-36.53c.25,1.75.84,3.47,1.9,5,.26.38.63.77,1.13.54.57-.25.37-.8.22-1.2-.59-1.64-1.48-3.18-1.66-4.96-.05-.47-.45-.88-.97-.78-.7.13-.6.77-.62,1.39Z"/>
      <path class="cls-4" d="m548.52,208.97c.21,1.84.55,3.67-.25,5.47-.25.58-.07,1.2.12,1.81.87,2.79,1.79,5.57,2.53,8.4.39,1.49,1.24,2.03,2.65,1.99.93-.02,1.86-.12,2.78-.07,1.96.11,3.25.98,3.89,2.99,1.29,4.11,2.84,8.14,4.73,12.02,1.38,2.82,2.03,3.15,4.77,1.69,5.07-2.71,10.12-5.46,15.45-7.63,5.76-2.35,11.6-4.53,17.42-6.73,2.25-.85,4.29-1.98,6.11-3.59,2.67-2.36,6.13-3.08,9.38-4.26,6.28-2.28,12.4-5.04,18.77-7.04,5.34-1.68,10.9-2.69,16.52-3.3,3.51-.38,6.89-1.54,10.22-2.72.97.43,1.75.01,2.59-.46,5.15-2.9,7.79-7.77,10.16-12.83,2.44-5.21,3.08-10.63,1.52-16.25-.82-2.95-.45-5.7,2.06-7.77,3.09-2.55,7.07-1.69,8.98,1.83,2.25,4.15,3.91,8.52,5.15,13.06,1.82,6.64,5.56,12.35,8.75,18.33,1.09,2.05,2.13,4.12,2.75,6.37.46,1.68-.01,2.78-1.85,3.33-3.72,1.1-7.54,1.43-11.36,1.78-10.4.96-20.39,3.35-29.22,9.08-8.44,5.47-17.34,9.78-27.08,12.32-1.2.31-2.4.71-3.62.8-3.78.25-6.91,1.78-9.78,4.2-2.93,2.47-6.31,4.26-9.87,5.76-1.43.6-2.43,2.02-3.7,2.99-3.59,2.75-7.16,5.55-10.44,8.69-.4.38-.89.79-.63,1.35.21.45.82.26,1.26.25,6.63-.25,13.14-1.44,19.7-2.29,6.09-.79,12.11-2.19,18.33-2,4,.12,6.66,1.96,8.44,5.45,3.08,6.04,4.61,12.6,6.46,19.05,2.26,7.88,5.06,15.56,8.34,23.07,1.71,3.92,3.44,7.92,6.48,10.98,1.85,1.86,3.95,3.4,4.96,5.94.23.58.78,1.14,1.39,1.13,2.43-.07,4.52,1.56,6.97,1.35,1.73-.15,3.04.21,3.21,2.34.07.93.67,1.82,1.82,1.75,2.46-.13,4.41,1.16,6.49,2.15,2.37,1.12,4.75,2.12,7.54,1.23,1.05-.34,2.32-.17,3.46,0,5.57.82,7.42,4.61,4.71,9.52-4.35,7.86-15.6,12.33-24.85,9.55-4.01-1.2-7.83-1.27-11.86-.38-3.29.73-6.64,1.45-10.1.67-5.93-1.35-8.56-5.34-7.27-11.26.46-2.11.82-4.25,1.42-6.33,1.25-4.34.35-8.24-2.14-11.88-4.76-6.95-9.11-14.19-14.44-20.73-4.08-5-6.13-10.86-7.39-17.05-.89-4.37-2.46-5.55-6.79-4.34-4.65,1.3-8.8,3.8-13.04,6.01-4.72,2.46-9.65,4.06-14.89,4.96-4.73.81-8.6,2.78-11.75,6.98-4.34,5.78-11.33,7.77-17.95,6-6.77-1.81-13.66-3.86-20.04-7.06-8.92-4.48-17.42-9.68-25.71-15.23-2.68-1.8-5.23-1.85-8.1-.65-3.06,1.27-6.17,2.49-9.44,3.17-3.82.79-5.66-.32-6.67-4.09-.91-3.38-1.02-6.88-1.18-10.34-.26-5.47-.65-10.97.22-16.41.67-4.19,2.92-7.28,7.08-8.69,1.56-.53,1.88-1.18.92-2.68-1.9-2.96-2.75-6.55-5.43-9.06-.11-.1-.18-.26-.22-.41-1.54-6.27-3.85-12.46-1.42-19.07,1.21-3.29,3.06-6.01,5.75-8.25,7.16-5.94,19.35-1.66,22.61,7.52.74,2.1,1.53,4.19,1.53,6.49,0,.91-.18,1.55-1.18,1.62-1.58.11-1.81,1.1-1.72,2.42.21,2.85.16,5.73.61,8.54.43,2.72.12,5.21-.97,7.67-.41.93-.56,1.91-.64,2.93-.15,2.11.88,3.18,2.87,3.47,2.38.35,4.76.6,7.17.47.45.28.87.72,1.35.81,2.98.57,5.73,1.81,8.55,2.84,1.57.57,3.23,1.24,4.46-.33,1.34-1.71-.53-2.61-1.37-3.64-3.34-4.13-3.42-4.28-.92-8.68.61-1.08.74-1.95-.2-2.88-1.24-1.23-1.61-2.77-1.4-4.46.21-1.74-.55-2.61-2.31-2.61-.84-.56-1.11-1.45-1.34-2.36-.79-3.13-.49-3.46,2.52-2.59,1.34.39,1.79.04,1.4-1.29-2.54-8.75-5.3-17.41-8.94-25.78-.59-1.37-1.76-2.11-3.06-2.68-1.13-.49-2.26-1-3.4-1.49-.39-.17-.68-.42-.52-.87.17-.49.58-.41.96-.3,1.04.32,2.07.64,3.1.98,1.56.53,2.13-.15,1.7-1.57-1.2-3.88-2.34-7.78-3.84-11.54-.91-2.29-1.4-4.68-2.18-6.99-5.06-15.03-9.96-30.11-14.98-45.15-.45-1.34-.06-2.58-.12-3.87,1.18-.38,2.36-.42,3.51.1-.39.75-.24,1.47.02,2.23,6.86,20.04,13.69,40.1,20.55,60.14,2.44,7.14,4.94,14.26,7.43,21.38.83,2.38,2.17,4.24,4.95,4.51Zm-32.03-79.54c-.22.06-.45.12-.67.18-.35,1.35.31,2.58.74,3.83.91,2.62,1.86,5.22,2.73,7.84,2.27,6.86,4.57,13.72,6.75,20.6,2.63,8.3,5.81,16.41,7.93,24.87.33,1.33,1.31,2.44,2.43,3.3.24-.1.48-.21.71-.31-6.87-20.1-13.75-40.21-20.62-60.31Zm34.99,110.22c.03-2.29-.46-2.95-2.22-2.95-2.51,0-4.73,1.66-4.7,3.5.02,1.21,2.92,4.43,3.96,4.41,1.57-.04,2.92-2.3,2.95-4.96Zm-11.58-36.53c.25,1.75.84,3.47,1.9,5,.26.38.63.77,1.13.54.57-.25.37-.8.22-1.2-.59-1.64-1.48-3.18-1.66-4.96-.05-.47-.45-.88-.97-.78-.7.13-.6.77-.62,1.39Z"/>
      <path class="cls-5" d="m234.95,235.07c.21,1.84.55,3.67-.25,5.47-.25.58-.07,1.2.12,1.81.87,2.79,1.79,5.57,2.53,8.4.39,1.49,1.24,2.03,2.65,1.99.93-.02,1.86-.12,2.78-.07,1.96.11,3.25.98,3.89,2.99,1.29,4.11,2.84,8.14,4.73,12.02,1.38,2.82,2.03,3.15,4.77,1.69,5.07-2.71,10.12-5.46,15.45-7.63,5.76-2.35,11.6-4.53,17.42-6.73,2.25-.85,4.29-1.98,6.11-3.59,2.67-2.36,6.13-3.08,9.38-4.26,6.28-2.28,12.4-5.04,18.77-7.04,5.34-1.68,10.9-2.69,16.52-3.3,3.51-.38,6.89-1.54,10.22-2.72.97.43,1.75.01,2.59-.46,5.15-2.9,7.79-7.77,10.16-12.83,2.44-5.21,3.08-10.63,1.52-16.25-.82-2.95-.45-5.7,2.06-7.77,3.09-2.55,7.07-1.69,8.98,1.83,2.25,4.15,3.91,8.52,5.15,13.06,1.82,6.64,5.56,12.35,8.75,18.33,1.09,2.05,2.13,4.12,2.75,6.37.46,1.68-.01,2.78-1.85,3.33-3.72,1.1-7.54,1.43-11.36,1.78-10.4.96-20.39,3.35-29.22,9.08-8.44,5.47-17.34,9.78-27.08,12.32-1.2.31-2.4.71-3.62.8-3.78.25-6.91,1.78-9.78,4.2-2.93,2.47-6.31,4.26-9.87,5.76-1.43.6-2.43,2.02-3.7,2.99-3.59,2.75-7.16,5.55-10.44,8.69-.4.38-.89.79-.63,1.35.21.45.82.26,1.26.25,6.63-.25,13.14-1.44,19.7-2.29,6.09-.79,12.11-2.19,18.33-2,4,.12,6.66,1.96,8.44,5.45,3.08,6.04,4.61,12.6,6.46,19.05,2.26,7.88,5.06,15.56,8.34,23.07,1.71,3.92,3.44,7.92,6.48,10.98,1.85,1.86,3.95,3.4,4.96,5.94.23.58.78,1.14,1.39,1.13,2.43-.07,4.52,1.56,6.97,1.35,1.73-.15,3.04.21,3.21,2.34.07.93.67,1.82,1.82,1.75,2.46-.13,4.41,1.16,6.49,2.15,2.37,1.12,4.75,2.12,7.54,1.23,1.05-.34,2.32-.17,3.46,0,5.57.82,7.42,4.61,4.71,9.52-4.35,7.86-15.6,12.33-24.85,9.55-4.01-1.2-7.83-1.27-11.86-.38-3.29.73-6.64,1.45-10.1.67-5.93-1.35-8.56-5.34-7.27-11.26.46-2.11.82-4.25,1.42-6.33,1.25-4.34.35-8.24-2.14-11.88-4.76-6.95-9.11-14.19-14.44-20.73-4.08-5-6.13-10.86-7.39-17.05-.89-4.37-2.46-5.55-6.79-4.34-4.65,1.3-8.8,3.8-13.04,6.01-4.72,2.46-9.65,4.06-14.89,4.96-4.73.81-8.6,2.78-11.75,6.98-4.34,5.78-11.33,7.77-17.95,6-6.77-1.81-13.66-3.86-20.04-7.06-8.92-4.48-17.42-9.68-25.71-15.23-2.68-1.8-5.23-1.85-8.1-.65-3.06,1.27-6.17,2.49-9.44,3.17-3.82.79-5.66-.32-6.67-4.09-.91-3.38-1.02-6.88-1.18-10.34-.26-5.47-.65-10.97.22-16.41.67-4.19,2.92-7.28,7.08-8.69,1.56-.53,1.88-1.18.92-2.68-1.9-2.96-2.75-6.55-5.43-9.06-.11-.1-.18-.26-.22-.41-1.54-6.27-3.85-12.46-1.42-19.07,1.21-3.29,3.06-6.01,5.75-8.25,7.16-5.94,19.35-1.66,22.61,7.52.74,2.1,1.53,4.19,1.53,6.49,0,.91-.18,1.55-1.18,1.62-1.58.11-1.81,1.1-1.72,2.42.21,2.85.16,5.73.61,8.54.43,2.72.12,5.21-.97,7.67-.41.93-.56,1.91-.64,2.93-.15,2.11.88,3.18,2.87,3.47,2.38.35,4.76.6,7.17.47.45.28.87.72,1.35.81,2.98.57,5.73,1.81,8.55,2.84,1.57.57,3.23,1.24,4.46-.33,1.34-1.71-.53-2.61-1.37-3.64-3.34-4.13-3.42-4.28-.92-8.68.61-1.08.74-1.95-.2-2.88-1.24-1.23-1.61-2.77-1.4-4.46.21-1.74-.55-2.61-2.31-2.61-.84-.56-1.11-1.45-1.34-2.36-.79-3.13-.49-3.46,2.52-2.59,1.34.39,1.79.04,1.4-1.29-2.54-8.75-5.3-17.41-8.94-25.78-.59-1.37-1.76-2.11-3.06-2.68-1.13-.49-2.26-1-3.4-1.49-.39-.17-.68-.42-.52-.87.17-.49.58-.41.96-.3,1.04.32,2.07.64,3.1.98,1.56.53,2.13-.15,1.7-1.57-1.2-3.88-2.34-7.78-3.84-11.54-.91-2.29-1.4-4.68-2.18-6.99-5.06-15.03-9.96-30.11-14.98-45.15-.45-1.34-.06-2.58-.12-3.87,1.18-.38,2.36-.42,3.51.1-.39.75-.24,1.47.02,2.23,6.86,20.04,13.69,40.1,20.55,60.14,2.44,7.14,4.94,14.26,7.43,21.38.83,2.38,2.17,4.24,4.95,4.51Zm-32.03-79.54c-.22.06-.45.12-.67.18-.35,1.35.31,2.58.74,3.83.91,2.62,1.86,5.22,2.73,7.84,2.27,6.86,4.57,13.72,6.75,20.6,2.63,8.3,5.81,16.41,7.93,24.87.33,1.33,1.31,2.44,2.43,3.3.24-.1.48-.21.71-.31-6.87-20.1-13.75-40.21-20.62-60.31Zm34.99,110.22c.03-2.29-.46-2.95-2.22-2.95-2.51,0-4.73,1.66-4.7,3.5.02,1.21,2.92,4.43,3.96,4.41,1.57-.04,2.92-2.3,2.95-4.96Zm-11.58-36.53c.25,1.75.84,3.47,1.9,5,.26.38.63.77,1.13.54.57-.25.37-.8.22-1.2-.59-1.64-1.48-3.18-1.66-4.96-.05-.47-.45-.88-.97-.78-.7.13-.6.77-.62,1.39Z"/>
    </g>
  </g>
</svg>