<?xml version="1.0" encoding="UTF-8"?>
<svg id="Capa_2" data-name="Capa 2" xmlns="http://www.w3.org/2000/svg" xmlns:xlink="http://www.w3.org/1999/xlink" viewBox="0 0 708.43 56.76">
  <defs>
    <style>
      .cls-1 {
        fill: none;
      }

      .cls-2 {
        clip-path: url(#clippath);
      }

      .cls-3 {
        fill: #ccc5de;
      }

      .cls-4 {
        fill: #2e204a;
      }

      .cls-5 {
        opacity: .2;
      }
    </style>
    <clipPath id="clippath">
      <rect class="cls-1" width="708.43" height="56.76"/>
    </clipPath>
  </defs>
  <g id="Capa_1-2" data-name="Capa 1">
    <g class="cls-2">
      <rect class="cls-4" width="708.43" height="56.76"/>
      <g>
        <path class="cls-3" d="m135.51-99.1c-1.98-.37-3.97-.67-5.94-.92,10.29,19.12,14.4,41.72,10.1,64.72-.47,2.53-1.07,5.01-1.72,7.46.32,1.03.62,2.07.99,3.06,1.29,3.42,2.79,5.67,4.87,7.31,1.93,1.52,4.42,2.71,8.08,3.85,4.07,1.27,8.64,2.23,14.82,3.12,3.02.43,6.04.83,9.06,1.23l4.35.58c2.32.32,4.45,1.14,6.35,2.46,4.43,3.09,6.53,8.68,5.23,13.91-1.3,5.23-5.78,9.18-11.13,9.84l-1.49.17c-.99.12-1.94.23-2.88.36l-2.13.29c-7.11.96-13.78,1.86-20.07,3.56-3.37.91-5.9,1.86-7.97,2.99-3,1.63-5.12,4.06-6.65,7.62-1.52,3.55-2.65,7.56-3.44,12.25-.76,4.45-1.41,9.02-2.04,13.44l-.81,5.6c-.07.65-.25,2.22-.95,4.07-1.9,5.08-6.83,8.5-12.26,8.5-.34,0-.68-.01-1.02-.04-5.81-.46-10.66-4.76-11.81-10.46-.16-.74-.28-1.36-.36-1.98l-.5-3.85c-.32-2.49-.64-4.96-1-7.44-.94-6.38-2.04-13.1-4.31-19.03-.82-2.16-1.81-3.88-2.94-5.29-20.71,13.98-46.71,20.15-73.21,15.2-2.07-.39-4.05-.95-6.06-1.45,12.74,32.57,41.48,58.04,78.39,64.93,56.9,10.63,111.64-26.89,122.27-83.79,10.63-56.9-26.89-111.64-83.79-122.27Z"/>
        <path class="cls-3" d="m119.99-54.53c.52,3.92,1.01,7.85,1.57,11.77,1.11,7.68,2.36,15.33,5.13,22.63,1.92,5.05,4.68,9.53,8.99,12.94,3.67,2.9,7.88,4.7,12.3,6.08,5.51,1.72,11.16,2.76,16.85,3.58,4.51.65,9.03,1.22,13.54,1.82.2.03.4.09.6.23-1.53.19-3.06.35-4.59.56-8,1.09-16.02,2.07-23.84,4.19-3.73,1.01-7.38,2.26-10.8,4.13-5.83,3.17-9.83,7.92-12.42,13.96-2.1,4.89-3.44,10.01-4.33,15.23-1.09,6.42-1.94,12.87-2.89,19.31-.07.45-.07.91-.25,1.38-.07-.36-.16-.71-.21-1.07-.51-3.83-.97-7.67-1.54-11.5-1.09-7.4-2.35-14.77-5.03-21.8-1.9-4.96-4.62-9.36-8.83-12.73-2.81-2.25-5.97-3.89-9.34-5.13-5.92-2.18-12.07-3.43-18.29-4.37-5.23-.79-10.48-1.49-15.88-2.26.74-.11,1.34-.2,1.94-.29,6.4-.94,12.81-1.76,19.18-2.84,5.4-.91,10.7-2.32,15.73-4.56,6.58-2.93,11.42-7.62,14.43-14.2,2.02-4.42,3.38-9.05,4.28-13.81.97-5.15,1.78-10.34,2.59-15.52.37-2.34.59-4.7.88-7.05.03-.22.09-.44.13-.67.03,0,.06,0,.09,0Z"/>
      </g>
      <g class="cls-5">
        <path class="cls-3" d="m265.12,17.26c-1.98-.37-3.97-.67-5.94-.92,10.29,19.12,14.4,41.72,10.1,64.72-.47,2.53-1.07,5.01-1.72,7.46.32,1.03.62,2.07.99,3.06,1.29,3.42,2.79,5.67,4.87,7.31,1.93,1.52,4.42,2.71,8.08,3.85,4.07,1.27,8.64,2.23,14.82,3.12,3.02.43,6.04.83,9.06,1.23l4.35.58c2.32.32,4.45,1.14,6.35,2.46,4.43,3.09,6.53,8.68,5.23,13.91-1.3,5.23-5.78,9.18-11.13,9.84l-1.49.17c-.99.12-1.94.23-2.88.36l-2.13.29c-7.11.96-13.78,1.86-20.07,3.56-3.37.91-5.9,1.86-7.97,2.99-3,1.63-5.12,4.06-6.65,7.62-1.52,3.55-2.65,7.56-3.44,12.25-.76,4.45-1.41,9.02-2.04,13.44l-.81,5.6c-.07.65-.25,2.22-.95,4.07-1.9,5.08-6.83,8.5-12.26,8.5-.34,0-.68-.01-1.02-.04-5.81-.46-10.66-4.76-11.81-10.46-.16-.74-.28-1.36-.36-1.98l-.5-3.85c-.32-2.49-.64-4.96-1-7.44-.94-6.38-2.04-13.1-4.31-19.03-.82-2.16-1.81-3.88-2.94-5.29-20.71,13.98-46.71,20.15-73.21,15.2-2.07-.39-4.05-.95-6.06-1.45,12.74,32.57,41.48,58.04,78.39,64.93,56.9,10.63,111.64-26.89,122.27-83.79,10.63-56.9-26.89-111.64-83.79-122.27Z"/>
      </g>
      <path class="cls-3" d="m449.81-167.44c-1.98-.37-3.97-.67-5.94-.92,10.29,19.12,14.4,41.72,10.1,64.72-.47,2.53-1.07,5.01-1.72,7.46.32,1.03.62,2.07.99,3.06,1.29,3.42,2.79,5.67,4.87,7.31,1.93,1.52,4.42,2.71,8.08,3.85,4.07,1.27,8.64,2.23,14.82,3.12,3.02.43,6.04.83,9.06,1.23l4.35.58c2.32.32,4.45,1.14,6.35,2.46,4.43,3.09,6.53,8.68,5.23,13.91-1.3,5.23-5.78,9.18-11.13,9.84l-1.49.17c-.99.12-1.94.23-2.88.36l-2.13.29c-7.11.96-13.78,1.86-20.07,3.56-3.37.91-5.9,1.86-7.97,2.99-3,1.63-5.12,4.06-6.65,7.62-1.52,3.55-2.65,7.56-3.44,12.25-.76,4.45-1.41,9.02-2.04,13.44l-.81,5.6c-.07.65-.25,2.22-.95,4.07-1.9,5.08-6.83,8.5-12.26,8.5-.34,0-.68-.01-1.02-.04-5.81-.46-10.66-4.76-11.81-10.46-.16-.74-.28-1.36-.36-1.98l-.5-3.85c-.32-2.49-.64-4.96-1-7.44-.94-6.38-2.04-13.1-4.31-19.03-.82-2.16-1.81-3.88-2.94-5.29-20.71,13.98-46.71,20.15-73.21,15.2-2.07-.39-4.05-.95-6.06-1.45,12.74,32.57,41.48,58.04,78.39,64.93,56.9,10.63,111.64-26.89,122.27-83.79,10.63-56.9-26.89-111.64-83.79-122.27Z"/>
      <g class="cls-5">
        <path class="cls-3" d="m604.21-42.34c-1.98-.37-3.97-.67-5.94-.92,10.29,19.12,14.4,41.72,10.1,64.72-.47,2.53-1.07,5.01-1.72,7.46.32,1.03.62,2.07.99,3.06,1.29,3.42,2.79,5.67,4.87,7.31,1.93,1.52,4.42,2.71,8.08,3.85,4.07,1.27,8.64,2.23,14.82,3.12,3.02.43,6.04.83,9.06,1.23l4.35.58c2.32.32,4.45,1.14,6.35,2.46,4.43,3.09,6.53,8.68,5.23,13.91-1.3,5.23-5.78,9.18-11.13,9.84l-1.49.17c-.99.12-1.94.23-2.88.36l-2.13.29c-7.11.96-13.78,1.86-20.07,3.56-3.37.91-5.9,1.86-7.97,2.99-3,1.63-5.12,4.06-6.65,7.62-1.52,3.55-2.65,7.56-3.44,12.25-.76,4.45-1.41,9.02-2.04,13.44l-.81,5.6c-.07.65-.25,2.22-.95,4.07-1.9,5.08-6.83,8.5-12.26,8.5-.34,0-.68-.01-1.02-.04-5.81-.46-10.66-4.76-11.81-10.46-.16-.74-.28-1.36-.36-1.98l-.5-3.85c-.32-2.49-.64-4.96-1-7.44-.94-6.38-2.04-13.1-4.31-19.03-.82-2.16-1.81-3.88-2.94-5.29-20.71,13.98-46.71,20.15-73.21,15.2-2.07-.39-4.05-.95-6.06-1.45,12.74,32.57,41.48,58.04,78.39,64.93,56.9,10.63,111.64-26.89,122.27-83.79,10.63-56.9-26.89-111.64-83.79-122.27Z"/>
        <path class="cls-3" d="m588.69,2.23c.52,3.92,1.01,7.85,1.57,11.77,1.11,7.68,2.36,15.33,5.13,22.63,1.92,5.05,4.68,9.53,8.99,12.94,3.67,2.9,7.88,4.7,12.3,6.08,5.51,1.72,11.16,2.76,16.85,3.58,4.51.65,9.03,1.22,13.54,1.82.2.03.4.09.6.23-1.53.19-3.06.35-4.59.56-8,1.09-16.02,2.07-23.84,4.19-3.73,1.01-7.38,2.26-10.8,4.13-5.83,3.17-9.83,7.92-12.42,13.96-2.1,4.89-3.44,10.01-4.33,15.23-1.09,6.42-1.94,12.87-2.89,19.31-.07.45-.07.91-.25,1.38-.07-.36-.16-.71-.21-1.07-.51-3.83-.97-7.67-1.54-11.5-1.09-7.4-2.35-14.77-5.03-21.8-1.9-4.96-4.62-9.36-8.83-12.73-2.81-2.25-5.97-3.89-9.34-5.13-5.92-2.18-12.07-3.43-18.29-4.37-5.23-.79-10.48-1.49-15.88-2.26.74-.11,1.34-.2,1.94-.29,6.4-.94,12.81-1.76,19.18-2.84,5.4-.91,10.7-2.32,15.73-4.56,6.58-2.93,11.42-7.62,14.43-14.2,2.02-4.42,3.38-9.05,4.28-13.81.97-5.15,1.78-10.34,2.59-15.52.37-2.34.59-4.7.88-7.05.03-.22.09-.44.13-.67.03,0,.06,0,.09,0Z"/>
      </g>
    </g>
  </g>
</svg>