<?xml version="1.0" encoding="UTF-8"?>
<svg id="Capa_2" data-name="Capa 2" xmlns="http://www.w3.org/2000/svg" xmlns:xlink="http://www.w3.org/1999/xlink" viewBox="0 0 708.43 222.57">
  <defs>
    <style>
      .cls-1 {
        fill: none;
      }

      .cls-2 {
        clip-path: url(#clippath);
      }

      .cls-3 {
        fill: #ee7d1d;
      }

      .cls-4 {
        fill: #c7d42b;
      }

      .cls-5 {
        fill: #d71a24;
      }

      .cls-6 {
        fill: #12968d;
      }

      .cls-7 {
        fill: #1a1e35;
      }

      .cls-8 {
        fill: #7bb937;
      }

      .cls-9 {
        opacity: .2;
      }
    </style>
    <clipPath id="clippath">
      <rect class="cls-1" width="708.43" height="222.57"/>
    </clipPath>
  </defs>
  <g id="Capa_1-2" data-name="Capa 1">
    <g class="cls-2">
      <rect class="cls-7" width="708.43" height="222.57"/>
      <g>
        <path class="cls-8" d="m83.41,183.68c-.06-3.13-.04-6.26-.2-9.39-.2-3.94-.24-7.89-.61-11.84-.33-3.58-.53-7.2-1.4-10.68-2.18-8.69-7.35-14.82-15.96-17.79-2.36-.81-4.82-1.07-7.29-1.31-1.54-.25-3.08-.29-4.61.04-.48.07-.95.15-1.43.22,0-8.3.02-16.61,0-24.91,0-2.02.15-4.05-.19-6.07.44-.71,1.25-.66,1.9-.8,1.83-.38,3.61-.95,5.42-1.31,1.05-.21,2.2-.24,3.31-.31.48-.03.96.02,1.28-.45.07-.1.31-.22.36-.19,1.01.76,2.02-.03,2.99.03,2.1.13,4.18-.2,6.26.02,1.42.15,2.87-.04,4.28.34.3.08.66.1.92-.21.12-.15.4-.31.46-.19.59,1.06,1.73.05,2.43.67.03.02.07.07.09.06,1.11-.71,1.97.39,3.02.43,1.55.07,3.06.91,4.61,1.01,1.48.1,2.67,1.04,4.18,1.03.65,0,1.27.75,2.02,1,3.11,1.02,5.96,2.59,8.82,4.14,3.68,1.99,6.81,4.66,9.8,7.55,2,1.93,3.29,4.34,4.93,6.51,1.19,1.58,1.83,3.42,2.68,5.16.27.55.77.89.97,1.52,1.35,4.12,2.54,8.27,3.25,12.54.45,2.72.71,5.47.93,8.22.24,3.04.31,6.07.44,9.11.38,8.55.06,17.1.17,25.64,0,.07-.03.14-.04.22-.41,0-.81,0-1.22,0-14.2,0-28.4-.01-42.6-.02Z"/>
        <path class="cls-6" d="m83.41,183.68c14.2,0,28.4.01,42.6.02.41,0,.81,0,1.22,0,.02.4.05.81.05,1.21,0,27.57,0,55.14.03,82.7,0,1.02-.18,1.36-1.29,1.35-13.8-.04-27.61-.05-41.41,0-1.18,0-1.35-.36-1.35-1.42.03-27.57.02-55.14.03-82.7,0-.39-.13-.81.13-1.18Z"/>
        <path class="cls-4" d="m19.65,183.75c.01.37.04.74.04,1.1,0,27.6,0,55.2.03,82.8,0,1.08-.27,1.32-1.33,1.32-13.8-.04-27.6-.04-41.4,0-1.06,0-1.24-.33-1.24-1.29.02-27.49.02-54.98.02-82.47,0-.51-.03-1.01-.05-1.52.52.01,1.03.03,1.55.03,14.13,0,28.26.01,42.39.02Z"/>
        <path class="cls-3" d="m19.65,183.75c-14.13,0-28.26-.01-42.39-.02-.52,0-1.03-.02-1.55-.03.02-.44.05-.88.05-1.32,0-17.63.07-35.27-.03-52.9-.05-8.47,0-16.95-.06-25.42,0-.4-.09-.81.09-1.2.02.44.05.88.05,1.32,0,7.27.02,14.54-.02,21.81,0,.95.21,1.24,1.21,1.24,12.81-.04,25.61-.02,38.42-.03.39,0,.82.15,1.15-.21,1.24-1.56,2.53-3.09,3.86-4.57,1.9-2.12,3.8-4.25,6.01-6.1,2.74-2.31,5.48-4.64,8.45-6.63,4.82-3.23,10-5.75,15.53-7.54.43-.14.86-.2,1.31-.18.34,2.01.19,4.04.19,6.07.01,8.3,0,16.61,0,24.91-7.3.62-13.65,3.48-19.23,8.16-4.22,3.54-7.23,7.97-9.19,13.06-1.25,3.23-1.88,6.66-2.3,10.11-.28,2.31-.68,4.6-.84,6.92-.09,1.31-.15,2.63-.26,3.94-.23,2.64-.24,5.28-.24,7.93,0,.25.05.53-.22.7Z"/>
        <path class="cls-5" d="m16.58,126.99c-.33.36-.76.21-1.15.21-12.81,0-25.61,0-38.42.03-1,0-1.22-.29-1.21-1.24.04-7.27.02-14.54.02-21.81,0-.44-.03-.88-.05-1.32,0-1,.05-2-.02-2.99-.05-.8.24-.98,1-.97,5.98.03,11.95.02,17.93.02,6.94,0,13.87.02,20.81-.02.86,0,1.1.21,1.1,1.09-.03,9,0,18.01,0,27.01Z"/>
      </g>
      <g>
        <path class="cls-8" d="m495.72,188.34c-.06-3.13-.04-6.26-.2-9.39-.2-3.94-.24-7.89-.61-11.84-.33-3.58-.53-7.2-1.4-10.68-2.18-8.69-7.35-14.82-15.96-17.79-2.36-.81-4.82-1.07-7.29-1.31-1.54-.25-3.08-.29-4.61.04-.48.07-.95.15-1.43.22,0-8.3.02-16.61,0-24.91,0-2.02.15-4.05-.19-6.07.44-.71,1.25-.66,1.9-.8,1.83-.38,3.61-.95,5.42-1.31,1.05-.21,2.2-.24,3.31-.31.48-.03.96.02,1.28-.45.07-.1.31-.22.36-.19,1.01.76,2.02-.03,2.99.03,2.1.13,4.18-.2,6.26.02,1.42.15,2.87-.04,4.28.34.3.08.66.1.92-.21.12-.15.4-.31.46-.19.59,1.06,1.73.05,2.43.67.03.02.07.07.09.06,1.11-.71,1.97.39,3.02.43,1.55.07,3.06.91,4.61,1.01,1.48.1,2.67,1.04,4.18,1.03.65,0,1.27.75,2.02,1,3.11,1.02,5.96,2.59,8.82,4.14,3.68,1.99,6.81,4.66,9.8,7.55,2,1.93,3.29,4.34,4.93,6.51,1.19,1.58,1.83,3.42,2.68,5.16.27.55.77.89.97,1.52,1.35,4.12,2.54,8.27,3.25,12.54.45,2.72.71,5.47.93,8.22.24,3.04.31,6.07.44,9.11.38,8.55.06,17.1.17,25.64,0,.07-.03.14-.04.22-.41,0-.81,0-1.22,0-14.2,0-28.4-.01-42.6-.02Z"/>
        <path class="cls-6" d="m495.72,188.34c14.2,0,28.4.01,42.6.02.41,0,.81,0,1.22,0,.02.4.05.81.05,1.21,0,27.57,0,55.14.03,82.7,0,1.02-.18,1.36-1.29,1.35-13.8-.04-27.61-.05-41.41,0-1.18,0-1.35-.36-1.35-1.42.03-27.57.02-55.14.03-82.7,0-.39-.13-.81.13-1.18Z"/>
        <path class="cls-4" d="m431.96,188.41c.01.37.04.74.04,1.1,0,27.6,0,55.2.03,82.8,0,1.08-.27,1.32-1.33,1.32-13.8-.04-27.6-.04-41.4,0-1.06,0-1.24-.33-1.24-1.29.02-27.49.02-54.98.02-82.47,0-.51-.03-1.01-.05-1.52.52.01,1.03.03,1.55.03,14.13,0,28.26.01,42.39.02Z"/>
        <path class="cls-3" d="m431.96,188.41c-14.13,0-28.26-.01-42.39-.02-.52,0-1.03-.02-1.55-.03.02-.44.05-.88.05-1.32,0-17.63.07-35.27-.03-52.9-.05-8.47,0-16.95-.06-25.42,0-.4-.09-.81.09-1.2.02.44.05.88.05,1.32,0,7.27.02,14.54-.02,21.81,0,.95.21,1.24,1.21,1.24,12.81-.04,25.61-.02,38.42-.03.39,0,.82.15,1.15-.21,1.24-1.56,2.53-3.09,3.86-4.57,1.9-2.12,3.8-4.25,6.01-6.1,2.74-2.31,5.48-4.64,8.45-6.63,4.82-3.23,10-5.75,15.53-7.54.43-.14.86-.2,1.31-.18.34,2.01.19,4.04.19,6.07.01,8.3,0,16.61,0,24.91-7.3.62-13.65,3.48-19.23,8.16-4.22,3.54-7.23,7.97-9.19,13.06-1.25,3.23-1.88,6.66-2.3,10.11-.28,2.31-.68,4.6-.84,6.92-.09,1.31-.15,2.63-.26,3.94-.23,2.64-.24,5.28-.24,7.93,0,.25.05.53-.22.7Z"/>
        <path class="cls-5" d="m428.89,131.64c-.33.36-.76.21-1.15.21-12.81,0-25.61,0-38.42.03-1,0-1.22-.29-1.21-1.24.04-7.27.02-14.54.02-21.81,0-.44-.03-.88-.05-1.32,0-1,.05-2-.02-2.99-.05-.8.24-.98,1-.97,5.98.03,11.95.02,17.93.02,6.94,0,13.87.02,20.81-.02.86,0,1.1.21,1.1,1.09-.03,9,0,18.01,0,27.01Z"/>
      </g>
      <g>
        <path class="cls-8" d="m280.7,21.31c-.06-3.13-.04-6.26-.2-9.39-.2-3.94-.24-7.89-.61-11.84-.33-3.58-.53-7.2-1.4-10.68-2.18-8.69-7.35-14.82-15.96-17.79-2.36-.81-4.82-1.07-7.29-1.31-1.54-.25-3.08-.29-4.61.04-.48.07-.95.15-1.43.22,0-8.3.02-16.61,0-24.91,0-2.02.15-4.05-.19-6.07.44-.71,1.25-.66,1.9-.8,1.83-.38,3.61-.95,5.42-1.31,1.05-.21,2.2-.24,3.31-.31.48-.03.96.02,1.28-.45.07-.1.31-.22.36-.19,1.01.76,2.02-.03,2.99.03,2.1.13,4.18-.2,6.26.02,1.42.15,2.87-.04,4.28.34.3.08.66.1.92-.21.12-.15.4-.31.46-.19.59,1.06,1.73.05,2.43.67.03.02.07.07.09.06,1.11-.71,1.97.39,3.02.43,1.55.07,3.06.91,4.61,1.01,1.48.1,2.67,1.04,4.18,1.03.65,0,1.27.75,2.02,1,3.11,1.02,5.96,2.59,8.82,4.14,3.68,1.99,6.81,4.66,9.8,7.55,2,1.93,3.29,4.34,4.93,6.51,1.19,1.58,1.83,3.42,2.68,5.16.27.55.77.89.97,1.52,1.35,4.12,2.54,8.27,3.25,12.54.45,2.72.71,5.47.93,8.22.24,3.04.31,6.07.44,9.11.38,8.55.06,17.1.17,25.64,0,.07-.03.14-.04.22-.41,0-.81,0-1.22,0-14.2,0-28.4-.01-42.6-.02Z"/>
        <path class="cls-6" d="m280.7,21.31c14.2,0,28.4.01,42.6.02.41,0,.81,0,1.22,0,.02.4.05.81.05,1.21,0,27.57,0,55.14.03,82.7,0,1.02-.18,1.36-1.29,1.35-13.8-.04-27.61-.05-41.41,0-1.18,0-1.35-.36-1.35-1.42.03-27.57.02-55.14.03-82.7,0-.39-.13-.81.13-1.18Z"/>
        <path class="cls-4" d="m216.94,21.38c.01.37.04.74.04,1.1,0,27.6,0,55.2.03,82.8,0,1.08-.27,1.32-1.33,1.32-13.8-.04-27.6-.04-41.4,0-1.06,0-1.24-.33-1.24-1.29.02-27.49.02-54.98.02-82.47,0-.51-.03-1.01-.05-1.52.52.01,1.03.03,1.55.03,14.13,0,28.26.01,42.39.02Z"/>
        <path class="cls-3" d="m216.94,21.38c-14.13,0-28.26-.01-42.39-.02-.52,0-1.03-.02-1.55-.03.02-.44.05-.88.05-1.32,0-17.63.07-35.27-.03-52.9-.05-8.47,0-16.95-.06-25.42,0-.4-.09-.81.09-1.2.02.44.05.88.05,1.32,0,7.27.02,14.54-.02,21.81,0,.95.21,1.24,1.21,1.24,12.81-.04,25.61-.02,38.42-.03.39,0,.82.15,1.15-.21,1.24-1.56,2.53-3.09,3.86-4.57,1.9-2.12,3.8-4.25,6.01-6.1,2.74-2.31,5.48-4.64,8.45-6.63,4.82-3.23,10-5.75,15.53-7.54.43-.14.86-.2,1.31-.18.34,2.01.19,4.04.19,6.07.01,8.3,0,16.61,0,24.91-7.3.62-13.65,3.48-19.23,8.16-4.22,3.54-7.23,7.97-9.19,13.06-1.25,3.23-1.88,6.66-2.3,10.11-.28,2.31-.68,4.6-.84,6.92-.09,1.31-.15,2.63-.26,3.94-.23,2.64-.24,5.28-.24,7.93,0,.25.05.53-.22.7Z"/>
      </g>
      <g>
        <path class="cls-8" d="m688.11,21.15c-.06-3.13-.04-6.26-.2-9.39-.2-3.94-.24-7.89-.61-11.84-.33-3.58-.53-7.2-1.4-10.68-2.18-8.69-7.35-14.82-15.96-17.79-2.36-.81-4.82-1.07-7.29-1.31-1.54-.25-3.08-.29-4.61.04-.48.07-.95.15-1.43.22,0-8.3.02-16.61,0-24.91,0-2.02.15-4.05-.19-6.07.44-.71,1.25-.66,1.9-.8,1.83-.38,3.61-.95,5.42-1.31,1.05-.21,2.2-.24,3.31-.31.48-.03.96.02,1.28-.45.07-.1.31-.22.36-.19,1.01.76,2.02-.03,2.99.03,2.1.13,4.18-.2,6.26.02,1.42.15,2.87-.04,4.28.34.3.08.66.1.92-.21.12-.15.4-.31.46-.19.59,1.06,1.73.05,2.43.67.03.02.07.07.09.06,1.11-.71,1.97.39,3.02.43,1.55.07,3.06.91,4.61,1.01,1.48.1,2.67,1.04,4.18,1.03.65,0,1.27.75,2.02,1,3.11,1.02,5.96,2.59,8.82,4.14,3.68,1.99,6.81,4.66,9.8,7.55,2,1.93,3.29,4.34,4.93,6.51,1.19,1.58,1.83,3.42,2.68,5.16.27.55.77.89.97,1.52,1.35,4.12,2.54,8.27,3.25,12.54.45,2.72.71,5.47.93,8.22.24,3.04.31,6.07.44,9.11.38,8.55.06,17.1.17,25.64,0,.07-.03.14-.04.22-.41,0-.81,0-1.22,0-14.2,0-28.4-.01-42.6-.02Z"/>
        <path class="cls-6" d="m688.11,21.15c14.2,0,28.4.01,42.6.02.41,0,.81,0,1.22,0,.02.4.05.81.05,1.21,0,27.57,0,55.14.03,82.7,0,1.02-.18,1.36-1.29,1.35-13.8-.04-27.61-.05-41.41,0-1.18,0-1.35-.36-1.35-1.42.03-27.57.02-55.14.03-82.7,0-.39-.13-.81.13-1.18Z"/>
        <path class="cls-4" d="m624.35,21.22c.01.37.04.74.04,1.1,0,27.6,0,55.2.03,82.8,0,1.08-.27,1.32-1.33,1.32-13.8-.04-27.6-.04-41.4,0-1.06,0-1.24-.33-1.24-1.29.02-27.49.02-54.98.02-82.47,0-.51-.03-1.01-.05-1.52.52.01,1.03.03,1.55.03,14.13,0,28.26.01,42.39.02Z"/>
        <path class="cls-3" d="m624.35,21.22c-14.13,0-28.26-.01-42.39-.02-.52,0-1.03-.02-1.55-.03.02-.44.05-.88.05-1.32,0-17.63.07-35.27-.03-52.9-.05-8.47,0-16.95-.06-25.42,0-.4-.09-.81.09-1.2.02.44.05.88.05,1.32,0,7.27.02,14.54-.02,21.81,0,.95.21,1.24,1.21,1.24,12.81-.04,25.61-.02,38.42-.03.39,0,.82.15,1.15-.21,1.24-1.56,2.53-3.09,3.86-4.57,1.9-2.12,3.8-4.25,6.01-6.1,2.74-2.31,5.48-4.64,8.45-6.63,4.82-3.23,10-5.75,15.53-7.54.43-.14.86-.2,1.31-.18.34,2.01.19,4.04.19,6.07.01,8.3,0,16.61,0,24.91-7.3.62-13.65,3.48-19.23,8.16-4.22,3.54-7.23,7.97-9.19,13.06-1.25,3.23-1.88,6.66-2.3,10.11-.28,2.31-.68,4.6-.84,6.92-.09,1.31-.15,2.63-.26,3.94-.23,2.64-.24,5.28-.24,7.93,0,.25.05.53-.22.7Z"/>
      </g>
      <g class="cls-9">
        <path class="cls-6" d="m86.85-21.49c14.2,0,28.4.01,42.6.02.41,0,.81,0,1.22,0,.02.4.05.81.05,1.21,0,27.57,0,55.14.03,82.7,0,1.02-.18,1.36-1.29,1.35-13.8-.04-27.61-.05-41.41,0-1.18,0-1.35-.36-1.35-1.42.03-27.57.02-55.14.03-82.7,0-.39-.13-.81.13-1.18Z"/>
        <path class="cls-4" d="m23.09-21.42c.01.37.04.74.04,1.1,0,27.6,0,55.2.03,82.8,0,1.08-.27,1.32-1.33,1.32-13.8-.04-27.6-.04-41.4,0-1.06,0-1.24-.33-1.24-1.29.02-27.49.02-54.98.02-82.47,0-.51-.03-1.01-.05-1.52.52.01,1.03.03,1.55.03,14.13,0,28.26.01,42.39.02Z"/>
      </g>
      <g class="cls-9">
        <path class="cls-8" d="m281.18,230.76c-.06-3.13-.04-6.26-.2-9.39-.2-3.94-.24-7.89-.61-11.84-.33-3.58-.53-7.2-1.4-10.68-2.18-8.69-7.35-14.82-15.96-17.79-2.36-.81-4.82-1.07-7.29-1.31-1.54-.25-3.08-.29-4.61.04-.48.07-.95.15-1.43.22,0-8.3.02-16.61,0-24.91,0-2.02.15-4.05-.19-6.07.44-.71,1.25-.66,1.9-.8,1.83-.38,3.61-.95,5.42-1.31,1.05-.21,2.2-.24,3.31-.31.48-.03.96.02,1.28-.45.07-.1.31-.22.36-.19,1.01.76,2.02-.03,2.99.03,2.1.13,4.18-.2,6.26.02,1.42.15,2.87-.04,4.28.34.3.08.66.1.92-.21.12-.15.4-.31.46-.19.59,1.06,1.73.05,2.43.67.03.02.07.07.09.06,1.11-.71,1.97.39,3.02.43,1.55.07,3.06.91,4.61,1.01,1.48.1,2.67,1.04,4.18,1.03.65,0,1.27.75,2.02,1,3.11,1.02,5.96,2.59,8.82,4.14,3.68,1.99,6.81,4.66,9.8,7.55,2,1.93,3.29,4.34,4.93,6.51,1.19,1.58,1.83,3.42,2.68,5.16.27.55.77.89.97,1.52,1.35,4.12,2.54,8.27,3.25,12.54.45,2.72.71,5.47.93,8.22.24,3.04.31,6.07.44,9.11.38,8.55.06,17.1.17,25.64,0,.07-.03.14-.04.22-.41,0-.81,0-1.22,0-14.2,0-28.4-.01-42.6-.02Z"/>
        <path class="cls-3" d="m217.42,230.83c-14.13,0-28.26-.01-42.39-.02-.52,0-1.03-.02-1.55-.03.02-.44.05-.88.05-1.32,0-17.63.07-35.27-.03-52.9-.05-8.47,0-16.95-.06-25.42,0-.4-.09-.81.09-1.2.02.44.05.88.05,1.32,0,7.27.02,14.54-.02,21.81,0,.95.21,1.24,1.21,1.24,12.81-.04,25.61-.02,38.42-.03.39,0,.82.15,1.15-.21,1.24-1.56,2.53-3.09,3.86-4.57,1.9-2.12,3.8-4.25,6.01-6.1,2.74-2.31,5.48-4.64,8.45-6.63,4.82-3.23,10-5.75,15.53-7.54.43-.14.86-.2,1.31-.18.34,2.01.19,4.04.19,6.07.01,8.3,0,16.61,0,24.91-7.3.62-13.65,3.48-19.23,8.16-4.22,3.54-7.23,7.97-9.19,13.06-1.25,3.23-1.88,6.66-2.3,10.11-.28,2.31-.68,4.6-.84,6.92-.09,1.31-.15,2.63-.26,3.94-.23,2.64-.24,5.28-.24,7.93,0,.25.05.53-.22.7Z"/>
        <path class="cls-5" d="m214.35,174.07c-.33.36-.76.21-1.15.21-12.81,0-25.61,0-38.42.03-1,0-1.22-.29-1.21-1.24.04-7.27.02-14.54.02-21.81,0-.44-.03-.88-.05-1.32,0-1,.05-2-.02-2.99-.05-.8.24-.98,1-.97,5.98.03,11.95.02,17.93.02,6.94,0,13.87.02,20.81-.02.86,0,1.1.21,1.1,1.09-.03,9,0,18.01,0,27.01Z"/>
      </g>
      <g class="cls-9">
        <path class="cls-6" d="m495.98-21.71c14.2,0,28.4.01,42.6.02.41,0,.81,0,1.22,0,.02.4.05.81.05,1.21,0,27.57,0,55.14.03,82.7,0,1.02-.18,1.36-1.29,1.35-13.8-.04-27.61-.05-41.41,0-1.18,0-1.35-.36-1.35-1.42.03-27.57.02-55.14.03-82.7,0-.39-.13-.81.13-1.18Z"/>
        <path class="cls-4" d="m432.22-21.64c.01.37.04.74.04,1.1,0,27.6,0,55.2.03,82.8,0,1.08-.27,1.32-1.33,1.32-13.8-.04-27.6-.04-41.4,0-1.06,0-1.24-.33-1.24-1.29.02-27.49.02-54.98.02-82.47,0-.51-.03-1.01-.05-1.52.52.01,1.03.03,1.55.03,14.13,0,28.26.01,42.39.02Z"/>
      </g>
      <g class="cls-9">
        <path class="cls-8" d="m688.59,226.11c-.06-3.13-.04-6.26-.2-9.39-.2-3.94-.24-7.89-.61-11.84-.33-3.58-.53-7.2-1.4-10.68-2.18-8.69-7.35-14.82-15.96-17.79-2.36-.81-4.82-1.07-7.29-1.31-1.54-.25-3.08-.29-4.61.04-.48.07-.95.15-1.43.22,0-8.3.02-16.61,0-24.91,0-2.02.15-4.05-.19-6.07.44-.71,1.25-.66,1.9-.8,1.83-.38,3.61-.95,5.42-1.31,1.05-.21,2.2-.24,3.31-.31.48-.03.96.02,1.28-.45.07-.1.31-.22.36-.19,1.01.76,2.02-.03,2.99.03,2.1.13,4.18-.2,6.26.02,1.42.15,2.87-.04,4.28.34.3.08.66.1.92-.21.12-.15.4-.31.46-.19.59,1.06,1.73.05,2.43.67.03.02.07.07.09.06,1.11-.71,1.97.39,3.02.43,1.55.07,3.06.91,4.61,1.01,1.48.1,2.67,1.04,4.18,1.03.65,0,1.27.75,2.02,1,3.11,1.02,5.96,2.59,8.82,4.14,3.68,1.99,6.81,4.66,9.8,7.55,2,1.93,3.29,4.34,4.93,6.51,1.19,1.58,1.83,3.42,2.68,5.16.27.55.77.89.97,1.52,1.35,4.12,2.54,8.27,3.25,12.54.45,2.72.71,5.47.93,8.22.24,3.04.31,6.07.44,9.11.38,8.55.06,17.1.17,25.64,0,.07-.03.14-.04.22-.41,0-.81,0-1.22,0-14.2,0-28.4-.01-42.6-.02Z"/>
        <path class="cls-3" d="m624.83,226.18c-14.13,0-28.26-.01-42.39-.02-.52,0-1.03-.02-1.55-.03.02-.44.05-.88.05-1.32,0-17.63.07-35.27-.03-52.9-.05-8.47,0-16.95-.06-25.42,0-.4-.09-.81.09-1.2.02.44.05.88.05,1.32,0,7.27.02,14.54-.02,21.81,0,.95.21,1.24,1.21,1.24,12.81-.04,25.61-.02,38.42-.03.39,0,.82.15,1.15-.21,1.24-1.56,2.53-3.09,3.86-4.57,1.9-2.12,3.8-4.25,6.01-6.1,2.74-2.31,5.48-4.64,8.45-6.63,4.82-3.23,10-5.75,15.53-7.54.43-.14.86-.2,1.31-.18.34,2.01.19,4.04.19,6.07.01,8.3,0,16.61,0,24.91-7.3.62-13.65,3.48-19.23,8.16-4.22,3.54-7.23,7.97-9.19,13.06-1.25,3.23-1.88,6.66-2.3,10.11-.28,2.31-.68,4.6-.84,6.92-.09,1.31-.15,2.63-.26,3.94-.23,2.64-.24,5.28-.24,7.93,0,.25.05.53-.22.7Z"/>
        <path class="cls-5" d="m621.76,169.41c-.33.36-.76.21-1.15.21-12.81,0-25.61,0-38.42.03-1,0-1.22-.29-1.21-1.24.04-7.27.02-14.54.02-21.81,0-.44-.03-.88-.05-1.32,0-1,.05-2-.02-2.99-.05-.8.24-.98,1-.97,5.98.03,11.95.02,17.93.02,6.94,0,13.87.02,20.81-.02.86,0,1.1.21,1.1,1.09-.03,9,0,18.01,0,27.01Z"/>
      </g>
    </g>
  </g>
</svg>