<?xml version="1.0" encoding="UTF-8"?>
<svg id="Capa_2" data-name="Capa 2" xmlns="http://www.w3.org/2000/svg" xmlns:xlink="http://www.w3.org/1999/xlink" viewBox="0 0 708.43 222.57">
  <defs>
    <style>
      .cls-1 {
        fill: none;
      }

      .cls-2 {
        clip-path: url(#clippath);
      }

      .cls-3 {
        fill: #f7dcec;
      }

      .cls-4 {
        fill: #b21c1d;
      }

      .cls-5 {
        opacity: .2;
      }
    </style>
    <clipPath id="clippath">
      <rect class="cls-1" width="708.43" height="222.57"/>
    </clipPath>
  </defs>
  <g id="Capa_1-2" data-name="Capa 1">
    <g class="cls-2">
      <rect class="cls-3" width="708.43" height="222.57"/>
      <g class="cls-5">
        <path class="cls-4" d="m35.84,12.62c-4.63,0-8.72-.95-12.26-2.86l-4.29,8.38c4.29,2.86,9.47,4.29,15.6,4.29,10.42,0,16.35-4.29,16.35-11.45C51.24,4.24,45.65.43,36.18-.12c-2.25-.14-3.34-.68-3.34-1.57,0-1.16,1.29-1.7,3.88-1.7,3.47,0,6.4.61,8.79,1.84l4.57-8.11c-3.82-2.32-8.45-3.47-13.83-3.47-9.61,0-15.53,4.43-15.53,11.31,0,6.34,5.65,10.63,14.1,10.97,2.79.14,4.22.75,4.22,1.84s-1.09,1.63-3.2,1.63Z"/>
        <path class="cls-4" d="m69.9,22.16c4.29,0,7.9-1.57,10.76-4.63l.68,3.95h10.76V-12.18h-10.76l-.68,3.88c-2.86-3.07-6.47-4.56-10.76-4.56-4.63,0-8.45,1.63-11.38,4.9-2.93,3.27-4.43,7.49-4.43,12.6s1.5,9.33,4.43,12.6c2.93,3.27,6.74,4.91,11.38,4.91Zm-1.63-22.82c1.23-1.29,2.86-1.98,4.84-1.98s3.61.68,4.91,1.98c1.23,1.36,1.84,3.13,1.84,5.31s-.61,3.95-1.84,5.25c-1.29,1.36-2.93,2.04-4.91,2.04s-3.61-.68-4.84-2.04c-1.29-1.29-1.91-3.07-1.91-5.25s.61-3.95,1.91-5.31Z"/>
        <rect class="cls-4" x="99.46" y="-26.21" width="12.4" height="47.69"/>
        <rect class="cls-4" x="119.22" y="-12.18" width="12.4" height="33.66"/>
        <path class="cls-4" d="m151.37,5.13c0-4.97,2.45-7.43,6.47-7.43,1.7,0,3.34.54,5.04,1.63l5.04-8.72c-2.32-2.38-5.18-3.54-8.65-3.54-3.75,0-6.61,1.57-8.58,4.77l-.82-4.02h-10.9V21.48h12.4V5.13Z"/>
        <path class="cls-4" d="m185.16-.12c-2.25-.14-3.34-.68-3.34-1.57,0-1.16,1.29-1.7,3.88-1.7,3.47,0,6.4.61,8.79,1.84l4.57-8.11c-3.82-2.32-8.45-3.47-13.83-3.47-9.61,0-15.53,4.43-15.53,11.31,0,6.34,5.65,10.63,14.1,10.97,2.79.14,4.22.75,4.22,1.84s-1.09,1.63-3.2,1.63c-4.63,0-8.72-.95-12.26-2.86l-4.29,8.38c4.29,2.86,9.47,4.29,15.6,4.29,10.42,0,16.35-4.29,16.35-11.45,0-6.75-5.59-10.56-15.06-11.11Z"/>
        <path class="cls-4" d="m208.32,17.53c3.47,3.13,8.24,4.7,14.31,4.7s11.24-1.77,15.47-5.38l-6.06-6.81c-2.52,1.7-5.45,2.59-8.72,2.59-4.16,0-6.95-1.84-7.7-4.57h23.64c1.23-6.13.2-11.17-3.07-15.12-3.34-3.88-8.17-5.86-14.58-5.86-5.52,0-10.02,1.64-13.42,4.91-3.41,3.27-5.11,7.56-5.11,12.81s1.77,9.67,5.25,12.74Zm13.69-21.05c3.61,0,5.86,2.04,5.93,5.38h-12.26c.07-3.34,2.59-5.38,6.34-5.38Z"/>
        <path class="cls-4" d="m46.4,51.6c-2.97-2.74-6.61-4.11-10.95-4.11-5.17,0-9.43,1.82-12.7,5.47-3.27,3.65-4.94,8.36-4.94,14.07s1.67,10.42,4.94,14.07c3.27,3.65,7.53,5.47,12.7,5.47,4.79,0,8.82-1.75,12.01-5.17l.76,4.41h12.01v-53.23h-13.84v19.01Zm-1.9,21.29c-1.44,1.52-3.27,2.28-5.47,2.28s-4.03-.76-5.4-2.28c-1.44-1.44-2.13-3.42-2.13-5.86s.68-4.41,2.13-5.93c1.37-1.44,3.19-2.2,5.4-2.2s4.03.76,5.47,2.2c1.37,1.52,2.05,3.5,2.05,5.93s-.68,4.41-2.05,5.86Z"/>
        <path class="cls-4" d="m87.16,47.42c-6.16,0-11.18,1.83-14.98,5.47-3.8,3.65-5.7,8.44-5.7,14.3s1.98,10.8,5.85,14.22c3.88,3.5,9.2,5.25,15.97,5.25s12.55-1.98,17.26-6.01l-6.77-7.6c-2.81,1.9-6.08,2.89-9.73,2.89-4.64,0-7.76-2.05-8.59-5.09h26.38c1.37-6.84.23-12.47-3.42-16.88-3.73-4.33-9.12-6.54-16.27-6.54Zm-6.62,16.5c.08-3.73,2.89-6.01,7.07-6.01s6.54,2.28,6.61,6.01h-13.69Z"/>
        <path class="cls-4" d="m177.26,47.42c-5.4,0-9.66,1.83-12.62,5.55-2.28-3.73-5.78-5.55-10.57-5.55-4.26,0-7.83,1.6-10.72,4.79l-.68-3.95h-12.01v37.56h13.84v-20.38c0-4.03,2.13-6.61,5.4-6.61,3.04,0,4.79,2.21,4.79,5.86v21.14h13.69v-20.38c0-4.03,2.13-6.61,5.4-6.61,3.04,0,4.79,2.21,4.79,5.86v21.14h13.84v-23.19c0-9.43-5.78-15.21-15.13-15.21Z"/>
        <path class="cls-4" d="m240.68,48.26h-12.01l-.76,4.33c-3.19-3.42-7.22-5.09-12.01-5.09-5.17,0-9.43,1.82-12.7,5.47-3.27,3.65-4.94,8.36-4.94,14.07s1.67,10.42,4.94,14.07c3.27,3.65,7.53,5.47,12.7,5.47,4.79,0,8.82-1.75,12.01-5.17l.36,2.08h-.24v17.43c-2.72-2.51-6.06-3.76-10.04-3.76-4.74,0-8.64,1.67-11.64,5.02-3,3.35-4.53,7.67-4.53,12.9s1.53,9.55,4.53,12.9c3,3.35,6.9,5.02,11.64,5.02,4.39,0,8.09-1.6,11.01-4.74l.7,4.04h11.01v-48.8h-.03v-35.23Zm-15.74,24.64c-1.44,1.52-3.27,2.28-5.47,2.28s-4.03-.76-5.4-2.28c-1.44-1.44-2.13-3.42-2.13-5.86s.68-4.41,2.13-5.93c1.37-1.44,3.19-2.2,5.4-2.2s4.03.76,5.47,2.2c1.37,1.52,2.05,3.5,2.05,5.93s-.68,4.41-2.05,5.86Zm1.34,47.54c-1.32,1.39-3,2.09-5.02,2.09s-3.69-.7-4.95-2.09c-1.33-1.33-1.95-3.14-1.95-5.37s.63-4.04,1.95-5.44c1.25-1.33,2.93-2.02,4.95-2.02s3.69.7,5.02,2.02c1.26,1.39,1.88,3.21,1.88,5.44s-.63,4.04-1.88,5.37Z"/>
        <path class="cls-4" d="m260.23,101.96l-.84-4.11h-11.15v34.44h12.69v-16.73c0-5.09,2.51-7.6,6.62-7.6,1.74,0,3.42.56,5.16,1.67l5.16-8.92c-2.37-2.44-5.3-3.63-8.85-3.63-3.83,0-6.76,1.6-8.78,4.88Z"/>
        <path class="cls-4" d="m297.38,97.08c-5.65,0-10.25,1.67-13.73,5.02-3.49,3.35-5.23,7.74-5.23,13.11s1.81,9.9,5.37,13.04c3.56,3.21,8.43,4.81,14.64,4.81s11.5-1.81,15.83-5.51l-6.2-6.97c-2.58,1.74-5.58,2.65-8.92,2.65-4.25,0-7.11-1.88-7.88-4.67h24.19c1.26-6.27.21-11.43-3.14-15.48-3.42-3.97-8.37-5.99-14.92-5.99Zm-6.07,15.13c.07-3.42,2.65-5.51,6.48-5.51s5.99,2.09,6.06,5.51h-12.55Z"/>
        <path class="cls-4" d="m331.32,121.62c-1.32-1.25-3.07-1.88-5.09-1.88s-3.76.63-5.09,1.88c-2.65,2.51-2.65,6.97,0,9.48,1.32,1.25,3.07,1.88,5.09,1.88s3.76-.63,5.09-1.88c2.65-2.51,2.65-6.97,0-9.48Z"/>
        <polygon class="cls-4" points="-6.14 2.9 -8.82 10.75 -11.36 2.9 -13.3 -2.54 -22.3 -2.54 -13.48 19.75 -17.87 29.76 -9.01 29.76 5.12 -2.54 -3.98 -2.54 -6.14 2.9"/>
      </g>
      <g>
        <path class="cls-4" d="m381.71,17.73c-4.63,0-8.72-.95-12.26-2.86l-4.29,8.38c4.29,2.86,9.47,4.29,15.6,4.29,10.42,0,16.35-4.29,16.35-11.45,0-6.75-5.59-10.56-15.06-11.11-2.25-.14-3.34-.68-3.34-1.57,0-1.16,1.29-1.7,3.88-1.7,3.47,0,6.4.61,8.79,1.84l4.57-8.11c-3.82-2.32-8.45-3.47-13.83-3.47-9.61,0-15.53,4.43-15.53,11.31,0,6.34,5.65,10.63,14.1,10.97,2.79.14,4.22.75,4.22,1.84s-1.09,1.63-3.2,1.63Z"/>
        <path class="cls-4" d="m415.77,27.27c4.29,0,7.9-1.57,10.76-4.63l.68,3.95h10.76V-7.07h-10.76l-.68,3.88c-2.86-3.07-6.47-4.56-10.76-4.56-4.63,0-8.45,1.63-11.38,4.9-2.93,3.27-4.43,7.49-4.43,12.6s1.5,9.33,4.43,12.6c2.93,3.27,6.74,4.91,11.38,4.91Zm-1.63-22.82c1.23-1.29,2.86-1.98,4.84-1.98s3.61.68,4.91,1.98c1.23,1.36,1.84,3.13,1.84,5.31s-.61,3.95-1.84,5.25c-1.29,1.36-2.93,2.04-4.91,2.04s-3.61-.68-4.84-2.04c-1.29-1.29-1.91-3.07-1.91-5.25s.61-3.95,1.91-5.31Z"/>
        <rect class="cls-4" x="445.33" y="-21.1" width="12.4" height="47.69"/>
        <rect class="cls-4" x="465.09" y="-7.07" width="12.4" height="33.66"/>
        <path class="cls-4" d="m497.24,10.24c0-4.97,2.45-7.43,6.47-7.43,1.7,0,3.34.54,5.04,1.63l5.04-8.72c-2.32-2.38-5.18-3.54-8.65-3.54-3.75,0-6.61,1.57-8.58,4.77l-.82-4.02h-10.9V26.59h12.4V10.24Z"/>
        <path class="cls-4" d="m531.03,4.99c-2.25-.14-3.34-.68-3.34-1.57,0-1.16,1.29-1.7,3.88-1.7,3.47,0,6.4.61,8.79,1.84l4.57-8.11c-3.82-2.32-8.45-3.47-13.83-3.47-9.61,0-15.53,4.43-15.53,11.31,0,6.34,5.65,10.63,14.1,10.97,2.79.14,4.22.75,4.22,1.84s-1.09,1.63-3.2,1.63c-4.63,0-8.72-.95-12.26-2.86l-4.29,8.38c4.29,2.86,9.47,4.29,15.6,4.29,10.42,0,16.35-4.29,16.35-11.45,0-6.75-5.59-10.56-15.06-11.11Z"/>
        <path class="cls-4" d="m554.19,22.64c3.47,3.13,8.24,4.7,14.31,4.7s11.24-1.77,15.47-5.38l-6.06-6.81c-2.52,1.7-5.45,2.59-8.72,2.59-4.16,0-6.95-1.84-7.7-4.57h23.64c1.23-6.13.2-11.17-3.07-15.12-3.34-3.88-8.17-5.86-14.58-5.86-5.52,0-10.02,1.64-13.42,4.91-3.41,3.27-5.11,7.56-5.11,12.81s1.77,9.67,5.25,12.74Zm13.69-21.05c3.61,0,5.86,2.04,5.93,5.38h-12.26c.07-3.34,2.59-5.38,6.34-5.38Z"/>
        <path class="cls-4" d="m392.27,56.71c-2.97-2.74-6.61-4.11-10.95-4.11-5.17,0-9.43,1.82-12.7,5.47-3.27,3.65-4.94,8.36-4.94,14.07s1.67,10.42,4.94,14.07c3.27,3.65,7.53,5.47,12.7,5.47,4.79,0,8.82-1.75,12.01-5.17l.76,4.41h12.01v-53.23h-13.84v19.01Zm-1.9,21.29c-1.44,1.52-3.27,2.28-5.47,2.28s-4.03-.76-5.4-2.28c-1.44-1.44-2.13-3.42-2.13-5.86s.68-4.41,2.13-5.93c1.37-1.44,3.19-2.2,5.4-2.2s4.03.76,5.47,2.2c1.37,1.52,2.05,3.5,2.05,5.93s-.68,4.41-2.05,5.86Z"/>
        <path class="cls-4" d="m433.03,52.53c-6.16,0-11.18,1.83-14.98,5.47-3.8,3.65-5.7,8.44-5.7,14.3s1.98,10.8,5.85,14.22c3.88,3.5,9.2,5.25,15.97,5.25s12.55-1.98,17.26-6.01l-6.77-7.6c-2.81,1.9-6.08,2.89-9.73,2.89-4.64,0-7.76-2.05-8.59-5.09h26.38c1.37-6.84.23-12.47-3.42-16.88-3.73-4.33-9.12-6.54-16.27-6.54Zm-6.62,16.5c.08-3.73,2.89-6.01,7.07-6.01s6.54,2.28,6.61,6.01h-13.69Z"/>
        <path class="cls-4" d="m523.13,52.53c-5.4,0-9.66,1.83-12.62,5.55-2.28-3.73-5.78-5.55-10.57-5.55-4.26,0-7.83,1.6-10.72,4.79l-.68-3.95h-12.01v37.56h13.84v-20.38c0-4.03,2.13-6.61,5.4-6.61,3.04,0,4.79,2.21,4.79,5.86v21.14h13.69v-20.38c0-4.03,2.13-6.61,5.4-6.61,3.04,0,4.79,2.21,4.79,5.86v21.14h13.84v-23.19c0-9.43-5.78-15.21-15.13-15.21Z"/>
        <path class="cls-4" d="m586.55,53.37h-12.01l-.76,4.33c-3.19-3.42-7.22-5.09-12.01-5.09-5.17,0-9.43,1.82-12.7,5.47-3.27,3.65-4.94,8.36-4.94,14.07s1.67,10.42,4.94,14.07c3.27,3.65,7.53,5.47,12.7,5.47,4.79,0,8.82-1.75,12.01-5.17l.36,2.08h-.24v17.43c-2.72-2.51-6.06-3.76-10.04-3.76-4.74,0-8.64,1.67-11.64,5.02-3,3.35-4.53,7.67-4.53,12.9s1.53,9.55,4.53,12.9c3,3.35,6.9,5.02,11.64,5.02,4.39,0,8.09-1.6,11.01-4.74l.7,4.04h11.01v-48.8h-.03v-35.23Zm-15.74,24.64c-1.44,1.52-3.27,2.28-5.47,2.28s-4.03-.76-5.4-2.28c-1.44-1.44-2.13-3.42-2.13-5.86s.68-4.41,2.13-5.93c1.37-1.44,3.19-2.2,5.4-2.2s4.03.76,5.47,2.2c1.37,1.52,2.05,3.5,2.05,5.93s-.68,4.41-2.05,5.86Zm1.34,47.54c-1.32,1.39-3,2.09-5.02,2.09s-3.69-.7-4.95-2.09c-1.33-1.33-1.95-3.14-1.95-5.37s.63-4.04,1.95-5.44c1.25-1.33,2.93-2.02,4.95-2.02s3.69.7,5.02,2.02c1.26,1.39,1.88,3.21,1.88,5.44s-.63,4.04-1.88,5.37Z"/>
        <path class="cls-4" d="m606.1,107.07l-.84-4.11h-11.15v34.44h12.69v-16.73c0-5.09,2.51-7.6,6.62-7.6,1.74,0,3.42.56,5.16,1.67l5.16-8.92c-2.37-2.44-5.3-3.63-8.85-3.63-3.83,0-6.76,1.6-8.78,4.88Z"/>
        <path class="cls-4" d="m643.25,102.19c-5.65,0-10.25,1.67-13.73,5.02-3.49,3.35-5.23,7.74-5.23,13.11s1.81,9.9,5.37,13.04c3.56,3.21,8.43,4.81,14.64,4.81s11.5-1.81,15.83-5.51l-6.2-6.97c-2.58,1.74-5.58,2.65-8.92,2.65-4.25,0-7.11-1.88-7.88-4.67h24.19c1.26-6.27.21-11.43-3.14-15.48-3.42-3.97-8.37-5.99-14.92-5.99Zm-6.07,15.13c.07-3.42,2.65-5.51,6.48-5.51s5.99,2.09,6.06,5.51h-12.55Z"/>
        <path class="cls-4" d="m677.2,126.73c-1.32-1.25-3.07-1.88-5.09-1.88s-3.76.63-5.09,1.88c-2.65,2.51-2.65,6.97,0,9.48,1.32,1.25,3.07,1.88,5.09,1.88s3.76-.63,5.09-1.88c2.65-2.51,2.65-6.97,0-9.48Z"/>
        <path class="cls-4" d="m312.63,2.1c-2.63,0-4.85.83-6.65,2.49V-6.94h-8.4V25.36h7.29l.46-2.68c1.94,2.08,4.38,3.14,7.29,3.14,3.14,0,5.72-1.11,7.71-3.32,1.98-2.22,3-5.08,3-8.54s-1.02-6.32-3-8.54c-1.98-2.22-4.57-3.32-7.71-3.32Zm1.15,15.41c-.88.92-1.98,1.38-3.32,1.38s-2.45-.46-3.28-1.38c-.88-.88-1.29-2.08-1.29-3.55s.42-2.68,1.29-3.6c.83-.88,1.94-1.34,3.28-1.34s2.45.46,3.32,1.34c.83.92,1.25,2.12,1.25,3.6s-.42,2.68-1.25,3.55Z"/>
        <polygon class="cls-4" points="339.73 8.01 337.05 15.86 334.51 8.01 332.57 2.56 323.57 2.56 332.39 24.86 328 34.87 336.87 34.87 350.99 2.56 341.9 2.56 339.73 8.01"/>
      </g>
      <g class="cls-5">
        <path class="cls-4" d="m344.86,193.75c-4.63,0-8.72-.95-12.26-2.86l-4.29,8.38c4.29,2.86,9.47,4.29,15.6,4.29,10.42,0,16.35-4.29,16.35-11.45,0-6.75-5.59-10.56-15.06-11.11-2.25-.14-3.34-.68-3.34-1.57,0-1.16,1.29-1.7,3.88-1.7,3.47,0,6.4.61,8.79,1.84l4.57-8.11c-3.82-2.32-8.45-3.47-13.83-3.47-9.61,0-15.53,4.43-15.53,11.31,0,6.34,5.65,10.63,14.1,10.97,2.79.14,4.22.75,4.22,1.84s-1.09,1.63-3.2,1.63Z"/>
        <path class="cls-4" d="m378.92,203.29c4.29,0,7.9-1.57,10.76-4.63l.68,3.95h10.76v-33.66h-10.76l-.68,3.88c-2.86-3.07-6.47-4.56-10.76-4.56-4.63,0-8.45,1.63-11.38,4.9-2.93,3.27-4.43,7.49-4.43,12.6s1.5,9.33,4.43,12.6c2.93,3.27,6.74,4.91,11.38,4.91Zm-1.63-22.82c1.23-1.29,2.86-1.98,4.84-1.98s3.61.68,4.91,1.98c1.23,1.36,1.84,3.13,1.84,5.31s-.61,3.95-1.84,5.25c-1.29,1.36-2.93,2.04-4.91,2.04s-3.61-.68-4.84-2.04c-1.29-1.29-1.91-3.07-1.91-5.25s.61-3.95,1.91-5.31Z"/>
        <rect class="cls-4" x="408.48" y="154.91" width="12.4" height="47.69"/>
        <path class="cls-4" d="m434.44,166.56c4.16,0,7.09-2.66,7.09-6.4s-2.93-6.47-7.09-6.47-7.02,2.66-7.02,6.47,2.93,6.4,7.02,6.4Z"/>
        <rect class="cls-4" x="428.24" y="168.95" width="12.4" height="33.66"/>
        <path class="cls-4" d="m460.39,186.25c0-4.97,2.45-7.43,6.47-7.43,1.7,0,3.34.54,5.04,1.63l5.04-8.72c-2.32-2.38-5.18-3.54-8.65-3.54-3.75,0-6.61,1.57-8.58,4.77l-.82-4.02h-10.9v33.66h12.4v-16.35Z"/>
        <path class="cls-4" d="m494.18,181.01c-2.25-.14-3.34-.68-3.34-1.57,0-1.16,1.29-1.7,3.88-1.7,3.47,0,6.4.61,8.79,1.84l4.57-8.11c-3.82-2.32-8.45-3.47-13.83-3.47-9.61,0-15.53,4.43-15.53,11.31,0,6.34,5.65,10.63,14.1,10.97,2.79.14,4.22.75,4.22,1.84s-1.09,1.63-3.2,1.63c-4.63,0-8.72-.95-12.26-2.86l-4.29,8.38c4.29,2.86,9.47,4.29,15.6,4.29,10.42,0,16.35-4.29,16.35-11.45,0-6.75-5.59-10.56-15.06-11.11Z"/>
        <path class="cls-4" d="m517.34,198.65c3.47,3.13,8.24,4.7,14.31,4.7s11.24-1.77,15.47-5.38l-6.06-6.81c-2.52,1.7-5.45,2.59-8.72,2.59-4.16,0-6.95-1.84-7.7-4.57h23.64c1.23-6.13.2-11.17-3.07-15.12-3.34-3.88-8.17-5.86-14.58-5.86-5.52,0-10.02,1.64-13.42,4.91-3.41,3.27-5.11,7.56-5.11,12.81s1.77,9.67,5.25,12.74Zm13.69-21.05c3.61,0,5.86,2.04,5.93,5.38h-12.26c.07-3.34,2.59-5.38,6.34-5.38Z"/>
        <path class="cls-4" d="m355.42,232.73c-2.97-2.74-6.61-4.11-10.95-4.11-5.17,0-9.43,1.82-12.7,5.47-3.27,3.65-4.94,8.36-4.94,14.07s1.67,10.42,4.94,14.07c3.27,3.65,7.53,5.47,12.7,5.47,4.79,0,8.82-1.75,12.01-5.17l.76,4.41h12.01v-53.23h-13.84v19.01Zm-1.9,21.29c-1.44,1.52-3.27,2.28-5.47,2.28s-4.03-.76-5.4-2.28c-1.44-1.44-2.13-3.42-2.13-5.86s.68-4.41,2.13-5.93c1.37-1.44,3.19-2.2,5.4-2.2s4.03.76,5.47,2.2c1.37,1.52,2.05,3.5,2.05,5.93s-.68,4.41-2.05,5.86Z"/>
        <path class="cls-4" d="m275.78,178.12c-2.63,0-4.85.83-6.65,2.49v-11.54h-8.4v32.31h7.29l.46-2.68c1.94,2.08,4.38,3.14,7.29,3.14,3.14,0,5.72-1.11,7.71-3.32,1.98-2.22,3-5.08,3-8.54s-1.02-6.32-3-8.54c-1.98-2.22-4.57-3.32-7.71-3.32Zm1.15,15.41c-.88.92-1.98,1.38-3.32,1.38s-2.45-.46-3.28-1.38c-.88-.88-1.29-2.08-1.29-3.55s.42-2.68,1.29-3.6c.83-.88,1.94-1.34,3.28-1.34s2.45.46,3.32,1.34c.83.92,1.25,2.12,1.25,3.6s-.42,2.68-1.25,3.55Z"/>
        <polygon class="cls-4" points="302.88 184.03 300.2 191.87 297.66 184.03 295.72 178.58 286.72 178.58 295.54 200.87 291.15 210.89 300.02 210.89 314.14 178.58 305.05 178.58 302.88 184.03"/>
      </g>
      <g class="cls-5">
        <path class="cls-4" d="m676.86,15.92c-2.63,0-4.85.83-6.65,2.49V6.87h-8.4v32.31h7.29l.46-2.68c1.94,2.08,4.38,3.14,7.29,3.14,3.14,0,5.72-1.11,7.71-3.32,1.98-2.22,3-5.08,3-8.54s-1.02-6.32-3-8.54c-1.98-2.22-4.57-3.32-7.71-3.32Zm1.15,15.41c-.88.92-1.98,1.38-3.32,1.38s-2.45-.46-3.28-1.38c-.88-.88-1.29-2.08-1.29-3.55s.42-2.68,1.29-3.6c.83-.88,1.94-1.34,3.28-1.34s2.45.46,3.32,1.34c.83.92,1.25,2.12,1.25,3.6s-.42,2.68-1.25,3.55Z"/>
        <polygon class="cls-4" points="703.96 21.82 701.28 29.67 698.74 21.82 696.81 16.38 687.81 16.38 696.62 38.67 692.24 48.69 701.1 48.69 715.22 16.38 706.13 16.38 703.96 21.82"/>
      </g>
      <g>
        <path class="cls-4" d="m702.89,199.84c-4.63,0-8.72-.95-12.26-2.86l-4.29,8.38c4.29,2.86,9.47,4.29,15.6,4.29,10.42,0,16.35-4.29,16.35-11.45,0-6.75-5.59-10.56-15.06-11.11-2.25-.14-3.34-.68-3.34-1.57,0-1.16,1.29-1.7,3.88-1.7,3.47,0,6.4.61,8.79,1.84l4.57-8.11c-3.82-2.32-8.45-3.47-13.83-3.47-9.61,0-15.53,4.43-15.53,11.31,0,6.34,5.65,10.63,14.1,10.97,2.79.14,4.22.75,4.22,1.84s-1.09,1.63-3.2,1.63Z"/>
        <path class="cls-4" d="m713.45,238.83c-2.97-2.74-6.61-4.11-10.95-4.11-5.17,0-9.43,1.82-12.7,5.47-3.27,3.65-4.94,8.36-4.94,14.07s1.67,10.42,4.94,14.07c3.27,3.65,7.53,5.47,12.7,5.47,4.79,0,8.82-1.75,12.01-5.17l.76,4.41h12.01v-53.23h-13.84v19.01Zm-1.9,21.29c-1.44,1.52-3.27,2.28-5.47,2.28s-4.03-.76-5.4-2.28c-1.44-1.44-2.13-3.42-2.13-5.86s.68-4.41,2.13-5.93c1.37-1.44,3.19-2.2,5.4-2.2s4.03.76,5.47,2.2c1.37,1.52,2.05,3.5,2.05,5.93s-.68,4.41-2.05,5.86Z"/>
        <path class="cls-4" d="m633.81,184.22c-2.63,0-4.85.83-6.65,2.49v-11.54h-8.4v32.31h7.29l.46-2.68c1.94,2.08,4.38,3.14,7.29,3.14,3.14,0,5.72-1.11,7.71-3.32,1.98-2.22,3-5.08,3-8.54s-1.02-6.32-3-8.54c-1.98-2.22-4.57-3.32-7.71-3.32Zm1.15,15.41c-.88.92-1.98,1.38-3.32,1.38s-2.45-.46-3.28-1.38c-.88-.88-1.29-2.08-1.29-3.55s.42-2.68,1.29-3.6c.83-.88,1.94-1.34,3.28-1.34s2.45.46,3.32,1.34c.83.92,1.25,2.12,1.25,3.6s-.42,2.68-1.25,3.55Z"/>
        <polygon class="cls-4" points="660.91 190.13 658.23 197.97 655.69 190.13 653.76 184.68 644.76 184.68 653.57 206.97 649.19 216.99 658.05 216.99 672.17 184.68 663.08 184.68 660.91 190.13"/>
      </g>
      <g>
        <path class="cls-4" d="m-7.21,192.63c-4.63,0-8.72-.95-12.26-2.86l-4.29,8.38c4.29,2.86,9.47,4.29,15.6,4.29,10.42,0,16.35-4.29,16.35-11.45,0-6.75-5.59-10.56-15.06-11.11-2.25-.14-3.34-.68-3.34-1.57,0-1.16,1.29-1.7,3.88-1.7,3.47,0,6.4.61,8.79,1.84l4.57-8.11c-3.82-2.32-8.45-3.47-13.83-3.47-9.61,0-15.53,4.43-15.53,11.31,0,6.34,5.65,10.63,14.1,10.97,2.79.14,4.22.75,4.22,1.84s-1.09,1.63-3.2,1.63Z"/>
        <path class="cls-4" d="m26.85,202.17c4.29,0,7.9-1.57,10.76-4.63l.68,3.95h10.76v-33.66h-10.76l-.68,3.88c-2.86-3.07-6.47-4.56-10.76-4.56-4.63,0-8.45,1.63-11.38,4.9-2.93,3.27-4.43,7.49-4.43,12.6s1.5,9.33,4.43,12.6c2.93,3.27,6.74,4.91,11.38,4.91Zm-1.63-22.82c1.23-1.29,2.86-1.98,4.84-1.98s3.61.68,4.91,1.98c1.23,1.36,1.84,3.13,1.84,5.31s-.61,3.95-1.84,5.25c-1.29,1.36-2.93,2.04-4.91,2.04s-3.61-.68-4.84-2.04c-1.29-1.29-1.91-3.07-1.91-5.25s.61-3.95,1.91-5.31Z"/>
        <rect class="cls-4" x="56.41" y="153.8" width="12.4" height="47.69"/>
        <path class="cls-4" d="m82.37,165.45c4.16,0,7.09-2.66,7.09-6.4s-2.93-6.47-7.09-6.47-7.02,2.66-7.02,6.47,2.93,6.4,7.02,6.4Z"/>
        <rect class="cls-4" x="76.17" y="167.83" width="12.4" height="33.66"/>
        <path class="cls-4" d="m108.32,185.14c0-4.97,2.45-7.43,6.47-7.43,1.7,0,3.34.54,5.04,1.63l5.04-8.72c-2.32-2.38-5.18-3.54-8.65-3.54-3.75,0-6.61,1.57-8.58,4.77l-.82-4.02h-10.9v33.66h12.4v-16.35Z"/>
        <path class="cls-4" d="m142.11,179.89c-2.25-.14-3.34-.68-3.34-1.57,0-1.16,1.29-1.7,3.88-1.7,3.47,0,6.4.61,8.79,1.84l4.57-8.11c-3.82-2.32-8.45-3.47-13.83-3.47-9.61,0-15.53,4.43-15.53,11.31,0,6.34,5.65,10.63,14.1,10.97,2.79.14,4.22.75,4.22,1.84s-1.09,1.63-3.2,1.63c-4.63,0-8.72-.95-12.26-2.86l-4.29,8.38c4.29,2.86,9.47,4.29,15.6,4.29,10.42,0,16.35-4.29,16.35-11.45,0-6.75-5.59-10.56-15.06-11.11Z"/>
        <path class="cls-4" d="m165.27,197.54c3.47,3.13,8.24,4.7,14.31,4.7s11.24-1.77,15.47-5.38l-6.06-6.81c-2.52,1.7-5.45,2.59-8.72,2.59-4.16,0-6.95-1.84-7.7-4.57h23.64c1.23-6.13.2-11.17-3.07-15.12-3.34-3.88-8.17-5.86-14.58-5.86-5.52,0-10.02,1.64-13.42,4.91-3.41,3.27-5.11,7.56-5.11,12.81s1.77,9.67,5.25,12.74Zm13.69-21.05c3.61,0,5.86,2.04,5.93,5.38h-12.26c.07-3.34,2.59-5.38,6.34-5.38Z"/>
        <path class="cls-4" d="m3.35,231.61c-2.97-2.74-6.61-4.11-10.95-4.11-5.17,0-9.43,1.82-12.7,5.47-3.27,3.65-4.94,8.36-4.94,14.07s1.67,10.42,4.94,14.07c3.27,3.65,7.53,5.47,12.7,5.47,4.79,0,8.82-1.75,12.01-5.17l.76,4.41h12.01v-53.23H3.35v19.01Zm-1.9,21.29c-1.44,1.52-3.27,2.28-5.47,2.28s-4.03-.76-5.4-2.28c-1.44-1.44-2.13-3.42-2.13-5.86s.68-4.41,2.13-5.93c1.37-1.44,3.19-2.2,5.4-2.2s4.03.76,5.47,2.2c1.37,1.52,2.05,3.5,2.05,5.93s-.68,4.41-2.05,5.86Z"/>
      </g>
    </g>
  </g>
</svg>