<?xml version="1.0" encoding="UTF-8"?>
<svg id="Capa_2" data-name="Capa 2" xmlns="http://www.w3.org/2000/svg" xmlns:xlink="http://www.w3.org/1999/xlink" viewBox="0 0 708.43 222.57">
  <defs>
    <style>
      .cls-1, .cls-2, .cls-3, .cls-4 {
        fill: none;
      }

      .cls-5 {
        clip-path: url(#clippath);
      }

      .cls-6 {
        fill: #d3bede;
      }

      .cls-7 {
        fill: #3f3d6e;
      }

      .cls-8 {
        clip-path: url(#clippath-1);
      }

      .cls-9 {
        clip-path: url(#clippath-4);
      }

      .cls-10 {
        clip-path: url(#clippath-3);
      }

      .cls-11 {
        clip-path: url(#clippath-2);
      }

      .cls-12 {
        clip-path: url(#clippath-7);
      }

      .cls-13 {
        clip-path: url(#clippath-8);
      }

      .cls-14 {
        clip-path: url(#clippath-6);
      }

      .cls-15 {
        clip-path: url(#clippath-5);
      }

      .cls-16 {
        clip-path: url(#clippath-9);
      }

      .cls-2 {
        stroke-width: 3.42px;
      }

      .cls-2, .cls-3, .cls-4 {
        stroke: #d3bede;
        stroke-miterlimit: 10;
      }

      .cls-17 {
        clip-path: url(#clippath-20);
      }

      .cls-18 {
        clip-path: url(#clippath-21);
      }

      .cls-19 {
        clip-path: url(#clippath-23);
      }

      .cls-20 {
        clip-path: url(#clippath-22);
      }

      .cls-21 {
        clip-path: url(#clippath-14);
      }

      .cls-22 {
        clip-path: url(#clippath-13);
      }

      .cls-23 {
        clip-path: url(#clippath-12);
      }

      .cls-24 {
        clip-path: url(#clippath-10);
      }

      .cls-25 {
        clip-path: url(#clippath-15);
      }

      .cls-26 {
        clip-path: url(#clippath-17);
      }

      .cls-27 {
        clip-path: url(#clippath-16);
      }

      .cls-28 {
        clip-path: url(#clippath-19);
      }

      .cls-29 {
        clip-path: url(#clippath-11);
      }

      .cls-30 {
        clip-path: url(#clippath-18);
      }

      .cls-3 {
        stroke-width: 3.8px;
      }

      .cls-31 {
        opacity: .4;
      }

      .cls-4 {
        stroke-width: 1.9px;
      }
    </style>
    <clipPath id="clippath">
      <rect class="cls-1" width="708.43" height="222.57"/>
    </clipPath>
    <clipPath id="clippath-1">
      <rect class="cls-1" x="53.13" y="-64.8" width="230.03" height="314.82"/>
    </clipPath>
    <clipPath id="clippath-2">
      <rect class="cls-1" x="53.13" y="-64.8" width="230.03" height="314.82"/>
    </clipPath>
    <clipPath id="clippath-3">
      <rect class="cls-1" x="49.71" y="145.66" width="80.6" height="104.74"/>
    </clipPath>
    <clipPath id="clippath-4">
      <rect class="cls-1" x="127.44" y="67.66" width="160.41" height="110.55"/>
    </clipPath>
    <clipPath id="clippath-5">
      <rect class="cls-1" x="72.18" y="-64.8" width="131.51" height="202.68"/>
    </clipPath>
    <clipPath id="clippath-6">
      <rect class="cls-1" x="-153.42" y="-131.81" width="230.03" height="314.82"/>
    </clipPath>
    <clipPath id="clippath-7">
      <rect class="cls-1" x="-153.42" y="-131.81" width="230.03" height="314.82"/>
    </clipPath>
    <clipPath id="clippath-8">
      <rect class="cls-1" x="-79.11" y=".65" width="160.41" height="110.55"/>
    </clipPath>
    <clipPath id="clippath-9">
      <rect class="cls-1" x="249.64" y="-259.74" width="230.03" height="314.82"/>
    </clipPath>
    <clipPath id="clippath-10">
      <rect class="cls-1" x="249.64" y="-259.74" width="230.03" height="314.82"/>
    </clipPath>
    <clipPath id="clippath-11">
      <rect class="cls-1" x="246.22" y="-49.28" width="80.6" height="104.74"/>
    </clipPath>
    <clipPath id="clippath-12">
      <rect class="cls-1" x="268.84" y="55.08" width="230.03" height="314.82"/>
    </clipPath>
    <clipPath id="clippath-13">
      <rect class="cls-1" x="268.84" y="55.08" width="230.03" height="314.82"/>
    </clipPath>
    <clipPath id="clippath-14">
      <rect class="cls-1" x="343.15" y="187.55" width="160.41" height="110.55"/>
    </clipPath>
    <clipPath id="clippath-15">
      <rect class="cls-1" x="287.89" y="55.08" width="131.51" height="202.68"/>
    </clipPath>
    <clipPath id="clippath-16">
      <rect class="cls-1" x="449.96" y="-157.41" width="230.03" height="314.82"/>
    </clipPath>
    <clipPath id="clippath-17">
      <rect class="cls-1" x="449.96" y="-157.41" width="230.03" height="314.82"/>
    </clipPath>
    <clipPath id="clippath-18">
      <rect class="cls-1" x="446.55" y="53.05" width="80.6" height="104.74"/>
    </clipPath>
    <clipPath id="clippath-19">
      <rect class="cls-1" x="524.27" y="-24.94" width="160.41" height="110.55"/>
    </clipPath>
    <clipPath id="clippath-20">
      <rect class="cls-1" x="469.01" y="-157.41" width="131.51" height="202.68"/>
    </clipPath>
    <clipPath id="clippath-21">
      <rect class="cls-1" x="532.34" y="92.61" width="230.03" height="314.82"/>
    </clipPath>
    <clipPath id="clippath-22">
      <rect class="cls-1" x="532.34" y="92.61" width="230.03" height="314.82"/>
    </clipPath>
    <clipPath id="clippath-23">
      <rect class="cls-1" x="551.39" y="92.61" width="131.51" height="202.68"/>
    </clipPath>
  </defs>
  <g id="Capa_1-2" data-name="Capa 1">
    <g class="cls-5">
      <rect class="cls-7" width="708.43" height="222.57"/>
      <g class="cls-8">
        <g class="cls-11">
          <g class="cls-31">
            <g class="cls-10">
              <path class="cls-6" d="m66.27,247.51c7.03-5.95,14.41-11.56,21.04-17.93,14.89-14.33,27.13-30.61,33.72-50.43,4.83-14.53,2.72-17.48-11.53-18.06-8.82-.36-15.62,2.87-15.59,11.73.02,5.3-.08,8.28,1.07,13.51,1.1,5.01-5.58,5.48-10.47,4.88-13.03-1.59-24.02,6.08-26.91,18.8-1.13,4.98,2.71,8.7,7.54,6.69,10.14-4.23,20.06-9,30.06-13.55,1.37-.62,9.12-5.3,10.49-5.91.28.59-1.64,1.81-5.54,5.84-11.62,5.55-23,11.71-34.96,16.41-7.11,2.8-12.44-4.02-9.57-11.78,3.77-10.17,12.38-21.09,26.1-19.49,1.6.19,3.23.02,5.28.02-1.03-4.3-1.96-8.1-2.85-11.92-2.69-11.44,6.98-25.26,18.33-26.21,13.92-1.17,25.5,12.74,22.1,26.45-3.5,14.13-11.26,26.08-19.8,37.48-10.06,13.42-21.44,25.58-36.64,33.51-.43.22-.92.34-1.38.5-.16-.17-.33-.35-.49-.52"/>
              <path class="cls-2" d="m66.27,247.51c7.03-5.95,14.41-11.56,21.04-17.93,14.89-14.33,27.13-30.61,33.72-50.43,4.83-14.53,2.72-17.48-11.53-18.06-8.82-.36-15.62,2.87-15.59,11.73.02,5.3-.08,8.28,1.07,13.51,1.1,5.01-5.58,5.48-10.47,4.88-13.03-1.59-24.02,6.08-26.91,18.8-1.13,4.98,2.71,8.7,7.54,6.69,10.14-4.23,20.06-9,30.06-13.55,1.37-.62,9.12-5.3,10.49-5.91.28.59-1.64,1.81-5.54,5.84-11.62,5.55-23,11.71-34.96,16.41-7.11,2.8-12.44-4.02-9.57-11.78,3.77-10.17,12.38-21.09,26.1-19.49,1.6.19,3.23.02,5.28.02-1.03-4.3-1.96-8.1-2.85-11.92-2.69-11.44,6.98-25.26,18.33-26.21,13.92-1.17,25.5,12.74,22.1,26.45-3.5,14.13-11.26,26.08-19.8,37.48-10.06,13.42-21.44,25.58-36.64,33.51-.43.22-.92.34-1.38.5-.16-.17-.33-.35-.49-.52Z"/>
            </g>
          </g>
          <g class="cls-31">
            <g class="cls-9">
              <path class="cls-6" d="m211.03,131.62c11.81,8.54,12.07,16.04.72,23.8-18.13,12.4-33.34,13.81-55.84,5.93-4.26-1.49-8.02-2.29-12.49-4.99,4.77,1.14,10.08,3.12,12.49,3.61,19.92,7.06,34.89,4.53,51.56-5.51,2.33-1.4,4.51-3.14,6.15-5.08,5.21-6.13,3.44-10.88-5.08-14.45-1.99-.83-4.02-1.61-7.87-3.14,4.23-1.53,7.14-2.57,10.04-3.63,19.13-6.99,38.26-13.99,57.37-21,.66-.24,1.23-.66,1.81-1.02,5.06-3.12,10.27-7.18,7.67-12.6-2.48-5.18-9.41-6.11-16.14-6.2-23.3-.33-43.34,6.78-62.21,16.13-18.71,9.28-35.16,20.67-44.41,37.74-.16.29-.84.36-1.95.8,3.41-9.66,9.81-17.16,17.8-23.74,24.13-19.89,53.05-32.1,88.21-34.01,3.15-.17,6.45.44,9.65.89,6.12.88,12.15,3.33,12.69,8.52.41,3.91-1.64,9.32-5.05,11.61-8.02,5.4-17.09,10.02-26.51,13.69-13.51,5.27-26.59,8.76-38.61,12.63"/>
              <path class="cls-3" d="m211.03,131.62c11.81,8.54,12.07,16.04.72,23.8-18.13,12.4-33.34,13.81-55.84,5.93-4.26-1.49-8.02-2.29-12.49-4.99,4.77,1.14,10.08,3.12,12.49,3.61,19.92,7.06,34.89,4.53,51.56-5.51,2.33-1.4,4.51-3.14,6.15-5.08,5.21-6.13,3.44-10.88-5.08-14.45-1.99-.83-4.02-1.61-7.87-3.14,4.23-1.53,7.14-2.57,10.04-3.63,19.13-6.99,38.26-13.99,57.37-21,.66-.24,1.23-.66,1.81-1.02,5.06-3.12,10.27-7.18,7.67-12.6-2.48-5.18-9.41-6.11-16.14-6.2-23.3-.33-43.34,6.78-62.21,16.13-18.71,9.28-35.16,20.67-44.41,37.74-.16.29-.84.36-1.95.8,3.41-9.66,9.81-17.16,17.8-23.74,24.13-19.89,53.05-32.1,88.21-34.01,3.15-.17,6.45.44,9.65.89,6.12.88,12.15,3.33,12.69,8.52.41,3.91-1.64,9.32-5.05,11.61-8.02,5.4-17.09,10.02-26.51,13.69-13.51,5.27-26.59,8.76-38.61,12.63Z"/>
            </g>
          </g>
          <g class="cls-31">
            <g class="cls-15">
              <path class="cls-6" d="m154.79,109.66c2.5-6.5,7.97-14.12,11.37-20.15,14.69-26.03,25.17-53.55,26.08-84.18.64-21.28,2-28.5-17.56-42.65-4.02-2.91-3.07-2.39-8-4.45-6.86-2.86-8.27-4.79-13.02-3.34-4.83,1.47-8.9,6.32-9.47,8.11-2.19,6.95-3.61,7.64-5.74,16.61-3.76,15.87-6.32,39.48-1.22,56.52,1.99,6.65-1.91,16.74-4.33,23.31-2.81,7.65-11.31,10.8-14.75,12.31-21.06,9.23-39.91,61.27-30.16,60.14-2.04.24,14.22-1.05,33.02-22.56.63.9,6.33-9.31,6.64-9.3,6.28-9.46-4.21,9.77-2.21,6.43-2.8,4.67-6.15,7.71-9.4,11.16,0,0-10.11,8.5-24.13,17.47-4.88,3.12-9.79,1.11-11.33-4.4-13.33-25.02,7.93-59.1,37.94-67.28,10.07-2.75,5.47-7.26,4.33-15.23-2.74-19.3-6.79-37.52-6.5-57.05.2-13.3,2.91-31.88,12.76-42.13,11.49-11.94,20.35-12.56,35.12-6.09,27.2,11.9,36.49,31.65,34.87,54.78-2.12,30.28-23.98,85.01-44.35,111.98"/>
              <path class="cls-4" d="m154.79,109.66c2.5-6.5,7.97-14.12,11.37-20.15,14.69-26.03,25.17-53.55,26.08-84.18.64-21.28,2-28.5-17.56-42.65-4.02-2.91-3.07-2.39-8-4.45-6.86-2.86-8.27-4.79-13.02-3.34-4.83,1.47-8.9,6.32-9.47,8.11-2.19,6.95-3.61,7.64-5.74,16.61-3.76,15.87-6.32,39.48-1.22,56.52,1.99,6.65-1.91,16.74-4.33,23.31-2.81,7.65-11.31,10.8-14.75,12.31-21.06,9.23-39.91,61.27-30.16,60.14-2.04.24,14.22-1.05,33.02-22.56.63.9,6.33-9.31,6.64-9.3,6.28-9.46-4.21,9.77-2.21,6.43-2.8,4.67-6.15,7.71-9.4,11.16,0,0-10.11,8.5-24.13,17.47-4.88,3.12-9.79,1.11-11.33-4.4-13.33-25.02,7.93-59.1,37.94-67.28,10.07-2.75,5.47-7.26,4.33-15.23-2.74-19.3-6.79-37.52-6.5-57.05.2-13.3,2.91-31.88,12.76-42.13,11.49-11.94,20.35-12.56,35.12-6.09,27.2,11.9,36.49,31.65,34.87,54.78-2.12,30.28-23.98,85.01-44.35,111.98Z"/>
            </g>
          </g>
        </g>
      </g>
      <g class="cls-14">
        <g class="cls-12">
          <g class="cls-31">
            <g class="cls-13">
              <path class="cls-6" d="m4.48,64.61c11.81,8.54,12.07,16.04.72,23.8-18.13,12.4-33.34,13.81-55.84,5.93-4.26-1.49-8.02-2.29-12.49-4.99,4.77,1.14,10.08,3.12,12.49,3.61,19.92,7.06,34.89,4.53,51.56-5.51,2.33-1.4,4.51-3.14,6.15-5.08,5.21-6.13,3.44-10.88-5.08-14.45-1.99-.83-4.02-1.61-7.87-3.14,4.23-1.53,7.14-2.57,10.04-3.63,19.13-6.99,38.26-13.99,57.37-21,.66-.24,1.23-.66,1.81-1.02,5.06-3.12,10.27-7.18,7.67-12.6-2.48-5.18-9.41-6.11-16.14-6.2-23.3-.33-43.34,6.78-62.21,16.13-18.71,9.28-35.16,20.67-44.41,37.74-.16.29-.84.36-1.95.8,3.41-9.66,9.81-17.16,17.8-23.74C-11.76,31.38,17.16,19.17,52.31,17.26c3.15-.17,6.45.44,9.65.89,6.12.88,12.15,3.33,12.69,8.52.41,3.91-1.64,9.32-5.05,11.61-8.02,5.4-17.09,10.02-26.51,13.69-13.51,5.27-26.59,8.76-38.61,12.63"/>
              <path class="cls-3" d="m4.48,64.61c11.81,8.54,12.07,16.04.72,23.8-18.13,12.4-33.34,13.81-55.84,5.93-4.26-1.49-8.02-2.29-12.49-4.99,4.77,1.14,10.08,3.12,12.49,3.61,19.92,7.06,34.89,4.53,51.56-5.51,2.33-1.4,4.51-3.14,6.15-5.08,5.21-6.13,3.44-10.88-5.08-14.45-1.99-.83-4.02-1.61-7.87-3.14,4.23-1.53,7.14-2.57,10.04-3.63,19.13-6.99,38.26-13.99,57.37-21,.66-.24,1.23-.66,1.81-1.02,5.06-3.12,10.27-7.18,7.67-12.6-2.48-5.18-9.41-6.11-16.14-6.2-23.3-.33-43.34,6.78-62.21,16.13-18.71,9.28-35.16,20.67-44.41,37.74-.16.29-.84.36-1.95.8,3.41-9.66,9.81-17.16,17.8-23.74C-11.76,31.38,17.16,19.17,52.31,17.26c3.15-.17,6.45.44,9.65.89,6.12.88,12.15,3.33,12.69,8.52.41,3.91-1.64,9.32-5.05,11.61-8.02,5.4-17.09,10.02-26.51,13.69-13.51,5.27-26.59,8.76-38.61,12.63Z"/>
            </g>
          </g>
        </g>
      </g>
      <g class="cls-16">
        <g class="cls-24">
          <g class="cls-31">
            <g class="cls-29">
              <path class="cls-6" d="m262.78,52.57c7.03-5.95,14.41-11.56,21.04-17.93,14.89-14.33,27.13-30.61,33.72-50.43,4.83-14.53,2.72-17.48-11.53-18.06-8.82-.36-15.62,2.87-15.59,11.73.02,5.3-.08,8.28,1.07,13.51,1.1,5.01-5.58,5.48-10.47,4.88-13.03-1.59-24.02,6.08-26.91,18.8-1.13,4.98,2.71,8.7,7.54,6.69,10.14-4.23,20.06-9,30.06-13.55,1.37-.62,9.12-5.3,10.49-5.91.28.59-1.64,1.81-5.54,5.84-11.62,5.55-23,11.71-34.96,16.41-7.11,2.8-12.44-4.02-9.57-11.78,3.77-10.17,12.38-21.09,26.1-19.49,1.6.19,3.23.02,5.28.02-1.03-4.3-1.96-8.1-2.85-11.92-2.69-11.44,6.98-25.26,18.33-26.21,13.92-1.17,25.5,12.74,22.1,26.45-3.5,14.13-11.26,26.08-19.8,37.48-10.06,13.42-21.44,25.58-36.64,33.51-.43.22-.92.34-1.38.5-.16-.17-.33-.35-.49-.52"/>
              <path class="cls-2" d="m262.78,52.57c7.03-5.95,14.41-11.56,21.04-17.93,14.89-14.33,27.13-30.61,33.72-50.43,4.83-14.53,2.72-17.48-11.53-18.06-8.82-.36-15.62,2.87-15.59,11.73.02,5.3-.08,8.28,1.07,13.51,1.1,5.01-5.58,5.48-10.47,4.88-13.03-1.59-24.02,6.08-26.91,18.8-1.13,4.98,2.71,8.7,7.54,6.69,10.14-4.23,20.06-9,30.06-13.55,1.37-.62,9.12-5.3,10.49-5.91.28.59-1.64,1.81-5.54,5.84-11.62,5.55-23,11.71-34.96,16.41-7.11,2.8-12.44-4.02-9.57-11.78,3.77-10.17,12.38-21.09,26.1-19.49,1.6.19,3.23.02,5.28.02-1.03-4.3-1.96-8.1-2.85-11.92-2.69-11.44,6.98-25.26,18.33-26.21,13.92-1.17,25.5,12.74,22.1,26.45-3.5,14.13-11.26,26.08-19.8,37.48-10.06,13.42-21.44,25.58-36.64,33.51-.43.22-.92.34-1.38.5-.16-.17-.33-.35-.49-.52Z"/>
            </g>
          </g>
        </g>
      </g>
      <g class="cls-23">
        <g class="cls-22">
          <g class="cls-31">
            <g class="cls-21">
              <path class="cls-6" d="m426.74,251.5c11.81,8.54,12.07,16.04.72,23.8-18.13,12.4-33.34,13.81-55.84,5.93-4.26-1.49-8.02-2.29-12.49-4.99,4.77,1.14,10.08,3.12,12.49,3.61,19.92,7.06,34.89,4.53,51.56-5.51,2.33-1.4,4.51-3.14,6.15-5.08,5.21-6.13,3.44-10.88-5.08-14.45-1.99-.83-4.02-1.61-7.87-3.14,4.23-1.53,7.14-2.57,10.04-3.63,19.13-6.99,38.26-13.99,57.37-21,.66-.24,1.23-.66,1.81-1.02,5.06-3.12,10.27-7.18,7.67-12.6-2.48-5.18-9.41-6.11-16.14-6.2-23.3-.33-43.34,6.78-62.21,16.13-18.71,9.28-35.16,20.67-44.41,37.74-.16.29-.84.36-1.95.8,3.41-9.66,9.81-17.16,17.8-23.74,24.13-19.89,53.05-32.1,88.21-34.01,3.15-.17,6.45.44,9.65.89,6.12.88,12.15,3.33,12.69,8.52.41,3.91-1.64,9.32-5.05,11.61-8.02,5.4-17.09,10.02-26.51,13.69-13.51,5.27-26.59,8.76-38.61,12.63"/>
              <path class="cls-3" d="m426.74,251.5c11.81,8.54,12.07,16.04.72,23.8-18.13,12.4-33.34,13.81-55.84,5.93-4.26-1.49-8.02-2.29-12.49-4.99,4.77,1.14,10.08,3.12,12.49,3.61,19.92,7.06,34.89,4.53,51.56-5.51,2.33-1.4,4.51-3.14,6.15-5.08,5.21-6.13,3.44-10.88-5.08-14.45-1.99-.83-4.02-1.61-7.87-3.14,4.23-1.53,7.14-2.57,10.04-3.63,19.13-6.99,38.26-13.99,57.37-21,.66-.24,1.23-.66,1.81-1.02,5.06-3.12,10.27-7.18,7.67-12.6-2.48-5.18-9.41-6.11-16.14-6.2-23.3-.33-43.34,6.78-62.21,16.13-18.71,9.28-35.16,20.67-44.41,37.74-.16.29-.84.36-1.95.8,3.41-9.66,9.81-17.16,17.8-23.74,24.13-19.89,53.05-32.1,88.21-34.01,3.15-.17,6.45.44,9.65.89,6.12.88,12.15,3.33,12.69,8.52.41,3.91-1.64,9.32-5.05,11.61-8.02,5.4-17.09,10.02-26.51,13.69-13.51,5.27-26.59,8.76-38.61,12.63Z"/>
            </g>
          </g>
          <g class="cls-31">
            <g class="cls-25">
              <path class="cls-6" d="m370.5,229.54c2.5-6.5,7.97-14.12,11.37-20.15,14.69-26.03,25.17-53.55,26.08-84.18.64-21.28,2-28.5-17.56-42.65-4.02-2.91-3.07-2.39-8-4.45-6.86-2.86-8.27-4.79-13.02-3.34-4.83,1.47-8.9,6.32-9.47,8.11-2.19,6.95-3.61,7.64-5.74,16.61-3.76,15.87-6.32,39.48-1.22,56.52,1.99,6.65-1.91,16.74-4.33,23.31-2.81,7.65-11.31,10.8-14.75,12.31-21.06,9.23-39.91,61.27-30.16,60.14-2.04.24,14.22-1.05,33.02-22.56.63.9,6.33-9.31,6.64-9.3,6.28-9.46-4.21,9.77-2.21,6.43-2.8,4.67-6.15,7.71-9.4,11.16,0,0-10.11,8.5-24.13,17.47-4.88,3.12-9.79,1.11-11.33-4.4-13.33-25.02,7.93-59.1,37.94-67.28,10.07-2.75,5.47-7.26,4.33-15.23-2.74-19.3-6.79-37.52-6.5-57.05.2-13.3,2.91-31.88,12.76-42.13,11.49-11.94,20.35-12.56,35.12-6.09,27.2,11.9,36.49,31.65,34.87,54.78-2.12,30.28-23.98,85.01-44.35,111.98"/>
              <path class="cls-4" d="m370.5,229.54c2.5-6.5,7.97-14.12,11.37-20.15,14.69-26.03,25.17-53.55,26.08-84.18.64-21.28,2-28.5-17.56-42.65-4.02-2.91-3.07-2.39-8-4.45-6.86-2.86-8.27-4.79-13.02-3.34-4.83,1.47-8.9,6.32-9.47,8.11-2.19,6.95-3.61,7.64-5.74,16.61-3.76,15.87-6.32,39.48-1.22,56.52,1.99,6.65-1.91,16.74-4.33,23.31-2.81,7.65-11.31,10.8-14.75,12.31-21.06,9.23-39.91,61.27-30.16,60.14-2.04.24,14.22-1.05,33.02-22.56.63.9,6.33-9.31,6.64-9.3,6.28-9.46-4.21,9.77-2.21,6.43-2.8,4.67-6.15,7.71-9.4,11.16,0,0-10.11,8.5-24.13,17.47-4.88,3.12-9.79,1.11-11.33-4.4-13.33-25.02,7.93-59.1,37.94-67.28,10.07-2.75,5.47-7.26,4.33-15.23-2.74-19.3-6.79-37.52-6.5-57.05.2-13.3,2.91-31.88,12.76-42.13,11.49-11.94,20.35-12.56,35.12-6.09,27.2,11.9,36.49,31.65,34.87,54.78-2.12,30.28-23.98,85.01-44.35,111.98Z"/>
            </g>
          </g>
        </g>
      </g>
      <g class="cls-27">
        <g class="cls-26">
          <g class="cls-31">
            <g class="cls-30">
              <path class="cls-6" d="m463.11,154.91c7.03-5.95,14.41-11.56,21.04-17.93,14.89-14.33,27.13-30.61,33.72-50.43,4.83-14.53,2.72-17.48-11.53-18.06-8.82-.36-15.62,2.87-15.59,11.73.02,5.3-.08,8.28,1.07,13.51,1.1,5.01-5.58,5.48-10.47,4.88-13.03-1.59-24.02,6.08-26.91,18.8-1.13,4.98,2.71,8.7,7.54,6.69,10.14-4.23,20.06-9,30.06-13.55,1.37-.62,9.12-5.3,10.49-5.91.28.59-1.64,1.81-5.54,5.84-11.62,5.55-23,11.71-34.96,16.41-7.11,2.8-12.44-4.02-9.57-11.78,3.77-10.17,12.38-21.09,26.1-19.49,1.6.19,3.23.02,5.28.02-1.03-4.3-1.96-8.1-2.85-11.92-2.69-11.44,6.98-25.26,18.33-26.21,13.92-1.17,25.5,12.74,22.1,26.45-3.5,14.13-11.26,26.08-19.8,37.48-10.06,13.42-21.44,25.58-36.64,33.51-.43.22-.92.34-1.38.5-.16-.17-.33-.35-.49-.52"/>
              <path class="cls-2" d="m463.11,154.91c7.03-5.95,14.41-11.56,21.04-17.93,14.89-14.33,27.13-30.61,33.72-50.43,4.83-14.53,2.72-17.48-11.53-18.06-8.82-.36-15.62,2.87-15.59,11.73.02,5.3-.08,8.28,1.07,13.51,1.1,5.01-5.58,5.48-10.47,4.88-13.03-1.59-24.02,6.08-26.91,18.8-1.13,4.98,2.71,8.7,7.54,6.69,10.14-4.23,20.06-9,30.06-13.55,1.37-.62,9.12-5.3,10.49-5.91.28.59-1.64,1.81-5.54,5.84-11.62,5.55-23,11.71-34.96,16.41-7.11,2.8-12.44-4.02-9.57-11.78,3.77-10.17,12.38-21.09,26.1-19.49,1.6.19,3.23.02,5.28.02-1.03-4.3-1.96-8.1-2.85-11.92-2.69-11.44,6.98-25.26,18.33-26.21,13.92-1.17,25.5,12.74,22.1,26.45-3.5,14.13-11.26,26.08-19.8,37.48-10.06,13.42-21.44,25.58-36.64,33.51-.43.22-.92.34-1.38.5-.16-.17-.33-.35-.49-.52Z"/>
            </g>
          </g>
          <g class="cls-31">
            <g class="cls-28">
              <path class="cls-6" d="m607.87,39.01c11.81,8.54,12.07,16.04.72,23.8-18.13,12.4-33.34,13.81-55.84,5.93-4.26-1.49-8.02-2.29-12.49-4.99,4.77,1.14,10.08,3.12,12.49,3.61,19.92,7.06,34.89,4.53,51.56-5.51,2.33-1.4,4.51-3.14,6.15-5.08,5.21-6.13,3.44-10.88-5.08-14.45-1.99-.83-4.02-1.61-7.87-3.14,4.23-1.53,7.14-2.57,10.04-3.63,19.13-6.99,38.26-13.99,57.37-21,.66-.24,1.23-.66,1.81-1.02,5.06-3.12,10.27-7.18,7.67-12.6-2.48-5.18-9.41-6.11-16.14-6.2-23.3-.33-43.34,6.78-62.21,16.13-18.71,9.28-35.16,20.67-44.41,37.74-.16.29-.84.36-1.95.8,3.41-9.66,9.81-17.16,17.8-23.74,24.13-19.89,53.05-32.1,88.21-34.01,3.15-.17,6.45.44,9.65.89,6.12.88,12.15,3.33,12.69,8.52.41,3.91-1.64,9.32-5.05,11.61-8.02,5.4-17.09,10.02-26.51,13.69-13.51,5.27-26.59,8.76-38.61,12.63"/>
              <path class="cls-3" d="m607.87,39.01c11.81,8.54,12.07,16.04.72,23.8-18.13,12.4-33.34,13.81-55.84,5.93-4.26-1.49-8.02-2.29-12.49-4.99,4.77,1.14,10.08,3.12,12.49,3.61,19.92,7.06,34.89,4.53,51.56-5.51,2.33-1.4,4.51-3.14,6.15-5.08,5.21-6.13,3.44-10.88-5.08-14.45-1.99-.83-4.02-1.61-7.87-3.14,4.23-1.53,7.14-2.57,10.04-3.63,19.13-6.99,38.26-13.99,57.37-21,.66-.24,1.23-.66,1.81-1.02,5.06-3.12,10.27-7.18,7.67-12.6-2.48-5.18-9.41-6.11-16.14-6.2-23.3-.33-43.34,6.78-62.21,16.13-18.71,9.28-35.16,20.67-44.41,37.74-.16.29-.84.36-1.95.8,3.41-9.66,9.81-17.16,17.8-23.74,24.13-19.89,53.05-32.1,88.21-34.01,3.15-.17,6.45.44,9.65.89,6.12.88,12.15,3.33,12.69,8.52.41,3.91-1.64,9.32-5.05,11.61-8.02,5.4-17.09,10.02-26.51,13.69-13.51,5.27-26.59,8.76-38.61,12.63Z"/>
            </g>
          </g>
          <g class="cls-31">
            <g class="cls-17">
              <path class="cls-6" d="m551.63,17.05c2.5-6.5,7.97-14.12,11.37-20.15,14.69-26.03,25.17-53.55,26.08-84.18.64-21.28,2-28.5-17.56-42.65-4.02-2.91-3.07-2.39-8-4.45-6.86-2.86-8.27-4.79-13.02-3.34-4.83,1.47-8.9,6.32-9.47,8.11-2.19,6.95-3.61,7.64-5.74,16.61-3.76,15.87-6.32,39.48-1.22,56.52,1.99,6.65-1.91,16.74-4.33,23.31-2.81,7.65-11.31,10.8-14.75,12.31-21.06,9.23-39.91,61.27-30.16,60.14-2.04.24,14.22-1.05,33.02-22.56.63.9,6.33-9.31,6.64-9.3,6.28-9.46-4.21,9.77-2.21,6.43-2.8,4.67-6.15,7.71-9.4,11.16,0,0-10.11,8.5-24.13,17.47-4.88,3.12-9.79,1.11-11.33-4.4-13.33-25.02,7.93-59.1,37.94-67.28,10.07-2.75,5.47-7.26,4.33-15.23-2.74-19.3-6.79-37.52-6.5-57.05.2-13.3,2.91-31.88,12.76-42.13,11.49-11.94,20.35-12.56,35.12-6.09,27.2,11.9,36.49,31.65,34.87,54.78-2.12,30.28-23.98,85.01-44.35,111.98"/>
              <path class="cls-4" d="m551.63,17.05c2.5-6.5,7.97-14.12,11.37-20.15,14.69-26.03,25.17-53.55,26.08-84.18.64-21.28,2-28.5-17.56-42.65-4.02-2.91-3.07-2.39-8-4.45-6.86-2.86-8.27-4.79-13.02-3.34-4.83,1.47-8.9,6.32-9.47,8.11-2.19,6.95-3.61,7.64-5.74,16.61-3.76,15.87-6.32,39.48-1.22,56.52,1.99,6.65-1.91,16.74-4.33,23.31-2.81,7.65-11.31,10.8-14.75,12.31-21.06,9.23-39.91,61.27-30.16,60.14-2.04.24,14.22-1.05,33.02-22.56.63.9,6.33-9.31,6.64-9.3,6.28-9.46-4.21,9.77-2.21,6.43-2.8,4.67-6.15,7.71-9.4,11.16,0,0-10.11,8.5-24.13,17.47-4.88,3.12-9.79,1.11-11.33-4.4-13.33-25.02,7.93-59.1,37.94-67.28,10.07-2.75,5.47-7.26,4.33-15.23-2.74-19.3-6.79-37.52-6.5-57.05.2-13.3,2.91-31.88,12.76-42.13,11.49-11.94,20.35-12.56,35.12-6.09,27.2,11.9,36.49,31.65,34.87,54.78-2.12,30.28-23.98,85.01-44.35,111.98Z"/>
            </g>
          </g>
        </g>
      </g>
      <g class="cls-18">
        <g class="cls-20">
          <g class="cls-31">
            <g class="cls-19">
              <path class="cls-6" d="m634,267.07c2.5-6.5,7.97-14.12,11.37-20.15,14.69-26.03,25.17-53.55,26.08-84.18.64-21.28,2-28.5-17.56-42.65-4.02-2.91-3.07-2.39-8-4.45-6.86-2.86-8.27-4.79-13.02-3.34-4.83,1.47-8.9,6.32-9.47,8.11-2.19,6.95-3.61,7.64-5.74,16.61-3.76,15.87-6.32,39.48-1.22,56.52,1.99,6.65-1.91,16.74-4.33,23.31-2.81,7.65-11.31,10.8-14.75,12.31-21.06,9.23-39.91,61.27-30.16,60.14-2.04.24,14.22-1.05,33.02-22.56.63.9,6.33-9.31,6.64-9.3,6.28-9.46-4.21,9.77-2.21,6.43-2.8,4.67-6.15,7.71-9.4,11.16,0,0-10.11,8.5-24.13,17.47-4.88,3.12-9.79,1.11-11.33-4.4-13.33-25.02,7.93-59.1,37.94-67.28,10.07-2.75,5.47-7.26,4.33-15.23-2.74-19.3-6.79-37.52-6.5-57.05.2-13.3,2.91-31.88,12.76-42.13,11.49-11.94,20.35-12.56,35.12-6.09,27.2,11.9,36.49,31.65,34.87,54.78-2.12,30.28-23.98,85.01-44.35,111.98"/>
              <path class="cls-4" d="m634,267.07c2.5-6.5,7.97-14.12,11.37-20.15,14.69-26.03,25.17-53.55,26.08-84.18.64-21.28,2-28.5-17.56-42.65-4.02-2.91-3.07-2.39-8-4.45-6.86-2.86-8.27-4.79-13.02-3.34-4.83,1.47-8.9,6.32-9.47,8.11-2.19,6.95-3.61,7.64-5.74,16.61-3.76,15.87-6.32,39.48-1.22,56.52,1.99,6.65-1.91,16.74-4.33,23.31-2.81,7.65-11.31,10.8-14.75,12.31-21.06,9.23-39.91,61.27-30.16,60.14-2.04.24,14.22-1.05,33.02-22.56.63.9,6.33-9.31,6.64-9.3,6.28-9.46-4.21,9.77-2.21,6.43-2.8,4.67-6.15,7.71-9.4,11.16,0,0-10.11,8.5-24.13,17.47-4.88,3.12-9.79,1.11-11.33-4.4-13.33-25.02,7.93-59.1,37.94-67.28,10.07-2.75,5.47-7.26,4.33-15.23-2.74-19.3-6.79-37.52-6.5-57.05.2-13.3,2.91-31.88,12.76-42.13,11.49-11.94,20.35-12.56,35.12-6.09,27.2,11.9,36.49,31.65,34.87,54.78-2.12,30.28-23.98,85.01-44.35,111.98Z"/>
            </g>
          </g>
        </g>
      </g>
    </g>
  </g>
</svg>