<?xml version="1.0" encoding="UTF-8"?>
<svg id="Capa_2" data-name="Capa 2" xmlns="http://www.w3.org/2000/svg" xmlns:xlink="http://www.w3.org/1999/xlink" viewBox="0 0 708.43 56.76">
  <defs>
    <style>
      .cls-1 {
        fill: none;
      }

      .cls-2 {
        clip-path: url(#clippath);
      }

      .cls-3 {
        fill: #fff;
      }
    </style>
    <clipPath id="clippath">
      <rect class="cls-1" width="708.43" height="56.76"/>
    </clipPath>
  </defs>
  <g id="Capa_1-2" data-name="Capa 1">
    <g class="cls-2">
      <rect class="cls-3" x="-1.24" y=".22" width="708.43" height="56.76"/>
      <path d="m261.56-75.62c-6.97,18.95-13.94,37.9-20.97,57,.48.53,1.06,1.19,1.67,1.84,2.49,2.66,4.52,5.62,5.96,8.96.35.8.82,1.09,1.69,1.1,10.74.05,21.47.12,32.2.2,1.3.01,2.6.13,3.9.23.22.02.42.18.63.27v.37c-.74.09-1.47.26-2.2.26-6.86,0-13.72,0-20.58-.03-4.85-.02-9.69-.07-14.54-.1-.26,0-.51.05-.91.09.14.58.25,1.11.41,1.62,1.41,4.39,2.01,8.91,2.08,13.49.09,6.32,0,12.64.06,18.96.04,4.33.99,8.46,3.1,12.29,2.97,5.37,7.57,7.38,13.53,5.86,3.34-.86,6.38-2.24,8.78-4.82.23-.25.64-.33.96-.49.08.1.15.2.23.29-.23.29-.43.62-.71.86-5.07,4.48-10.87,7.08-17.77,6.85-2.34-.08-4.72,0-7.02-.37-5.5-.89-10.52-2.96-14.58-6.92-5.33-5.2-8.59-11.51-9.89-18.82-.22-1.23-.12-2.52-.22-3.77-.06-.75-.2-1.49-.52-2.2-3.35,9.24-6.7,18.48-10.11,27.9,1.06,0,1.82,0,2.59,0,3.65,0,7.3,0,10.96,0,.26,0,.56-.03.77.09.19.1.35.37.38.58.02.12-.25.35-.42.39-.28.07-.59.03-.89.03-9.54-.03-19.08-.06-28.62-.12-.32,0-.86-.33-.91-.58-.11-.62.37-.75.94-.75,4.14.04,8.28.04,12.41.11.97.02,1.44-.29,1.78-1.23,2.03-5.54,4.14-11.04,6.2-16.57,1.47-3.96,2.93-7.93,4.33-11.93.31-.89.47-1.88.47-2.82.04-6.24.06-12.49.01-18.73-.05-6.15-2.05-11.59-6.34-16.08-3.57-3.74-8.11-5.84-13-7.27-4.73-1.38-9.61-1.67-14.48-1.77-4.92-.11-9.84.06-14.76.11-.4,0-.81,0-1.25,0-.08-1.1.57-1.13,1.28-1.14,5.89-.1,11.78-.22,17.67-.3,4.17-.05,8.26-.61,12.1-2.26,5.36-2.3,8.72-6.41,10.53-11.88,2.31-7,2.44-14.23,2.34-21.49-.08-5.5-.84-10.89-2.8-16.05-4.18-10.98-12.2-17.23-23.9-18.3-5.92-.54-11.91-.27-17.87-.38-1.23-.02-2.46-.08-3.69-.14-.84-.04-1.3.2-1.3,1.19.03,22.78.04,45.57.04,68.35,0,19.61-.01,39.23-.02,58.84,0,6.17,0,12.34.02,18.51,0,1.71.05,1.68,1.78,1.67,5.14-.04,10.29-.03,15.43-.04.26,0,.55-.03.77.08.2.1.44.36.44.54,0,.15-.31.42-.51.44-.55.06-1.12.02-1.67.01-22.93-.05-45.86-.1-68.78-.15-.57,0-1.07-.01-1.1-.74-.04-.8.57-.77,1.08-.77,4.29,0,8.57.02,12.86.03,1.22,0,2.45,0,3.88,0-.51-1.42-.93-2.66-1.38-3.89-4.41-11.98-8.83-23.95-13.24-35.92-1.23-3.34-2.49-6.67-3.68-10.03-.26-.73-.62-.94-1.37-.94-16.18.02-32.36.02-48.54.02-1.71,0-1.71-.01-2.27,1.62-1.76,5.12-3.47,10.26-5.3,15.35-2.94,8.16-5.96,16.3-8.97,24.43-1.04,2.82-2.18,5.6-3.26,8.4-.1.26-.12.56-.24,1.13,1.97-.41,3.8-.67,5.57-1.18,14.63-4.18,24.41-13.44,29.1-27.91,1.23-3.8,1.69-7.75,1.74-11.75,0-.54.24-1.08.38-1.62.18.01.36.03.53.04.05.52.16,1.03.16,1.55-.05,12.11-.1,24.23-.16,36.34,0,1.89,0,3.78,0,5.75H-32.59C-3.57-3.61,25.37-53.26,54.45-103.14c-.72-.03-1.11-.07-1.5-.07-10.03.02-20.06.03-30.08.08-4.88.03-9.78-.13-14.55,1.16-12.42,3.36-21.58,10.73-27.35,22.21-2.92,5.82-4.2,12.03-4.06,18.53.01.63.18,1.26.13,1.88-.02.3-.31.76-.56.82-.58.15-.72-.28-.72-.81.04-5.98.08-11.97.09-17.95.01-8.51,0-17.02,0-25.53q0-1.7,1.75-1.7c18.01-.02,36.01-.06,54.02-.06,7.12,0,14.24.09,21.36.1,7.83.01,15.65-.02,23.48-.04,1.62,0,3.24,0,4.93,0C52.39-54.68,23.46-4.96-5.57,44.95c.63.03,1.03.06,1.42.06,15.88.01,31.76.02,47.65.04,2.56,0,2.53.03,3.4-2.41,1.63-4.57,3.29-9.14,4.94-13.71,2.69-7.46,5.36-14.93,8.1-22.37,3.25-8.84,6.59-17.64,9.85-26.47,2.56-6.96,5.04-13.95,7.59-20.91,3.13-8.53,6.3-17.04,9.44-25.56,5.12-13.88,10.23-27.77,15.36-41.65.2-.53.55-1,1.01-1.83.53.91.99,1.49,1.23,2.14,4.98,13.58,9.94,27.17,14.89,40.77,4.96,13.63,9.9,27.27,14.86,40.89,3.97,10.87,7.97,21.73,11.95,32.6.67,1.84,1.33,3.68,2.2,5.56.07-.58.21-1.16.21-1.73,0-27.02-.01-54.04-.02-81.06,0-10.37,0-20.74.04-31.11,0-1.03-.47-1.17-1.29-1.16-4.85.07-9.69.13-14.54.18-.67,0-1.35-.03-2-.16-.3-.06-.54-.4-.81-.61.29-.17.56-.41.87-.5.27-.09.59-.02.89-.02,21.25,0,42.5-.09,63.75.06,9.67.07,19.05,1.97,27.76,6.33,9.13,4.58,16.16,11.24,19.62,21.1,1.81,5.16,2.08,10.51,1.13,15.84-.57,3.21-1.86,6.24-3.64,9.04-5,7.88-12.29,12.81-20.84,16.06-3.01,1.15-6.16,1.95-9.24,2.92-.37.12-.73.27-1.08.49,11.37.9,21.22,5.39,30.21,12.47.52-1.36,1.04-2.64,1.52-3.94,4.88-13.22,9.77-26.45,14.63-39.68,5.35-14.56,10.66-29.12,16-43.68.25-.69.61-1.35.94-2.01.28-.55.64-.48.89,0,.32.63.59,1.28.84,1.94,4.3,11.74,8.58,23.48,12.9,35.21,2.84,7.73,5.76,15.43,8.6,23.16,2.79,7.59,5.52,15.2,8.31,22.79,2.77,7.56,5.58,15.1,8.35,22.66,2.97,8.08,5.92,16.16,8.88,24.24,2.9,7.9,5.83,15.8,8.72,23.71.25.68.59.89,1.3.88,5.78-.12,11.55-.21,17.33-.31.3,0,.64-.06.87.06.2.11.39.43.4.66,0,.16-.28.4-.49.47-.23.08-.51.02-.78.01-14.17-.06-28.33-.14-42.5-.18-5.67-.02-11.33.04-17,.05-.52,0-1.03-.06-1.57-.1-.21-.93.3-1.08.97-1.09,1.86,0,3.73-.02,5.59,0,3.28.03,6.56.08,9.84.11.44,0,.89-.05,1.56-.09-.14-.64-.21-1.21-.4-1.73-2.63-7.14-5.29-14.26-7.92-21.4-2.96-8.04-5.89-16.1-8.83-24.15-.22-.59-.5-1.16-.67-1.77-.32-1.19-.47-2.44-.89-3.59-3.17-8.76-6.39-17.5-9.58-26.24-4.19-11.46-8.37-22.93-12.55-34.4-.9-2.47-1.82-4.92-2.73-7.39l-.3-.09ZM66.25-6.98h50.88c-8.5-23.14-16.94-46.1-25.38-69.07-.09.04-.18.09-.27.13-8.4,22.94-16.79,45.88-25.23,68.94Z"/>
      <path d="m663.63,45.5c-6.97,18.95-13.94,37.9-20.97,57,.48.53,1.06,1.19,1.67,1.84,2.49,2.66,4.52,5.62,5.96,8.96.35.8.82,1.09,1.69,1.1,10.74.05,21.47.12,32.2.2,1.3.01,2.6.13,3.9.23.22.02.42.18.63.27v.37c-.74.09-1.47.26-2.2.26-6.86,0-13.72,0-20.58-.03-4.85-.02-9.69-.07-14.54-.1-.26,0-.51.05-.91.09.14.58.25,1.11.41,1.62,1.41,4.39,2.01,8.91,2.08,13.49.09,6.32,0,12.64.06,18.96.04,4.33.99,8.46,3.1,12.29,2.97,5.37,7.57,7.38,13.53,5.86,3.34-.86,6.38-2.24,8.78-4.82.23-.25.64-.33.96-.49.08.1.15.2.23.29-.23.29-.43.62-.71.86-5.07,4.48-10.87,7.08-17.77,6.85-2.34-.08-4.72,0-7.02-.37-5.5-.89-10.52-2.96-14.58-6.92-5.33-5.2-8.59-11.51-9.89-18.82-.22-1.23-.12-2.52-.22-3.77-.06-.75-.2-1.49-.52-2.2-3.35,9.24-6.7,18.48-10.11,27.9,1.06,0,1.82,0,2.59,0,3.65,0,7.3,0,10.96,0,.26,0,.56-.03.77.09.19.1.35.37.38.58.02.12-.25.35-.42.39-.28.07-.59.03-.89.03-9.54-.03-19.08-.06-28.62-.12-.32,0-.86-.33-.91-.58-.11-.62.37-.75.94-.75,4.14.04,8.28.04,12.41.11.97.02,1.44-.29,1.78-1.23,2.03-5.54,4.14-11.04,6.2-16.57,1.47-3.96,2.93-7.93,4.33-11.93.31-.89.47-1.88.47-2.82.04-6.24.06-12.49.01-18.73-.05-6.15-2.05-11.59-6.34-16.08-3.57-3.74-8.11-5.84-13-7.27-4.73-1.38-9.61-1.67-14.48-1.77-4.92-.11-9.84.06-14.76.11-.4,0-.81,0-1.25,0-.08-1.1.57-1.13,1.28-1.14,5.89-.1,11.78-.22,17.67-.3,4.17-.05,8.26-.61,12.1-2.26,5.36-2.3,8.72-6.41,10.53-11.88,2.31-7,2.44-14.23,2.34-21.49-.08-5.5-.84-10.89-2.8-16.05-4.18-10.98-12.2-17.23-23.9-18.3-5.92-.54-11.91-.27-17.87-.38-1.23-.02-2.46-.08-3.69-.14-.84-.04-1.3.2-1.3,1.19.03,22.78.04,45.57.04,68.35,0,19.61-.01,39.23-.02,58.84,0,6.17,0,12.34.02,18.51,0,1.71.05,1.68,1.78,1.67,5.14-.04,10.29-.03,15.43-.04.26,0,.55-.03.77.08.2.1.44.36.44.54,0,.15-.31.42-.51.44-.55.06-1.12.02-1.67.01-22.93-.05-45.86-.1-68.78-.15-.57,0-1.07-.01-1.1-.74-.04-.8.57-.77,1.08-.77,4.29,0,8.57.02,12.86.03,1.22,0,2.45,0,3.88,0-.51-1.42-.93-2.66-1.38-3.89-4.41-11.98-8.83-23.95-13.24-35.92-1.23-3.34-2.49-6.67-3.68-10.03-.26-.73-.62-.94-1.37-.94-16.18.02-32.36.02-48.54.02-1.71,0-1.71-.01-2.27,1.62-1.76,5.12-3.47,10.26-5.3,15.35-2.94,8.16-5.96,16.3-8.97,24.43-1.04,2.82-2.18,5.6-3.26,8.4-.1.26-.12.56-.24,1.13,1.97-.41,3.8-.67,5.57-1.18,14.63-4.18,24.41-13.44,29.1-27.91,1.23-3.8,1.69-7.75,1.74-11.75,0-.54.24-1.08.38-1.62.18.01.36.03.53.04.05.52.16,1.03.16,1.55-.05,12.11-.1,24.23-.16,36.34,0,1.89,0,3.78,0,5.75h-117.15c29.02-49.78,57.97-99.43,87.05-149.32-.72-.03-1.11-.07-1.5-.07-10.03.02-20.06.03-30.08.08-4.88.03-9.78-.13-14.55,1.16-12.42,3.36-21.58,10.73-27.35,22.21-2.92,5.82-4.2,12.03-4.06,18.53.01.63.18,1.26.13,1.88-.02.3-.31.76-.56.82-.58.15-.72-.28-.72-.81.04-5.98.08-11.97.09-17.95.01-8.51,0-17.02,0-25.53q0-1.7,1.75-1.7c18.01-.02,36.01-.06,54.02-.06,7.12,0,14.24.09,21.36.1,7.83.01,15.65-.02,23.48-.04,1.62,0,3.24,0,4.93,0-28.99,49.84-57.91,99.56-86.94,149.47.63.03,1.03.06,1.42.06,15.88.01,31.76.02,47.65.04,2.56,0,2.53.03,3.4-2.41,1.63-4.57,3.29-9.14,4.94-13.71,2.69-7.46,5.36-14.93,8.1-22.37,3.25-8.84,6.59-17.64,9.85-26.47,2.56-6.96,5.04-13.95,7.59-20.91,3.13-8.53,6.3-17.04,9.44-25.56,5.12-13.88,10.23-27.77,15.36-41.65.2-.53.55-1,1.01-1.83.53.91.99,1.49,1.23,2.14,4.98,13.58,9.94,27.17,14.89,40.77,4.96,13.63,9.9,27.27,14.86,40.89,3.97,10.87,7.97,21.73,11.95,32.6.67,1.84,1.33,3.68,2.2,5.56.07-.58.21-1.16.21-1.73,0-27.02-.01-54.04-.02-81.06,0-10.37,0-20.74.04-31.11,0-1.03-.47-1.17-1.29-1.16-4.85.07-9.69.13-14.54.18-.67,0-1.35-.03-2-.16-.3-.06-.54-.4-.81-.61.29-.17.56-.41.87-.5.27-.09.59-.02.89-.02,21.25,0,42.5-.09,63.75.06,9.67.07,19.05,1.97,27.76,6.33,9.13,4.58,16.16,11.24,19.62,21.1,1.81,5.16,2.08,10.51,1.13,15.84-.57,3.21-1.86,6.24-3.64,9.04-5,7.88-12.29,12.81-20.84,16.06-3.01,1.15-6.16,1.95-9.24,2.92-.37.12-.73.27-1.08.49,11.37.9,21.22,5.39,30.21,12.47.52-1.36,1.04-2.64,1.52-3.94,4.88-13.22,9.77-26.45,14.63-39.68,5.35-14.56,10.66-29.12,16-43.68.25-.69.61-1.35.94-2.01.28-.55.64-.48.89,0,.32.63.59,1.28.84,1.94,4.3,11.74,8.58,23.48,12.9,35.21,2.84,7.73,5.76,15.43,8.6,23.16,2.79,7.59,5.52,15.2,8.31,22.79,2.77,7.56,5.58,15.1,8.35,22.66,2.97,8.08,5.92,16.16,8.88,24.24,2.9,7.9,5.83,15.8,8.72,23.71.25.68.59.89,1.3.88,5.78-.12,11.55-.21,17.33-.31.3,0,.64-.06.87.06.2.11.39.43.4.66,0,.16-.28.4-.49.47-.23.08-.51.02-.78.01-14.17-.06-28.33-.14-42.5-.18-5.67-.02-11.33.04-17,.05-.52,0-1.03-.06-1.57-.1-.21-.93.3-1.08.97-1.09,1.86,0,3.73-.02,5.59,0,3.28.03,6.56.08,9.84.11.44,0,.89-.05,1.56-.09-.14-.64-.21-1.21-.4-1.73-2.63-7.14-5.29-14.26-7.92-21.4-2.96-8.04-5.89-16.1-8.83-24.15-.22-.59-.5-1.16-.67-1.77-.32-1.19-.47-2.44-.89-3.59-3.17-8.76-6.39-17.5-9.58-26.24-4.19-11.46-8.37-22.93-12.55-34.4-.9-2.47-1.82-4.92-2.73-7.39l-.3-.09Zm-195.31,68.64h50.88c-8.5-23.14-16.94-46.1-25.38-69.07-.09.04-.18.09-.27.13-8.4,22.94-16.79,45.88-25.23,68.94Z"/>
    </g>
  </g>
</svg>