<?xml version="1.0" encoding="UTF-8"?>
<svg id="Capa_2" data-name="Capa 2" xmlns="http://www.w3.org/2000/svg" viewBox="0 0 238.39 220.26">
  <defs>
    <style>
      .cls-1 {
        fill: #ede983;
      }

      .cls-2 {
        fill: #9dc492;
      }

      .cls-3 {
        fill: #112e31;
      }

      .cls-4 {
        fill: #091414;
      }

      .cls-5 {
        fill: #3e796a;
      }
    </style>
  </defs>
  <g id="Capa_1-2" data-name="Capa 1">
    <rect class="cls-3" y="0" width="238.39" height="220.26" rx="24.23" ry="24.23"/>
    <g>
      <path class="cls-2" d="m185.81,121.75c-4.27-.01-8.55-.07-12.82.04-.53.01-.87-.1-1.22-.49-1.49-1.65-2.99-3.29-4.53-4.9-.96-1-1.79-2.12-2.77-3.1-.8-.8-1.5-1.69-2.31-2.47-.36-.35-.63-.78-.96-1.16-.4-.46-.8-.92-1.23-1.34-.92-.91-1.77-1.88-2.61-2.86-.49-.57-.74-.54-1.08.12-1.04,2.01-2.09,4.02-3.12,6.04-1.01,1.98-1.98,3.97-2.99,5.95-.64,1.26-1.33,2.5-1.97,3.75-.16.32-.38.42-.73.42-10.97-.01-21.94-.02-32.91-.02-.45,0-.91.03-1.35.09-.61.09-.89-.22-1.07-.74-.52-1.47-.93-2.97-1.32-4.48-.34-1.29-.58-2.62-1.22-3.82-.6-1.13-1.46-1.69-2.78-1.65-1.7.05-3.35.4-5.02.62-.79.1-1.57.26-2.36.37-.18.02-.46.12-.55-.1-.1-.23.19-.31.33-.42,1.2-1.01,2.65-1.66,3.9-2.59,1.32-.97,2.73-1.53,4.33-1.88,2.31-.5,4.42-1.54,6.34-2.92,1.46-1.04,3.12-1.52,4.84-1.88.36-.07.49.15.61.4.65,1.36,1.3,2.73,1.95,4.09,1.24,2.6,2.47,5.2,3.71,7.8.86,1.78.31,1.47,2.39,1.5,1.49.02,2.98.01,4.47.02,3.42.03,6.85.05,10.27.1.56,0,.87-.16,1.12-.7,1.09-2.31,2.24-4.6,3.36-6.9.59-1.21,1.17-2.44,1.76-3.65.07-.14.1-.27.08-.42,0-.07-.04-.08-.1-.06-5.71.01-11.42.02-17.14.03-.45,0-.91-.01-1.36-.02-.34,0-.46-.09-.31-.46.64-1.58,1.26-3.16,1.88-4.75.11-.28.27-.41.57-.39.22.01.44,0,.65,0,8.84,0,17.68,0,26.52,0,.45,0,.77.12,1.08.46,1.7,1.84,3.46,3.62,5.13,5.48,1.85,2.06,3.83,3.99,5.7,6.03,1.2,1.3,2.42,2.57,3.58,3.9.37.42.72.85,1.15,1.22.21.17.42.25.69.25,1.82-.01,3.64-.01,5.46,0,.39,0,.69-.1.97-.39,4.91-4.91,9.82-9.82,14.75-14.69.43-.42.56-.83.56-1.39-.01-6.57-.01-13.14,0-19.71,0-.48-.13-.62-.61-.62-3.49.02-6.99,0-10.48,0-7.08,0-14.15,0-21.23,0-.42,0-.67-.13-.87-.49-.72-1.24-1.45-2.47-2.2-3.69-.4-.66-.59-.65-.95.03-.53,1.01-1.13,2-1.54,3.06-.37.96-.92,1.19-1.91,1.19-10.79-.04-21.57-.03-32.36-.05-.63,0-.94.16-1.2.78-.61,1.48-1.15,2.99-1.84,4.44-.25.53-.39,1.15-.63,1.7-.6,1.37-1.12,2.78-1.6,4.19-.13.38-.35.7-.48,1.07-.29-.06-.37-.31-.48-.49-.79-1.3-3.1-.91-3.57.36-.19.51-.23.99-.05,1.52.47,1.46.11,2.83-.55,4.14-.57,1.15-1.23,2.23-2.47,2.79-.78.28-1.58.55-2.4.64-1.32.14-2.63.38-3.88.77-1.5.47-2.93,1.12-4.41,1.65-.76.28-1.58.45-2.2,1-.43.38-.91.64-1.44.84-1.37.52-2.74,1.03-4.09,1.58-1.25.51-2.44,1.16-3.63,1.79-.64.34-.8.27-1.12-.4-.44-.91-.81-1.86-1.11-2.82-.15-.47-.45-.68-.91-.7-.22-.01-.44.01-.65.02-.33,0-.53-.12-.62-.47-.17-.66-.39-1.32-.6-1.97-.04-.14-.09-.29-.03-.42.19-.42.11-.85.06-1.28.76-2.02,1.78-3.93,2.63-5.92,1.63-3.8,3.34-7.56,5-11.34,1.28-2.92,2.61-5.82,3.86-8.75.06-.13.08-.31.25-.32.18,0,.18.2.24.32,1.44,3.15,2.88,6.3,4.31,9.45,2.04,4.49,4.08,8.98,6.11,13.47.24.54.44,1.09.67,1.64.07.17.17.35.37.34.16-.01.16-.22.22-.35.6-1.54,1.2-3.09,1.81-4.64,1.06-2.69,2.13-5.38,3.2-8.07.55-1.38,1.15-2.75,1.61-4.16.27-.83.72-1.59.97-2.42.32-1.05.88-2.01,1.22-3.06.26-.81.6-1.6.89-2.4.09-.26.29-.28.51-.29.53,0,1.05,0,1.58,0,27.12,0,54.25,0,81.37,0,.44,0,.87,0,1.31-.01.4,0,.57.15.57.58-.01,8.69-.01,17.39-.01,26.08,0,.78.21,1.65-.06,2.32-.26.64-1.06,1.05-1.56,1.61-1.57,1.74-3.32,3.3-4.89,5.02-1.43,1.57-3,2.99-4.48,4.5-2.3,2.34-4.59,4.71-6.88,7.07-.3.3-.59.62-1,.79-.03-.02-.06-.01-.09,0Z"/>
      <path class="cls-5" d="m86.11,100.27c.05.43.13.86-.06,1.28-.06.14-.02.28.03.42.2.66.42,1.31.6,1.97.09.35.29.48.62.47.22,0,.44-.03.65-.02.46.02.76.23.91.7.3.97.67,1.91,1.11,2.82.32.66.48.74,1.12.4,1.19-.64,2.38-1.28,3.63-1.79,1.35-.55,2.72-1.06,4.09-1.58.53-.2,1.01-.46,1.44-.84.63-.55,1.44-.72,2.2-1,1.48-.53,2.91-1.18,4.41-1.65,1.26-.39,2.56-.63,3.88-.77.82-.09,1.62-.36,2.4-.64.23.1.41,0,.61-.11,1.21-.68,1.83-1.82,2.39-3.01.57-1.22.72-2.5.36-3.82-.19-.69-.11-1.34.48-1.83.73-.6,1.66-.4,2.11.43.53.97.92,2,1.21,3.07.43,1.56,1.31,2.9,2.05,4.31.26.48.5.97.65,1.5.11.39,0,.65-.43.78-.87.26-1.77.34-2.67.42-2.44.22-4.79.79-6.86,2.13-1.98,1.29-4.07,2.3-6.36,2.89-.28.07-.56.17-.85.19-.89.06-1.62.42-2.3.99-.69.58-1.48,1-2.32,1.35-.34.14-.57.47-.87.7-.84.65-1.68,1.3-2.45,2.04-.09.09-.21.19-.15.32.05.11.19.06.3.06,1.56-.06,3.09-.34,4.63-.54,1.43-.19,2.85-.52,4.31-.47.94.03,1.56.46,1.98,1.28.72,1.42,1.08,2.96,1.52,4.47.53,1.85,1.19,3.65,1.96,5.42.4.92.81,1.86,1.52,2.58.43.44.93.8,1.16,1.4.05.14.18.27.33.26.57-.02,1.06.37,1.64.32.41-.04.71.05.75.55.02.22.16.43.43.41.58-.03,1.04.27,1.53.5.56.26,1.12.5,1.77.29.25-.08.55-.04.81,0,1.31.19,1.74,1.08,1.11,2.24-1.02,1.85-3.67,2.9-5.84,2.24-.94-.28-1.84-.3-2.79-.09-.77.17-1.56.34-2.37.16-1.39-.32-2.01-1.25-1.71-2.64.11-.5.19-1,.33-1.49.29-1.02.08-1.94-.5-2.79-1.12-1.63-2.14-3.33-3.39-4.87-.96-1.17-1.44-2.55-1.74-4-.21-1.03-.58-1.3-1.6-1.02-1.09.31-2.07.89-3.06,1.41-1.11.58-2.27.95-3.5,1.16-1.11.19-2.02.65-2.76,1.64-1.02,1.36-2.66,1.82-4.22,1.41-1.59-.42-3.21-.91-4.71-1.66-2.1-1.05-4.09-2.27-6.04-3.58-.63-.42-1.23-.43-1.9-.15-.72.3-1.45.59-2.22.74-.9.18-1.33-.08-1.57-.96-.21-.79-.24-1.62-.28-2.43-.06-1.28-.15-2.58.05-3.86.16-.98.68-1.71,1.66-2.04.37-.12.44-.28.22-.63-.45-.69-.65-1.54-1.28-2.13-.03-.02-.04-.06-.05-.1-.36-1.47-.9-2.93-.33-4.48.28-.77.72-1.41,1.35-1.94,1.68-1.4,4.55-.39,5.31,1.77.17.49.36.98.36,1.52,0,.21-.04.36-.28.38-.37.03-.43.26-.4.57.05.67.04,1.35.14,2.01.1.64.03,1.22-.23,1.8-.1.22-.13.45-.15.69-.04.49.21.75.67.82.56.08,1.12.14,1.68.11.11.07.2.17.32.19.7.13,1.35.43,2.01.67.37.13.76.29,1.05-.08.31-.4-.12-.61-.32-.86-.79-.97-.8-1-.22-2.04.14-.25.17-.46-.05-.68-.29-.29-.38-.65-.33-1.05.05-.41-.13-.61-.54-.61-.2-.13-.26-.34-.31-.55-.18-.74-.12-.81.59-.61.32.09.42.01.33-.3-.6-2.05-1.24-4.09-2.1-6.06-.14-.32-.41-.5-.72-.63-.27-.12-.53-.23-.8-.35-.09-.04-.16-.1-.12-.2.04-.12.14-.1.23-.07.24.07.49.15.73.23.37.12.5-.04.4-.37-.28-.91-.55-1.83-.9-2.71-.21-.54-.33-1.1-.51-1.64-1.19-3.53-2.34-7.07-3.52-10.61-.11-.32-.02-.61-.03-.91.28-.09.55-.1.83.02-.09.18-.06.34,0,.52,1.61,4.71,3.22,9.42,4.83,14.13.57,1.68,1.16,3.35,1.74,5.02.2.56.51,1,1.16,1.06Zm-7.52-18.68c-.05.01-.11.03-.16.04-.08.32.07.61.17.9.21.61.44,1.23.64,1.84.53,1.61,1.07,3.22,1.58,4.84.62,1.95,1.36,3.86,1.86,5.84.08.31.31.57.57.77.06-.02.11-.05.17-.07-1.61-4.72-3.23-9.44-4.84-14.17Zm8.22,25.89c0-.54-.11-.69-.52-.69-.59,0-1.11.39-1.1.82,0,.28.69,1.04.93,1.03.37,0,.68-.54.69-1.16Zm-2.72-8.58c.06.41.2.81.45,1.18.06.09.15.18.27.13.13-.06.09-.19.05-.28-.14-.39-.35-.75-.39-1.17-.01-.11-.11-.21-.23-.18-.16.03-.14.18-.15.33Z"/>
      <path class="cls-2" d="m78.37,79.54c-.27-.12-.55-.11-.83-.02-.67,0-1.34.03-2.02.03-13.42,0-26.85,0-40.27,0-.24,0-.47,0-.71,0-1.02.01-1.01.01-1.01-1.03,0-1.4.02-2.8,0-4.19,0-.35.06-.5.44-.48.51.02,1.02-.02,1.53-.02,14.13,0,28.27,0,42.4,0,1.13,0,1.13,0,1.13,1.12,0,1.32-.02,2.65.02,3.97.02.55-.17.73-.69.62Z"/>
      <path class="cls-2" d="m86.14,121.78c-1.82-.01-3.64-.04-5.45-.04-15.27,0-30.55,0-45.82,0-.05,0-.11,0-.16,0-1.17,0-1.17,0-1.16-1.2,0-1.22.03-2.43,0-3.65-.01-.49.1-.65.62-.64,6.02.02,12.04.01,18.06,0,6.93,0,13.86,0,20.78-.02.3,0,.45.09.47.38,0,.05,0,.11.02.16.25,1.26.53,1.54,1.98,1.25.75-.15,1.45-.48,2.16-.74.62-.23,1.16-.18,1.7.18.76.5,1.54.96,2.29,1.47,1.26.87,2.64,1.52,3.97,2.25.21.11.42.22.56.42,0,.06-.01.11-.02.17Z"/>
      <path class="cls-2" d="m33.62,95.28c.31-.01.62-.03.92-.03,6.98,0,13.96,0,20.95,0,.82,0,.82,0,.82.8,0,2.12,0,4.24.02,6.37,0,.46-.09.68-.63.67-7.2-.02-14.4,0-21.6,0-.35,0-.58-.06-.58-.5.02-2.41.03-4.82.04-7.24.04,0,.06-.03.06-.07Z"/>
      <path class="cls-1" d="m96.62,134.02c1.09-.21,2.12.28,3.12.87.2.12.32.39.48.59.87,1.08,1.07,2.34,1.14,3.69.05.85-.03,1.68-.02,2.52.03,2.8-1.94,4.76-4.74,4.77-1.36,0-2.58-.26-3.53-1.29-.32-.35-.53-.78-.74-1.2-.56-1.12-.55-2.33-.57-3.52-.02-1.29.02-2.59.48-3.84.3-.81.77-1.46,1.47-1.97.85-.62,1.81-.67,2.91-.63Zm3.49,5.37c.01-.6-.08-1.04-.19-1.48-.43-1.74-1.35-2.49-3.13-2.58-.05,0-.11,0-.16,0-1.51-.3-2.81.74-3.17,1.76-.5,1.42-.69,2.85-.4,4.34.19.98.28,2,1.02,2.76,1.76,1.8,5.01,1.17,5.71-1.32.34-1.19.39-2.4.32-3.48Z"/>
      <path class="cls-1" d="m62.75,134.01c3.18,0,4.97,1.88,4.98,4.9,0,.95.06,1.9-.02,2.85-.16,1.78-.75,3.33-2.42,4.23-1.07.57-2.25.56-3.41.4-2.42-.35-3.25-1.98-3.59-3.9-.29-1.61-.21-3.23.03-4.82.2-1.38.85-2.62,2.14-3.28.72-.37,1.58-.52,2.29-.38Zm3.73,5.29c-.13-2.62-1.11-4.05-3.85-4.04-1.28,0-2.4.63-2.9,2.11-.62,1.85-.49,3.68.01,5.52.43,1.57,1.72,2.28,3.05,2.33,1.67.06,2.88-.8,3.36-2.3.38-1.18.39-2.4.33-3.62Z"/>
      <path class="cls-1" d="m145.45,140.17c.09-1.15.08-2.38.5-3.56.57-1.61,1.94-2.56,3.65-2.62,1.37-.04,2.67.09,3.84.89.13.09.12.19.19.27,1.26,1.3,1.39,2.95,1.47,4.61.07,1.56-.05,3.11-.79,4.53-.75,1.44-1.99,2.11-3.58,2.16-.9.03-1.79,0-2.65-.35-1.36-.56-1.98-1.67-2.33-3-.25-.93-.27-1.9-.29-2.93Zm1.16-.1c.12,1.02.21,2.08.57,3.09.14.4.33.76.64,1.06,1.78,1.74,4.98,1.15,5.68-1.34.46-1.66.47-3.34.13-5.02-.17-.85-.6-1.53-1.31-2.06-.59-.43-1.23-.41-1.9-.5-1.74-.24-3.02.8-3.4,2.23-.22.82-.33,1.65-.4,2.53Z"/>
      <path class="cls-1" d="m73.47,134.01c1.55-.13,2.89.44,3.85,1.82.55.79.71,1.71.84,2.63.22,1.57.19,3.15-.23,4.68-.56,2.06-1.81,3.13-3.77,3.3-.91.08-1.83.04-2.73-.27-1.16-.4-1.9-1.2-2.27-2.33-.74-2.29-.76-4.62-.14-6.94.48-1.82,2-3,4.03-2.89.11,0,.22,0,.43,0Zm-3.69,5.68c-.04,1,.12,1.65.23,2.3.12.71.27,1.44.76,2.01.79.94,1.85,1.34,3.05,1.2,1.35-.16,2.34-.87,2.78-2.19.49-1.48.5-3.01.28-4.53-.35-2.43-1.52-3.2-3.77-3.23-1.21-.01-2.3.59-2.8,1.85-.37.94-.45,1.92-.53,2.59Z"/>
      <path class="cls-1" d="m159.49,140.16c0-1.76,0-3.52,0-5.28,0-.78.09-.88.88-.88,1.29,0,2.58-.04,3.87.01,1.67.06,3.05.71,3.73,2.33.35.84.45,1.75.34,2.69-.05.39-.06.76-.22,1.14-.58,1.47-1.7,2.2-3.2,2.46-.42.07-.83.21-1.27.02-.36-.15-.46-.39-.42-.72.04-.35.3-.37.59-.42.62-.09,1.19-.28,1.78-.55.79-.35,1.19-.87,1.38-1.59.14-.55.36-1.15-.09-1.72-.1-.12.08-.46-.05-.73-.57-1.13-1.55-1.6-2.73-1.67-1-.06-2-.02-3-.04-.28,0-.4.1-.4.37,0,1.85,0,3.7,0,5.55,0,.28.13.39.4.38.38,0,.76,0,1.14.01.25.01.47.09.43.42-.03.27.1.58-.33.69-.43.11-.86.1-1.29.09-.29,0-.38.09-.37.38.02.85.02,1.71,0,2.56,0,.39-.02.79-.59.77-.54-.01-.6-.38-.61-.78,0-1.83,0-3.67,0-5.5h0Z"/>
      <path class="cls-1" d="m122.73,140.19c-.04.98.01,1.96.34,2.9.83,2.43,3.41,2.53,4.82,1.74.35-.2.65-.5,1.06-.57.34-.06.67-.08.82.32.15.4-.02.71-.36.93-.66.42-1.34.79-2.14.9-.95.13-1.93.12-2.81-.12-1.3-.36-2.19-1.31-2.63-2.62-.54-1.6-.46-3.24-.37-4.89.06-1.11.29-2.19.95-3.13.72-1.01,1.73-1.53,2.95-1.62.85-.06,1.71-.06,2.54.19,1.03.31,1.86.85,2.41,1.81.3.52.45,1.08.56,1.65.05.27.02.54-.05.81-.07.26-.23.42-.49.42-.25,0-.46-.14-.53-.39-.09-.31-.14-.63-.23-.95-.48-1.74-2.29-2.5-3.95-2.28-2.32.31-2.64,1.94-2.89,3.7-.06.39,0,.8,0,1.2Z"/>
      <path class="cls-1" d="m110.53,139.07c-.06,1.09.14,2.61-.15,4.1-.24,1.22-.83,2.2-1.96,2.86-.92.54-1.87.38-2.83.38-.96,0-1.69-.5-2.28-1.18-.73-.84-1.07-1.86-1.08-2.96-.03-2.49,0-4.97,0-7.46,0-.14.02-.29.06-.43.08-.3.32-.36.59-.39.28-.03.39.16.45.37.05.19.08.39.08.59,0,2.03,0,4.06,0,6.09,0,1.11.17,2.19.83,3.1.48.67,1.15.99,2.07,1.04.76.04,1.31-.27,1.8-.62.87-.61,1.16-1.61,1.18-2.64.04-2.27.02-4.54.03-6.8,0-.18,0-.37.02-.54.05-.31.06-.67.55-.59.41.07.61.3.63.69.02.34.02.69.02,1.03,0,.98,0,1.96,0,3.35Z"/>
      <path class="cls-1" d="m178.9,145.87c-.08.11.27.49-.19.57-.42.07-.73-.07-.9-.5-1.01-2.48-2.03-4.96-3.04-7.44-.23-.55-.44-1.11-.68-1.66-.05-.11-.07-.32-.28-.28-.14.03-.17.17-.22.29-1.19,2.94-2.38,5.87-3.57,8.81-.04.1-.09.2-.14.3-.23.44-.65.66-.97.45-.36-.23-.32-.62-.21-.97.09-.29.23-.57.33-.86.36-1.04.85-2.01,1.25-3.04.41-1.06.88-2.11,1.31-3.16.5-1.22,1-2.45,1.48-3.68.07-.19.15-.36.31-.49.46-.37.91-.31,1.13.22.61,1.45,1.18,2.92,1.78,4.37.79,1.94,1.59,3.89,2.39,5.83.15.37.33.73.2,1.25Z"/>
      <path class="cls-2" d="m100.88,121.74c-1.53,0-3.05,0-4.58,0-.4,0-.79.08-1.19.07-.34,0-.45-.18-.22-.49.52-.72,1.19-1.24,2.07-1.38,1.8-.29,3.36-1.1,4.91-1.99.67-.38,1.33-.79,2.16-.83.7-.04.93.04,1.08.7.19.87.39,1.73.69,2.57.09.25.2.51.32.75.08.16.33.28.18.51-.13.19-.36.12-.56.12-1.62,0-3.23,0-4.85,0,0,0,0-.02,0-.03Z"/>
      <path class="cls-1" d="m111.77,142.32c.13-.55.05-1.12.05-1.68,0-1.38,0-2.75,0-4.13,0-.19.07-.4-.1-.57,0,0,0-.03,0-.03.23-.48-.02-1,.14-1.48,0,0,.02-.01.02-.01v-.02c.29-.53.75-.6,1.15-.11.52.64,1.04,1.3,1.45,2.02.47.82,1.05,1.56,1.55,2.36.13.21.29.42.26.69-.02.24.07.52-.27.63-.33.1-.62.04-.82-.24-.5-.69-.98-1.39-1.48-2.08-.17-.24-.32-.68-.58-.62-.27.06-.06.48-.06.74-.03,2.68-.04,5.36-.05,8.04,0,0,0,.01,0,.01,0,.44-.25.66-.64.59-.32-.06-.52-.24-.54-.69-.02-1.02.09-2.04-.12-3.05.18-.1.17-.23.05-.37Z"/>
      <path class="cls-1" d="m119.42,143.65c.13-.34.18-.64.05-.93-.09-.2-.2-.36.02-.57.09-.08.05-.31.05-.47,0-2.21,0-4.43,0-6.64,0-.18,0-.37.04-.54.07-.31.25-.54.61-.47.33.06.56.19.56.6,0,3.77,0,7.55,0,11.32,0,.47-.48.67-.94.4-.17-.1-.3-.26-.41-.43-.94-1.38-1.88-2.76-2.81-4.14-.11-.17-.21-.33-.23-.54-.01-.26-.07-.56.22-.66.26-.09.56-.09.8.17.6.66,1.04,1.42,1.54,2.15.17.25.34.5.51.75Z"/>
      <path class="cls-1" d="m86.07,140.61c-.16-.56-.61-.94-.88-1.43-.21-.36-.22-.65.11-.89.35-.26.69-.16.97.13.51.52.51.51.91-.1.67-1,1.35-1.98,2.04-2.97.24-.34.4-.73.72-1.01.27-.24.54-.48.91-.25.4.25.26.66.14.97-.14.35-.39.65-.59.97-.8,1.27-1.67,2.5-2.52,3.73-.45.66-.54,1.25-.54,1.95,0,1.31,0,2.61,0,3.92,0,.46-.14.79-.64.8-.53,0-.57-.4-.58-.8-.02-1.67-.03-3.34-.05-5.01,0,0,.01-.02.01-.02h-.02Z"/>
      <path class="cls-1" d="m183.44,140.61c-.16-.56-.61-.94-.88-1.43-.21-.36-.22-.65.11-.89.32-.25.65-.17.94.09.56.52.55.52.98-.1.7-1.02,1.42-2.02,2.09-3.05.21-.32.41-.63.68-.9.24-.24.51-.44.87-.24.38.21.25.58.18.88-.06.25-.24.48-.39.71-.98,1.45-1.97,2.9-2.96,4.34-.22.32-.35.66-.34,1.06.01,1.51.01,3.01,0,4.52,0,.28.05.59-.28.76-.51.26-.91.02-.92-.61-.03-1.56-.03-3.12-.04-4.68,0-.14-.01-.29-.02-.43,0,0,.01-.02.01-.02h-.02Z"/>
      <path class="cls-1" d="m53.58,141.19c0,1.58-.01,3.16,0,4.73,0,.37-.22.46-.47.52-.28.05-.53-.01-.64-.34-.06-.18-.07-.35-.07-.53,0-3.05,0-6.1,0-9.15,0-.41.05-.78.58-.79.55-.02.62.39.62.77.02,1.6,0,3.19,0,4.79h-.03Z"/>
      <path class="cls-1" d="m139.73,140.96c0-1.54,0-3.08,0-4.62,0-.36.07-.65.5-.71.34-.04.58.07.65.42.04.21.06.43.06.65,0,2.85,0,5.69,0,8.54,0,.25-.03.5-.06.76-.04.29-.19.48-.5.45-.27-.02-.54-.1-.59-.43-.03-.18-.04-.36-.05-.54,0-1.51,0-3.01,0-4.52Z"/>
      <path class="cls-1" d="m140.33,134.01c1.22,0,2.44-.01,3.65,0,.68,0,.82.16.79.67-.02.28-.11.44-.41.46-.16,0-.32.07-.47.07-2.34,0-4.69,0-7.03,0-.3,0-.64.02-.82-.25-.32-.48-.07-.94.54-.95,1.25-.02,2.51,0,3.76,0h0Z"/>
      <path class="cls-1" d="m52.96,134.01c1.24,0,2.47-.01,3.71,0,.68.01.84.19.77.73-.07.55-.53.44-.84.46-.87.05-1.74.02-2.62.02-1.51,0-3.02,0-4.53,0-.37,0-.78,0-.86-.51-.08-.46.11-.69.65-.69,1.24-.02,2.47,0,3.71,0,0,0,0,0,0,0Z"/>
      <path class="cls-2" d="m84.29,104.29c.41,0,.59.2.54.61-.05.4.04.76.33,1.05.22.22.19.42.05.68-.59,1.03-.57,1.07.22,2.04.2.24.64.45.32.86-.29.37-.68.21-1.05.08-.66-.24-1.31-.53-2.01-.67-.11-.02-.21-.12-.32-.19.19-.68.56-1.28.83-1.93.35-.84.72-1.68,1.09-2.52Z"/>
      <path class="cls-1" d="m129.46,142.72c-.58-.01-1.16-.06-1.74-.02-.46.03-.49-.28-.53-.57-.05-.33.07-.59.45-.6,1.09-.01,2.18-.01,3.27,0,.29,0,.42.18.46.49.14,1.23.06,2.45.09,3.68.01.42-.1.72-.59.73-.49.02-.63-.29-.63-.69,0-.83-.02-1.67,0-2.5,0-.39-.11-.59-.53-.52-.08,0-.16,0-.25,0Z"/>
      <path class="cls-1" d="m85.17,137.13c-.02.22.09.53-.24.58-.32.04-.68.17-.93-.21-.54-.82-1.09-1.63-1.62-2.46-.18-.28-.32-.61.02-.86.33-.25.68-.21.97.1.68.72,1.2,1.56,1.73,2.38.09.14.08.31.07.47Z"/>
      <path class="cls-1" d="m182.55,137.16c-.01.21.06.5-.23.54-.3.04-.67.18-.9-.16-.59-.87-1.22-1.71-1.73-2.63-.14-.24-.18-.48.03-.69.21-.2.52-.33.74-.13.91.79,1.6,1.75,2.09,2.86.03.06,0,.14,0,.22Z"/>
      <path class="cls-1" d="m173.9,143.18c-.54,0-1.09,0-1.63,0-.42,0-.65-.17-.66-.6-.01-.42.18-.63.62-.63,1.05,0,2.1-.02,3.16-.01.41,0,.73.09.73.64,0,.58-.34.59-.74.6-.49,0-.98,0-1.47,0h0Z"/>
      <path class="cls-1" d="m111.77,142.32c.12.14.13.27-.05.37.02-.12-.34-.3.05-.37Z"/>
      <path class="cls-5" d="m86.14,121.78c0-.06.01-.11.02-.17.08,0,.15.02.14.11-.01.09-.08.1-.16.06Z"/>
      <path class="cls-1" d="m129.46,142.72c.08,0,.16,0,.25,0-.08,0-.16,0-.25,0Z"/>
      <path class="cls-5" d="m148.25,104.53c.06-.02.09,0,.1.06-.03-.02-.07-.04-.1-.06Z"/>
      <polygon class="cls-1" points="111.71 135.91 111.71 135.94 111.68 135.93 111.71 135.91"/>
      <path class="cls-5" d="m33.62,95.28s-.02.07-.06.07c.02-.02.04-.05.06-.07Z"/>
      <polygon class="cls-1" points="86.07 140.61 86.09 140.61 86.08 140.63 86.05 140.62 86.07 140.61"/>
      <polygon class="cls-1" points="183.44 140.61 183.46 140.61 183.45 140.63 183.42 140.62 183.44 140.61"/>
      <polygon class="cls-1" points="111.86 134.39 111.87 134.42 111.85 134.43 111.84 134.41 111.86 134.39"/>
      <path class="cls-5" d="m185.81,121.75s.05-.02.09,0c-.02.04-.05.06-.09,0Z"/>
      <polygon class="cls-1" points="113.01 145.84 113.02 145.83 113.03 145.84 113.01 145.84"/>
      <path class="cls-4" d="m78.59,81.58c1.61,4.72,3.23,9.44,4.84,14.17-.06.02-.11.05-.17.07-.26-.2-.49-.46-.57-.77-.5-1.99-1.25-3.89-1.86-5.84-.51-1.62-1.05-3.23-1.58-4.84-.2-.62-.43-1.23-.64-1.84-.1-.29-.26-.58-.17-.9.05-.01.11-.03.16-.04Z"/>
      <path class="cls-2" d="m86.8,107.47c0,.62-.33,1.15-.69,1.16-.24,0-.93-.75-.93-1.03,0-.43.52-.82,1.1-.82.41,0,.53.15.52.69Z"/>
      <path class="cls-4" d="m84.08,98.89c0-.14-.02-.29.15-.33.12-.02.22.07.23.18.04.42.25.78.39,1.17.03.09.08.22-.05.28-.12.05-.2-.04-.27-.13-.25-.36-.39-.76-.45-1.18Z"/>
    </g>
  </g>
</svg>