<?xml version="1.0" encoding="UTF-8"?>
<svg id="Capa_2" data-name="Capa 2" xmlns="http://www.w3.org/2000/svg" viewBox="0 0 60.53 60.51">
  <defs>
    <style>
      .cls-1 {
        fill: #8c8ec1;
      }
    </style>
  </defs>
  <g id="Capa_1-2" data-name="Capa 1">
    <g>
      <path class="cls-1" d="m60.52,29.7c0-3.78,0-7.56,0-11.34,0-1.32-.12-2.57-.35-3.71C58.47,6.2,51,.05,42.39.02,36.33,0,30.27,0,24.21,0h-6.06c-3.25,0-6.24.82-8.89,2.41C3.29,6,.19,11.29.04,18.14-.02,20.93,0,23.76.01,26.49c0,1.25.01,2.49.01,3.74v3.66c0,2.74,0,5.49,0,8.23,0,1.63.17,3.11.54,4.54,2.13,8.27,9.28,13.83,17.8,13.84,3.6,0,7.2,0,10.8,0,4.35,0,8.69,0,13.04-.02,1.31,0,2.57-.13,3.75-.37,8.48-1.73,14.61-9.28,14.58-17.97-.02-4.15-.02-8.3-.01-12.45Zm-4.66,12.89c-.04,6.14-4.63,11.7-10.67,12.92-1.05.21-2.11.32-3.14.33-7.9.03-15.8.02-23.7.01-5.96,0-11.05-3.67-12.96-9.32-.46-1.35-.69-2.73-.69-4.1v-4.14c-.01-6.73-.02-13.45,0-20.18.02-6.3,4.52-11.82,10.71-13.11.97-.2,1.97-.31,2.97-.32,1.81-.02,3.61-.02,5.42-.02,1.08,0,2.17,0,3.26,0h3.26s3.6,0,3.6,0c2.72,0,5.45,0,8.17,0,4.44.02,8.09,1.75,10.85,5.15,1.94,2.39,2.93,5.12,2.95,8.12.05,9.01.05,17.08,0,24.66Z"/>
      <path class="cls-1" d="m30.29,14.64h0c-8.62,0-15.63,7-15.63,15.6,0,8.61,6.98,15.63,15.55,15.63h.01c8.63,0,15.66-6.97,15.67-15.55,0-4.2-1.61-8.14-4.55-11.09-2.94-2.96-6.86-4.58-11.05-4.58Zm0,26.6h-.03c-6.04-.02-10.96-4.95-10.96-10.98,0-2.93,1.15-5.69,3.24-7.77,2.08-2.08,4.85-3.26,7.76-3.21,6.04.02,10.96,4.94,10.96,10.98,0,2.93-1.15,5.69-3.24,7.77-2.08,2.07-4.82,3.21-7.73,3.21Z"/>
      <path class="cls-1" d="m46.26,10.63h-.03c-.96,0-1.86.38-2.56,1.06-.71.7-1.1,1.62-1.1,2.6,0,.98.38,1.9,1.07,2.6s1.61,1.07,2.58,1.07h0c.98,0,1.9-.39,2.6-1.09.7-.7,1.08-1.62,1.07-2.59-.01-2-1.65-3.63-3.64-3.65Z"/>
    </g>
  </g>
</svg>