<?xml version="1.0" encoding="UTF-8"?>
<svg id="Capa_2" data-name="Capa 2" xmlns="http://www.w3.org/2000/svg" viewBox="0 0 58.53 58.51">
  <defs>
    <style>
      .cls-1 {
        fill: #8c8ec1;
      }
    </style>
  </defs>
  <g id="Capa_1-2" data-name="Capa 1">
    <path class="cls-1" d="m29.21.01c4.93,0,9.87-.03,14.8.02,1.72.02,3.46.08,5.14.4,4.72.88,8.2,4.42,9,9.15.29,1.69.34,3.43.35,5.15.03,9.66.03,19.32,0,28.98,0,1.83-.08,3.68-.41,5.47-.89,4.83-4.6,8.32-9.49,9.03-1.56.23-3.15.3-4.73.3-9.81.02-19.62.02-29.44-.02-1.69,0-3.4-.09-5.06-.39-4.58-.82-8.04-4.29-8.95-8.86-.22-1.12-.32-2.29-.34-3.43-.06-3.51-.07-7.03-.08-10.55C0,28.69-.01,22.13.03,15.57c.01-1.89.03-3.79.31-5.65C1.04,5.37,3.64,2.3,7.99.76,9.48.22,11.05.09,12.62.08c5.53-.03,11.06-.01,16.59-.01,0-.02,0-.04,0-.06Zm1.8,25.59c0-1.1,0-2.09,0-3.09,0-.57-.08-.66-.64-.66-2.32,0-4.64,0-6.96,0-.54,0-.66.12-.66.67,0,8.8,0,17.6,0,26.39,0,.55.07.61.63.61,2.45,0,4.89,0,7.34,0,.58,0,.67-.09.67-.68,0-3.68-.04-7.37-.01-11.05.01-1.66.04-3.34.24-4.98.22-1.81,1.15-3.22,2.99-3.78.67-.2,1.39-.29,2.09-.31,1.89-.05,3.27.91,3.82,2.72.28.92.47,1.9.48,2.85.05,4.85.03,9.7.03,14.55,0,.61.06.67.66.67,2.45,0,4.89,0,7.34,0,.51,0,.59-.07.59-.58,0-5.41.02-10.81-.02-16.22-.01-1.75-.25-3.48-.74-5.17-.76-2.61-2.24-4.59-4.83-5.61-1.23-.48-2.52-.65-3.82-.74-3.32-.25-6.12.77-8.29,3.35-.27.32-.55.65-.9,1.05Zm-22.28,10.1c0,4.4,0,8.81,0,13.21,0,.59.03.62.61.62,2.45,0,4.89,0,7.34,0,.59,0,.66-.07.66-.68,0-8.77,0-17.53,0-26.3,0-.61-.09-.7-.7-.7-2.4,0-4.81,0-7.21,0-.65,0-.7.04-.7.72,0,4.38,0,8.75,0,13.13Zm9.28-22.61c0-2.74-2.23-5-4.96-5-2.72,0-4.98,2.24-4.99,4.94,0,2.77,2.22,5.03,4.96,5.05,2.72.01,4.97-2.24,4.98-4.98Z"/>
  </g>
</svg>