<?xml version="1.0" encoding="UTF-8"?>
<svg id="Capa_2" data-name="Capa 2" xmlns="http://www.w3.org/2000/svg" viewBox="0 0 474.86 85.85">
  <defs>
    <style>
      .cls-1 {
        fill: #8d8fc6;
      }

      .cls-2 {
        fill: #462622;
      }

      .cls-3 {
        fill: #462723;
      }
    </style>
  </defs>
  <g id="Capa_1-2" data-name="Capa 1">
    <g>
      <path class="cls-2" d="m169.06,84.52v-50.1h20.8v12.5c1.33-4.53,3.42-7.87,6.25-10,2.83-2.13,6.22-3.2,10.15-3.2l2.5,17.7c-1.6-.2-3.17-.3-4.7-.3-9.27,0-13.9,3.8-13.9,11.4v22h-21.1Z"/>
      <path class="cls-1" d="m224.06,28.92c-3.07,0-5.7-.98-7.9-2.95-2.2-1.97-3.3-4.38-3.3-7.25,0-2,.53-3.75,1.6-5.25,1.07-1.5,2.47-2.68,4.2-3.55,1.73-.87,3.53-1.3,5.4-1.3,2.07,0,3.95.47,5.65,1.4,1.7.93,3.07,2.17,4.1,3.7,1.03,1.53,1.55,3.2,1.55,5,0,2-.55,3.77-1.65,5.3-1.1,1.53-2.5,2.73-4.2,3.6-1.7.87-3.52,1.3-5.45,1.3Z"/>
      <path class="cls-2" d="m231.26,85.32c-4.47,0-8.08-.8-10.85-2.4-2.77-1.6-4.78-3.77-6.05-6.5-1.27-2.73-1.9-5.8-1.9-9.2v-32.8h21.1v29.9c0,1.54.45,2.72,1.35,3.55.9.83,1.98,1.25,3.25,1.25,1.33,0,2.7-.4,4.1-1.2l1.1,13.9c-1.47,1.13-3.37,2-5.7,2.6-2.33.6-4.47.9-6.4.9Z"/>
      <path class="cls-3" d="m262.85,84.44c-2.95-.55-5.88-1.41-8.78-2.56-2.9-1.16-5.47-2.48-7.7-3.99l5.17-11.85c1.36,1.07,3.3,2.13,5.81,3.18,2.52,1.05,4.79,1.76,6.82,2.14,3.28.61,5.08.04,5.41-1.73.16-.85-.23-1.57-1.17-2.15-.94-.58-2.19-1.17-3.74-1.77-1.55-.6-3.2-1.31-4.94-2.15-1.74-.84-3.32-1.91-4.74-3.23-1.42-1.32-2.45-3.02-3.11-5.11-.66-2.09-.7-4.68-.12-7.76.97-5.18,3.79-8.92,8.46-11.23,4.67-2.31,10.58-2.8,17.72-1.46,2.75.52,5.29,1.19,7.61,2.04,2.32.84,4.44,2.09,6.37,3.74l-4.31,11.6c-3.2-2.09-6.71-3.5-10.5-4.21-2.43-.45-4.21-.59-5.37-.4-1.15.19-1.82.75-1.99,1.66-.14.72.28,1.38,1.26,1.97.97.59,2.26,1.22,3.87,1.89,1.6.67,3.26,1.49,4.98,2.46,1.72.97,3.31,2.16,4.77,3.59,1.46,1.43,2.54,3.17,3.24,5.24.7,2.06.77,4.57.22,7.52-.98,5.24-3.68,8.97-8.1,11.2-4.42,2.22-10.13,2.68-17.15,1.36Z"/>
      <path class="cls-2" d="m318.16,85.32c-4.6,0-8.77-1.12-12.5-3.35-3.73-2.23-6.68-5.32-8.85-9.25-2.17-3.93-3.25-8.43-3.25-13.5s1.08-9.5,3.25-13.3c2.17-3.8,5.12-6.78,8.85-8.95,3.73-2.17,7.9-3.25,12.5-3.25,3.27,0,6.43.9,9.5,2.7,3.07,1.8,5.43,4.77,7.1,8.9v-10.9h20.8v50.1h-21v-9.3c-1.6,3.27-3.73,5.77-6.4,7.5-2.67,1.73-6,2.6-10,2.6Zm6.5-15.8c2.73,0,5.07-.98,7-2.95,1.93-1.96,2.9-4.38,2.9-7.25s-.97-5.21-2.9-7.05c-1.93-1.83-4.27-2.75-7-2.75-2.87,0-5.27.97-7.2,2.9-1.93,1.93-2.9,4.3-2.9,7.1s.97,5.17,2.9,7.1c1.93,1.93,4.33,2.9,7.2,2.9Z"/>
      <path class="cls-2" d="m409.76,84.52h-26V15.72h28.1c11,0,19.07,1.52,24.2,4.55,5.13,3.03,7.7,7.22,7.7,12.55,0,6.93-3.63,11.7-10.9,14.3,9.33,1.8,14,7.3,14,16.5,0,7.07-3.22,12.32-9.65,15.75-6.43,3.43-15.58,5.15-27.45,5.15Zm4.8-14.1c3.33,0,5.9-.67,7.7-2,1.8-1.33,2.7-3.2,2.7-5.6,0-2.6-.9-4.62-2.7-6.05-1.8-1.43-4.37-2.15-7.7-2.15h-8.6v15.8h8.6Zm-8.5-27.5h7.9c2.67,0,4.83-.6,6.5-1.8,1.67-1.2,2.5-2.8,2.5-4.8,0-4.6-3.13-6.9-9.4-6.9h-7.5v13.5Z"/>
      <path class="cls-1" d="m463.66,85.12c-3.67,0-6.47-.98-8.4-2.95-1.93-1.97-2.9-4.38-2.9-7.25s1.03-5.35,3.1-7.25c2.07-1.9,4.8-2.85,8.2-2.85s6.12,1,8.15,3c2.03,2,3.05,4.37,3.05,7.1,0,3.07-.95,5.53-2.85,7.4-1.9,1.87-4.68,2.8-8.35,2.8Z"/>
      <path class="cls-2" d="m143.26,34.02v10.9c-1.67-4.13-4.03-7.1-7.1-8.9-3.07-1.8-6.23-2.7-9.5-2.7-4.6,0-8.77,1.08-12.5,3.25-2.39,1.39-4.45,3.11-6.2,5.17.95,1.3,1.59,2.83,1.82,4.47,1.04,7.32-1.07,15.24-5.96,22.85.42,1.13.92,2.22,1.5,3.27,2.17,3.93,5.12,7.02,8.85,9.25,3.73,2.23,7.9,3.35,12.5,3.35,4,0,7.33-.87,10-2.6,2.67-1.73,4.8-4.23,6.4-7.5v9.3h21v-50.1h-20.8Zm-3.1,32.15c-1.93,1.97-4.27,2.95-7,2.95-2.87,0-5.27-.97-7.2-2.9-1.93-1.93-2.9-4.3-2.9-7.1s.97-5.17,2.9-7.1c1.93-1.93,4.33-2.9,7.2-2.9s5.07.92,7,2.75c1.93,1.83,2.9,4.18,2.9,7.05s-.97,5.29-2.9,7.25Z"/>
      <path class="cls-1" d="m104,47.93c-17.7,8.28-36.37,27.65-24.44-9.21,12.24-25.07-11.72-33.77-22.35-8.46-.51-18.69-9.7-22.97-23.5-10.23.59-8.93.21-12.96-8.58-13.88C17.22,5.37-1.61-8.44.11,8.05c15.86,26.47,27.34-3.45,10.47,43.11C-.05,79.68-2.12,95.83,18.55,79.03c6.27-20.31,19.63-47.93,25.02-47.87.8,2.12-1.04,19.27-10.85,39.43,1.68,5.65,4.91,9.07,7.73,9.1,8.67.29,18.11-23.74,23.23-34.1-18.14,66.17,44.01,28.38,40.32,2.34Z"/>
    </g>
  </g>
</svg>