<?xml version="1.0" encoding="UTF-8"?>
<svg id="Capa_2" data-name="Capa 2" xmlns="http://www.w3.org/2000/svg" viewBox="0 0 167.49 114.57">
  <defs>
    <style>
      .cls-1 {
        fill: #fff;
      }

      .cls-2 {
        fill: #101123;
      }
    </style>
  </defs>
  <g id="Capa_1-2" data-name="Capa 1">
    <g>
      <path class="cls-1" d="m137.1,63.19c-23.33,10.91-47.95,36.44-32.21-12.14,16.14-33.05-15.45-44.52-29.46-11.15-.67-24.64-12.78-30.28-30.98-13.48.78-11.77.28-17.09-11.31-18.29C22.7,7.08-2.12-11.12.14,10.62c20.91,34.89,36.04-4.55,13.81,56.83C-.06,105.03-2.8,126.33,24.45,104.19c8.26-26.77,25.87-63.18,32.98-63.11,1.06,2.79-1.36,25.4-14.3,51.98,2.22,7.45,6.48,11.96,10.19,11.99,11.42.39,23.87-31.29,30.62-44.95-23.92,87.23,58.02,37.4,53.15,3.09Z"/>
      <path class="cls-2" d="m165.52,96.49c-7.23-13.32-30.91-.38-21.57,12.7,7.74,11.93,30.28,2.38,21.57-12.7Z"/>
    </g>
  </g>
</svg>