<?xml version="1.0" encoding="UTF-8"?>
<svg id="Capa_2" data-name="Capa 2" xmlns="http://www.w3.org/2000/svg" xmlns:xlink="http://www.w3.org/1999/xlink" viewBox="0 0 238.39 220.26">
  <defs>
    <style>
      .cls-1 {
        fill: none;
      }

      .cls-2 {
        clip-path: url(#clippath);
      }

      .cls-3 {
        fill: #fffcf5;
      }

      .cls-4 {
        fill: #ffecbe;
      }

      .cls-5 {
        fill: #31231c;
      }
    </style>
    <clipPath id="clippath">
      <rect class="cls-1" y="0" width="238.39" height="220.26" rx="24.23" ry="24.23"/>
    </clipPath>
  </defs>
  <g id="Capa_1-2" data-name="Capa 1">
    <g class="cls-2">
      <rect class="cls-5" y="0" width="238.39" height="220.26" rx="24.23" ry="24.23"/>
      <g>
        <path class="cls-3" d="m129.49,157.33s0,0,0-.01c0,0,0,0,0-.01h0c-2.25-5.02-5.68-8.99-10.29-11.89-4.66-2.92-10.43-4.33-17.22-4.33s-11.95,1.25-16.39,3.84h0s0,0-.01,0c0,0,0,0-.01,0h0c-4.35,2.45-7.74,5.66-10.11,9.65-1.54,2.58-2.69,5.32-3.54,8.17-.5-1.82-1.07-3.6-1.82-5.28-2.24-5.01-5.62-8.99-10.12-11.89h0s0,0,0,0c0,0,0,0-.01,0h0c-4.56-3.03-10.29-4.5-17.08-4.5s-11.91,1.2-16.25,3.7c-4.26,2.45-7.55,5.62-9.82,9.52-.91,1.57-1.67,3.2-2.33,4.88v-16.57H-3.62v78.55H15.83v-38.89c0-8.26,1.6-14.08,4.53-17.74h0s.01-.01.01-.01c2.83-3.62,7.93-5.64,15.82-5.64,7.11,0,11.82,1.64,14.54,4.53,2.75,2.93,4.3,7.88,4.3,15.22v42.54h19.29v-38.89c0-8.26,1.6-14.08,4.53-17.74,2.93-3.64,8.05-5.66,15.83-5.66,7.22,0,11.98,1.64,14.69,4.53,2.75,2.93,4.3,7.88,4.3,15.22v42.54h19.29v-46.95c0-6.26-1.15-11.89-3.48-16.88h0Z"/>
        <polygon class="cls-4" points="254.57 116.32 251.64 116.32 232.2 116.32 231.39 116.32 230.94 116.98 201.62 159.77 173.1 159.77 173.1 117.84 173.1 116.32 171.58 116.32 155.17 116.32 153.65 116.32 153.65 117.84 153.65 219.63 153.65 221.15 155.17 221.15 171.58 221.15 173.1 221.15 173.1 219.63 173.1 178.61 201.92 178.61 230.79 220.5 231.24 221.15 232.04 221.15 251.49 221.15 254.38 221.15 252.74 218.77 217.94 168.14 252.88 118.72 254.57 116.32"/>
      </g>
    </g>
  </g>
</svg>