<?xml version="1.0" encoding="UTF-8"?>
<svg id="Capa_2" data-name="Capa 2" xmlns="http://www.w3.org/2000/svg" viewBox="0 0 238.6 220.76">
  <defs>
    <style>
      .cls-1, .cls-2, .cls-3 {
        fill: none;
      }

      .cls-2, .cls-3 {
        opacity: .3;
      }

      .cls-3 {
        stroke: #511413;
        stroke-miterlimit: 10;
        stroke-width: .5px;
      }

      .cls-4 {
        fill: #ee7d1d;
      }

      .cls-5 {
        fill: #c7d42b;
      }

      .cls-6 {
        fill: #d71a24;
      }

      .cls-7 {
        fill: #12968d;
      }

      .cls-8 {
        fill: #1a1e35;
      }

      .cls-9 {
        fill: #7bb937;
      }
    </style>
  </defs>
  <g id="Capa_1-2" data-name="Capa 1">
    <rect class="cls-3" x=".25" y=".25" width="238.1" height="220.26" rx="25.06" ry="25.06"/>
    <rect class="cls-2" x=".25" y=".25" width="238.1" height="220.26" rx="25.06" ry="25.06"/>
    <rect class="cls-8" x=".11" y=".25" width="238.39" height="220.26" rx="24.23" ry="24.23"/>
    <rect class="cls-1" x=".11" y=".25" width="238.39" height="220.26" rx="24.23" ry="24.23"/>
    <g>
      <path class="cls-9" d="m137.71,110.25c-.03-1.8-.02-3.61-.11-5.41-.11-2.27-.14-4.55-.35-6.82-.19-2.07-.3-4.15-.81-6.16-1.26-5.01-4.24-8.54-9.2-10.25-1.36-.47-2.78-.62-4.2-.75-.89-.15-1.77-.17-2.66.02-.27.04-.55.08-.82.13,0-4.79.01-9.57,0-14.36,0-1.17.09-2.34-.11-3.5.26-.41.72-.38,1.1-.46,1.05-.22,2.08-.55,3.13-.76.61-.12,1.27-.14,1.91-.18.28-.02.55.01.74-.26.04-.06.18-.13.21-.11.58.44,1.17-.02,1.73.02,1.21.08,2.41-.12,3.61.01.82.09,1.65-.02,2.47.19.17.05.38.06.53-.12.07-.08.23-.18.27-.11.34.61,1,.03,1.4.38.02.01.04.04.05.04.64-.41,1.14.22,1.74.25.89.04,1.76.52,2.66.58.85.06,1.54.6,2.41.59.37,0,.73.44,1.16.58,1.79.59,3.43,1.49,5.08,2.38,2.12,1.15,3.92,2.69,5.65,4.35,1.15,1.11,1.9,2.5,2.84,3.75.69.91,1.05,1.97,1.54,2.97.16.32.44.51.56.87.78,2.37,1.46,4.77,1.87,7.23.26,1.57.41,3.15.53,4.74.14,1.75.18,3.5.26,5.25.22,4.93.03,9.85.1,14.78,0,.04-.02.08-.03.12-.23,0-.47,0-.7,0-8.18,0-16.37,0-24.55,0Z"/>
      <path class="cls-7" d="m137.71,110.25c8.18,0,16.37,0,24.55,0,.23,0,.47,0,.7,0,.01.23.03.47.03.7,0,15.89,0,31.78.01,47.67,0,.59-.1.78-.75.78-7.96-.03-15.91-.03-23.87,0-.68,0-.78-.21-.78-.82.02-15.89.01-31.78.02-47.67,0-.23-.08-.47.08-.68Z"/>
      <path class="cls-5" d="m100.96,110.29c0,.21.02.42.02.64,0,15.91,0,31.82.02,47.72,0,.62-.15.76-.77.76-7.95-.02-15.91-.02-23.86,0-.61,0-.72-.19-.72-.74.01-15.84.01-31.69.01-47.53,0-.29-.02-.58-.03-.88.3,0,.59.02.89.02,8.14,0,16.29,0,24.43.01Z"/>
      <path class="cls-4" d="m100.96,110.29c-8.14,0-16.29,0-24.43-.01-.3,0-.59-.01-.89-.02.01-.25.03-.51.03-.76,0-10.16.04-20.33-.02-30.49-.03-4.88,0-9.77-.04-14.65,0-.23-.05-.47.05-.69.01.25.03.51.03.76,0,4.19.01,8.38-.01,12.57,0,.55.12.72.7.72,7.38-.02,14.76-.01,22.14-.02.22,0,.47.09.66-.12.72-.9,1.46-1.78,2.22-2.63,1.09-1.22,2.19-2.45,3.46-3.52,1.58-1.33,3.16-2.67,4.87-3.82,2.78-1.86,5.77-3.32,8.95-4.35.25-.08.5-.11.75-.11.19,1.16.11,2.33.11,3.5,0,4.79,0,9.57,0,14.36-4.21.36-7.87,2-11.08,4.7-2.43,2.04-4.17,4.59-5.29,7.53-.72,1.86-1.08,3.84-1.32,5.83-.16,1.33-.39,2.65-.48,3.99-.05.76-.08,1.52-.15,2.27-.13,1.52-.14,3.04-.14,4.57,0,.14.03.3-.12.4Z"/>
      <path class="cls-6" d="m99.19,77.57c-.19.21-.44.12-.66.12-7.38,0-14.76,0-22.14.02-.58,0-.7-.17-.7-.72.02-4.19.01-8.38.01-12.57,0-.25-.02-.51-.03-.76,0-.57.03-1.15-.01-1.72-.03-.46.14-.56.57-.56,3.45.02,6.89,0,10.34,0,4,0,8,0,11.99-.01.5,0,.63.12.63.63-.02,5.19,0,10.38,0,15.57Z"/>
    </g>
  </g>
</svg>