<?xml version="1.0" encoding="UTF-8"?>
<svg id="Capa_2" data-name="Capa 2" xmlns="http://www.w3.org/2000/svg" xmlns:xlink="http://www.w3.org/1999/xlink" viewBox="0 0 504.86 273.57">
  <defs>
    <style>
      .cls-1 {
        fill: none;
      }

      .cls-2 {
        clip-path: url(#clippath);
      }

      .cls-3 {
        fill: #fff;
      }

      .cls-4 {
        fill: #fff5e9;
      }

      .cls-5 {
        fill: #b67138;
      }

      .cls-6, .cls-7, .cls-8 {
        fill: #521312;
      }

      .cls-7 {
        stroke-width: .42px;
      }

      .cls-7, .cls-8 {
        stroke: #511313;
        stroke-miterlimit: 10;
      }

      .cls-8 {
        stroke-width: .63px;
      }
    </style>
    <clipPath id="clippath">
      <rect class="cls-1" x="163.74" y="86.6" width="177.39" height="100.36"/>
    </clipPath>
  </defs>
  <g id="Capa_1-2" data-name="Capa 1">
    <g>
      <rect class="cls-7" x=".21" y=".21" width="504.45" height="273.15"/>
      <g class="cls-2">
        <g>
          <path class="cls-4" d="m333.68,164.6c-.08-.05-.16-.1-.24-.15-.55-.29-.54-.71-.13-1.14,8.05-5.41,8.38-16.13,3.64-23.94-9.28-10.99-28.34-8.97-37.45.7-5.64-10.25-14.87-7.32-21.53-8.38-.86-7.99-2.91-11.74,1.56-18.81,2.93-8.65-3.99-17.79-11.45-22-20.41-11.63-75.42,1.08-52.26,31.12,2.6,1.11,1.33,3.98,1.56,6.25-.53,1.53,1,5.33-1.17,5.17-2.98-.19-8.14,3.84-9.68,2.8-7.27-9.01-22.27-8.95-31.9-4-11.66,7.64-10.54,24.14-10.76,36.48-1.72,14.75,12.29,25.19,22.87,12.74,3.89-8.01,1.59-3.2,5.6,2.1,6.82,6.16,18.57,3.25,21.42-5.4,2.33,8.19,11.08,10.13,18.33,7.7,5.32,1.96,11.79,1.26,15.22-3.86,1.78-6.23,4.23,3.31,8.92,4.17,3.55,1.55,7.04.36,10.58-.24,5.61,2.26,11.33.4,15.03-4.01,2.22-5.93,4.09,4.66,9.87,4.67,3.43.89,6.55-.38,9.79-.73,5.28,1.29,12.31,2.22,16.08-3.24,1.54-1.49,6.73,4.1,9.8,3.84,6.48,1.43,12.97-2.13,13.72-9.07-.05-5.24-3.55-9.53-7.45-12.76h0Z"/>
          <path class="cls-6" d="m302.97,163.77c-.5-3.33-1.17-6.51-2.01-9.56-.84-3.05-1.74-5.78-2.7-8.2-1.6-3.93-3.5-6.68-5.68-8.26-2.19-1.58-4.58-2.36-7.17-2.36-1.73,0-3.37.33-4.9.97-1.54.65-3.01,1.76-4.42,3.34-1.41,1.58-2.78,3.79-4.12,6.64-.53,1.14-1.03,2.32-1.52,3.54.43,3.29.65,7.03.65,11.17,0,4.63.23,6.84-.17,9.91-.44,3.37-1.23,6.64-2.01,8.77-.24.63-.47,1.23-1,1.61.02.07.05.12.11.14,2.36.57,1.57.57,3.73.57,1.73,0,3.17-.33,4.32-.97,1.15-.65,2.06-1.62,2.73-2.92.67-1.29,1.13-2.89,1.39-4.8.34-1.64.22-1.78.48-3.78.04-.29.07-.58.09-.87.18.02.35.04.52.06,1.92.17,3.79.22,5.59.13.3-.02.6-.03.88-.06,0,.13,0,.25,0,.38,0,2.07.09,4.08.26,6.03.3,3.02,1.04,3.52,2.31,4.84,1.28,1.32,3.02,1.98,5.23,1.98,2.55,0,4.75-.55,6.17-2.2,1.43-1.64,2-2.81,2-6.31,0-3.2-.25-6.46-.75-9.78h0Zm-17.96-4.34c-1.86,0-3.32-.38-4.38-1.14-1.06-.75-1.59-1.76-1.59-3.01,0-.78.16-1.64.49-2.59.33-.95.75-1.82,1.27-2.62.52-.8,1.15-1.47,1.88-2.01.74-.54,1.56-.81,2.47-.81s1.66.26,2.4.78c.74.52,1.36,1.16,1.88,1.91.52.76.93,1.58,1.23,2.46.3.89.46,1.67.46,2.36,0,1.43-.53,2.56-1.59,3.4-1.06.84-2.56,1.26-4.51,1.26h0Z"/>
          <path class="cls-6" d="m333.9,169.05c-2.51-2.27-6.75-4.39-12.73-6.38v-.26c3.03.04,5.71-.42,8.05-1.39,2.34-.97,4.2-2.45,5.59-4.44,1.39-1.99,2.08-4.41,2.08-7.26,0-3.98-1.34-7.18-4.03-9.62-2.69-2.44-6.84-3.66-12.47-3.66-3.51,0-6.78.59-9.8,1.78-3.03,1.19-5.54,3.19-7.53,5.99-.81,1.17-1.53,2.55-2.17,4.12.63,1.8,1.23,3.75,1.81,5.81.86,3.1,1.55,6.39,2.06,9.77.44,2.94.56,5.31.77,10.05,0,0,.08,1.78-.53,4.05-.16.6-.41,1.37-1.04,2.11-.34.4-.68.67-.93.84,1.3,1.14,2.77,1.49,4.99,1.49,1.25,0,2.36.05,3.79-.32,2.07-.54,2.57-1.32,2.69-1.52.22-.38.28-.73.35-1.17.21-1.29-.13-2.32-.14-2.72-.06-1.29-.55-3.15-.72-4.68-.17-1.53-.39-3.02-.65-4.47-.26-1.45-.54-2.67-.84-3.66h.26c2.38,4.58,5.01,8.81,7.04,11.44,2.03,2.64,4.06,4.48,6.07,5.54,2.01,1.06,4.14,1.59,6.4,1.59,1.82,0,3.25-.5,4.29-1.49,1.04-.99,1.56-2.36,1.56-4.08,0-2.29-1.68-5.19-4.19-7.46h0Zm-14.67-12.86c-2.38,0-4.22-.52-5.52-1.55-1.3-1.04-1.95-2.37-1.95-4.02,0-1.29.36-2.48,1.07-3.57.72-1.08,1.72-1.95,3.02-2.62,1.3-.67,2.86-1,4.68-1,2.47,0,4.29.57,5.45,1.72,1.17,1.14,1.75,2.58,1.75,4.31,0,1.38-.38,2.57-1.14,3.57-.76.99-1.76,1.77-3.02,2.33-1.26.56-2.71.84-4.35.84h0Z"/>
          <path class="cls-6" d="m187.57,132.92c5.8,0,10.08,1.37,12.83,4.11s4.12,6.33,4.12,10.78c0,3.06-.71,5.71-2.13,7.95-1.42,2.25-3.34,3.98-5.77,5.22-2.43,1.24-5.17,1.85-8.23,1.85-1.17,0-2.41-.11-3.71-.34-1.31-.23-2.65-.63-4.05-1.21l.54-1.62c.36,1.04.66,2.3.91,3.81.25,1.5.45,3.05.61,4.65.16,1.6.24,3.07.24,4.41,0,3.01-.67,5.31-2.02,6.9-1.35,1.6-3.38,2.39-6.07,2.39-2.07,0-3.69-.53-4.86-1.58-1.17-1.05-1.99-2.78-2.46-5.19-.47-2.4-.71-5.6-.71-9.6,0-5.88.34-10.91,1.01-15.09.67-4.18,1.69-7.5,3.04-9.97,1.3-2.29,3.38-4.11,6.21-5.45,2.83-1.35,6.34-2.02,10.53-2.02h0Zm-1.76,20.68c2.34,0,4.28-.61,5.8-1.82,1.53-1.21,2.29-2.9,2.29-5.05,0-1.39-.45-2.55-1.35-3.47-.9-.92-2.39-1.38-4.45-1.38-1.58,0-2.97.34-4.18,1.01-1.22.67-2.15,1.56-2.8,2.66-.65,1.1-.98,2.32-.98,3.67s.47,2.41,1.42,3.2c.94.79,2.36,1.18,4.25,1.18h0Z"/>
          <path class="cls-6" d="m233.24,163.21c-.27-2.43-.66-4.83-1.18-7.2-.52-2.37-1.16-4.63-1.92-6.77-1.39-3.93-3.17-6.9-5.33-8.9-2.16-2-4.61-3.01-7.36-3.01-2.12,0-4.01.37-5.7,1.09-1.69.73-3.32,1.89-4.89,3.49-.41.42-.82.87-1.24,1.35.36,1.25.54,2.6.54,4.05,0,2.76-.26,5.48-1.24,7.75-.99,2.3-3.57,5.13-5.92,6.4-.81.44-2.24,1.4-3.03,1.64-.63.58-1.38,1.37-1.58,1.96-.76,2.19-.41,1.01-.79,3-.38,1.99-.57,3.79-.57,5.41,0,3.24.6,5.48,1.79,6.71,1.19,1.24,2.91,1.85,5.17,1.85,1.8,0,3.28-.3,4.42-.91,1.15-.61,2.07-1.53,2.77-2.76.7-1.24,1.23-2.72,1.59-4.47.31-1.25.56-2.64.77-4.15.27.03.54.06.81.08,2,.16,3.94.2,5.8.12.33-.02.64-.03.95-.06.04,1.02.12,2.01.24,2.97.31,2.84,1.02,6.09,2.35,7.32,1.33,1.24,3.14,1.85,5.43,1.85,2.65,0,4.72-.8,6.21-2.4,1.49-1.6,2.34-5.5,2.34-9.26,0-2.35-.13-4.74-.4-7.17h-.01Zm-14.18-3.8c-1.22,1.11-2.95,1.67-5.2,1.67-1.71,0-3.05-.43-4.01-1.28-.97-.85-1.45-1.96-1.45-3.34,0-.93.17-1.92.5-2.98.34-1.05.83-2.05,1.49-2.98.65-.93,1.41-1.68,2.26-2.25.86-.57,1.8-.85,2.83-.85.86,0,1.62.19,2.29.58.67.38,1.25.92,1.72,1.61.47.69.82,1.47,1.05,2.34.23.87.34,1.77.34,2.7,0,2.06-.61,3.66-1.82,4.77Z"/>
          <path class="cls-6" d="m267.35,143.5c-1.06.45-2.19.76-3.41.91-3.06.37-5.8-.45-7.86-1.22-.02.43-.03.87-.03,1.33,0,1.3.04,2.76.13,4.37.09,1.62.19,3.32.33,5.09.13,1.77.27,3.51.42,5.22.15,1.71.31,3.29.49,4.76h-.26c-1.82-5.53-3.5-10.17-5.03-13.93-.91-2.22-1.8-4.18-2.67-5.88-1.55.62-3.21,1.16-5.02,1.63-1.69.44-3.47.65-5.4.65-.77,0-1.56-.03-2.38-.1-2.14-.18-4.22-.91-6.46-2.26-.13.55-.24,1.12-.35,1.72.74,1.49,1.41,3.15,2,4.99.75,2.35,1.39,4.84,1.9,7.43.02.1.05.24.08.41.04.23.79,4.17,1.08,7.43.34,3.86.6,6.78-.42,10.26-.66,2.23-1.61,3.91-2.3,4.98,2.37.79,4.34.83,5.54.75,2.28-.14,3.29-.78,3.62-1,.62-.42,1.14-.97,1.58-1.66,1.13-1.77,1.77-5.63,1.77-9.78,0-1.47-.04-3.08-.13-4.83-.09-1.75-.22-3.5-.39-5.25-.17-1.75-.39-3.42-.65-5.02s-.52-2.98-.78-4.15h.26c1.43,4.93,2.77,9.16,4.03,12.7,1.25,3.54,2.46,6.49,3.6,8.85,1.15,2.36,2.18,4.93,3.27,6.31,1.08,1.38,2.2,2.36,3.34,2.95,1.15.58,2.37.88,3.67.88,2.34,0,4.11-.74,5.32-2.2,1.21-1.47,2.09-4.41,2.48-7.42.39-3,.58-6.79.58-11.37,0-5.27-.35-9.81-1.04-13.61-.26-1.44-.56-2.75-.91-3.94h0Z"/>
          <path class="cls-3" d="m275.49,107.87c-.09-.1-.17-.21-.23-.34-.4-.81-.53-1.62-.53-2.51-.58-1.03-.82-2.17-1.53-3.15-.49-.68-1.08-1.27-1.56-1.95-.15-.22-.67-1.02-.59-.99-.63-.2-1.02-.6-1.22-1.08-.13-.08-.27-.15-.4-.23-.64-.39-1.14-.83-1.55-1.29-.72-.26-1.32-.61-1.81-1.05-.78.13-1.66.07-2.62-.28-1.98-.74-3.96-1.58-5.98-2.26-.1,0-.19,0-.29-.01-1.22-.14-2.45-.13-3.68-.27-.88-.1-1.54-.22-2.34-.47-.07-.02-.19-.05-.34-.08-.18.05-.38.08-.6.08-.36,0-.67-.08-.93-.22-.12,0-.23,0-.35,0-.25-.01-.49-.07-.71-.15-1.4.17-2.81.44-4.27.74-4.36.9-9.75,1.26-14.34,2.72-1.37.78-2.84,1.24-4.29,1.92-.17.08-.34.13-.5.19-2.06,1.84-3.94,3.84-5.37,6.24-.84,1.42-1.4,2.94-1.95,4.46-.37,1.65-.51,3.29-.38,4.95.57,1.06,1.35,1.97,2.12,2.89,3.39.95,4.43,4.98,3.11,7.81.17,2.9-.15,6.01-.21,8.78.17.2.33.41.48.64.86,1.34,1.31,2.77,2.31,4,.56.69,1.15,1.38,1.75,2.05.16.12.33.23.49.36.36.22.7.48,1,.79.22.24.52.55.82.86,1.68,1.04,3.42,1.98,5.11,3.01.43.08.85.22,1.23.4,1.14.11,2.26.34,3.41.38.01,0,.02-.02.04-.02,1.67-.85,3.39-1.14,5.24-1.19.19-.09.38-.18.57-.26.93-.38,1.89-.63,2.85-.92,1.06-.33,2.03-.86,3.12-1.1.21-.05.42-.06.61-.05.3-.14.61-.26.93-.36.3-.49.84-.85,1.6-.85s1.25.33,1.56.79c.39.11.77.27,1.12.48.16.02.34.05.51.12,1.31.48,2.64.49,3.99.78,1.12.24,2.28.38,3.43.44,1.35-1.1,3.04-1.79,4.76-2.59.15-.07.3-.14.45-.21.37-1.09,1.11-2,1.86-2.9.55-.66,1.17-1.31,1.85-1.89-.88-4.07-.96-8.61-1.04-11.87-.15-.61-.23-1.2-.31-1.88-.03-.25-.06-.5-.08-.75-1.27-2.72-.28-5.29,1.9-6.85,0-.02.02-.03.03-.05.02-.11.04-.22.06-.33.11-.64.43-1.28.72-1.86.17-.34.39-.66.62-.97,0-.07.02-.14.04-.22,0-.03.04-.18.07-.3,0-.09.03-.25.03-.28.02-.33.02-.65.02-.98s.08-.61.21-.87h0s0,0,0,0Z"/>
          <path class="cls-8" d="m252.55,139.81c-2.75-1.48-5.45-2.92-8.69-2.49-1.68.22-3.02,1.11-4.29,2.15-.6.49-1.18,1.03-1.78,1.52-1.35,1.11-2.57,1.07-3.71-.26-.62-.72-1.12-1.56-1.55-2.41-.41-.81-.28-1.68.19-2.47.2-.33.17-.55-.12-.84-.69-.7-1.34-1.45-1.99-2.18-.12-.14-.26-.29-.3-.46-.04-.19.02-.4.04-.6.19.05.45.04.57.17.48.51.89,1.07,1.36,1.59.48.53.99,1.04,1.44,1.52,2.9-1.81,5.65-1.41,8.25.36.88.6,1.49.68,2.39.13,3.28-2.04,6.87-2.3,10.58-1.6,1.75.33,3.4.13,4.95-.74,1.69-.95,3.45-1.58,5.43-1.57,1.17,0,1.91-.74,2.44-1.72.16-.3.25-.85.73-.58.43.24.13.69-.06.97-.47.66-1.01,1.27-1.53,1.92.22.26.56.61.84,1,.83,1.15.77,2.37.04,3.52-.74,1.17-1.93,1.53-3.23,1.27-.87-.17-1.71-.55-2.54-.89-1.68-.69-3.29-1.74-5.04-2.07-3.04-.58-6.16-1.16-9.24-.14-1.09.36-2.13.89-3.13,1.48.88.11,1.79.13,2.64.36,1.18.33,2.34.75,3.46,1.24,2.11.92,4.16,1.96,6.27,2.86,2.3.98,4.75,1.25,7.24,1.16,1.36-.05,2.54-.63,3.57-1.5,1.44-1.21,2.63-2.64,3.66-4.21.13-.19.49-.43.64-.37.37.14.21.48.05.72-1.39,2.16-2.98,4.13-5.26,5.42-1.18.67-2.48.82-3.82.77-2.96-.1-5.79-.73-8.39-2.14-.73-.39-1.37-.3-2.01.03-3.77,1.92-7.85,2.83-11.93,3.79-3.43.81-6.44.04-9.35-1.73-1.94-1.18-3.78-2.46-5.46-3.99-1.1-1-2.29-1.89-3.38-2.89-.69-.63-1.1-1.41-1.07-2.42.14-4.08.22-8.15.35-12.23.04-1.19.08-1.17-.99-1.75-3.35-1.83-5.77-4.43-6.12-8.37-.43-4.83,1.12-8.9,5.1-11.93,4.35-3.32,9.26-5.4,14.56-6.65,4.79-1.12,9.65-1.23,14.52-.88,3.29.24,6.62.43,9.84,1.1,5.58,1.15,10.63,3.42,14.12,8.24,2.06,2.85,3.14,5.96,2.48,9.53-.35,1.88-1.3,3.41-2.76,4.59-.86.7-1.06,1.5-.93,2.54.67,5.26,1.28,10.53,1.98,15.78.12.89.04,1.58-.66,2.29-.07-.42-.14-.78-.18-1.14-.24-2.38-.44-4.77-.7-7.15-.29-2.61-.64-5.2-.96-7.81-.09-.71-.15-1.43-.28-2.13-.23-1.19.16-2.1,1.1-2.87,1.6-1.3,2.55-2.98,2.74-5.05.2-2.16-.21-4.21-1.23-6.12-2.22-4.14-5.67-6.82-10.01-8.48-4.36-1.66-8.88-2.36-13.52-2.16-3.09.13-6.09.86-9.06,1.69-4.13,1.15-8.08,2.75-11.66,5.16-2.16,1.46-4.09,3.17-5.46,5.42-2.19,3.6-1.85,7.36,1.01,10.46.73.79,1.58,1.49,2.44,2.16.45.35.69.72.7,1.28.02,1.33.06,2.66.07,3.99,0,2.27-.03,4.55,0,6.82,0,.67-.15,1.19-.68,1.62-1.64,1.35-2.24,3.08-1.85,5.16.06.33.18.71.4.93,2.68,2.63,5.72,4.71,9.24,6.09,1.52.59,3.06.53,4.61.23,3.94-.75,7.83-1.65,11.5-3.32.39-.18.77-.38,1.16-.57.07-.03.13-.08.24-.16h-.02Zm-10.58-3.42c-1.25-1.26-3.77-1.97-5.77-1.59-.86.17-1.58.55-2.16,1.2-.91,1.03-1,1.91-.27,3.05.31.48.69.92,1.08,1.33.63.65,1.28.7,2.04.21.26-.17.47-.39.71-.59,1.45-1.2,2.9-2.4,4.37-3.62h0Zm16.61-1.7c.24.13.45.25.67.35,1.31.59,2.6,1.21,3.93,1.74.63.25,1.34.4,2.02.43,1.37.07,2.31-.92,2.32-2.3,0-1.17-1.25-2.51-2.37-2.49-1.22.03-2.41.21-3.52.76-.98.49-1.98.97-3.05,1.5h0Z"/>
          <path class="cls-6" d="m247.8,121.16c.31.06.84.08,1.31.25,1.49.58,2.96.46,4.47.09.84-.21,1.74-.29,2.61-.29,1.08,0,1.72.69,1.86,1.76.15,1.21-.2,2.28-.96,3.2-1.47,1.79-3.31,2.97-5.67,3.25-1.09.13-2.12-.1-3.1-.58-1.21-.6-2.27-1.4-3.14-2.43-.87-1.04-1.33-2.22-.74-3.52.6-1.31,1.81-1.69,3.36-1.74Z"/>
          <path class="cls-6" d="m259.53,121.01c-2.67-.43-4.13-2.1-4.66-4.57-.59-2.72,0-5.2,2.15-7.11,2.15-1.91,5.17-1.56,6.87.75,1.58,2.14,1.67,4.51.87,6.97-.05.15-.11.31-.17.46,0,.02,0,.04.01.11.15-.02.32-.1.46-.06.21.06.4.19.6.29-.15.16-.29.44-.46.47-2.31.38-3.91,1.78-5.28,3.55-.13.16-.42.2-.64.29,0-.24-.04-.48,0-.71.02-.15.15-.28.25-.44Zm2.84-2.64c-1.34-.14-2.38-.76-3.05-1.93-.63-1.11-.52-1.51.61-2.09.41-.21.83-.4,1.36-.66-.59-.23-1.05-.38-1.49-.58-.64-.28-.76-.71-.35-1.27.27-.36.58-.69.9-1,.5-.48,1.02-.93,1.57-1.42-.15-.09-.23-.15-.31-.19-1.53-.72-3.42-.24-4.64,1.24-1.42,1.71-1.82,3.69-1.36,5.83.5,2.36,1.97,3.65,4.34,3.92.14.02.33-.02.43-.1.65-.55,1.29-1.13,1.98-1.74h0Z"/>
          <path class="cls-6" d="m237.52,119.02c-.66-1.35-.92-2.64-.82-3.99.2-2.92,2.24-5.26,4.98-5.7,1.23-.19,2.37.11,3.41.75,3.91,2.41,3.95,8.75.03,11.13-.83.5-1.85.7-2.86,1.07.02.13.13.43.09.72-.03.22-.22.42-.34.63-.15-.17-.39-.31-.43-.5-.44-2-1.76-3.13-3.88-3.27-.43-.03-.87.03-1.29-.04-.19-.03-.35-.25-.53-.38.16-.13.3-.35.48-.38.34-.06.69-.02,1.16-.02h0Zm8.75-.14c-.29.02-.51.04-.74.04-1.69.05-2.97-.66-3.42-1.89-.31-.84-.17-1.2.64-1.57.51-.23,1.02-.44,1.71-.74-.66-.32-1.15-.57-1.65-.8-.65-.3-.77-.62-.47-1.27.37-.79,1.02-1.26,1.82-1.55.19-.07.39-.13.65-.21-1.67-1.22-3.93-1.03-5.48.37-2.02,1.84-2.48,5.24-.97,7.55.14.21.41.39.66.47,1,.33,1.87.83,2.54,1.65.09.12.24.23.38.27,1.49.33,3.63-.8,4.33-2.32h0Z"/>
          <path class="cls-6" d="m257.87,102.44c1.69.36,3.35.74,4.38,2.31.15.23.12.59.17.89-.29.01-.6.11-.86.03-1.3-.43-2.58-.92-3.97-1-.4-.02-.84-.23-1.17-.47-.61-.45-.5-1.15.2-1.45.39-.16.82-.2,1.26-.3Z"/>
          <path class="cls-6" d="m244.77,104.15c-.4.37-.67.76-1.04.92-.61.28-1.3.37-1.93.62-.77.31-1.5.72-2.27,1.05-.24.1-.52.08-.79.11.02-.24-.03-.51.06-.72.72-1.63,2.06-2.51,3.73-2.91.45-.11.98-.03,1.44.12.27.09.46.45.8.82Z"/>
          <path class="cls-3" d="m241.97,136.39c-1.47,1.22-2.92,2.42-4.37,3.62-.24.2-.45.42-.71.59-.76.49-1.42.44-2.04-.21-.4-.41-.77-.85-1.08-1.33-.73-1.14-.64-2.02.27-3.05.58-.65,1.3-1.03,2.16-1.2,2-.38,4.52.33,5.77,1.59h0Z"/>
          <path class="cls-3" d="m258.59,134.69c1.07-.53,2.07-1,3.05-1.5,1.11-.56,2.3-.73,3.52-.76,1.12-.03,2.38,1.32,2.37,2.49,0,1.38-.95,2.37-2.32,2.3-.68-.03-1.39-.18-2.02-.43-1.33-.53-2.63-1.15-3.93-1.74-.22-.1-.43-.23-.67-.35h0Z"/>
          <path class="cls-3" d="m262.37,118.37c-.69.61-1.33,1.19-1.98,1.74-.1.09-.29.12-.43.1-2.38-.27-3.84-1.56-4.34-3.92-.46-2.14-.06-4.12,1.36-5.83,1.23-1.48,3.11-1.96,4.64-1.24.09.04.17.1.31.19-.55.5-1.07.95-1.57,1.42-.32.31-.63.65-.9,1-.42.55-.29.98.35,1.27.44.2.9.35,1.49.58-.53.26-.95.45-1.36.66-1.13.58-1.24.98-.61,2.09.67,1.18,1.7,1.79,3.05,1.93h0Z"/>
          <path class="cls-3" d="m246.27,118.89c-.7,1.52-2.83,2.64-4.33,2.32-.14-.03-.29-.15-.38-.27-.67-.82-1.54-1.32-2.54-1.65-.25-.08-.53-.26-.66-.47-1.5-2.31-1.05-5.71.97-7.55,1.54-1.4,3.81-1.58,5.48-.37-.26.08-.46.14-.65.21-.8.29-1.45.75-1.82,1.55-.3.65-.18.97.47,1.27.5.23.98.48,1.65.8-.68.29-1.2.51-1.71.74-.81.37-.95.73-.64,1.57.45,1.23,1.73,1.94,3.42,1.89.22,0,.45-.02.74-.04h0Z"/>
          <path class="cls-5" d="m247.94,124.76c2.23-.1,4.23.5,5.92,2.01.63.56.62.67-.11,1.03-2.9,1.43-6.14.29-7.95-2.14-.46-.62-.11-.82.39-.88.58-.07,1.17-.02,1.76-.02Z"/>
        </g>
      </g>
    </g>
  </g>
</svg>