<?xml version="1.0" encoding="UTF-8"?>
<svg id="Capa_2" data-name="Capa 2" xmlns="http://www.w3.org/2000/svg" xmlns:xlink="http://www.w3.org/1999/xlink" viewBox="0 0 238.1 220.26">
  <defs>
    <style>
      .cls-1, .cls-2 {
        fill: none;
      }

      .cls-3 {
        stroke-width: .23px;
      }

      .cls-3, .cls-4 {
        stroke: #511313;
      }

      .cls-3, .cls-4, .cls-5 {
        fill: #521312;
      }

      .cls-3, .cls-4, .cls-6, .cls-2 {
        stroke-miterlimit: 10;
      }

      .cls-4 {
        stroke-width: .6px;
      }

      .cls-7 {
        clip-path: url(#clippath);
      }

      .cls-8 {
        fill: #fff;
      }

      .cls-9 {
        fill: #b67138;
      }

      .cls-10, .cls-6 {
        fill: #501314;
      }

      .cls-6 {
        stroke: #501314;
        stroke-width: 2.38px;
      }

      .cls-11 {
        opacity: .9;
      }

      .cls-2 {
        stroke: #fff5e9;
        stroke-width: 2.77px;
      }
    </style>
    <clipPath id="clippath">
      <rect class="cls-1" width="238.1" height="220.26" rx="25.06" ry="25.06"/>
    </clipPath>
  </defs>
  <g id="Capa_1-2" data-name="Capa 1">
    <g class="cls-7">
      <rect class="cls-3" width="238.1" height="220.26" rx="25.06" ry="25.06"/>
      <g class="cls-11">
        <path class="cls-10" d="m155.41,148.71c12-10.17,12.88-26.15,10.33-40.48-11.24-34.25-47.9-49.83-81.97-51.2-35.61-3.44-73.56.44-103.07,22.9-11.21,8.06-20.49,18.95-22.76,32.98-4.38,18.98,2.75,40.5,20.5,49.96-.34,3.88-.75,9.42-.96,16.09-.34,10.88-.52,16.32.27,21.06,2.43,14.63,12.32,24.42,15.93,27.95,11.53,11.29,24.45,14.78,31.36,16.55,5.56,1.43,13.56,3.48,23.81,2.32,13.32-1.51,35.84-9.07,38.29-10.41.2-.11,1.03-.59,2.17-.6.82,0,1.48.25,1.79.4.1.05.18.09.19.09,14.78,7.68,33.14,3.38,33.14,3.38,18.71-4.39,28.53-18,30.97-21.51,2.19-3.13,3.66-5.99,4.62-8.08,1.43-13.43-3-27.25-3.47-40.81.58-4.95-3.74-17.79-1.14-20.6Z"/>
        <path class="cls-8" d="m152.75,119.55c-.26-.3-.49-.63-.67-1-1.15-2.4-1.53-4.82-1.54-7.48-1.67-3.07-2.39-6.48-4.42-9.38-1.41-2.01-3.11-3.79-4.51-5.82-.44-.64-1.95-3.03-1.71-2.96-1.83-.59-2.97-1.79-3.54-3.21-.39-.23-.77-.44-1.16-.68-1.85-1.15-3.31-2.46-4.47-3.85-2.08-.77-3.83-1.83-5.24-3.12-2.26.4-4.8.21-7.58-.85-5.74-2.19-11.46-4.69-17.3-6.74-.28-.01-.55,0-.83-.04-3.54-.42-7.1-.38-10.64-.79-2.54-.29-4.45-.65-6.77-1.4-.19-.06-.55-.15-.97-.24-.53.16-1.1.25-1.73.25-1.05,0-1.94-.24-2.69-.65-.34.02-.67.03-1.01.01-.73-.04-1.42-.21-2.07-.45-4.06.5-8.14,1.31-12.38,2.21-12.62,2.68-28.23,3.75-41.5,8.1-3.95,2.33-8.22,3.68-12.42,5.71-.49.24-.97.39-1.45.57-5.97,5.47-11.4,11.43-15.52,18.59-2.43,4.22-4.05,8.74-5.65,13.28-1.06,4.92-1.48,9.79-1.09,14.72,1.65,3.17,3.9,5.87,6.13,8.6,9.82,2.82,12.81,14.81,9,23.25.48,8.63-.44,17.89-.61,26.13.48.59.95,1.22,1.38,1.91,2.48,3.98,3.79,8.25,6.68,11.92,1.62,2.07,3.33,4.1,5.06,6.09.46.36.95.7,1.4,1.07,1.04.65,2.02,1.42,2.91,2.34.64.72,1.49,1.64,2.38,2.57,4.85,3.11,9.9,5.88,14.78,8.97,1.25.24,2.45.64,3.57,1.19,3.29.33,6.55,1.02,9.86,1.14.04-.02.07-.04.11-.06,4.83-2.53,9.81-3.4,15.16-3.53.55-.28,1.1-.54,1.64-.77,2.7-1.15,5.46-1.87,8.24-2.74,3.07-.96,5.88-2.56,9.02-3.28.62-.14,1.21-.18,1.76-.14.87-.42,1.77-.79,2.69-1.07.88-1.48,2.42-2.53,4.62-2.53s3.61.96,4.51,2.34c1.14.33,2.24.81,3.24,1.44.47.05.97.15,1.49.35,3.8,1.43,7.64,1.46,11.55,2.32,3.24.72,6.58,1.14,9.91,1.32,3.91-3.27,8.8-5.33,13.77-7.71.43-.2.87-.42,1.31-.64,1.07-3.23,3.2-5.96,5.39-8.64,1.6-1.95,3.39-3.9,5.35-5.63-2.55-12.12-2.78-25.64-3.02-35.35-.44-1.81-.66-3.58-.89-5.61-.1-.74-.16-1.49-.23-2.23-3.67-8.1-.8-15.75,5.49-20.39.03-.04.05-.09.09-.14.06-.33.11-.65.16-.97.32-1.92,1.25-3.82,2.08-5.54.49-1.02,1.13-1.96,1.81-2.88.03-.22.07-.43.11-.64.02-.08.11-.55.19-.89.03-.28.08-.74.09-.84.06-.97.05-1.94.05-2.91s.22-1.82.61-2.59v-.04h0Z"/>
        <path class="cls-4" d="m86.38,214.65c-7.96-4.41-15.76-8.69-25.14-7.43-4.87.65-8.75,3.3-12.41,6.39-1.74,1.47-3.4,3.05-5.14,4.54-3.9,3.32-7.43,3.19-10.73-.76-1.79-2.14-3.25-4.65-4.49-7.17-1.2-2.42-.82-5.02.56-7.35.59-1,.49-1.64-.34-2.5-2.01-2.08-3.87-4.3-5.77-6.48-.35-.41-.77-.86-.88-1.36-.13-.56.06-1.19.11-1.79.56.15,1.32.12,1.65.49,1.38,1.51,2.58,3.19,3.92,4.73,1.38,1.59,2.86,3.1,4.18,4.52,8.39-5.4,16.36-4.21,23.87,1.09,2.55,1.79,4.31,2.03,6.91.37,9.5-6.07,19.89-6.85,30.61-4.77,5.06.98,9.85.37,14.31-2.2,4.9-2.83,9.99-4.7,15.72-4.68,3.38.01,5.52-2.2,7.05-5.12.46-.88.73-2.54,2.12-1.74,1.25.72.39,2.07-.18,2.89-1.36,1.96-2.91,3.77-4.43,5.71.64.78,1.62,1.82,2.43,2.98,2.39,3.43,2.23,7.05.13,10.46-2.15,3.49-5.58,4.56-9.34,3.79-2.52-.52-4.95-1.64-7.34-2.65-4.87-2.07-9.52-5.17-14.58-6.17-8.79-1.73-17.83-3.46-26.75-.41-3.16,1.08-6.16,2.66-9.06,4.4,2.55.33,5.18.37,7.63,1.07,3.41.96,6.77,2.24,10.01,3.7,6.09,2.73,12.03,5.84,18.14,8.52,6.67,2.92,13.76,3.71,20.95,3.45,3.94-.15,7.35-1.88,10.34-4.46,4.17-3.6,7.62-7.85,10.58-12.55.36-.57,1.41-1.26,1.86-1.09,1.08.41.61,1.42.15,2.14-4.02,6.43-8.63,12.3-15.22,16.14-3.4,1.98-7.18,2.43-11.04,2.29-8.55-.31-16.74-2.18-24.29-6.38-2.11-1.18-3.96-.89-5.82.08-10.91,5.71-22.71,8.42-34.52,11.28-9.92,2.4-18.64.11-27.04-5.14-5.6-3.5-10.94-7.33-15.79-11.88-3.17-2.97-6.63-5.63-9.79-8.6-1.99-1.87-3.18-4.19-3.09-7.2.4-12.13.63-24.27,1.01-36.4.11-3.54.22-3.47-2.86-5.2-9.7-5.45-16.7-13.18-17.7-24.93-1.23-14.38,3.25-26.5,14.74-35.53,12.6-9.89,26.79-16.09,42.12-19.79,13.86-3.35,27.92-3.67,42.01-2.61,9.53.72,19.17,1.29,28.48,3.27,16.14,3.43,30.77,10.18,40.85,24.54,5.96,8.5,9.1,17.75,7.16,28.37-1.02,5.59-3.77,10.16-7.99,13.68-2.5,2.09-3.07,4.47-2.68,7.56,1.94,15.66,3.69,31.35,5.74,47,.35,2.65.13,4.71-1.91,6.83-.2-1.26-.42-2.33-.53-3.41-.68-7.1-1.27-14.21-2.03-21.3-.84-7.76-1.84-15.5-2.78-23.24-.26-2.12-.44-4.25-.82-6.35-.66-3.55.45-6.25,3.18-8.53,4.62-3.87,7.36-8.89,7.93-15.04.59-6.43-.59-12.53-3.56-18.22-6.41-12.32-16.4-20.3-28.96-25.23-12.62-4.95-25.69-7.04-39.12-6.43-8.93.4-17.63,2.57-26.22,5.03-11.97,3.43-23.39,8.18-33.73,15.37-6.26,4.35-11.83,9.44-15.81,16.15-6.34,10.71-5.35,21.92,2.91,31.14,2.12,2.37,4.57,4.45,7.05,6.43,1.3,1.05,2,2.14,2.02,3.8.04,3.97.18,7.93.19,11.89.02,6.77-.08,13.54-.01,20.31.02,1.98-.45,3.55-1.96,4.84-4.74,4.02-6.5,9.18-5.34,15.35.18.98.51,2.11,1.16,2.77,7.75,7.83,16.56,14.03,26.74,18.12,4.39,1.76,8.85,1.57,13.34.7,11.39-2.22,22.66-4.91,33.29-9.87,1.14-.53,2.24-1.13,3.35-1.7.2-.1.37-.25.7-.48v.02Zm-30.61-10.17c-3.61-3.75-10.91-5.87-16.69-4.72-2.5.5-4.58,1.63-6.26,3.57-2.63,3.05-2.91,5.68-.79,9.08.89,1.43,1.98,2.75,3.13,3.97,1.81,1.93,3.72,2.1,5.91.63.74-.5,1.36-1.17,2.05-1.76,4.19-3.57,8.39-7.14,12.64-10.77h0Zm48.07-5.06c.7.38,1.31.75,1.95,1.05,3.78,1.75,7.52,3.62,11.38,5.18,1.84.74,3.88,1.19,5.85,1.29,3.96.2,6.68-2.74,6.7-6.85.02-3.49-3.62-7.49-6.87-7.4-3.52.09-6.97.62-10.18,2.27-2.85,1.47-5.72,2.9-8.83,4.46h0Z"/>
        <path class="cls-5" d="m72.62,159.13c.9.17,2.44.22,3.79.76,4.31,1.71,8.56,1.37,12.94.28,2.44-.61,5.03-.87,7.55-.86,3.12.01,4.97,2.05,5.37,5.25.44,3.6-.58,6.79-2.78,9.53-4.27,5.33-9.58,8.86-16.4,9.66-3.16.37-6.14-.28-8.97-1.72-3.51-1.77-6.55-4.19-9.08-7.25-2.53-3.08-3.84-6.61-2.13-10.48,1.72-3.91,5.22-5.04,9.72-5.17h0Z"/>
        <path class="cls-5" d="m106.56,158.67c-7.72-1.28-11.96-6.25-13.5-13.6-1.7-8.11.02-15.5,6.23-21.18,6.22-5.68,14.94-4.65,19.88,2.25,4.56,6.38,4.84,13.42,2.54,20.74-.15.46-.33.91-.48,1.36-.02.05.01.12.04.32.45-.07.93-.28,1.33-.18.61.17,1.16.57,1.74.87-.44.48-.83,1.32-1.34,1.4-6.68,1.13-11.33,5.29-15.28,10.56-.37.49-1.23.59-1.85.87-.01-.71-.11-1.43,0-2.12.07-.44.44-.82.72-1.31h0Zm8.23-7.86c-3.89-.42-6.88-2.25-8.82-5.76-1.82-3.3-1.49-4.49,1.77-6.21,1.19-.63,2.4-1.19,3.95-1.95-1.71-.68-3.04-1.15-4.32-1.73-1.86-.85-2.21-2.12-1.01-3.77.78-1.07,1.67-2.06,2.61-2.99,1.43-1.42,2.94-2.76,4.54-4.24-.43-.26-.66-.44-.91-.57-4.42-2.15-9.88-.71-13.43,3.68-4.1,5.08-5.26,10.98-3.94,17.35,1.47,7.03,5.69,10.86,12.57,11.67.41.05.95-.05,1.25-.31,1.89-1.64,3.72-3.35,5.72-5.17h0Z"/>
        <path class="cls-5" d="m42.88,152.78c-1.92-4.02-2.65-7.85-2.37-11.89.59-8.68,6.48-15.67,14.41-16.96,3.55-.58,6.86.32,9.88,2.24,11.32,7.17,11.43,26.04.08,33.13-2.4,1.5-5.34,2.08-8.28,3.17.06.38.36,1.28.27,2.13-.07.65-.64,1.24-.99,1.86-.43-.49-1.13-.92-1.25-1.48-1.27-5.94-5.1-9.32-11.24-9.74-1.24-.09-2.51.07-3.73-.12-.55-.09-1.02-.75-1.53-1.15.46-.4.88-1.05,1.4-1.15.97-.19,2-.05,3.36-.05Zm25.32-.41c-.84.05-1.49.11-2.13.13-4.89.15-8.59-1.95-9.9-5.61-.9-2.51-.49-3.58,1.84-4.68,1.47-.69,2.96-1.33,4.94-2.2-1.93-.96-3.34-1.69-4.77-2.38-1.87-.9-2.23-1.85-1.36-3.79,1.07-2.36,2.95-3.75,5.27-4.61.56-.21,1.14-.38,1.89-.63-4.82-3.62-11.38-3.07-15.84,1.09-5.86,5.47-7.16,15.59-2.82,22.47.4.64,1.2,1.17,1.92,1.41,2.89.97,5.41,2.47,7.36,4.91.28.35.7.7,1.1.79,4.31.97,10.49-2.39,12.51-6.9h0Z"/>
        <path class="cls-5" d="m101.78,103.38c4.89,1.08,9.69,2.21,12.67,6.87.44.7.33,1.77.48,2.67-.83.04-1.74.33-2.48.08-3.77-1.29-7.46-2.73-11.5-2.99-1.16-.07-2.43-.68-3.39-1.41-1.75-1.33-1.45-3.44.58-4.31,1.12-.48,2.39-.61,3.64-.9Z"/>
        <path class="cls-5" d="m63.86,108.48c-1.17,1.1-1.95,2.25-3.02,2.75-1.77.83-3.77,1.1-5.58,1.85-2.23.92-4.35,2.14-6.57,3.12-.68.3-1.51.22-2.27.31.05-.72-.09-1.52.18-2.14,2.09-4.84,5.97-7.49,10.81-8.67,1.3-.32,2.85-.08,4.15.35.79.26,1.32,1.35,2.3,2.44Z"/>
        <path class="cls-8" d="m55.77,204.48c-4.26,3.63-8.45,7.2-12.64,10.77-.68.59-1.31,1.26-2.05,1.76-2.2,1.47-4.1,1.31-5.91-.63-1.15-1.22-2.24-2.54-3.13-3.97-2.12-3.4-1.84-6.02.79-9.08,1.67-1.94,3.77-3.08,6.26-3.57,5.79-1.15,13.08.97,16.69,4.72h0Z"/>
        <path class="cls-8" d="m103.84,199.42c3.11-1.57,5.98-2.99,8.83-4.46,3.21-1.66,6.66-2.18,10.18-2.27,3.25-.08,6.89,3.92,6.87,7.4-.02,4.12-2.75,7.06-6.7,6.85-1.97-.1-4.01-.55-5.85-1.29-3.86-1.57-7.6-3.43-11.38-5.18-.64-.3-1.25-.67-1.95-1.05h0Z"/>
        <path class="cls-8" d="m114.78,150.81c-2,1.82-3.83,3.53-5.72,5.17-.29.26-.84.35-1.25.31-6.88-.8-11.11-4.64-12.57-11.67-1.33-6.37-.17-12.26,3.94-17.35,3.54-4.39,9-5.82,13.43-3.68.25.12.48.3.91.57-1.6,1.48-3.11,2.82-4.54,4.24-.94.93-1.83,1.92-2.61,2.99-1.21,1.65-.85,2.92,1.01,3.77,1.28.59,2.61,1.05,4.31,1.73-1.54.76-2.76,1.33-3.95,1.95-3.27,1.72-3.6,2.9-1.77,6.21,1.94,3.5,4.93,5.33,8.82,5.76h0Z"/>
        <path class="cls-8" d="m68.2,152.37c-2.02,4.51-8.2,7.87-12.51,6.9-.41-.09-.83-.44-1.1-.79-1.95-2.44-4.46-3.94-7.36-4.91-.72-.24-1.52-.77-1.92-1.41-4.34-6.88-3.04-17,2.82-22.47,4.46-4.17,11.02-4.71,15.84-1.09-.75.25-1.33.42-1.89.63-2.32.85-4.21,2.25-5.27,4.61-.88,1.94-.51,2.88,1.36,3.79,1.43.69,2.85,1.42,4.78,2.38-1.98.88-3.47,1.51-4.94,2.2-2.33,1.1-2.74,2.17-1.84,4.68,1.31,3.66,5,5.76,9.9,5.61.65-.02,1.29-.08,2.13-.13h0Z"/>
        <path class="cls-9" d="m73.04,169.85c6.46-.28,12.24,1.5,17.13,5.98,1.82,1.66,1.8,1.99-.31,3.05-8.38,4.25-17.76.85-23.01-6.37-1.34-1.84-.33-2.43,1.12-2.62,1.67-.22,3.38-.05,5.08-.05h0Z"/>
        <path class="cls-2" d="m56.18,68.05c-11.5-.11-52.53,6.71-65.18,18.35-29.53,16.39-32.61,59.19-1.64,70.92l-.92,40.27c17.5,38.55,67.04,44.12,98.97,22.37,24.81,16.39,51.59,7.59,62.99-18.45l-6.85-52.94c.42-10.22,16.88-9.65,11.5-35.13-16.53-44.33-63.54-45.86-98.87-45.39Z"/>
        <polyline class="cls-6" points="142.93 204.43 143.65 202.64 145.28 200.58 146.31 199.07 145.84 196.53"/>
      </g>
    </g>
  </g>
</svg>