<?xml version="1.0" encoding="UTF-8"?>
<svg id="Capa_2" data-name="Capa 2" xmlns="http://www.w3.org/2000/svg" viewBox="0 0 82.32 74.9">
  <defs>
    <style>
      .cls-1 {
        stroke: #501314;
        stroke-width: .93px;
      }

      .cls-1, .cls-2, .cls-3 {
        stroke-miterlimit: 10;
      }

      .cls-1, .cls-4 {
        fill: #501314;
      }

      .cls-2 {
        stroke: #511313;
        stroke-width: .23px;
      }

      .cls-2, .cls-5 {
        fill: #521312;
      }

      .cls-3 {
        fill: none;
        stroke: #fff5e9;
        stroke-width: 1.09px;
      }

      .cls-6 {
        fill: #fff;
      }

      .cls-7 {
        fill: #b67138;
      }
    </style>
  </defs>
  <g id="Capa_1-2" data-name="Capa 1">
    <g>
      <path class="cls-4" d="m77.82,36.33c4.7-3.98,5.04-10.24,4.04-15.85C77.47,7.07,63.11.96,49.77.43c-13.95-1.35-28.81.17-40.36,8.97C5.02,12.56,1.38,16.82.49,22.31c-1.72,7.43,1.08,15.86,8.03,19.56-.13,1.52-.29,3.69-.38,6.3-.14,4.26-.2,6.39.11,8.25.95,5.73,4.83,9.56,6.24,10.95,4.52,4.42,9.57,5.79,12.28,6.48,2.18.56,5.31,1.36,9.32.91,5.22-.59,14.04-3.55,14.99-4.07.08-.04.41-.23.85-.23.32,0,.58.1.7.16.04.02.07.03.07.04,5.79,3.01,12.98,1.32,12.98,1.32,7.33-1.72,11.17-7.05,12.13-8.42.86-1.23,1.43-2.35,1.81-3.17.56-5.26-1.17-10.67-1.36-15.98.23-1.94-1.47-6.97-.44-8.07Z"/>
      <path class="cls-6" d="m76.78,24.92c-.1-.12-.19-.25-.26-.39-.45-.94-.6-1.89-.6-2.93-.65-1.2-.94-2.54-1.73-3.67-.55-.79-1.22-1.48-1.76-2.28-.17-.25-.76-1.19-.67-1.16-.72-.23-1.16-.7-1.39-1.26-.15-.09-.3-.17-.45-.26-.72-.45-1.29-.96-1.75-1.51-.81-.3-1.5-.72-2.05-1.22-.89.16-1.88.08-2.97-.33-2.25-.86-4.49-1.84-6.78-2.64-.11,0-.22,0-.33-.01-1.39-.17-2.78-.15-4.17-.31-1-.11-1.74-.25-2.65-.55-.07-.02-.21-.06-.38-.09-.21.06-.43.1-.68.1-.41,0-.76-.1-1.05-.25-.13,0-.26.01-.4,0-.29-.01-.56-.08-.81-.18-1.59.19-3.19.51-4.85.87-4.94,1.05-11.05,1.47-16.25,3.17-1.55.91-3.22,1.44-4.87,2.23-.19.09-.38.15-.57.22-2.34,2.14-4.46,4.48-6.08,7.28-.95,1.65-1.59,3.42-2.21,5.2-.41,1.93-.58,3.84-.43,5.76.65,1.24,1.53,2.3,2.4,3.37,3.85,1.11,5.02,5.8,3.52,9.11.19,3.38-.17,7.01-.24,10.23.19.23.37.48.54.75.97,1.56,1.49,3.23,2.61,4.67.64.81,1.3,1.6,1.98,2.38.18.14.37.27.55.42.41.25.79.55,1.14.92.25.28.59.64.93,1.01,1.9,1.22,3.88,2.3,5.79,3.51.49.1.96.25,1.4.47,1.29.13,2.56.4,3.86.45.01,0,.03-.02.04-.02,1.89-.99,3.84-1.33,5.94-1.38.22-.11.43-.21.64-.3,1.06-.45,2.14-.73,3.23-1.07,1.2-.38,2.3-1,3.53-1.28.24-.06.47-.07.69-.06.34-.16.69-.31,1.06-.42.35-.58.95-.99,1.81-.99s1.41.38,1.76.92c.45.13.88.32,1.27.57.18.02.38.06.58.14,1.49.56,2.99.57,4.52.91,1.27.28,2.58.45,3.88.52,1.53-1.28,3.45-2.09,5.39-3.02.17-.08.34-.17.51-.25.42-1.26,1.25-2.34,2.11-3.38.62-.76,1.33-1.53,2.1-2.21-1-4.75-1.09-10.04-1.18-13.84-.17-.71-.26-1.4-.35-2.19-.04-.29-.06-.58-.09-.87-1.44-3.17-.31-6.17,2.15-7.98.01-.02.02-.04.03-.05.02-.13.04-.26.06-.38.13-.75.49-1.5.81-2.17.19-.4.44-.77.71-1.13.01-.08.03-.17.04-.25,0-.03.04-.22.07-.35.01-.11.03-.29.04-.33.02-.38.02-.76.02-1.14s.09-.71.24-1.01h0v-.02Z"/>
      <path class="cls-2" d="m50.79,62.16c-3.12-1.73-6.17-3.4-9.85-2.91-1.91.26-3.43,1.29-4.86,2.5-.68.58-1.33,1.2-2.01,1.78-1.53,1.3-2.91,1.25-4.2-.3-.7-.84-1.27-1.82-1.76-2.81-.47-.95-.32-1.96.22-2.88.23-.39.19-.64-.13-.98-.79-.81-1.51-1.68-2.26-2.54-.14-.16-.3-.34-.34-.53-.05-.22.02-.47.04-.7.22.06.52.05.65.19.54.59,1.01,1.25,1.54,1.85.54.62,1.12,1.21,1.64,1.77,3.29-2.11,6.41-1.65,9.35.43,1,.7,1.69.79,2.71.14,3.72-2.38,7.79-2.68,11.99-1.87,1.98.38,3.86.15,5.6-.86,1.92-1.11,3.91-1.84,6.15-1.83,1.32,0,2.16-.86,2.76-2.01.18-.35.29-.99.83-.68.49.28.15.81-.07,1.13-.53.77-1.14,1.48-1.73,2.23.25.3.64.71.95,1.17.94,1.34.87,2.76.05,4.1-.84,1.37-2.19,1.79-3.66,1.48-.99-.2-1.94-.64-2.88-1.04-1.91-.81-3.73-2.03-5.71-2.41-3.44-.68-6.98-1.35-10.48-.16-1.24.42-2.41,1.04-3.55,1.72,1,.13,2.03.14,2.99.42,1.34.38,2.65.88,3.92,1.45,2.39,1.07,4.71,2.29,7.11,3.34,2.61,1.15,5.39,1.45,8.2,1.35,1.54-.06,2.88-.74,4.05-1.75,1.63-1.41,2.99-3.07,4.14-4.91.14-.22.55-.49.73-.43.42.16.24.55.06.84-1.57,2.52-3.38,4.82-5.96,6.32-1.33.78-2.81.95-4.32.9-3.35-.12-6.56-.85-9.51-2.5-.83-.46-1.55-.35-2.28.03-4.27,2.24-8.89,3.3-13.52,4.42-3.88.94-7.3.04-10.59-2.01-2.19-1.37-4.28-2.87-6.19-4.65-1.24-1.16-2.6-2.2-3.84-3.37-.78-.73-1.25-1.64-1.21-2.82.16-4.75.25-9.5.4-14.25.04-1.39.09-1.36-1.12-2.04-3.8-2.13-6.54-5.16-6.93-9.76-.48-5.63,1.27-10.38,5.77-13.91,4.93-3.87,10.49-6.3,16.49-7.75,5.43-1.31,10.93-1.44,16.45-1.02,3.73.28,7.51.5,11.15,1.28,6.32,1.34,12.05,3.99,16,9.61,2.34,3.33,3.56,6.95,2.81,11.11-.4,2.19-1.48,3.98-3.13,5.36-.98.82-1.2,1.75-1.05,2.96.76,6.13,1.44,12.28,2.25,18.4.14,1.04.05,1.84-.75,2.67-.08-.49-.16-.91-.21-1.34-.27-2.78-.5-5.56-.8-8.34-.33-3.04-.72-6.07-1.09-9.1-.1-.83-.17-1.66-.32-2.48-.26-1.39.18-2.45,1.24-3.34,1.81-1.51,2.88-3.48,3.11-5.89.23-2.52-.23-4.91-1.39-7.13-2.51-4.82-6.42-7.95-11.34-9.88-4.94-1.94-10.06-2.76-15.32-2.52-3.5.16-6.9,1.01-10.27,1.97-4.69,1.34-9.16,3.2-13.21,6.02-2.45,1.7-4.63,3.7-6.19,6.32-2.48,4.19-2.09,8.58,1.14,12.2.83.93,1.79,1.74,2.76,2.52.51.41.78.84.79,1.49.02,1.55.07,3.1.07,4.66,0,2.65-.03,5.3,0,7.95,0,.78-.18,1.39-.77,1.89-1.86,1.57-2.54,3.6-2.09,6.01.07.38.2.83.45,1.09,3.04,3.07,6.48,5.5,10.47,7.1,1.72.69,3.47.62,5.22.27,4.46-.87,8.87-1.92,13.04-3.87.44-.21.88-.44,1.31-.67.08-.04.14-.1.27-.19h0Zm-11.99-3.98c-1.41-1.47-4.27-2.3-6.54-1.85-.98.19-1.79.64-2.45,1.4-1.03,1.2-1.14,2.22-.31,3.56.35.56.78,1.08,1.23,1.55.71.76,1.46.82,2.32.25.29-.19.53-.46.8-.69,1.64-1.4,3.28-2.8,4.95-4.22h0Zm18.83-1.98c.28.15.51.29.77.41,1.48.69,2.95,1.42,4.46,2.03.72.29,1.52.47,2.29.51,1.55.08,2.62-1.07,2.62-2.68,0-1.37-1.42-2.93-2.69-2.9-1.38.04-2.73.24-3.99.89-1.12.58-2.24,1.13-3.46,1.75h0Z"/>
      <path class="cls-5" d="m45.4,40.42c.35.07.95.09,1.48.3,1.69.67,3.35.54,5.07.11.96-.24,1.97-.34,2.96-.34,1.22,0,1.95.8,2.1,2.05.17,1.41-.23,2.66-1.09,3.73-1.67,2.09-3.75,3.47-6.42,3.78-1.24.15-2.41-.11-3.51-.67-1.37-.69-2.57-1.64-3.55-2.84-.99-1.21-1.5-2.59-.84-4.1.67-1.53,2.05-1.97,3.81-2.03h0Z"/>
      <path class="cls-5" d="m58.69,40.24c-3.02-.5-4.68-2.45-5.29-5.33-.67-3.18,0-6.07,2.44-8.29,2.43-2.23,5.85-1.82,7.78.88,1.79,2.5,1.9,5.25.99,8.12-.06.18-.13.36-.19.53,0,.02,0,.05.01.13.18-.03.37-.11.52-.07.24.07.45.22.68.34-.17.19-.33.52-.52.55-2.62.44-4.44,2.07-5.98,4.14-.14.19-.48.23-.73.34,0-.28-.04-.56,0-.83.03-.17.17-.32.28-.51h0Zm3.22-3.08c-1.52-.17-2.7-.88-3.45-2.25-.71-1.29-.59-1.76.69-2.43.47-.25.94-.47,1.55-.76-.67-.27-1.19-.45-1.69-.68-.73-.33-.87-.83-.39-1.48.31-.42.66-.81,1.02-1.17.56-.56,1.15-1.08,1.78-1.66-.17-.1-.26-.17-.36-.22-1.73-.84-3.87-.28-5.26,1.44-1.61,1.99-2.06,4.3-1.54,6.79.57,2.75,2.23,4.25,4.92,4.57.16.02.37-.02.49-.12.74-.64,1.46-1.31,2.24-2.03h0Z"/>
      <path class="cls-5" d="m33.76,37.93c-.75-1.58-1.04-3.07-.93-4.66.23-3.4,2.54-6.14,5.64-6.64,1.39-.23,2.68.13,3.87.88,4.43,2.81,4.47,10.2.03,12.98-.94.59-2.09.81-3.24,1.24.02.15.14.5.11.83-.03.25-.25.49-.39.73-.17-.19-.44-.36-.49-.58-.5-2.33-2-3.65-4.4-3.81-.49-.03-.98.03-1.46-.05-.22-.03-.4-.29-.6-.45.18-.16.34-.41.55-.45.38-.07.78-.02,1.32-.02Zm9.91-.16c-.33.02-.58.04-.84.05-1.92.06-3.36-.76-3.88-2.2-.35-.98-.19-1.4.72-1.83.57-.27,1.16-.52,1.93-.86-.75-.38-1.31-.66-1.87-.93-.73-.35-.88-.72-.53-1.48.42-.92,1.16-1.47,2.06-1.8.22-.08.44-.15.74-.25-1.89-1.42-4.46-1.2-6.2.43-2.29,2.14-2.8,6.1-1.1,8.8.16.25.47.46.75.55,1.13.38,2.12.97,2.88,1.92.11.14.27.27.43.31,1.69.38,4.11-.94,4.9-2.7h0Z"/>
      <path class="cls-5" d="m56.82,18.59c1.91.42,3.8.87,4.96,2.69.17.27.13.69.19,1.04-.33.02-.68.13-.97.03-1.47-.5-2.92-1.07-4.51-1.17-.46-.03-.95-.27-1.33-.55-.69-.52-.57-1.35.23-1.69.44-.19.93-.24,1.43-.35Z"/>
      <path class="cls-5" d="m41.97,20.58c-.46.43-.77.88-1.18,1.08-.69.32-1.48.43-2.18.72-.88.36-1.7.84-2.57,1.22-.26.12-.59.09-.89.12.02-.28-.03-.6.07-.84.82-1.9,2.34-2.93,4.23-3.4.51-.12,1.12-.03,1.62.14.31.1.52.53.9.96Z"/>
      <path class="cls-6" d="m38.8,58.17c-1.67,1.42-3.31,2.82-4.95,4.22-.27.23-.51.49-.8.69-.86.58-1.61.51-2.32-.25-.45-.48-.88-1-1.23-1.55-.83-1.33-.72-2.36.31-3.56.66-.76,1.47-1.21,2.45-1.4,2.27-.45,5.12.38,6.54,1.85h0Z"/>
      <path class="cls-6" d="m57.63,56.19c1.22-.61,2.34-1.17,3.46-1.75,1.26-.65,2.61-.86,3.99-.89,1.27-.03,2.7,1.53,2.69,2.9,0,1.61-1.08,2.76-2.62,2.68-.77-.04-1.57-.21-2.29-.51-1.51-.61-2.97-1.34-4.46-2.03-.25-.12-.49-.26-.77-.41h0Z"/>
      <path class="cls-6" d="m61.91,37.16c-.78.71-1.5,1.38-2.24,2.03-.11.1-.33.14-.49.12-2.69-.31-4.35-1.82-4.92-4.57-.52-2.49-.07-4.8,1.54-6.79,1.39-1.72,3.52-2.28,5.26-1.44.1.05.19.12.36.22-.62.58-1.22,1.1-1.78,1.66-.37.36-.72.75-1.02,1.17-.47.65-.33,1.14.39,1.48.5.23,1.02.41,1.69.68-.6.3-1.08.52-1.55.76-1.28.67-1.41,1.14-.69,2.43.76,1.37,1.93,2.09,3.45,2.25h0Z"/>
      <path class="cls-6" d="m43.67,37.77c-.79,1.77-3.21,3.08-4.9,2.7-.16-.04-.32-.17-.43-.31-.76-.96-1.75-1.54-2.88-1.92-.28-.1-.6-.3-.75-.55-1.7-2.7-1.19-6.66,1.1-8.8,1.75-1.63,4.32-1.85,6.2-.43-.29.1-.52.17-.74.25-.91.33-1.65.88-2.06,1.8-.34.76-.2,1.13.53,1.48.56.27,1.12.56,1.87.93-.77.34-1.36.59-1.93.86-.91.43-1.07.85-.72,1.83.51,1.43,1.96,2.26,3.88,2.2.25,0,.51-.03.84-.05h0Z"/>
      <path class="cls-7" d="m45.57,44.62c2.53-.11,4.79.59,6.71,2.34.71.65.7.78-.12,1.2-3.28,1.66-6.96.33-9.01-2.49-.52-.72-.13-.95.44-1.02.65-.08,1.32-.02,1.99-.02h0Z"/>
      <path class="cls-3" d="m38.96,4.75c-4.5-.04-20.57,2.63-25.53,7.19-11.56,6.42-12.77,23.18-.64,27.77l-.36,15.77c6.85,15.1,26.25,17.28,38.76,8.76,9.72,6.42,20.2,2.97,24.67-7.23l-2.68-20.73c.16-4,6.61-3.78,4.5-13.76C71.21,5.16,52.8,4.57,38.96,4.75Z"/>
      <polyline class="cls-1" points="72.94 58.15 73.22 57.45 73.86 56.65 74.26 56.06 74.08 55.06"/>
    </g>
  </g>
</svg>