<svg width="1116" height="804" viewBox="0 0 1116 804" fill="none" xmlns="http://www.w3.org/2000/svg">
<path d="M223.064 38.3557C175.38 57.0249 114.623 81.6818 64.8124 143.639C36.9818 178.242 -1.58528 226.207 7.66686 279.152C14.5317 318.406 44.4528 341.903 72.8524 419.126C77.1074 430.686 85.7905 455.595 75.252 466.738C70.1435 472.146 64.2063 470.394 54.8923 472.84C28.7934 479.685 5.74963 511.577 4.57456 539.991C3.69635 561.345 15.6326 565.316 15.3605 592.494C15.1626 612.058 8.79245 624.739 5.47751 634.194C-7.70802 671.847 3.90663 725.913 29.6592 758.512C83.1311 826.218 198.684 802.834 219.971 786.169C221.233 785.186 225.476 781.619 232.192 779.286C251.711 772.505 271.229 783.358 275.323 785.388C330.304 812.73 790.437 739.326 790.313 739.351C790.313 739.351 797.723 733.956 797.834 733.88C839.098 703.841 854.596 678.97 854.596 678.97C861.609 667.7 881.907 635.127 874.77 602.843C873.471 596.969 869.155 581.59 867.077 559.164C866.112 548.764 865.654 543.495 867.114 540.003C875.104 520.842 920.697 527.889 948.577 525.355C1019.45 518.901 1084.25 440.607 1105.55 366.535C1109.83 351.66 1138.65 251.394 1076.98 179.49C1019.19 112.125 908.637 100.792 875.352 135.874C870.515 140.967 868.771 145.492 862.327 148.102C832.579 160.14 791.13 95.4473 747.293 58.525C688.985 9.42541 623.256 6.72777 493.404 1.39552C425.732 -1.39036 331.937 -4.27709 223.064 38.3557Z" fill="#501313"/>
<path d="M269.486 111.818C229.622 126.818 178.827 146.63 137.185 196.412C113.918 224.214 81.6747 262.754 89.4097 305.293C95.1489 336.834 120.163 355.713 143.906 417.761C147.463 427.049 154.723 447.063 145.912 456.016C141.641 460.361 136.678 458.953 128.891 460.918C107.072 466.418 87.8068 492.043 86.8244 514.873C86.0902 532.031 96.0692 535.221 95.8417 557.058C95.6762 572.778 90.3507 582.967 87.5793 590.564C76.5559 620.818 86.266 664.259 107.796 690.451C152.499 744.852 249.104 726.063 266.901 712.673C267.955 711.883 271.502 709.017 277.117 707.143C293.435 701.694 309.753 710.415 313.176 712.045C359.141 734.014 743.823 675.036 743.719 675.056C743.719 675.056 749.913 670.721 750.006 670.66C784.504 646.524 797.461 626.54 797.461 626.54C803.324 617.485 820.293 591.313 814.327 565.374C813.241 560.654 809.632 548.297 807.895 530.279C807.088 521.923 806.705 517.689 807.926 514.883C814.606 499.488 852.722 505.15 876.031 503.114C935.284 497.928 989.46 435.02 1007.27 375.504C1010.84 363.553 1034.94 282.99 983.38 225.217C935.067 171.09 842.64 161.985 814.813 190.172C810.769 194.264 809.311 197.901 803.924 199.997C779.054 209.67 744.402 157.69 707.753 128.024C659.007 88.5731 604.055 86.4056 495.496 82.1213C438.921 79.8829 360.506 77.5634 269.486 111.818Z" fill="#FFFCF6"/>
<path d="M738.57 463.16C753.63 466.46 768.17 467.78 782.93 466.28C811.11 463.4 832.75 450.03 848.42 427.37C851.17 423.4 853.38 422.05 858.6 423.24C866.84 425.13 875.47 426.3 883.92 426.26C897.58 426.19 905.11 418.11 904.56 404.87C904.37 400.24 905.87 397.41 909.17 394.23C929.31 374.76 941.62 350.78 949.75 324.68C952.46 315.97 954.37 306.86 955.24 297.81C958.85 260.35 933.3 238.93 907.74 230.9C878.24 221.64 852.21 233.29 837.75 261.61C834.2 268.57 831.67 276.01 828.67 283.23C824.39 281.09 820.1 278.28 815.38 276.69C798.71 271.09 784.24 280.27 782.09 297.44C780.35 311.33 784.51 324.15 789.91 336.67C792.55 342.8 795.57 348.8 798.72 354.7C800.06 357.21 799.8 358.71 797.76 360.75C785.78 372.72 786.4 385.26 799.6 395.89C804.56 399.88 810.03 403.25 815.65 407.17C808.15 419.53 797.62 427.8 782.99 430.58C766.9 433.64 751.35 431.58 736.41 425.12C735.27 424.63 733.68 423.56 733.57 422.61C732.21 410.91 729.69 399.1 730.45 387.51C730.88 380.92 736.43 374.45 740.35 368.34C742.75 364.6 746.12 361.26 749.62 358.39C765.13 345.68 770.96 328.59 772.56 309.88C773.89 294.25 773.51 278.58 767.92 263.54C753.38 224.4 729.59 192.08 693.51 169.07C664.78 150.74 633.42 138.53 599.8 131.59C542.62 119.78 484.8 116.17 426.48 117.49C402.45 118.04 378.65 120.29 355.16 124.74C325.14 130.43 295.9 138.95 267.81 150.98C246.14 160.26 225.53 171.27 206.7 185.28C178.49 206.27 157.95 232.78 147.51 265.99C140.84 287.22 141.18 308.78 146.25 330.53C153.29 360.78 171.51 381.88 199.62 395.4C205.05 398.01 207.73 401.17 207.49 407.62C206.93 422.42 207.29 437.25 207.44 452.07C207.47 455.16 206.44 456.78 203.38 458.02C188.21 464.18 173.36 471.01 161.02 481.91C144.81 496.22 137.85 513.81 142.71 534.9C144.07 540.8 147.04 546.42 149.84 551.89C151.17 554.49 150.69 555.47 148.59 557.14C144.9 560.07 141.14 563.11 138.21 566.71C129.53 577.36 132.18 590.65 144.32 597.32C147.89 599.28 149.07 601.38 149.35 605.38C149.72 610.58 151.82 615.64 152.86 620.82C153.17 622.39 153.08 624.79 152.09 625.74C142.36 635.13 139.76 648.35 145.83 660.59C153.81 676.69 166.78 686.75 185.03 689.48C213.05 693.67 237.92 686.58 259.02 668.11C262.99 664.63 265.44 659.56 268.96 655.53C270.1 654.22 272.73 652.83 274.14 653.24C320.69 666.72 368.22 669.55 416.34 665.82C456.04 662.74 495.81 660.14 535.38 655.89C568.63 652.32 601.75 647.22 634.74 641.76C658.45 637.84 682.03 632.89 705.36 627.18C737.35 619.35 754.51 592.31 749.64 560.43C747.1 543.81 745.63 527.04 743.64 510.35C741.97 496.3 740.24 482.26 738.59 468.21C738.42 466.77 738.57 465.3 738.57 463.14V463.16ZM401.33 651.62C384.16 651.62 369.61 651.24 355.1 651.73C341.29 652.2 330.67 646.68 321.77 637.08C311.71 626.24 307.49 612.77 305.68 598.88C303 578.26 300.83 557.51 299.95 536.76C298.08 492.54 297.09 448.28 296 404.03C295.84 397.43 293.26 392.9 288.25 388.65C279.51 381.23 270.51 373.87 263.05 365.3C241.23 340.22 235.69 311.66 246.42 280.38C254.91 255.66 271.42 236.43 291.33 219.74C315.22 199.72 342.49 184.94 371.77 174.16C395.61 165.38 420.11 158.19 444.57 151.11C467.05 144.6 490.16 140.86 513.64 140.01C546.26 138.83 578.4 142.2 610.07 150.07C636.04 156.52 661.08 165.32 683.48 179.76C722.53 204.93 750.41 238.03 756.06 284.9C759.7 315.15 753.27 342.55 726.88 362.58C718.24 369.14 715.07 378.23 716.27 388.74C717.18 396.67 718.36 404.58 719.19 412.52C721.59 435.53 723.96 458.54 726.18 481.56C728.93 510.05 731.56 538.56 734.14 567.07C735.75 584.87 730.1 599.55 713.05 607.92C705.37 611.69 696.88 614.52 688.43 616.1C655.55 622.27 622.65 628.54 589.53 633.3C555.04 638.26 520.35 642 485.65 645.38C456.74 648.19 427.71 649.71 401.31 651.61L401.33 651.62ZM158.99 550.21C149.63 537.89 147.34 524.4 151.5 509.98C155 497.82 164.11 489.56 174.11 482.42C190.13 470.99 208.51 464.34 227.27 458.48C234.37 456.26 242.32 455.41 247.41 448.85C248.09 447.98 250.28 447.9 251.74 447.98C258.07 448.33 263.91 453.89 264.36 459.77C264.84 465.97 259.8 472.05 253.31 473.52C244.34 475.55 235.39 477.65 226.51 479.99C211.18 484.03 197.05 490.49 184.84 500.57C173.56 509.88 169.98 523.3 175.6 535.53C176.61 537.74 178 539.78 179.24 541.95C172.4 544.73 165.99 547.34 158.98 550.2L158.99 550.21ZM844.22 419.48C836.92 431.22 827.97 440.59 816.69 447.39C792.38 462.05 766.14 461.58 739.43 455.36C738.54 455.15 737.19 454.38 737.09 453.72C736.12 447.3 735.37 440.85 734.64 435.08C747.26 436.63 759 438.82 770.82 439.36C791.08 440.27 807.1 431.76 819.22 416.09C820.62 414.28 822.04 412.47 823.4 410.72C830.48 413.7 837.03 416.46 844.21 419.48H844.22ZM207.93 495.08C207.93 508.51 208.02 520.26 207.79 532C207.77 533.23 206.03 535.12 204.72 535.5C200.32 536.76 195.79 537.8 191.25 538.23C189.34 538.41 186.56 537.4 185.38 535.98C179.64 529.08 179.54 520.45 184.74 512.89C190.17 505.01 197.7 499.74 207.93 495.08Z" fill="#501313"/>
<path d="M401.32 651.62C427.71 649.72 456.75 648.2 485.66 645.39C520.36 642.01 555.05 638.27 589.54 633.31C622.66 628.55 655.55 622.28 688.44 616.11C696.89 614.52 705.38 611.7 713.06 607.93C730.11 599.56 735.76 584.88 734.15 567.08C731.57 538.57 728.94 510.07 726.19 481.57C723.97 458.55 721.6 435.54 719.2 412.53C718.37 404.59 717.18 396.68 716.28 388.75C715.08 378.23 718.25 369.15 726.89 362.59C753.28 342.56 759.71 315.16 756.07 284.91C750.43 238.04 722.55 204.94 683.49 179.77C661.08 165.33 636.04 156.53 610.08 150.08C578.41 142.21 546.27 138.83 513.65 140.02C490.17 140.87 467.05 144.61 444.58 151.12C420.12 158.2 395.63 165.39 371.78 174.17C342.5 184.95 315.23 199.73 291.34 219.75C271.43 236.44 254.92 255.67 246.43 280.39C235.69 311.67 241.23 340.23 263.06 365.31C270.52 373.88 279.52 381.25 288.26 388.66C293.26 392.9 295.84 397.43 296.01 404.04C297.1 448.29 298.09 492.55 299.96 536.77C300.84 557.52 303 578.27 305.69 598.89C307.5 612.78 311.72 626.25 321.78 637.09C330.68 646.68 341.31 652.2 355.11 651.74C369.63 651.25 384.18 651.63 401.34 651.63L401.32 651.62ZM524.94 530.34C520.82 529.31 513.38 528.43 506.82 525.62C481.55 514.8 464.66 496.64 458.98 469.87C455.24 452.26 465.19 438.45 483.52 437.47C493.65 436.93 504.14 439.33 514.19 441.55C532.28 445.54 549.99 446.11 567.57 439.49C570.73 438.3 574.13 437.6 577.48 437.02C598.26 433.42 605.87 446.83 602.71 462.71C600.73 472.64 597.3 482.83 592.09 491.52C577.98 515.05 556.92 528.87 524.96 530.34H524.94ZM663.41 392.98C664.51 393.19 665.57 393.18 666.39 393.6C668.41 394.64 670.33 395.88 672.29 397.03C670.36 398.43 668.45 399.87 666.48 401.22C666.11 401.48 665.48 401.39 664.98 401.45C653.33 402.95 643.3 407.92 635.78 416.5C630.77 422.21 627.35 429.24 622.98 435.52C621.88 437.09 619.85 438.04 618.24 439.28C617.4 437.4 616.45 435.56 615.77 433.63C615.52 432.92 615.73 431.93 616.04 431.19C617.37 428.01 615.74 427.53 612.87 426.72C606.89 425.03 600.52 423.51 595.41 420.27C578.53 409.54 569.67 393.17 566.56 374.45C562.81 351.8 564.98 329.65 578.6 309.77C590.48 292.42 609.07 284.97 628.09 290.8C644.09 295.71 654.49 307.2 661.26 321.46C669.96 339.76 672.15 359.06 667.29 378.87C666.15 383.51 664.75 388.09 663.39 393L663.41 392.98ZM392.99 407.91C390.81 402.1 388.51 396.82 386.84 391.36C378.66 364.58 380.99 339.06 397.78 315.79C408.31 301.19 429.36 291.73 449.83 300.52C471.61 309.87 482.24 327.63 487.47 349.08C491.34 364.94 490.59 380.92 485.78 396.44C480.16 414.55 469.67 429.25 450.41 435.61C445.11 437.36 442.56 438.62 443.95 444.48C444.35 446.17 441.85 448.51 440.68 450.55C439.45 448.92 437.47 447.43 437.1 445.62C433.28 427.3 411.62 414.32 391.48 416.22C388.94 416.46 386.25 416.88 383.84 416.32C382.02 415.89 380.55 414.04 378.92 412.82C380.43 411.44 381.73 409.4 383.52 408.84C386.19 408 389.2 408.21 393 407.9L392.99 407.91ZM638.73 263.33C636.61 262.77 634.46 262.27 632.36 261.63C622.98 258.75 613.66 255.68 604.23 252.98C599.86 251.73 595.12 251.61 590.82 250.2C584.15 248.01 581.07 243.49 581.97 238.52C582.89 233.41 587.3 230.03 594.03 229.75C612.29 228.99 627.19 235.93 639.02 249.17C641.14 251.55 642.29 254.93 643.27 258.04C644.36 261.49 642.86 263.54 638.73 263.35V263.33ZM439.51 234.33C443.09 235.29 446.84 235.87 450.2 237.31C456.03 239.8 457.71 244.96 453.45 249.37C450.27 252.66 445.59 254.89 441.19 256.69C434.01 259.63 426.37 261.52 419.2 264.47C413.74 266.72 408.8 270.14 403.42 272.6C401.66 273.4 399.24 272.82 397.12 272.88C397.11 270.95 396.7 268.93 397.15 267.11C401.07 251.07 422.31 234.95 439.51 234.34V234.33ZM558.28 547.3C557.74 549 557.69 551.18 556.55 552.31C553.51 555.33 550.41 558.73 546.6 560.5C532.12 567.21 510.66 561.6 500.97 549.01C499.99 547.73 499.53 546.08 498.82 544.6C508.45 549.36 517.86 552.8 528.23 553.54C538.67 554.29 548.53 552.84 558.27 547.3H558.28Z" fill="white"/>
<path d="M158.99 550.22C166 547.37 172.42 544.75 179.25 541.97C178.01 539.8 176.62 537.76 175.61 535.55C169.99 523.31 173.57 509.9 184.85 500.59C197.06 490.51 211.19 484.06 226.52 480.01C235.4 477.67 244.36 475.57 253.32 473.54C259.81 472.07 264.84 465.99 264.37 459.79C263.92 453.91 258.07 448.35 251.75 448C250.29 447.92 248.09 448 247.42 448.87C242.33 455.43 234.37 456.28 227.28 458.5C208.52 464.36 190.14 471.01 174.12 482.44C164.12 489.57 155.01 497.83 151.51 510C147.36 524.42 149.64 537.91 159 550.23L158.99 550.22Z" fill="white"/>
<path d="M844.22 419.49C837.03 416.47 830.49 413.71 823.41 410.73C822.05 412.48 820.63 414.28 819.23 416.1C807.11 431.77 791.09 440.28 770.83 439.37C759.01 438.84 747.26 436.64 734.65 435.09C735.38 440.85 736.13 447.31 737.1 453.73C737.2 454.39 738.54 455.17 739.44 455.37C766.16 461.6 792.39 462.06 816.7 447.4C827.98 440.6 836.93 431.23 844.23 419.49H844.22Z" fill="white"/>
<path d="M524.94 530.34C556.9 528.87 577.96 515.05 592.07 491.52C597.28 482.83 600.71 472.64 602.69 462.71C605.86 446.83 598.25 433.43 577.46 437.02C574.11 437.6 570.71 438.3 567.55 439.49C549.97 446.12 532.27 445.55 514.17 441.55C504.11 439.33 493.63 436.93 483.5 437.47C465.17 438.45 455.22 452.26 458.96 469.87C464.65 496.64 481.53 514.8 506.8 525.62C513.37 528.43 520.81 529.31 524.92 530.34H524.94Z" fill="#501313"/>
<path d="M663.42 392.98C664.78 388.07 666.18 383.49 667.32 378.85C672.17 359.04 669.98 339.74 661.29 321.44C654.51 307.18 644.11 295.69 628.12 290.78C609.1 284.94 590.51 292.4 578.63 309.75C565.01 329.63 562.84 351.78 566.59 374.43C569.69 393.15 578.56 409.52 595.44 420.25C600.54 423.49 606.92 425.02 612.9 426.7C615.77 427.51 617.39 427.99 616.07 431.17C615.76 431.91 615.55 432.9 615.8 433.61C616.48 435.54 617.43 437.38 618.27 439.26C619.88 438.02 621.91 437.07 623.01 435.5C627.38 429.22 630.8 422.2 635.81 416.48C643.33 407.91 653.36 402.93 665.01 401.43C665.52 401.36 666.14 401.45 666.51 401.2C668.48 399.85 670.39 398.42 672.32 397.01C670.36 395.85 668.44 394.62 666.42 393.58C665.6 393.16 664.55 393.17 663.44 392.96L663.42 392.98ZM598.88 359.04C607.27 353.25 614.07 348.34 621.11 343.79C624.47 341.62 625.53 339.51 624.08 335.59C618.93 321.68 612.15 309.45 594.92 306.33C599.59 300.66 605.5 298.46 611.95 297.58C622.14 296.18 630.73 299.9 638.3 306.2C662.84 326.62 666.95 368.4 651.9 394.89C651.05 396.38 649.45 397.77 647.86 398.49C638.83 402.58 631.66 408.84 625.32 416.15C624.48 417.12 623.36 418.36 622.23 418.52C614.69 419.58 608 417.42 601.84 413.49C606.64 410.91 611.51 409.16 615.25 406.09C622.43 400.22 626.03 392.08 627.71 383.2C630.44 368.71 630.38 368.75 615.91 364.56C610.61 363.02 605.41 361.17 598.87 359.04H598.88Z" fill="#501313"/>
<path d="M393 407.92C389.21 408.23 386.19 408.03 383.52 408.86C381.73 409.42 380.44 411.46 378.92 412.84C380.55 414.06 382.02 415.91 383.84 416.34C386.24 416.9 388.93 416.48 391.48 416.24C411.62 414.33 433.28 427.31 437.1 445.64C437.48 447.44 439.45 448.93 440.68 450.57C441.85 448.53 444.35 446.19 443.95 444.5C442.57 438.64 445.11 437.38 450.41 435.63C469.67 429.26 480.16 414.57 485.78 396.46C490.59 380.94 491.34 364.96 487.47 349.1C482.24 327.65 471.61 309.9 449.83 300.54C429.36 291.75 408.31 301.21 397.78 315.81C380.99 339.08 378.66 364.6 386.84 391.38C388.51 396.84 390.81 402.12 392.99 407.93L393 407.92ZM416.94 366.56C416.92 366.04 416.91 365.52 416.9 365.01C418.3 364.14 419.67 363.24 421.09 362.41C427.2 358.84 433.25 355.14 439.49 351.8C442.51 350.18 443.07 347.98 442.33 345.16C438.58 330.88 432.05 318.72 416.6 313.38C416.25 313.26 416.08 312.63 415.65 311.98C419.65 307.99 424.8 306.87 430.05 306.33C445.72 304.7 457.57 311.91 465.91 323.64C484.02 349.11 485.84 376.6 472.8 404.63C467.52 415.99 458.62 424.57 445.71 428.19C441.75 429.3 438.28 429.65 435.43 425.51C433.69 422.98 430.77 421.17 428.21 419.23C426.13 417.65 425.49 416.52 428.08 414.74C439.03 407.23 443.61 396.27 445.85 383.88C446.82 378.53 445.19 376.09 439.85 374.57C432.08 372.35 424.58 369.28 416.96 366.57L416.94 366.56Z" fill="#501313"/>
<path d="M638.741 263.34C642.871 263.53 644.371 261.48 643.281 258.03C642.301 254.93 641.151 251.54 639.031 249.16C627.201 235.92 612.301 228.98 594.041 229.74C587.311 230.02 582.901 233.4 581.981 238.51C581.091 243.48 584.161 248.01 590.831 250.19C595.131 251.6 599.871 251.72 604.241 252.97C613.671 255.67 622.991 258.74 632.371 261.62C634.471 262.26 636.611 262.76 638.741 263.32V263.34Z" fill="#501313"/>
<path d="M439.52 234.34C422.31 234.95 401.07 251.07 397.16 267.11C396.71 268.93 397.12 270.95 397.13 272.88C399.25 272.83 401.67 273.41 403.43 272.6C408.81 270.14 413.75 266.72 419.21 264.47C426.38 261.52 434.02 259.63 441.2 256.69C445.6 254.89 450.28 252.66 453.46 249.37C457.72 244.96 456.04 239.81 450.21 237.31C446.85 235.87 443.1 235.3 439.52 234.33V234.34Z" fill="#501313"/>
<path d="M558.29 547.31C548.55 552.85 538.69 554.3 528.25 553.55C517.87 552.81 508.47 549.37 498.84 544.61C499.54 546.09 500.01 547.74 500.99 549.02C510.68 561.61 532.14 567.22 546.62 560.51C550.42 558.75 553.53 555.34 556.57 552.32C557.71 551.19 557.75 549.01 558.3 547.31H558.29Z" fill="white"/>
<path d="M598.88 359.04C605.41 361.17 610.62 363.02 615.92 364.56C630.39 368.75 630.45 368.71 627.72 383.2C626.04 392.09 622.44 400.22 615.26 406.09C611.52 409.15 606.64 410.91 601.85 413.49C608 417.42 614.7 419.59 622.24 418.52C623.37 418.36 624.48 417.12 625.33 416.15C631.67 408.84 638.84 402.58 647.87 398.49C649.46 397.77 651.07 396.38 651.91 394.89C666.96 368.41 662.84 326.62 638.31 306.2C630.74 299.9 622.15 296.18 611.96 297.58C605.5 298.46 599.6 300.66 594.93 306.33C612.16 309.45 618.94 321.68 624.09 335.59C625.54 339.51 624.48 341.62 621.12 343.79C614.08 348.34 607.28 353.25 598.89 359.04H598.88Z" fill="white"/>
<path d="M416.94 366.56C424.56 369.27 432.07 372.34 439.83 374.56C445.17 376.09 446.8 378.52 445.83 383.87C443.59 396.26 439.02 407.21 428.06 414.73C425.47 416.51 426.11 417.64 428.19 419.22C430.74 421.15 433.66 422.97 435.41 425.5C438.26 429.63 441.73 429.29 445.69 428.18C458.6 424.55 467.49 415.98 472.78 404.62C485.82 376.59 484 349.1 465.89 323.63C457.55 311.9 445.7 304.69 430.03 306.32C424.78 306.87 419.64 307.98 415.63 311.97C416.06 312.63 416.23 313.25 416.58 313.37C432.03 318.7 438.56 330.87 442.31 345.15C443.05 347.97 442.49 350.17 439.47 351.79C433.23 355.14 427.19 358.83 421.07 362.4C419.65 363.23 418.27 364.13 416.88 365C416.89 365.52 416.91 366.04 416.92 366.55L416.94 366.56Z" fill="white"/>
<path d="M502.81 491.82C519.44 491.09 534.34 495.69 546.93 507.22C551.61 511.5 551.55 512.34 546.12 515.09C524.53 526.04 500.37 517.29 486.86 498.69C483.42 493.95 486.01 492.43 489.73 491.95C494.03 491.39 498.44 491.82 502.8 491.82H502.81Z" fill="#B67138"/>
</svg>
