<?xml version="1.0" encoding="UTF-8"?>
<svg id="Capa_2" data-name="Capa 2" xmlns="http://www.w3.org/2000/svg" xmlns:xlink="http://www.w3.org/1999/xlink" viewBox="0 0 145.08 82.08">
  <defs>
    <style>
      .cls-1 {
        fill: none;
      }

      .cls-2 {
        clip-path: url(#clippath);
      }

      .cls-3 {
        fill: #fff;
      }

      .cls-4 {
        fill: #fff5e9;
      }

      .cls-5 {
        fill: #b67138;
      }

      .cls-6, .cls-7 {
        fill: #521312;
      }

      .cls-7 {
        stroke: #511313;
        stroke-miterlimit: 10;
        stroke-width: .52px;
      }
    </style>
    <clipPath id="clippath">
      <rect class="cls-1" x="0" y="0" width="145.08" height="82.08"/>
    </clipPath>
  </defs>
  <g id="Capa_1-2" data-name="Capa 1">
    <g class="cls-2">
      <g>
        <path class="cls-4" d="m138.99,63.79c-.06-.04-.13-.08-.19-.13-.45-.24-.44-.58-.1-.94,6.58-4.42,6.85-13.19,2.98-19.58-7.59-8.99-23.18-7.34-30.63.57-4.61-8.39-12.16-5.98-17.61-6.85-.7-6.53-2.38-9.6,1.28-15.39,2.4-7.08-3.27-14.55-9.36-17.99-16.69-9.51-61.69.88-42.74,25.45,2.13.91,1.09,3.25,1.28,5.11-.43,1.25.82,4.36-.95,4.23-2.44-.15-6.65,3.14-7.92,2.29-5.95-7.37-18.22-7.32-26.09-3.27C-.62,43.54.3,57.04.12,67.14c-1.41,12.06,10.05,20.6,18.7,10.42,3.18-6.55,1.3-2.62,4.58,1.72,5.58,5.04,15.19,2.66,17.52-4.42,1.91,6.7,9.06,8.29,15,6.3,4.35,1.6,9.64,1.03,12.45-3.16,1.45-5.1,3.46,2.71,7.29,3.41,2.9,1.26,5.75.29,8.65-.2,4.59,1.85,9.27.32,12.3-3.28,1.81-4.85,3.34,3.81,8.07,3.82,2.8.73,5.36-.31,8.01-.6,4.32,1.05,10.07,1.81,13.15-2.65,1.26-1.22,5.51,3.35,8.02,3.14,5.3,1.17,10.61-1.74,11.22-7.42-.04-4.28-2.91-7.8-6.09-10.43h0Z"/>
        <path class="cls-6" d="m113.87,63.11c-.41-2.72-.96-5.33-1.65-7.82-.69-2.49-1.43-4.72-2.2-6.7-1.31-3.22-2.86-5.47-4.65-6.76-1.79-1.29-3.75-1.93-5.87-1.93-1.42,0-2.75.27-4.01.8-1.26.53-2.46,1.44-3.61,2.73-1.15,1.29-2.28,3.1-3.37,5.43-.43.93-.84,1.9-1.24,2.9.35,2.69.53,5.75.53,9.13,0,3.79.19,5.6-.14,8.11-.36,2.76-1,5.43-1.65,7.17-.19.52-.38,1-.82,1.31.01.05.04.1.09.11,1.93.46,1.28.46,3.05.46,1.41,0,2.59-.27,3.53-.8.94-.53,1.68-1.33,2.23-2.38.55-1.06.93-2.37,1.14-3.92.28-1.34.18-1.45.39-3.1.03-.24.05-.47.08-.71.14.02.28.04.43.05,1.57.14,3.1.18,4.57.1.25-.01.49-.03.72-.05,0,.1,0,.21,0,.31,0,1.7.07,3.34.21,4.93.25,2.47.85,2.88,1.89,3.96,1.04,1.08,2.47,1.62,4.28,1.62,2.09,0,3.88-.45,5.05-1.8,1.17-1.34,1.63-2.29,1.63-5.16,0-2.61-.21-5.28-.61-8h0Zm-14.69-3.55c-1.52,0-2.72-.31-3.59-.93-.87-.62-1.3-1.44-1.3-2.46,0-.64.13-1.34.4-2.12.27-.78.61-1.49,1.04-2.15.43-.65.94-1.2,1.54-1.64.6-.44,1.27-.66,2.02-.66s1.36.21,1.97.64c.6.42,1.11.95,1.54,1.56.43.62.76,1.29,1.01,2.01.25.72.37,1.37.37,1.93,0,1.17-.43,2.09-1.3,2.78-.87.69-2.1,1.03-3.69,1.03h0Z"/>
        <path class="cls-6" d="m139.17,67.43c-2.05-1.85-5.52-3.59-10.41-5.22v-.21c2.48.04,4.67-.35,6.58-1.14,1.91-.8,3.44-2.01,4.57-3.63,1.13-1.62,1.7-3.6,1.7-5.94,0-3.25-1.1-5.87-3.29-7.87-2.2-2-5.59-3-10.2-3-2.87,0-5.54.49-8.02,1.46-2.48.97-4.53,2.61-6.16,4.9-.66.96-1.25,2.08-1.77,3.37.52,1.48,1.01,3.06,1.48,4.75.7,2.54,1.27,5.22,1.68,7.99.36,2.4.45,4.34.63,8.22,0,0,.06,1.46-.43,3.31-.13.49-.34,1.12-.85,1.73-.27.32-.56.55-.76.69,1.06.94,2.26,1.22,4.08,1.22,1.03,0,1.93.04,3.1-.26,1.7-.44,2.1-1.08,2.2-1.25.18-.31.23-.59.28-.95.17-1.06-.1-1.9-.12-2.22-.05-1.06-.45-2.58-.59-3.83-.14-1.25-.32-2.47-.53-3.66-.21-1.18-.44-2.18-.69-3h.21c1.95,3.75,4.1,7.2,5.76,9.36,1.66,2.16,3.32,3.67,4.97,4.53,1.65.87,3.39,1.3,5.23,1.3,1.49,0,2.66-.41,3.5-1.22.85-.81,1.27-1.93,1.27-3.34,0-1.87-1.37-4.24-3.42-6.1h0Zm-12-10.52c-1.95,0-3.45-.42-4.51-1.27-1.06-.85-1.59-1.94-1.59-3.29,0-1.06.29-2.03.88-2.92.59-.88,1.41-1.6,2.47-2.15,1.06-.55,2.34-.82,3.82-.82,2.02,0,3.51.47,4.46,1.4.96.94,1.43,2.11,1.43,3.53,0,1.13-.31,2.1-.93,2.92-.62.81-1.44,1.45-2.47,1.91-1.03.46-2.21.69-3.56.69h0Z"/>
        <path class="cls-6" d="m19.49,37.88c4.75,0,8.24,1.12,10.49,3.36s3.37,5.18,3.37,8.82c0,2.5-.58,4.67-1.74,6.5-1.16,1.84-2.73,3.26-4.72,4.27-1.99,1.01-4.23,1.51-6.73,1.51-.96,0-1.97-.09-3.03-.28-1.07-.18-2.17-.51-3.31-.99l.44-1.32c.29.85.54,1.88.75,3.11.2,1.23.37,2.5.5,3.8.13,1.3.19,2.51.19,3.61,0,2.46-.55,4.34-1.66,5.65-1.1,1.3-2.76,1.96-4.97,1.96-1.69,0-3.02-.43-3.98-1.29-.96-.86-1.63-2.28-2.01-4.24-.39-1.96-.58-4.58-.58-7.85,0-4.81.28-8.93.83-12.34.55-3.42,1.38-6.13,2.48-8.15,1.07-1.87,2.76-3.36,5.08-4.46,2.32-1.1,5.19-1.65,8.61-1.65h0Zm-1.44,16.91c1.91,0,3.5-.5,4.75-1.49,1.25-.99,1.88-2.37,1.88-4.13,0-1.14-.37-2.08-1.1-2.84-.74-.75-1.95-1.13-3.64-1.13-1.29,0-2.43.28-3.42.83-.99.55-1.76,1.28-2.29,2.18-.53.9-.8,1.9-.8,3s.39,1.97,1.16,2.62c.77.64,1.93.96,3.48.96h0Z"/>
        <path class="cls-6" d="m56.84,62.65c-.22-1.99-.54-3.95-.97-5.89-.42-1.94-.95-3.78-1.57-5.54-1.14-3.21-2.59-5.64-4.36-7.28-1.77-1.64-3.77-2.46-6.02-2.46-1.73,0-3.28.3-4.67.9-1.38.6-2.71,1.55-4,2.86-.34.34-.67.71-1.02,1.11.29,1.02.44,2.13.44,3.31,0,2.25-.21,4.48-1.01,6.34-.81,1.88-2.92,4.19-4.84,5.24-.66.36-1.84,1.15-2.48,1.34-.52.47-1.13,1.12-1.29,1.6-.63,1.79-.33.83-.65,2.45-.31,1.62-.47,3.1-.47,4.42,0,2.65.49,4.48,1.46,5.49.97,1.01,2.38,1.51,4.22,1.51,1.47,0,2.68-.25,3.62-.74.94-.5,1.69-1.25,2.26-2.26.57-1.01,1-2.23,1.3-3.65.25-1.02.46-2.16.63-3.4.22.02.44.05.67.07,1.64.13,3.22.17,4.75.1.27-.01.52-.03.77-.05.03.83.09,1.64.19,2.43.26,2.32.84,4.98,1.93,5.99,1.08,1.01,2.57,1.51,4.44,1.51,2.17,0,3.86-.65,5.08-1.96,1.22-1.31,1.91-4.5,1.91-7.58,0-1.92-.11-3.88-.33-5.86h-.01Zm-11.59-3.11c-.99.91-2.41,1.37-4.25,1.37-1.4,0-2.49-.35-3.28-1.04-.79-.7-1.19-1.61-1.19-2.73,0-.76.14-1.57.41-2.44.28-.86.68-1.67,1.22-2.44.53-.76,1.15-1.37,1.85-1.84.7-.46,1.47-.7,2.32-.7.7,0,1.33.16,1.88.47.55.31,1.02.75,1.41,1.32.39.56.67,1.2.86,1.91.18.71.28,1.45.28,2.21,0,1.69-.5,2.99-1.49,3.9Z"/>
        <path class="cls-6" d="m84.74,46.54c-.86.37-1.79.62-2.79.74-2.5.3-4.74-.37-6.43-1-.01.35-.02.71-.02,1.09,0,1.06.04,2.25.11,3.58.07,1.33.16,2.71.27,4.16.11,1.45.22,2.87.35,4.27.12,1.4.26,2.69.4,3.9h-.21c-1.49-4.52-2.86-8.32-4.12-11.4-.74-1.82-1.47-3.42-2.18-4.81-1.27.51-2.63.95-4.11,1.34-1.38.36-2.84.53-4.41.53-.63,0-1.28-.03-1.95-.08-1.75-.15-3.45-.74-5.29-1.85-.1.45-.2.91-.28,1.4.6,1.22,1.15,2.58,1.63,4.08.62,1.92,1.14,3.96,1.56,6.07.02.08.04.2.07.34.04.19.65,3.41.88,6.08.28,3.16.49,5.55-.35,8.39-.54,1.82-1.32,3.2-1.88,4.07,1.94.65,3.55.68,4.53.62,1.87-.12,2.69-.63,2.96-.82.5-.34.94-.8,1.29-1.36.92-1.45,1.45-4.61,1.45-8,0-1.2-.04-2.52-.11-3.95-.07-1.43-.18-2.86-.32-4.29-.14-1.43-.32-2.8-.53-4.11s-.43-2.44-.64-3.39h.21c1.17,4.03,2.27,7.49,3.29,10.39,1.03,2.9,2.01,5.31,2.95,7.23.94,1.93,1.79,4.03,2.67,5.16.88,1.13,1.8,1.93,2.74,2.41.94.48,1.94.72,3,.72,1.91,0,3.36-.6,4.36-1.8.99-1.2,1.71-3.61,2.03-6.07.32-2.46.48-5.56.48-9.3,0-4.31-.28-8.02-.85-11.13-.21-1.17-.46-2.25-.74-3.22h0Z"/>
        <path class="cls-3" d="m91.4,17.39c-.07-.08-.14-.17-.19-.28-.33-.66-.43-1.33-.44-2.05-.47-.84-.67-1.78-1.25-2.58-.4-.55-.88-1.04-1.27-1.6-.13-.18-.55-.83-.48-.81-.52-.16-.84-.49-1-.88-.11-.06-.22-.12-.33-.19-.52-.32-.93-.68-1.26-1.06-.59-.21-1.08-.5-1.48-.86-.64.11-1.36.06-2.14-.23-1.62-.6-3.24-1.29-4.89-1.85-.08,0-.16,0-.24-.01-1-.12-2.01-.1-3.01-.22-.72-.08-1.26-.18-1.91-.38-.05-.02-.15-.04-.27-.07-.15.04-.31.07-.49.07-.29,0-.55-.07-.76-.18-.09,0-.19,0-.28,0-.21-.01-.4-.06-.58-.12-1.15.14-2.3.36-3.5.61-3.57.74-7.98,1.03-11.73,2.23-1.12.64-2.32,1.01-3.51,1.57-.14.06-.27.11-.41.16-1.69,1.5-3.22,3.14-4.39,5.11-.69,1.16-1.15,2.4-1.59,3.65-.3,1.35-.42,2.69-.31,4.04.47.87,1.1,1.61,1.73,2.36,2.78.78,3.62,4.07,2.54,6.39.14,2.37-.13,4.91-.17,7.18.14.16.27.34.39.52.7,1.09,1.07,2.27,1.89,3.27.46.57.94,1.13,1.43,1.67.13.1.27.19.4.29.29.18.57.39.82.64.18.2.42.45.67.71,1.37.85,2.8,1.62,4.18,2.46.35.07.69.18,1.01.33.93.09,1.85.28,2.79.31.01,0,.02-.01.03-.02,1.36-.7,2.77-.93,4.29-.97.16-.07.31-.15.46-.21.76-.31,1.54-.51,2.33-.75.87-.27,1.66-.7,2.55-.9.17-.04.34-.05.5-.04.25-.12.5-.21.76-.29.25-.4.68-.7,1.31-.7s1.02.27,1.27.64c.32.09.63.22.92.4.13.01.27.04.42.1,1.07.39,2.16.4,3.27.64.92.2,1.86.31,2.8.36,1.1-.9,2.49-1.47,3.89-2.12.12-.06.25-.12.37-.17.31-.89.9-1.64,1.53-2.37.45-.54.96-1.07,1.51-1.55-.72-3.33-.78-7.04-.85-9.71-.12-.5-.19-.98-.25-1.54-.03-.2-.05-.41-.06-.61-1.04-2.23-.23-4.33,1.55-5.6,0-.01.02-.03.02-.04.02-.09.03-.18.05-.27.09-.53.35-1.05.59-1.52.14-.28.32-.54.51-.79,0-.06.02-.12.03-.18,0-.02.03-.15.05-.25,0-.08.02-.2.03-.23.02-.27.02-.53.02-.8s.06-.5.17-.71h0s0,0,0,0Z"/>
        <path class="cls-7" d="m72.64,43.51c-2.25-1.21-4.46-2.39-7.11-2.04-1.38.18-2.47.91-3.51,1.75-.49.4-.96.84-1.45,1.25-1.1.91-2.1.88-3.03-.21-.5-.59-.92-1.28-1.27-1.97-.34-.67-.23-1.38.16-2.02.17-.27.14-.45-.1-.69-.57-.57-1.09-1.18-1.63-1.78-.1-.11-.22-.24-.25-.37-.04-.15.02-.33.03-.49.16.04.37.03.47.14.39.42.73.87,1.11,1.3.39.44.81.85,1.18,1.24,2.37-1.48,4.62-1.16,6.75.3.72.49,1.22.56,1.95.1,2.68-1.67,5.62-1.88,8.65-1.31,1.43.27,2.78.1,4.04-.61,1.38-.78,2.82-1.29,4.44-1.28.95,0,1.56-.6,1.99-1.41.13-.24.21-.7.6-.48.35.2.11.57-.05.79-.38.54-.82,1.04-1.25,1.57.18.21.46.5.69.82.68.94.63,1.94.04,2.88-.61.96-1.58,1.25-2.64,1.04-.71-.14-1.4-.45-2.08-.73-1.38-.57-2.69-1.42-4.12-1.69-2.48-.48-5.04-.95-7.56-.11-.89.3-1.74.73-2.56,1.21.72.09,1.46.1,2.16.29.96.27,1.91.62,2.83,1.02,1.72.75,3.4,1.6,5.13,2.34,1.88.8,3.89,1.02,5.92.95,1.12-.04,2.08-.52,2.92-1.23,1.18-.99,2.15-2.16,2.99-3.45.1-.16.4-.35.53-.3.31.11.17.39.04.59-1.14,1.77-2.44,3.38-4.3,4.43-.96.54-2.03.67-3.12.63-2.42-.08-4.73-.6-6.86-1.75-.59-.32-1.12-.25-1.64.02-3.08,1.57-6.42,2.31-9.76,3.1-2.8.66-5.27.03-7.64-1.41-1.58-.96-3.09-2.01-4.46-3.26-.9-.82-1.87-1.55-2.77-2.36-.56-.51-.9-1.15-.87-1.98.11-3.33.18-6.67.29-10,.03-.97.06-.95-.81-1.43-2.74-1.5-4.72-3.62-5-6.85-.35-3.95.92-7.28,4.17-9.76,3.56-2.72,7.57-4.42,11.9-5.44,3.92-.92,7.89-1.01,11.87-.72,2.69.2,5.42.35,8.05.9,4.56.94,8.7,2.8,11.55,6.74,1.68,2.33,2.57,4.88,2.03,7.79-.29,1.53-1.07,2.79-2.26,3.76-.71.57-.87,1.23-.76,2.08.55,4.3,1.04,8.61,1.62,12.91.1.73.04,1.29-.54,1.88-.06-.35-.12-.64-.15-.94-.19-1.95-.36-3.9-.57-5.85-.24-2.13-.52-4.26-.78-6.39-.07-.58-.12-1.17-.23-1.74-.18-.98.13-1.72.9-2.34,1.31-1.06,2.08-2.44,2.24-4.13.17-1.77-.17-3.44-1-5-1.81-3.38-4.63-5.58-8.18-6.93-3.57-1.36-7.26-1.93-11.06-1.77-2.52.11-4.98.7-7.41,1.38-3.38.94-6.61,2.25-9.53,4.22-1.77,1.19-3.35,2.59-4.47,4.44-1.79,2.94-1.51,6.02.82,8.55.6.65,1.29,1.22,1.99,1.77.37.29.57.59.57,1.04.01,1.09.05,2.18.05,3.27,0,1.86-.02,3.72,0,5.58,0,.54-.13.98-.55,1.33-1.34,1.1-1.84,2.52-1.51,4.22.05.27.14.58.33.76,2.19,2.15,4.68,3.86,7.56,4.98,1.24.48,2.5.43,3.77.19,3.22-.61,6.41-1.35,9.41-2.71.32-.15.63-.31.95-.47.05-.03.1-.07.2-.13h-.01Zm-8.65-2.8c-1.02-1.03-3.08-1.61-4.72-1.3-.7.14-1.29.45-1.77.98-.74.84-.82,1.56-.22,2.49.25.39.56.75.88,1.09.51.53,1.05.58,1.67.17.21-.14.38-.32.58-.48,1.18-.98,2.37-1.96,3.57-2.96h0Zm13.59-1.39c.2.1.37.21.55.29,1.07.48,2.13.99,3.22,1.42.52.2,1.09.33,1.65.36,1.12.06,1.89-.75,1.89-1.88,0-.96-1.02-2.06-1.94-2.03-.99.03-1.97.17-2.88.62-.8.4-1.62.8-2.5,1.23h0Z"/>
        <path class="cls-6" d="m68.75,28.26c.26.05.69.06,1.07.21,1.22.47,2.42.38,3.66.08.69-.17,1.42-.24,2.13-.24.88,0,1.4.56,1.52,1.44.13.99-.16,1.86-.79,2.62-1.2,1.46-2.71,2.43-4.63,2.66-.89.1-1.74-.08-2.54-.47-.99-.49-1.85-1.15-2.57-1.99-.72-.85-1.08-1.82-.6-2.88.49-1.07,1.48-1.38,2.75-1.42Z"/>
        <path class="cls-6" d="m78.34,28.14c-2.18-.35-3.38-1.72-3.81-3.74-.48-2.23,0-4.26,1.76-5.82,1.76-1.56,4.22-1.28,5.62.62,1.29,1.75,1.37,3.69.72,5.7-.04.13-.09.25-.14.38,0,.01,0,.03.01.09.13-.02.26-.08.37-.05.17.05.33.16.49.24-.13.13-.24.36-.38.39-1.89.31-3.2,1.45-4.32,2.9-.1.13-.35.16-.52.24,0-.19-.03-.39,0-.58.02-.12.13-.23.2-.36Zm2.32-2.16c-1.1-.12-1.95-.62-2.49-1.58-.52-.91-.42-1.23.5-1.71.34-.17.68-.33,1.12-.54-.48-.19-.86-.31-1.22-.48-.53-.23-.63-.58-.28-1.04.22-.29.47-.57.74-.82.4-.39.83-.76,1.28-1.16-.12-.07-.18-.12-.26-.16-1.25-.59-2.79-.2-3.79,1.01-1.16,1.4-1.49,3.02-1.11,4.77.41,1.93,1.61,2.99,3.55,3.21.12.01.27-.01.35-.08.53-.45,1.05-.92,1.62-1.42h0Z"/>
        <path class="cls-6" d="m60.34,26.52c-.54-1.11-.75-2.16-.67-3.27.17-2.38,1.83-4.3,4.07-4.66,1-.16,1.94.09,2.79.61,3.2,1.97,3.23,7.15.02,9.1-.68.41-1.51.57-2.34.87.02.1.1.35.08.59-.02.18-.18.34-.28.51-.12-.14-.32-.25-.35-.41-.36-1.63-1.44-2.56-3.18-2.68-.35-.02-.71.02-1.06-.03-.16-.02-.29-.2-.43-.31.13-.11.25-.29.39-.31.27-.05.56-.02.95-.02h0Zm7.15-.11c-.24.02-.42.03-.6.04-1.38.04-2.43-.54-2.8-1.54-.25-.69-.14-.98.52-1.28.42-.19.84-.36,1.39-.61-.54-.26-.94-.47-1.35-.65-.53-.25-.63-.51-.38-1.04.3-.65.83-1.03,1.49-1.27.16-.06.32-.1.53-.17-1.36-1-3.22-.84-4.48.3-1.66,1.5-2.03,4.28-.8,6.17.11.17.34.32.54.39.82.27,1.53.68,2.08,1.35.08.09.2.19.31.22,1.22.27,2.97-.65,3.54-1.9h0Z"/>
        <path class="cls-6" d="m76.99,12.95c1.38.3,2.74.61,3.58,1.89.13.19.09.49.14.73-.24.01-.49.09-.7.02-1.06-.35-2.11-.75-3.25-.82-.33-.02-.69-.19-.96-.39-.5-.37-.41-.94.16-1.18.32-.13.67-.17,1.03-.25Z"/>
        <path class="cls-6" d="m66.27,14.35c-.33.3-.55.62-.85.75-.5.23-1.06.3-1.58.51-.63.25-1.23.59-1.86.86-.19.08-.43.06-.64.09.02-.2-.03-.42.05-.59.59-1.33,1.69-2.06,3.05-2.38.37-.09.8-.02,1.17.09.22.07.37.37.65.67Z"/>
        <path class="cls-3" d="m63.99,40.72c-1.2,1-2.39,1.98-3.57,2.96-.19.16-.37.35-.58.48-.62.4-1.16.36-1.67-.17-.33-.34-.63-.7-.88-1.09-.6-.93-.52-1.66.22-2.49.47-.53,1.06-.84,1.77-.98,1.64-.31,3.7.27,4.72,1.3h0Z"/>
        <path class="cls-3" d="m77.57,39.33c.88-.43,1.69-.82,2.5-1.23.91-.46,1.88-.6,2.88-.62.92-.02,1.95,1.08,1.94,2.03,0,1.13-.78,1.94-1.89,1.88-.56-.03-1.13-.15-1.65-.36-1.09-.43-2.15-.94-3.22-1.42-.18-.08-.35-.18-.55-.29h0Z"/>
        <path class="cls-3" d="m80.67,25.98c-.56.5-1.08.97-1.62,1.42-.08.07-.24.1-.35.08-1.94-.22-3.14-1.27-3.55-3.21-.37-1.75-.05-3.37,1.11-4.77,1-1.21,2.54-1.6,3.79-1.01.07.03.14.08.26.16-.45.41-.88.78-1.28,1.16-.26.26-.52.53-.74.82-.34.45-.24.8.28,1.04.36.16.74.29,1.22.48-.44.21-.78.37-1.11.54-.92.47-1.02.8-.5,1.71.55.96,1.39,1.47,2.49,1.58h0Z"/>
        <path class="cls-3" d="m67.5,26.41c-.57,1.24-2.32,2.16-3.54,1.9-.12-.03-.23-.12-.31-.22-.55-.67-1.26-1.08-2.08-1.35-.21-.07-.43-.21-.54-.39-1.23-1.89-.86-4.67.8-6.17,1.26-1.14,3.11-1.29,4.48-.3-.21.07-.37.12-.53.17-.66.24-1.19.62-1.49,1.27-.25.53-.15.79.38,1.04.4.19.8.39,1.35.65-.56.24-.98.41-1.39.61-.66.3-.77.6-.52,1.28.37,1.01,1.41,1.58,2.8,1.54.18,0,.37-.02.6-.04h0Z"/>
        <path class="cls-5" d="m68.87,31.21c1.83-.08,3.46.41,4.84,1.64.51.46.51.54-.09.84-2.37,1.17-5.02.24-6.5-1.75-.38-.5-.09-.67.32-.72.47-.06.96-.01,1.44-.01Z"/>
      </g>
    </g>
  </g>
</svg>