<svg width="842" height="199" viewBox="0 0 842 199" fill="none" xmlns="http://www.w3.org/2000/svg">
<rect width="279" height="199" fill="#511212"/>
<rect x="281" width="279" height="199" fill="#B57138"/>
<rect x="563" width="279" height="199" fill="#52100F"/>
<path d="M93.2131 38V27.545H95.3581V36.08H99.7231V38H93.2131ZM105.217 38.255C104.217 38.255 103.337 38.025 102.577 37.565C101.817 37.105 101.222 36.465 100.792 35.645C100.372 34.825 100.162 33.87 100.162 32.78C100.162 31.68 100.372 30.72 100.792 29.9C101.222 29.08 101.817 28.44 102.577 27.98C103.337 27.52 104.217 27.29 105.217 27.29C106.227 27.29 107.112 27.52 107.872 27.98C108.632 28.43 109.222 29.065 109.642 29.885C110.072 30.705 110.287 31.67 110.287 32.78C110.287 33.88 110.072 34.84 109.642 35.66C109.212 36.48 108.617 37.12 107.857 37.58C107.097 38.03 106.217 38.255 105.217 38.255ZM105.217 36.2C105.817 36.2 106.332 36.06 106.762 35.78C107.192 35.5 107.527 35.105 107.767 34.595C108.007 34.075 108.127 33.47 108.127 32.78C108.127 32.08 108.007 31.475 107.767 30.965C107.527 30.445 107.192 30.045 106.762 29.765C106.332 29.485 105.812 29.345 105.202 29.345C104.622 29.345 104.112 29.485 103.672 29.765C103.232 30.035 102.892 30.425 102.652 30.935C102.422 31.445 102.307 32.06 102.307 32.78C102.307 33.49 102.422 34.1 102.652 34.61C102.892 35.12 103.232 35.515 103.672 35.795C104.112 36.065 104.627 36.2 105.217 36.2ZM116.288 38.255C115.328 38.255 114.478 38.025 113.738 37.565C112.998 37.105 112.418 36.465 111.998 35.645C111.578 34.825 111.368 33.865 111.368 32.765C111.368 31.665 111.578 30.71 111.998 29.9C112.428 29.08 113.023 28.44 113.783 27.98C114.543 27.52 115.423 27.29 116.423 27.29C117.553 27.29 118.523 27.575 119.333 28.145C120.153 28.705 120.743 29.48 121.103 30.47L119.078 31.205C118.868 30.615 118.533 30.16 118.073 29.84C117.623 29.51 117.073 29.345 116.423 29.345C115.833 29.345 115.318 29.485 114.878 29.765C114.438 30.035 114.098 30.425 113.858 30.935C113.628 31.445 113.513 32.055 113.513 32.765C113.513 33.475 113.628 34.09 113.858 34.61C114.098 35.12 114.438 35.515 114.878 35.795C115.318 36.065 115.833 36.2 116.423 36.2C116.733 36.2 117.048 36.155 117.368 36.065C117.698 35.975 117.998 35.825 118.268 35.615C118.548 35.405 118.773 35.105 118.943 34.715C119.113 34.315 119.198 33.82 119.198 33.23V32.675L119.678 34.175H116.663V32.255H121.103V38H119.213L118.913 36.41L119.288 36.71C119.098 37.04 118.853 37.32 118.553 37.55C118.263 37.78 117.923 37.955 117.533 38.075C117.153 38.195 116.738 38.255 116.288 38.255ZM127.482 38.255C126.482 38.255 125.602 38.025 124.842 37.565C124.082 37.105 123.487 36.465 123.057 35.645C122.637 34.825 122.427 33.87 122.427 32.78C122.427 31.68 122.637 30.72 123.057 29.9C123.487 29.08 124.082 28.44 124.842 27.98C125.602 27.52 126.482 27.29 127.482 27.29C128.492 27.29 129.377 27.52 130.137 27.98C130.897 28.43 131.487 29.065 131.907 29.885C132.337 30.705 132.552 31.67 132.552 32.78C132.552 33.88 132.337 34.84 131.907 35.66C131.477 36.48 130.882 37.12 130.122 37.58C129.362 38.03 128.482 38.255 127.482 38.255ZM127.482 36.2C128.082 36.2 128.597 36.06 129.027 35.78C129.457 35.5 129.792 35.105 130.032 34.595C130.272 34.075 130.392 33.47 130.392 32.78C130.392 32.08 130.272 31.475 130.032 30.965C129.792 30.445 129.457 30.045 129.027 29.765C128.597 29.485 128.077 29.345 127.467 29.345C126.887 29.345 126.377 29.485 125.937 29.765C125.497 30.035 125.157 30.425 124.917 30.935C124.687 31.445 124.572 32.06 124.572 32.78C124.572 33.49 124.687 34.1 124.917 34.61C125.157 35.12 125.497 35.515 125.937 35.795C126.377 36.065 126.892 36.2 127.482 36.2ZM136.129 38V29.465H132.979V27.545H141.439V29.465H138.304V38H136.129ZM142.534 38V27.545H144.679V38H142.534ZM146.563 38V27.545H150.133C151.323 27.545 152.218 27.8 152.818 28.31C153.428 28.81 153.733 29.57 153.733 30.59C153.733 31.62 153.423 32.405 152.803 32.945C152.193 33.475 151.303 33.74 150.133 33.74H148.693V38H146.563ZM148.693 31.82H149.908C150.438 31.82 150.848 31.735 151.138 31.565C151.428 31.395 151.573 31.08 151.573 30.62C151.573 30.18 151.433 29.88 151.153 29.72C150.883 29.55 150.468 29.465 149.908 29.465H148.693V31.82ZM159.679 38.255C158.679 38.255 157.799 38.025 157.039 37.565C156.279 37.105 155.684 36.465 155.254 35.645C154.834 34.825 154.624 33.87 154.624 32.78C154.624 31.68 154.834 30.72 155.254 29.9C155.684 29.08 156.279 28.44 157.039 27.98C157.799 27.52 158.679 27.29 159.679 27.29C160.689 27.29 161.574 27.52 162.334 27.98C163.094 28.43 163.684 29.065 164.104 29.885C164.534 30.705 164.749 31.67 164.749 32.78C164.749 33.88 164.534 34.84 164.104 35.66C163.674 36.48 163.079 37.12 162.319 37.58C161.559 38.03 160.679 38.255 159.679 38.255ZM159.679 36.2C160.279 36.2 160.794 36.06 161.224 35.78C161.654 35.5 161.989 35.105 162.229 34.595C162.469 34.075 162.589 33.47 162.589 32.78C162.589 32.08 162.469 31.475 162.229 30.965C161.989 30.445 161.654 30.045 161.224 29.765C160.794 29.485 160.274 29.345 159.664 29.345C159.084 29.345 158.574 29.485 158.134 29.765C157.694 30.035 157.354 30.425 157.114 30.935C156.884 31.445 156.769 32.06 156.769 32.78C156.769 33.49 156.884 34.1 157.114 34.61C157.354 35.12 157.694 35.515 158.134 35.795C158.574 36.065 159.089 36.2 159.679 36.2ZM173.477 38L169.277 27.545H171.647L174.632 35.36H173.942L176.867 27.545H179.252L175.067 38H173.477ZM183.313 38V29.78L183.898 30.8H180.643V29.165H182.203C182.563 29.165 182.838 29.085 183.028 28.925C183.218 28.765 183.313 28.485 183.313 28.085V27.545H185.368V38H183.313Z" fill="white"/>
<path d="M393.663 38.21C392.523 38.21 391.588 37.915 390.858 37.325C390.138 36.735 389.698 35.95 389.538 34.97L391.638 34.445C391.748 35.065 391.988 35.53 392.358 35.84C392.728 36.15 393.188 36.305 393.738 36.305C394.018 36.305 394.273 36.26 394.503 36.17C394.733 36.07 394.913 35.93 395.043 35.75C395.173 35.57 395.238 35.355 395.238 35.105C395.238 34.875 395.168 34.675 395.028 34.505C394.898 34.325 394.688 34.16 394.398 34.01C394.108 33.86 393.738 33.7 393.288 33.53C392.608 33.26 392.043 32.975 391.593 32.675C391.143 32.365 390.808 32.01 390.588 31.61C390.378 31.21 390.273 30.745 390.273 30.215C390.273 29.645 390.413 29.14 390.693 28.7C390.973 28.26 391.363 27.915 391.863 27.665C392.373 27.415 392.963 27.29 393.633 27.29C394.353 27.29 394.988 27.455 395.538 27.785C396.088 28.115 396.533 28.61 396.873 29.27L395.163 30.305C394.963 29.945 394.728 29.67 394.458 29.48C394.188 29.29 393.888 29.195 393.558 29.195C393.348 29.195 393.158 29.235 392.988 29.315C392.818 29.395 392.678 29.51 392.568 29.66C392.468 29.81 392.418 29.98 392.418 30.17C392.418 30.37 392.478 30.555 392.598 30.725C392.718 30.885 392.923 31.045 393.213 31.205C393.513 31.365 393.908 31.54 394.398 31.73C395.058 31.97 395.603 32.24 396.033 32.54C396.473 32.83 396.803 33.17 397.023 33.56C397.253 33.95 397.368 34.42 397.368 34.97C397.368 35.6 397.213 36.16 396.903 36.65C396.593 37.14 396.158 37.525 395.598 37.805C395.048 38.075 394.403 38.21 393.663 38.21ZM398.81 38V27.545H400.955V38H398.81ZM399.14 26.63L400.82 24.485H403.04L400.625 26.63H399.14ZM402.838 38V27.545H405.973L408.553 34.91H408.163L410.743 27.545H413.878V38H411.733V30.065L411.928 30.095L409.408 37.07H407.323L404.788 30.095L404.983 30.065V38H402.838ZM415.773 38V27.545H419.568C420.618 27.545 421.443 27.78 422.043 28.25C422.643 28.72 422.943 29.365 422.943 30.185C422.943 30.665 422.848 31.09 422.658 31.46C422.468 31.82 422.203 32.11 421.863 32.33C422.423 32.56 422.838 32.89 423.108 33.32C423.378 33.75 423.513 34.275 423.513 34.895C423.513 35.865 423.208 36.625 422.598 37.175C421.988 37.725 421.148 38 420.078 38H415.773ZM417.918 36.035H419.898C420.878 36.035 421.368 35.625 421.368 34.805C421.368 34.415 421.243 34.115 420.993 33.905C420.753 33.685 420.408 33.575 419.958 33.575H417.918V36.035ZM417.918 31.655H419.598C419.978 31.655 420.273 31.555 420.483 31.355C420.693 31.155 420.798 30.88 420.798 30.53C420.798 30.21 420.688 29.96 420.468 29.78C420.258 29.6 419.958 29.51 419.568 29.51H417.918V31.655ZM429.651 38.255C428.651 38.255 427.771 38.025 427.011 37.565C426.251 37.105 425.656 36.465 425.226 35.645C424.806 34.825 424.596 33.87 424.596 32.78C424.596 31.68 424.806 30.72 425.226 29.9C425.656 29.08 426.251 28.44 427.011 27.98C427.771 27.52 428.651 27.29 429.651 27.29C430.661 27.29 431.546 27.52 432.306 27.98C433.066 28.43 433.656 29.065 434.076 29.885C434.506 30.705 434.721 31.67 434.721 32.78C434.721 33.88 434.506 34.84 434.076 35.66C433.646 36.48 433.051 37.12 432.291 37.58C431.531 38.03 430.651 38.255 429.651 38.255ZM429.651 36.2C430.251 36.2 430.766 36.06 431.196 35.78C431.626 35.5 431.961 35.105 432.201 34.595C432.441 34.075 432.561 33.47 432.561 32.78C432.561 32.08 432.441 31.475 432.201 30.965C431.961 30.445 431.626 30.045 431.196 29.765C430.766 29.485 430.246 29.345 429.636 29.345C429.056 29.345 428.546 29.485 428.106 29.765C427.666 30.035 427.326 30.425 427.086 30.935C426.856 31.445 426.741 32.06 426.741 32.78C426.741 33.49 426.856 34.1 427.086 34.61C427.326 35.12 427.666 35.515 428.106 35.795C428.546 36.065 429.061 36.2 429.651 36.2ZM436.207 38V27.545H438.352V36.08H442.717V38H436.207ZM448.211 38.255C447.211 38.255 446.331 38.025 445.571 37.565C444.811 37.105 444.216 36.465 443.786 35.645C443.366 34.825 443.156 33.87 443.156 32.78C443.156 31.68 443.366 30.72 443.786 29.9C444.216 29.08 444.811 28.44 445.571 27.98C446.331 27.52 447.211 27.29 448.211 27.29C449.221 27.29 450.106 27.52 450.866 27.98C451.626 28.43 452.216 29.065 452.636 29.885C453.066 30.705 453.281 31.67 453.281 32.78C453.281 33.88 453.066 34.84 452.636 35.66C452.206 36.48 451.611 37.12 450.851 37.58C450.091 38.03 449.211 38.255 448.211 38.255ZM448.211 36.2C448.811 36.2 449.326 36.06 449.756 35.78C450.186 35.5 450.521 35.105 450.761 34.595C451.001 34.075 451.121 33.47 451.121 32.78C451.121 32.08 451.001 31.475 450.761 30.965C450.521 30.445 450.186 30.045 449.756 29.765C449.326 29.485 448.806 29.345 448.196 29.345C447.616 29.345 447.106 29.485 446.666 29.765C446.226 30.035 445.886 30.425 445.646 30.935C445.416 31.445 445.301 32.06 445.301 32.78C445.301 33.49 445.416 34.1 445.646 34.61C445.886 35.12 446.226 35.515 446.666 35.795C447.106 36.065 447.621 36.2 448.211 36.2Z" fill="white"/>
<path d="M657.213 38V27.545H659.358V36.08H663.723V38H657.213ZM669.217 38.255C668.217 38.255 667.337 38.025 666.577 37.565C665.817 37.105 665.222 36.465 664.792 35.645C664.372 34.825 664.162 33.87 664.162 32.78C664.162 31.68 664.372 30.72 664.792 29.9C665.222 29.08 665.817 28.44 666.577 27.98C667.337 27.52 668.217 27.29 669.217 27.29C670.227 27.29 671.112 27.52 671.872 27.98C672.632 28.43 673.222 29.065 673.642 29.885C674.072 30.705 674.287 31.67 674.287 32.78C674.287 33.88 674.072 34.84 673.642 35.66C673.212 36.48 672.617 37.12 671.857 37.58C671.097 38.03 670.217 38.255 669.217 38.255ZM669.217 36.2C669.817 36.2 670.332 36.06 670.762 35.78C671.192 35.5 671.527 35.105 671.767 34.595C672.007 34.075 672.127 33.47 672.127 32.78C672.127 32.08 672.007 31.475 671.767 30.965C671.527 30.445 671.192 30.045 670.762 29.765C670.332 29.485 669.812 29.345 669.202 29.345C668.622 29.345 668.112 29.485 667.672 29.765C667.232 30.035 666.892 30.425 666.652 30.935C666.422 31.445 666.307 32.06 666.307 32.78C666.307 33.49 666.422 34.1 666.652 34.61C666.892 35.12 667.232 35.515 667.672 35.795C668.112 36.065 668.627 36.2 669.217 36.2ZM680.288 38.255C679.328 38.255 678.478 38.025 677.738 37.565C676.998 37.105 676.418 36.465 675.998 35.645C675.578 34.825 675.368 33.865 675.368 32.765C675.368 31.665 675.578 30.71 675.998 29.9C676.428 29.08 677.023 28.44 677.783 27.98C678.543 27.52 679.423 27.29 680.423 27.29C681.553 27.29 682.523 27.575 683.333 28.145C684.153 28.705 684.743 29.48 685.103 30.47L683.078 31.205C682.868 30.615 682.533 30.16 682.073 29.84C681.623 29.51 681.073 29.345 680.423 29.345C679.833 29.345 679.318 29.485 678.878 29.765C678.438 30.035 678.098 30.425 677.858 30.935C677.628 31.445 677.513 32.055 677.513 32.765C677.513 33.475 677.628 34.09 677.858 34.61C678.098 35.12 678.438 35.515 678.878 35.795C679.318 36.065 679.833 36.2 680.423 36.2C680.733 36.2 681.048 36.155 681.368 36.065C681.698 35.975 681.998 35.825 682.268 35.615C682.548 35.405 682.773 35.105 682.943 34.715C683.113 34.315 683.198 33.82 683.198 33.23V32.675L683.678 34.175H680.663V32.255H685.103V38H683.213L682.913 36.41L683.288 36.71C683.098 37.04 682.853 37.32 682.553 37.55C682.263 37.78 681.923 37.955 681.533 38.075C681.153 38.195 680.738 38.255 680.288 38.255ZM691.482 38.255C690.482 38.255 689.602 38.025 688.842 37.565C688.082 37.105 687.487 36.465 687.057 35.645C686.637 34.825 686.427 33.87 686.427 32.78C686.427 31.68 686.637 30.72 687.057 29.9C687.487 29.08 688.082 28.44 688.842 27.98C689.602 27.52 690.482 27.29 691.482 27.29C692.492 27.29 693.377 27.52 694.137 27.98C694.897 28.43 695.487 29.065 695.907 29.885C696.337 30.705 696.552 31.67 696.552 32.78C696.552 33.88 696.337 34.84 695.907 35.66C695.477 36.48 694.882 37.12 694.122 37.58C693.362 38.03 692.482 38.255 691.482 38.255ZM691.482 36.2C692.082 36.2 692.597 36.06 693.027 35.78C693.457 35.5 693.792 35.105 694.032 34.595C694.272 34.075 694.392 33.47 694.392 32.78C694.392 32.08 694.272 31.475 694.032 30.965C693.792 30.445 693.457 30.045 693.027 29.765C692.597 29.485 692.077 29.345 691.467 29.345C690.887 29.345 690.377 29.485 689.937 29.765C689.497 30.035 689.157 30.425 688.917 30.935C688.687 31.445 688.572 32.06 688.572 32.78C688.572 33.49 688.687 34.1 688.917 34.61C689.157 35.12 689.497 35.515 689.937 35.795C690.377 36.065 690.892 36.2 691.482 36.2ZM700.129 38V29.465H696.979V27.545H705.439V29.465H702.304V38H700.129ZM706.534 38V27.545H708.679V38H706.534ZM710.563 38V27.545H714.133C715.323 27.545 716.218 27.8 716.818 28.31C717.428 28.81 717.733 29.57 717.733 30.59C717.733 31.62 717.423 32.405 716.803 32.945C716.193 33.475 715.303 33.74 714.133 33.74H712.693V38H710.563ZM712.693 31.82H713.908C714.438 31.82 714.848 31.735 715.138 31.565C715.428 31.395 715.573 31.08 715.573 30.62C715.573 30.18 715.433 29.88 715.153 29.72C714.883 29.55 714.468 29.465 713.908 29.465H712.693V31.82ZM723.679 38.255C722.679 38.255 721.799 38.025 721.039 37.565C720.279 37.105 719.684 36.465 719.254 35.645C718.834 34.825 718.624 33.87 718.624 32.78C718.624 31.68 718.834 30.72 719.254 29.9C719.684 29.08 720.279 28.44 721.039 27.98C721.799 27.52 722.679 27.29 723.679 27.29C724.689 27.29 725.574 27.52 726.334 27.98C727.094 28.43 727.684 29.065 728.104 29.885C728.534 30.705 728.749 31.67 728.749 32.78C728.749 33.88 728.534 34.84 728.104 35.66C727.674 36.48 727.079 37.12 726.319 37.58C725.559 38.03 724.679 38.255 723.679 38.255ZM723.679 36.2C724.279 36.2 724.794 36.06 725.224 35.78C725.654 35.5 725.989 35.105 726.229 34.595C726.469 34.075 726.589 33.47 726.589 32.78C726.589 32.08 726.469 31.475 726.229 30.965C725.989 30.445 725.654 30.045 725.224 29.765C724.794 29.485 724.274 29.345 723.664 29.345C723.084 29.345 722.574 29.485 722.134 29.765C721.694 30.035 721.354 30.425 721.114 30.935C720.884 31.445 720.769 32.06 720.769 32.78C720.769 33.49 720.884 34.1 721.114 34.61C721.354 35.12 721.694 35.515 722.134 35.795C722.574 36.065 723.089 36.2 723.679 36.2ZM737.477 38L733.277 27.545H735.647L738.632 35.36H737.942L740.867 27.545H743.252L739.067 38H737.477ZM743.908 38V36.47C744.218 36.25 744.583 35.99 745.003 35.69C745.423 35.39 745.848 35.06 746.278 34.7C746.718 34.34 747.123 33.955 747.493 33.545C747.863 33.125 748.163 32.695 748.393 32.255C748.633 31.805 748.753 31.345 748.753 30.875C748.753 30.475 748.648 30.135 748.438 29.855C748.228 29.565 747.888 29.42 747.418 29.42C747.018 29.42 746.708 29.525 746.488 29.735C746.268 29.945 746.108 30.205 746.008 30.515C745.908 30.825 745.848 31.135 745.828 31.445L743.803 31.28C743.803 30.82 743.883 30.365 744.043 29.915C744.203 29.455 744.438 29.04 744.748 28.67C745.058 28.29 745.438 27.99 745.888 27.77C746.348 27.54 746.878 27.425 747.478 27.425C748.118 27.425 748.688 27.565 749.188 27.845C749.698 28.125 750.093 28.52 750.373 29.03C750.663 29.54 750.808 30.135 750.808 30.815C750.808 31.325 750.723 31.82 750.553 32.3C750.393 32.78 750.158 33.24 749.848 33.68C749.548 34.12 749.183 34.54 748.753 34.94C748.323 35.33 747.838 35.695 747.298 36.035C746.758 36.365 746.178 36.665 745.558 36.935L746.098 36.08H751.213V38H743.908Z" fill="white"/>
<g clip-path="url(#clip0_264_686)">
<path d="M72.7573 88.603C72.7573 88.603 68.2144 80.4656 55.7341 80.948C43.2553 81.4319 39.9225 86.8098 39.9225 86.8098C39.9225 86.8098 34.2126 91.9949 34.0215 107.668C33.8303 123.341 34.9233 125.426 34.9233 125.426C34.9233 125.426 36.5203 131.839 43.67 131.839C50.8196 131.839 53.041 127.702 53.041 127.702C53.041 127.702 55.9992 122.526 54.4053 114.807C54.2203 113.911 59.0792 114.462 59.0792 114.462C59.0792 114.462 56.9272 123.036 60.3988 129.196C60.3988 129.196 65.4905 135.032 73.1026 130.599C73.1026 130.599 78.4471 127.151 78.7955 121.084H81.0878C81.0878 121.084 80.8967 129.634 86.5109 131.634C92.1252 133.634 96.2889 130.186 96.2889 130.186C96.2889 130.186 103.647 135.772 109.548 128.186C109.548 128.186 111.561 123.979 110.867 123.083H113.281C113.281 123.083 115.726 131.565 124.057 131.772C124.057 131.772 126.417 131.91 128.569 131.221C128.569 131.221 138.704 134.117 142.313 127.014L143.772 122.532L145.6 122.463C145.6 122.463 144.049 133.359 158.28 131.496C158.28 131.496 159.95 131.547 161.683 130.255C161.683 130.255 167.931 135.081 174.803 128.737C174.803 128.737 176.261 127.772 176.469 125.91C176.469 125.91 185.146 135.841 193.546 129.772L196.045 127.538C196.045 127.538 203.901 139.563 220.383 130.806L222.911 129.484C222.911 129.484 234.504 138.046 241.377 125.704C241.377 125.704 244.641 121.754 241.377 108.282C241.098 106.936 240.96 105.066 241.977 103.529C242.563 102.644 243.147 102.452 243.81 101.573C244.48 100.683 245.162 99.1859 244.968 96.5765C244.927 95.1402 244.678 92.9718 243.583 90.6641C241.092 85.4118 236.002 83.1914 232.734 81.7672C230.668 80.8653 227.422 79.7337 223.175 79.3769C219.153 78.893 213.041 78.6296 205.862 80.1732C198.419 81.7734 192.808 84.6752 189.313 86.8374C189.313 86.8374 188.202 83.4333 174.943 83.7089C161.684 83.9846 159.393 92.4527 159.393 92.4527C159.393 92.4527 155.274 82.3997 145.603 83.3644C135.931 84.3291 132.876 91.9841 132.876 91.9841C132.876 91.9841 131.764 82.6064 123.018 83.4333C123.018 83.4333 115.103 83.5711 116.492 92.4665C116.522 92.8233 116.721 95.4051 116.229 95.5153C115.714 95.6302 114.723 92.9611 114.618 92.6732C113.049 86.7348 108.288 82.219 103.372 82.6049C93.7238 83.3629 93.0286 90.5355 93.0286 90.5355C92.6201 89.5432 91.376 86.9078 88.4887 85.3796C85.4704 83.7824 82.4999 84.3735 80.4635 84.7778C76.7576 85.5144 74.157 87.3917 72.7573 88.6045V88.603Z" fill="#FFF5E9"/>
<path d="M242.6 96.855C242.516 96.7616 242.446 96.6575 242.39 96.5426C242.026 95.7938 241.909 95.0419 241.904 94.2166C241.379 93.2626 241.152 92.2029 240.512 91.2994C240.07 90.6746 239.532 90.1203 239.093 89.4909C238.952 89.2903 238.481 88.5477 238.553 88.5706C237.977 88.3884 237.617 88.0132 237.439 87.5707C237.317 87.5002 237.195 87.4344 237.075 87.3609C236.494 87.0026 236.034 86.5952 235.667 86.1619C235.014 85.923 234.462 85.5922 234.016 85.191C233.303 85.3166 232.506 85.2569 231.63 84.9261C229.823 84.2447 228.02 83.4668 226.181 82.8297C226.093 82.8267 226.007 82.8297 225.919 82.819C224.804 82.6873 223.682 82.7011 222.567 82.574C221.766 82.4821 221.165 82.3734 220.435 82.1407C220.377 82.1223 220.263 82.0947 220.13 82.0656C219.965 82.1146 219.785 82.1437 219.584 82.1437C219.255 82.1437 218.974 82.0687 218.738 81.9416C218.632 81.9477 218.525 81.9508 218.421 81.9447C218.189 81.9324 217.974 81.8803 217.769 81.8038C216.489 81.9584 215.205 82.2126 213.872 82.4929C209.899 83.3259 204.981 83.6597 200.801 85.0134C199.555 85.7377 198.211 86.1573 196.888 86.7882C196.734 86.8617 196.583 86.9092 196.431 86.9658C194.55 88.6686 192.84 90.5215 191.542 92.7465C190.776 94.0588 190.266 95.4646 189.765 96.878C189.432 98.4093 189.298 99.9237 189.421 101.457C189.941 102.443 190.65 103.283 191.353 104.133C194.445 105.011 195.388 108.741 194.186 111.366C194.339 114.049 194.047 116.93 193.993 119.492C194.144 119.676 194.292 119.871 194.43 120.088C195.21 121.327 195.624 122.654 196.532 123.795C197.044 124.438 197.58 125.069 198.128 125.69C198.273 125.803 198.427 125.905 198.569 126.022C198.897 126.224 199.207 126.461 199.483 126.749C199.685 126.971 199.953 127.258 200.232 127.55C201.761 128.516 203.352 129.38 204.886 130.34C205.277 130.417 205.657 130.539 206.011 130.711C207.049 130.812 208.072 131.029 209.116 131.066C209.127 131.06 209.137 131.052 209.148 131.046C210.67 130.259 212.237 129.989 213.924 129.95C214.098 129.864 214.269 129.781 214.44 129.709C215.291 129.352 216.159 129.127 217.036 128.856C218.003 128.556 218.888 128.058 219.877 127.836C220.073 127.792 220.258 127.78 220.432 127.792C220.707 127.662 220.989 127.547 221.282 127.461C221.559 127.002 222.043 126.673 222.737 126.673C223.431 126.673 223.873 126.973 224.157 127.4C224.517 127.503 224.861 127.651 225.177 127.849C225.327 127.864 225.482 127.896 225.646 127.957C226.844 128.401 228.052 128.411 229.284 128.68C230.306 128.904 231.357 129.035 232.405 129.089C233.636 128.071 235.179 127.431 236.742 126.691C236.876 126.627 237.016 126.559 237.155 126.493C237.494 125.489 238.165 124.639 238.854 123.806C239.356 123.2 239.922 122.592 240.54 122.054C239.735 118.284 239.666 114.081 239.589 111.059C239.45 110.497 239.381 109.946 239.308 109.315C239.278 109.084 239.258 108.853 239.238 108.62C238.083 106.1 238.986 103.72 240.967 102.279C240.976 102.265 240.984 102.25 240.993 102.236C241.01 102.135 241.029 102.032 241.046 101.934C241.148 101.337 241.437 100.746 241.701 100.212C241.857 99.8946 242.056 99.6006 242.271 99.3158C242.281 99.2484 242.291 99.1826 242.308 99.1167C242.315 99.0922 242.345 98.9452 242.367 98.8396C242.376 98.7538 242.393 98.6083 242.395 98.5777C242.412 98.2761 242.412 97.9744 242.412 97.6727C242.412 97.3787 242.483 97.1061 242.603 96.8673C242.603 96.8627 242.603 96.8596 242.603 96.855H242.6Z" fill="white"/>
<path d="M119.924 111.68C120.107 110.807 119.949 110.141 119.87 109.471C119.617 107.274 119.406 105.075 119.298 102.862C119.153 99.861 118.919 96.8658 119.001 93.8567C119.044 92.2933 119.283 90.7681 119.771 89.2843C120.789 86.1987 124.143 85.3274 126.526 87.5447C128.418 89.3026 129.306 91.6088 129.973 94.0114C130.696 96.6131 131.114 99.2607 131.419 101.951C131.743 104.795 131.831 107.655 131.814 110.481C131.795 113.49 131.792 116.529 131.416 119.549C131.182 121.434 130.863 123.275 130.223 125.048C128.939 128.605 125.531 130.008 122.096 129.219C119.018 128.512 117.272 126.281 115.808 123.759C113.516 119.811 112.024 115.517 110.484 111.254C109.515 108.573 108.732 105.825 107.866 103.107C107.821 102.97 107.77 102.833 107.616 102.72C107.737 103.62 107.831 104.527 107.979 105.423C108.765 110.165 108.937 114.947 108.797 119.734C108.742 121.625 108.612 123.55 107.955 125.374C107.115 127.711 105.253 129.503 102.266 129.427C100.858 129.392 99.4507 129.481 98.0726 129.045C97.0567 128.722 96.918 128.522 97.4267 127.613C99.2842 124.287 99.7282 120.708 99.4446 116.975C99.218 114.007 98.9651 111.047 98.3901 108.118C97.678 104.484 96.7345 100.911 95.2284 97.5258C94.6411 96.2058 94.6072 95.0022 94.9957 93.696C95.4026 92.327 95.8266 90.9672 96.4817 89.6885C98.7447 85.2753 103.695 84.4132 107.664 87.2063C109.355 88.3961 110.531 90.0361 111.603 91.7543C113.829 95.3253 115.37 99.2133 116.856 103.123C117.824 105.671 118.717 108.245 119.549 110.84C119.623 111.072 119.745 111.289 119.919 111.681L119.924 111.68Z" fill="#52100F"/>
<path d="M57.0323 111.801C55.2102 111.75 53.6008 111.635 52.0408 111.164C51.4704 110.992 51.1744 111.197 51.2361 111.784C51.3579 112.92 51.5305 114.05 51.6523 115.186C51.9791 118.224 52.2874 121.266 51.5074 124.284C50.7752 127.118 48.4536 128.944 45.5016 129.144C43.8907 129.254 42.3368 129.245 40.8538 128.492C39.6237 127.866 38.8205 126.875 38.281 125.657C37.7615 124.488 37.521 123.238 37.2528 121.991C36.7148 119.5 36.7549 116.963 36.7734 114.464C36.798 111.317 36.7595 108.158 37.1541 105.008C37.4671 102.509 37.7368 100.005 38.3026 97.5533C38.9963 94.5458 39.801 91.5628 41.9082 89.1388C44.1404 86.5723 47.0462 85.2355 50.3235 84.5724C53.4929 83.9308 56.6885 83.8803 59.8857 84.2708C64.4641 84.8297 68.2825 86.7209 70.4792 90.9274C71.9621 93.7679 72.3259 96.8505 71.8604 100.06C71.4735 102.728 70.4607 105.061 68.6447 107.028C65.9933 109.9 62.6528 111.406 58.7496 111.704C58.1098 111.753 57.4686 111.776 57.0308 111.799L57.0323 111.801ZM54.626 102.933C55.9902 103.04 57.2712 102.735 58.5199 102.219C61.1174 101.147 62.6528 97.9055 61.7186 95.2977C61.0912 93.5444 59.7208 92.8124 57.8894 92.6103C53.7642 92.1539 50.3728 94.1676 49.6622 97.5778C49.1396 100.085 49.6021 101.772 52.2643 102.751C53.032 103.032 53.8398 102.878 54.6244 102.933H54.626Z" fill="#52100F"/>
<path d="M98.515 117.883C98.5659 120.707 98.273 123.215 97.2941 125.616C96.491 127.587 94.9417 128.631 92.9424 129.127C91.0278 129.602 89.1456 129.57 87.2926 128.81C85.6401 128.134 84.6828 126.879 84.1987 125.236C83.6284 123.304 83.2707 121.324 83.2245 119.31C83.206 118.52 82.9516 118.341 82.187 118.352C80.4728 118.375 78.7494 118.543 77.0429 118.212C76.4386 118.094 76.3955 118.491 76.3461 118.941C76.1041 121.149 75.6663 123.313 74.7013 125.339C73.4912 127.878 71.4471 129.196 68.6369 129.36C67.2171 129.443 65.8189 129.354 64.4732 128.824C62.853 128.186 61.9373 126.938 61.5042 125.345C60.812 122.789 60.9831 120.209 61.3963 117.623C61.5813 116.465 61.7647 115.313 62.1239 114.197C62.5077 113.003 63.2708 112.125 64.3992 111.54C66.6144 110.392 68.7001 109.098 70.3465 107.152C71.7169 105.53 72.4861 103.685 72.8592 101.66C73.1397 100.135 73.2661 98.5885 73.2322 97.025C73.2122 96.0465 72.91 95.1185 72.853 94.1508C72.8314 93.7787 72.853 93.4601 73.1228 93.1615C75.1299 90.9427 77.3713 89.0775 80.4127 88.4543C84.3005 87.658 87.8152 88.2782 90.6732 91.2336C93.0025 93.6424 94.3806 96.5779 95.4304 99.7002C96.2428 102.118 96.8841 104.582 97.3697 107.078C97.7242 108.897 98.0495 110.738 98.1667 112.583C98.2838 114.434 98.7 116.272 98.5104 117.883H98.515ZM86.491 104.121C86.5234 103.014 86.4139 102.046 86.0918 101.086C84.8246 97.3083 81.0139 96.4293 78.2469 99.3082C76.3585 101.274 75.5538 103.626 75.6786 106.335C75.7295 107.455 76.2244 108.286 77.0907 108.911C78.9421 110.245 82.8854 110.076 84.6566 108.635C86.1395 107.429 86.6236 105.842 86.491 104.121Z" fill="#52100F"/>
<path d="M162.801 121.229C162.667 122.488 162.813 123.726 162.434 124.91C161.592 127.538 159.144 129.351 156.371 129.414C154.933 129.446 153.479 129.533 152.155 128.818C150.089 127.703 148.697 126.123 148.335 123.705C148.062 121.883 147.9 120.067 147.946 118.229C147.959 117.734 147.763 117.463 147.23 117.462C145.588 117.456 143.945 117.538 142.304 117.368C141.745 117.31 141.722 117.734 141.692 118.133C141.552 120.139 141.27 122.122 140.65 124.043C139.966 126.169 138.76 127.936 136.658 128.839C134.584 129.731 132.406 129.617 130.259 128.982C129.847 128.859 129.759 128.601 129.966 128.216C131.278 125.769 131.743 123.082 132.186 120.394C132.953 115.735 132.391 111.038 132.531 106.361C132.591 104.342 132.152 102.359 132.126 100.345C132.121 99.959 132.082 99.5792 132.24 99.2209C133.53 96.2777 134.765 93.3024 136.82 90.7727C138.364 88.8693 140.233 87.3992 142.647 86.7117C147.128 85.4345 151.843 87.0317 154.718 90.7283C156.988 93.6469 158.144 97.0755 159.26 100.526C159.989 102.78 160.639 105.057 161.128 107.369C161.621 109.703 162.076 112.043 162.371 114.419C162.653 116.702 162.603 118.992 162.802 121.229H162.801ZM145.697 108.366C146.14 108.338 146.784 108.335 147.416 108.254C149.143 108.034 150.732 106.651 150.877 105.236C151.128 102.789 150.385 100.659 148.659 98.8993C147.095 97.3052 144.882 97.1077 143.251 98.4338C141.524 99.8396 140.587 101.737 140.325 103.891C140.037 106.265 140.977 107.518 143.279 108.176C144.002 108.383 144.758 108.256 145.694 108.366H145.697Z" fill="#52100F"/>
<path d="M179.084 111.551C179.932 111.871 180.784 112.18 181.627 112.513C184.256 113.551 186.81 114.733 189.088 116.428C189.873 117.012 190.541 117.719 191.203 118.43C191.893 119.168 192.454 119.952 192.495 121.036C192.529 121.889 192.899 122.641 193.471 123.311C194.339 124.33 193.833 125.423 193.44 126.417C192.71 128.265 191.227 129.115 189.257 129.258C184.408 129.608 180.926 127.199 178.013 123.734C175.372 120.593 173.298 117.073 171.361 113.474C171.315 113.389 171.264 113.304 171.174 113.231C171.358 114.321 171.566 115.408 171.797 116.48C172.05 117.656 172.002 118.855 172.281 120.028C172.599 121.361 172.722 122.736 172.955 124.089C173.09 124.875 173.12 125.664 173.067 126.451C172.998 127.486 172.395 128.213 171.469 128.619C168.836 129.771 166.13 129.633 163.413 128.96C163.195 128.907 162.992 128.772 162.796 128.654C161.888 128.109 161.859 127.942 162.589 127.209C163.288 126.506 163.598 125.627 163.779 124.691C164.157 122.751 164.227 120.805 163.951 118.842C163.704 117.079 163.804 115.294 163.524 113.522C163.234 111.69 162.89 109.87 162.557 108.047C161.947 104.711 160.971 101.472 159.889 98.2623C159.764 97.8902 159.901 97.5656 160.049 97.2348C162.438 91.9074 166.42 88.5768 172.252 87.4191C174.818 86.9092 177.39 86.7193 179.972 86.9061C182.673 87.1006 185.286 87.7468 187.647 89.1541C187.932 89.3241 188.207 89.5155 188.469 89.7207C189.297 90.3715 189.281 90.4542 188.698 91.3209C186.015 95.3054 185.625 99.5318 187.408 103.963C187.814 104.971 188.478 105.829 189.258 106.573C189.828 107.116 189.702 107.511 189.189 107.959C187.656 109.295 185.898 110.217 183.93 110.721C182.355 111.125 180.76 111.461 179.084 111.553V111.551ZM176.513 105.289C176.964 105.267 177.373 105.242 177.783 105.225C180.251 105.121 183.359 103.444 183.992 100.627C184.519 98.2853 183.38 94.9807 180.474 94.31C179.351 94.0512 178.239 94.0681 177.115 94.0604C174.692 94.0436 172.728 95.0205 171.267 96.904C169.488 99.1949 169.398 103.533 173.598 104.913C174.583 105.236 175.571 105.153 176.511 105.289H176.513Z" fill="#52100F"/>
<path d="M193.52 117.228C193.488 114.695 193.73 112.053 193.808 109.406C193.835 108.527 193.294 108.147 192.651 107.778C191.28 106.994 190.095 106.011 189.147 104.732C187.821 102.944 187.393 100.919 187.394 98.7585C187.394 96.3084 187.946 94.0114 189.323 91.9472C190.502 90.177 192.066 88.785 193.815 87.5983C197.524 85.0793 201.606 83.3887 205.996 82.4837C210.576 81.5404 215.197 81.447 219.853 81.8972C221.559 82.0626 223.275 82.1775 224.968 82.4378C230.603 83.303 235.769 85.1574 239.503 89.7406C241.562 92.2688 242.842 95.1094 242.564 98.4599C242.413 100.294 241.855 102.061 240.438 103.238C238.831 104.573 238.912 106.155 239.153 107.874C239.396 109.612 239.6 111.355 239.789 113.099C240.033 115.346 240.372 117.581 240.637 119.825C240.747 120.75 240.963 121.697 240.462 122.59C240.351 122.788 240.246 123.037 239.968 123.004C239.654 122.965 239.586 122.684 239.558 122.429C239.452 121.468 239.362 120.505 239.27 119.543C239.022 116.961 238.837 114.373 238.505 111.802C238.249 109.811 238.007 107.822 237.815 105.825C237.722 104.87 237.878 103.962 238.655 103.409C242.086 100.96 241.835 95.7479 240.048 92.6256C237.832 88.7544 234.44 86.3931 230.324 84.9675C226.99 83.8129 223.534 83.1498 219.987 83.2769C217.449 83.3673 214.949 83.7884 212.495 84.4897C208.606 85.603 204.826 86.9659 201.442 89.2092C199.033 90.8064 196.873 92.6715 195.584 95.3467C193.759 99.1352 194.817 102.509 197.73 104.969C199.248 106.251 199.877 107.533 199.762 109.468C199.611 112.007 199.699 114.562 199.736 117.11C199.75 118.044 199.491 118.797 198.772 119.411C197.884 120.169 197.516 121.207 197.368 122.308C197.229 123.344 197.557 124.212 198.361 124.981C200.264 126.804 202.423 128.225 204.749 129.458C206.357 130.31 208.038 130.525 209.746 130.242C212.934 129.714 216.07 128.931 219.1 127.791C219.626 127.593 220.123 127.317 220.624 127.06C220.95 126.892 221.04 126.725 220.642 126.477C219.031 125.471 217.264 124.841 215.407 124.575C213.605 124.318 212.045 125.092 210.651 126.166C209.862 126.774 209.15 127.481 208.361 128.091C207.058 129.097 206.125 129.011 204.997 127.815C204.252 127.026 203.713 126.103 203.306 125.1C203.055 124.483 203.166 123.89 203.466 123.333C203.724 122.855 203.653 122.475 203.277 122.097C202.899 121.717 202.546 121.31 202.201 120.9C201.971 120.627 201.74 120.347 201.573 120.034C201.427 119.76 201.38 119.408 201.652 119.185C201.962 118.929 202.253 119.165 202.458 119.384C202.859 119.812 203.224 120.275 203.597 120.727C204.59 121.929 204.602 121.964 206.061 121.405C208.168 120.6 210.115 120.936 211.881 122.223C212.845 122.924 213.646 122.942 214.684 122.35C217.152 120.941 219.788 120.371 222.669 120.886C224.824 121.27 226.975 121.361 228.965 119.985C230.053 119.234 231.382 118.9 232.768 118.947C233.873 118.986 234.574 118.362 235.06 117.433C235.256 117.058 235.439 116.531 236.011 116.901C236.552 117.252 236.336 117.774 236.005 118.088C234.995 119.048 234.823 119.906 235.714 121.142C236.52 122.261 235.914 123.457 235.106 124.425C234.157 125.562 232.894 125.484 231.641 125.092C230.566 124.755 229.523 124.314 228.547 123.739C227.203 122.944 225.718 122.541 224.201 122.281C222.077 121.916 219.934 121.633 217.809 122.278C217.224 122.455 216.666 122.726 216.102 122.967C215.967 123.024 215.797 123.097 215.811 123.281C215.826 123.469 216.004 123.501 216.152 123.529C219.279 124.125 221.985 125.755 224.803 127.083C227.251 128.238 229.785 128.598 232.438 128.443C233.816 128.363 234.813 127.55 235.752 126.667C236.611 125.858 237.337 124.932 238.003 123.961C238.132 123.771 238.265 123.584 238.402 123.399C238.613 123.112 238.882 122.866 239.238 123.099C239.591 123.327 239.487 123.7 239.316 123.991C238.966 124.584 238.613 125.183 238.189 125.723C237.241 126.931 236.225 128.089 234.867 128.866C233.275 129.778 231.592 129.928 229.754 129.683C227.477 129.38 225.37 128.697 223.335 127.699C222.886 127.48 222.438 127.541 222 127.752C219.524 128.948 216.948 129.882 214.271 130.515C212.677 130.891 211.098 131.348 209.46 131.528C206.753 131.829 204.43 130.815 202.214 129.443C199.851 127.977 197.807 126.117 195.751 124.272C195.39 123.947 194.991 123.664 194.633 123.336C193.864 122.628 193.431 121.76 193.429 120.702C193.428 119.581 193.378 118.46 193.52 117.225V117.228ZM204.541 124.685C204.542 125.602 205.109 126.247 205.654 126.889C206.333 127.693 206.958 127.746 207.773 127.072C208.936 126.111 210.084 125.131 211.228 124.148C211.824 123.635 211.789 123.348 211.083 122.961C209.8 122.256 208.418 122.057 206.987 122.287C205.657 122.5 204.558 123.621 204.541 124.688V124.685ZM232.319 124.039C234.009 124.048 234.394 123.84 234.707 123.045C235.24 121.688 234.203 120.137 232.735 120.109C230.958 120.077 229.48 120.921 227.997 121.737C227.724 121.887 227.713 122.109 228.001 122.256C229.544 123.048 231.058 123.927 232.319 124.039Z" fill="#52100F"/>
<path d="M217.225 109.306C217.644 109.292 218.069 109.332 218.436 109.499C220.029 110.223 221.603 109.793 223.175 109.464C223.656 109.363 224.135 109.308 224.622 109.315C225.934 109.335 226.583 109.928 226.756 111.237C226.878 112.162 226.696 113.041 226.149 113.776C224.713 115.705 222.939 117.123 220.392 117.281C219.249 117.352 218.22 117.007 217.249 116.456C216.304 115.918 215.547 115.166 214.831 114.358C213.895 113.301 213.736 112.141 214.29 110.886C214.848 109.625 216.019 109.418 217.223 109.306H217.225Z" fill="#52100F"/>
<path d="M233.197 103.029C233.133 103.611 233.104 104.198 232.998 104.772C232.908 105.26 232.814 105.68 233.246 106.103C233.604 106.453 233.318 106.835 232.948 106.923C230.997 107.392 229.568 108.548 228.407 110.121C228.14 110.482 227.712 110.562 227.59 109.949C227.513 109.565 227.299 109.389 226.961 109.265C223.98 108.174 223.123 105.322 223.346 102.538C223.468 101.025 224.117 99.7308 225.205 98.6145C227.76 95.9975 231.086 97.1414 232.449 99.8564C232.95 100.853 233.23 101.902 233.197 103.031V103.029ZM224.421 103.502C224.421 103.732 224.393 103.965 224.425 104.188C224.659 105.85 225.233 107.309 226.929 108.023C228.048 108.493 228.646 108.331 229.463 107.462C229.768 107.138 229.813 106.94 229.347 106.74C228.647 106.439 228.097 105.942 227.681 105.312C226.966 104.233 227.129 103.513 228.264 102.87C228.706 102.62 228.734 102.499 228.273 102.236C227.422 101.751 227.325 101.147 227.923 100.353C228.293 99.8595 228.769 99.4674 229.23 99.0632C229.378 98.933 229.608 98.8212 229.554 98.5839C229.497 98.3343 229.235 98.3603 229.044 98.3236C227.77 98.0862 226.725 98.4966 225.867 99.4353C224.809 100.591 224.393 101.97 224.421 103.502Z" fill="#52100F"/>
<path d="M217.773 104.372C217.773 107.251 216.199 109.406 213.391 110.311C212.936 110.458 212.597 110.602 212.575 111.147C212.565 111.401 212.426 111.666 212.122 111.689C211.808 111.713 211.675 111.445 211.607 111.203C211.032 109.141 209.585 108.315 207.528 108.325C207.158 108.326 206.727 108.283 206.645 107.876C206.553 107.418 206.984 107.306 207.339 107.233C207.923 107.113 207.659 106.761 207.553 106.478C206.873 104.671 207.08 102.921 207.912 101.224C209.135 98.7294 212.654 96.8229 215.688 99.4858C217.169 100.784 217.795 102.444 217.773 104.372ZM213.691 103.381C213.491 103.261 213.341 103.167 213.189 103.08C212.014 102.406 211.899 101.65 212.839 100.663C213.03 100.463 213.28 100.319 213.503 100.149C213.657 100.031 213.961 100.014 213.926 99.7706C213.889 99.518 213.602 99.4675 213.382 99.4154C212.244 99.152 211.206 99.3342 210.257 100.048C208.333 101.492 208.065 103.849 208.541 106.078C208.711 106.87 209.181 107.42 210.002 107.703C210.631 107.919 211.177 108.326 211.62 108.842C211.922 109.194 212.295 109.383 212.773 109.326C213.639 109.225 214.417 108.931 215.043 108.308C215.202 108.148 215.443 107.989 215.37 107.74C215.288 107.458 214.986 107.544 214.77 107.524C213.796 107.439 212.995 107.043 212.417 106.25C211.63 105.17 211.815 104.444 213.007 103.862C213.232 103.752 213.493 103.688 213.696 103.38L213.691 103.381Z" fill="#52100F"/>
<path d="M226.341 91.8109C227.866 92.2351 229.411 92.5061 230.342 93.9211C230.551 94.2396 230.789 94.5887 230.516 94.9715C230.229 95.3758 229.841 95.1966 229.471 95.0864C228.322 94.7434 227.185 94.359 225.979 94.235C225.759 94.212 225.538 94.1017 225.338 93.9946C224.945 93.7817 224.59 93.5107 224.621 93.0069C224.652 92.5123 224.999 92.2473 225.426 92.0865C225.734 91.9717 226.056 91.8951 226.341 91.8109Z" fill="#52100F"/>
<path d="M209.144 95.6315C209.146 95.2564 209.323 94.947 209.523 94.6484C210.305 93.4846 211.432 92.817 212.771 92.4954C213.494 92.3224 214.074 92.67 214.547 93.1753C214.832 93.48 214.817 93.8261 214.492 94.1186C214.245 94.3406 214.001 94.5703 213.675 94.676C212.48 95.0649 211.321 95.5289 210.198 96.0986C209.565 96.4201 209.153 96.1935 209.146 95.6315H209.144Z" fill="#52100F"/>
<path d="M217.528 112.934C219.563 112.845 221.385 113.404 222.925 114.807C223.497 115.327 223.491 115.43 222.827 115.764C220.186 117.094 217.231 116.032 215.577 113.77C215.156 113.194 215.474 113.009 215.928 112.951C216.454 112.883 216.994 112.935 217.528 112.935V112.934Z" fill="#B57138"/>
</g>
<g clip-path="url(#clip1_264_686)">
<path d="M772.619 124.831C772.552 124.788 772.482 124.743 772.415 124.7C771.945 124.448 771.956 124.091 772.305 123.719C779.199 119.085 779.484 109.894 775.428 103.207C767.476 93.789 751.147 95.5204 743.337 103.808C738.503 95.0219 730.594 97.5386 724.89 96.63C724.156 89.7847 722.392 86.5685 726.227 80.5085C728.738 73.095 722.806 65.2608 716.416 61.6586C698.93 51.6962 651.786 62.5832 671.636 88.324C673.868 89.2755 672.774 91.7332 672.973 93.6818C672.522 94.9924 673.83 98.2488 671.974 98.1148C669.42 97.954 665.002 101.406 663.681 100.511C657.447 92.7919 644.597 92.8402 636.346 97.0803C626.356 103.623 627.317 117.766 627.124 128.342C625.647 140.979 637.651 149.926 646.721 139.259C650.051 132.397 648.083 136.517 651.523 141.057C657.37 146.335 667.438 143.845 669.879 136.426C671.877 143.445 679.37 145.107 685.59 143.027C690.145 144.708 695.694 144.11 698.629 139.72C700.152 134.381 702.252 142.555 706.27 143.29C709.313 144.614 712.299 143.598 715.337 143.081C720.147 145.021 725.048 143.421 728.22 139.647C730.119 134.568 731.722 143.638 736.674 143.652C739.61 144.418 742.285 143.325 745.067 143.022C749.592 144.126 755.614 144.922 758.842 140.245C760.158 138.972 764.61 143.756 767.24 143.539C772.791 144.764 778.353 141.714 779 135.766C778.957 131.277 775.955 127.597 772.619 124.834V124.831Z" fill="#FFF5E9"/>
<path d="M746.308 124.124C745.881 121.272 745.306 118.543 744.584 115.933C743.861 113.322 743.09 110.983 742.274 108.908C740.902 105.539 739.277 103.18 737.405 101.827C735.53 100.476 733.481 99.8007 731.257 99.8007C729.772 99.8007 728.373 100.079 727.057 100.634C725.741 101.189 724.479 102.143 723.273 103.494C722.067 104.845 720.888 106.742 719.739 109.187C719.287 110.162 718.855 111.175 718.436 112.223C718.801 115.04 718.989 118.243 718.989 121.792C718.989 125.761 719.185 127.656 718.844 130.285C718.471 133.175 717.794 135.978 717.12 137.801C716.919 138.342 716.72 138.851 716.261 139.178C716.274 139.235 716.306 139.283 716.355 139.296C718.38 139.781 717.698 139.781 719.553 139.781C721.036 139.781 722.271 139.503 723.254 138.948C724.237 138.393 725.016 137.56 725.591 136.45C726.165 135.34 726.563 133.971 726.786 132.341C727.081 130.934 726.974 130.819 727.197 129.098C727.229 128.851 727.253 128.602 727.277 128.353C727.428 128.369 727.573 128.39 727.723 128.404C729.372 128.551 730.967 128.589 732.509 128.514C732.769 128.5 733.019 128.484 733.264 128.463C733.264 128.573 733.261 128.68 733.261 128.79C733.261 130.567 733.336 132.288 733.484 133.955C733.742 136.546 734.373 136.973 735.466 138.101C736.559 139.229 738.052 139.795 739.946 139.795C742.134 139.795 744.014 139.323 745.236 137.913C746.461 136.506 746.947 135.509 746.947 132.51C746.947 129.771 746.732 126.975 746.308 124.126V124.124ZM730.922 120.403C729.326 120.403 728.075 120.079 727.165 119.431C726.254 118.785 725.8 117.922 725.8 116.849C725.8 116.182 725.94 115.442 726.216 114.628C726.496 113.813 726.856 113.065 727.301 112.379C727.747 111.695 728.284 111.122 728.916 110.658C729.547 110.197 730.25 109.964 731.029 109.964C731.808 109.964 732.455 110.186 733.089 110.631C733.72 111.076 734.257 111.623 734.703 112.269C735.149 112.918 735.501 113.62 735.761 114.378C736.019 115.137 736.151 115.812 736.151 116.405C736.151 117.627 735.697 118.597 734.786 119.321C733.876 120.042 732.59 120.403 730.919 120.403H730.922Z" fill="#52100F"/>
<path d="M772.81 128.65C770.659 126.707 767.022 124.885 761.904 123.18V122.958C764.501 122.995 766.799 122.596 768.803 121.765C770.806 120.931 772.402 119.664 773.589 117.962C774.776 116.26 775.369 114.185 775.369 111.741C775.369 108.334 774.22 105.587 771.918 103.494C769.617 101.403 766.056 100.355 761.235 100.355C758.23 100.355 755.428 100.865 752.834 101.883C750.237 102.902 748.086 104.614 746.38 107.018C745.685 108.021 745.067 109.2 744.522 110.548C745.062 112.095 745.58 113.759 746.069 115.525C746.805 118.182 747.398 120.998 747.833 123.898C748.209 126.415 748.309 128.447 748.491 132.51C748.491 132.51 748.559 134.035 748.037 135.981C747.901 136.498 747.683 137.155 747.146 137.793C746.858 138.133 746.563 138.366 746.351 138.514C747.463 139.495 748.722 139.792 750.624 139.792C751.698 139.792 752.649 139.832 753.868 139.516C755.646 139.055 756.07 138.385 756.17 138.211C756.358 137.886 756.406 137.589 756.468 137.211C756.648 136.104 756.36 135.22 756.344 134.882C756.293 133.772 755.874 132.183 755.727 130.87C755.579 129.556 755.394 128.278 755.171 127.037C754.948 125.796 754.706 124.751 754.448 123.898H754.671C756.709 127.822 758.963 131.446 760.706 133.705C762.449 135.965 764.184 137.546 765.908 138.452C767.632 139.361 769.458 139.814 771.389 139.814C772.947 139.814 774.172 139.387 775.061 138.535C775.952 137.683 776.395 136.517 776.395 135.037C776.395 133.076 774.958 130.591 772.807 128.645L772.81 128.65ZM760.236 117.627C758.195 117.627 756.618 117.182 755.506 116.295C754.394 115.405 753.836 114.26 753.836 112.851C753.836 111.741 754.142 110.723 754.754 109.795C755.367 108.871 756.229 108.12 757.341 107.546C758.452 106.973 759.79 106.686 761.348 106.686C763.461 106.686 765.022 107.177 766.021 108.158C767.022 109.139 767.522 110.371 767.522 111.851C767.522 113.036 767.197 114.054 766.547 114.906C765.897 115.759 765.035 116.423 763.961 116.906C762.884 117.388 761.643 117.627 760.233 117.627H760.236Z" fill="#52100F"/>
<path d="M647.419 97.6913C652.393 97.6913 656.056 98.8652 658.409 101.213C660.762 103.561 661.938 106.638 661.938 110.449C661.938 113.068 661.331 115.338 660.117 117.26C658.903 119.184 657.254 120.674 655.173 121.733C653.092 122.791 650.739 123.319 648.118 123.319C647.116 123.319 646.055 123.223 644.938 123.03C643.818 122.837 642.663 122.491 641.468 121.99L641.93 120.604C642.239 121.492 642.499 122.577 642.711 123.866C642.924 125.155 643.096 126.482 643.232 127.849C643.367 129.216 643.434 130.476 643.434 131.631C643.434 134.209 642.856 136.182 641.699 137.546C640.541 138.913 638.807 139.596 636.494 139.596C634.719 139.596 633.333 139.143 632.329 138.24C631.324 137.337 630.623 135.855 630.218 133.796C629.812 131.738 629.611 128.996 629.611 125.571C629.611 120.529 629.901 116.22 630.478 112.642C631.056 109.063 631.923 106.214 633.081 104.1C634.198 102.138 635.973 100.578 638.401 99.4254C640.829 98.2702 643.837 97.694 647.425 97.694L647.419 97.6913ZM645.915 115.413C647.919 115.413 649.579 114.893 650.889 113.856C652.2 112.816 652.855 111.374 652.855 109.527C652.855 108.334 652.468 107.343 651.698 106.555C650.927 105.767 649.654 105.37 647.881 105.37C646.53 105.37 645.335 105.66 644.296 106.236C643.254 106.812 642.454 107.573 641.895 108.517C641.336 109.46 641.057 110.508 641.057 111.663C641.057 112.818 641.463 113.732 642.271 114.405C643.079 115.078 644.296 115.416 645.915 115.416V115.413Z" fill="#52100F"/>
<path d="M686.555 123.641C686.324 121.559 685.985 119.503 685.542 117.471C685.099 115.442 684.548 113.507 683.893 111.666C682.698 108.3 681.175 105.756 679.325 104.041C677.474 102.323 675.372 101.465 673.022 101.465C671.209 101.465 669.581 101.779 668.134 102.403C666.689 103.028 665.29 104.025 663.941 105.397C663.59 105.753 663.235 106.142 662.878 106.557C663.187 107.63 663.342 108.785 663.342 110.028C663.342 112.39 663.12 114.727 662.282 116.673C661.433 118.64 659.223 121.065 657.211 122.159C656.521 122.534 655.288 123.362 654.611 123.566C654.072 124.062 653.43 124.743 653.255 125.244C652.6 127.117 652.906 126.11 652.578 127.812C652.251 129.513 652.087 131.057 652.087 132.446C652.087 135.222 652.597 137.139 653.62 138.197C654.641 139.256 656.115 139.784 658.046 139.784C659.588 139.784 660.853 139.524 661.836 139.004C662.819 138.484 663.608 137.693 664.207 136.635C664.803 135.576 665.257 134.3 665.566 132.807C665.829 131.738 666.05 130.545 666.23 129.248C666.461 129.272 666.692 129.302 666.928 129.32C668.644 129.46 670.301 129.495 671.902 129.425C672.181 129.412 672.45 129.396 672.713 129.377C672.748 130.248 672.812 131.097 672.914 131.923C673.183 134.354 673.792 137.139 674.931 138.197C676.067 139.256 677.619 139.784 679.588 139.784C681.863 139.784 683.635 139.098 684.908 137.728C686.181 136.359 686.912 133.016 686.912 129.79C686.912 127.777 686.796 125.729 686.565 123.646L686.555 123.641ZM674.407 120.387C673.365 121.341 671.883 121.819 669.955 121.819C668.488 121.819 667.341 121.454 666.514 120.725C665.684 119.996 665.271 119.042 665.271 117.863C665.271 117.064 665.416 116.214 665.703 115.311C665.993 114.408 666.415 113.558 666.976 112.759C667.535 111.961 668.182 111.32 668.915 110.832C669.648 110.347 670.457 110.103 671.343 110.103C672.076 110.103 672.732 110.27 673.309 110.599C673.886 110.929 674.378 111.39 674.783 111.98C675.189 112.569 675.487 113.239 675.68 113.984C675.874 114.732 675.97 115.504 675.97 116.3C675.97 118.069 675.449 119.433 674.407 120.387Z" fill="#52100F"/>
<path d="M715.785 106.756C714.88 107.144 713.908 107.41 712.861 107.536C710.239 107.849 707.892 107.15 706.128 106.49C706.114 106.858 706.103 107.236 706.103 107.632C706.103 108.742 706.141 109.994 706.214 111.379C706.289 112.768 706.38 114.22 706.493 115.737C706.603 117.254 706.724 118.744 706.855 120.208C706.984 121.671 707.124 123.03 707.272 124.29H707.049C705.491 119.551 704.052 115.571 702.736 112.349C701.957 110.444 701.194 108.769 700.447 107.311C699.121 107.844 697.695 108.308 696.145 108.71C694.7 109.085 693.172 109.27 691.52 109.27C690.862 109.27 690.183 109.24 689.482 109.181C687.645 109.029 685.864 108.404 683.944 107.244C683.837 107.713 683.737 108.2 683.646 108.715C684.28 109.988 684.852 111.414 685.357 112.99C686.001 115 686.549 117.142 686.987 119.353C687.003 119.441 687.027 119.559 687.057 119.707C687.094 119.908 687.736 123.282 687.983 126.075C688.276 129.382 688.496 131.885 687.621 134.863C687.059 136.772 686.243 138.216 685.649 139.127C687.683 139.806 689.369 139.838 690.398 139.773C692.353 139.65 693.218 139.109 693.497 138.918C694.026 138.559 694.477 138.085 694.851 137.498C695.815 135.981 696.365 132.671 696.365 129.117C696.365 127.86 696.328 126.48 696.255 124.979C696.18 123.48 696.07 121.979 695.922 120.481C695.774 118.983 695.589 117.546 695.366 116.177C695.143 114.807 694.92 113.623 694.697 112.623H694.92C696.145 116.844 697.294 120.47 698.371 123.507C699.446 126.544 700.477 129.069 701.46 131.087C702.443 133.105 703.332 135.313 704.258 136.495C705.185 137.68 706.141 138.522 707.124 139.023C708.107 139.521 709.154 139.773 710.269 139.773C712.272 139.773 713.792 139.144 714.832 137.886C715.871 136.629 716.623 134.107 716.959 131.532C717.292 128.959 717.458 125.71 717.458 121.786C717.458 117.27 717.16 113.384 716.567 110.125C716.344 108.895 716.083 107.772 715.788 106.75L715.785 106.756Z" fill="#52100F"/>
<path d="M722.758 76.2201C722.68 76.1344 722.613 76.0379 722.559 75.9307C722.218 75.2392 722.105 74.5423 722.102 73.7785C721.608 72.8967 721.396 71.9157 720.794 71.0795C720.378 70.5006 719.873 69.9886 719.46 69.4044C719.328 69.2194 718.885 68.5306 718.952 68.552C718.41 68.3832 718.074 68.0374 717.905 67.6274C717.792 67.5631 717.676 67.5014 717.561 67.4317C717.013 67.0994 716.583 66.7241 716.237 66.3221C715.622 66.0997 715.104 65.7968 714.685 65.4242C714.013 65.5395 713.264 65.4859 712.442 65.1803C710.742 64.5505 709.047 63.8295 707.318 63.2399C707.235 63.2372 707.154 63.2399 707.071 63.2291C706.023 63.1085 704.968 63.1193 703.921 63.0013C703.166 62.9156 702.602 62.8164 701.917 62.5993C701.861 62.5805 701.756 62.5564 701.63 62.5296C701.474 62.5752 701.305 62.602 701.117 62.602C700.808 62.602 700.542 62.5323 700.322 62.4144C700.222 62.4197 700.123 62.4224 700.024 62.417C699.806 62.4063 699.602 62.3581 699.411 62.2884C698.208 62.4304 697.002 62.6663 695.748 62.9263C692.012 63.6982 687.39 64.0064 683.459 65.2581C682.288 65.9281 681.023 66.3168 679.779 66.901C679.634 66.968 679.492 67.0136 679.349 67.0645C677.582 68.6405 675.974 70.3558 674.752 72.4142C674.032 73.6284 673.551 74.931 673.081 76.2362C672.767 77.6541 672.643 79.0558 672.759 80.4736C673.248 81.3849 673.914 82.1649 674.574 82.9502C677.483 83.7623 678.369 87.2144 677.239 89.6426C677.381 92.1245 677.107 94.7913 677.059 97.1633C677.201 97.3349 677.341 97.5144 677.469 97.7128C678.203 98.8572 678.592 100.087 679.446 101.143C679.927 101.738 680.432 102.323 680.947 102.896C681.084 103.001 681.229 103.095 681.364 103.205C681.673 103.392 681.963 103.612 682.223 103.877C682.414 104.084 682.666 104.346 682.927 104.617C684.364 105.512 685.859 106.311 687.302 107.198C687.67 107.268 688.027 107.383 688.36 107.541C689.335 107.635 690.299 107.836 691.279 107.871C691.29 107.865 691.298 107.857 691.311 107.852C692.74 107.123 694.217 106.874 695.802 106.836C695.966 106.758 696.127 106.681 696.288 106.614C697.088 106.284 697.905 106.075 698.729 105.823C699.637 105.544 700.469 105.086 701.401 104.88C701.584 104.839 701.759 104.829 701.922 104.839C702.18 104.719 702.446 104.614 702.72 104.534C702.981 104.11 703.437 103.805 704.09 103.805C704.742 103.805 705.159 104.084 705.424 104.478C705.763 104.571 706.088 104.711 706.383 104.893C706.523 104.906 706.671 104.939 706.824 104.995C707.949 105.405 709.088 105.413 710.245 105.662C711.207 105.869 712.195 105.992 713.181 106.04C714.338 105.097 715.788 104.504 717.257 103.821C717.384 103.762 717.515 103.7 717.647 103.639C717.966 102.709 718.595 101.923 719.245 101.151C719.718 100.589 720.249 100.028 720.829 99.53C720.072 96.043 720.008 92.1513 719.935 89.3559C719.806 88.8359 719.739 88.3267 719.672 87.7424C719.642 87.528 719.624 87.3135 719.605 87.0991C718.52 84.7673 719.368 82.5642 721.23 81.2321C721.238 81.2187 721.246 81.2053 721.254 81.1919C721.27 81.0981 721.286 81.0043 721.302 80.9132C721.399 80.3611 721.67 79.8143 721.917 79.3185C722.065 79.0263 722.25 78.7529 722.452 78.4903C722.46 78.4286 722.47 78.367 722.486 78.3053C722.492 78.2812 722.521 78.1472 722.543 78.048C722.551 77.9676 722.567 77.8336 722.57 77.8041C722.586 77.5254 722.586 77.2467 722.586 76.9679C722.586 76.6945 722.653 76.4426 722.766 76.2228C722.766 76.2201 722.766 76.2148 722.766 76.2121L722.758 76.2201Z" fill="white"/>
<path d="M703.104 103.59C700.746 102.32 698.436 101.09 695.659 101.454C694.217 101.645 693.07 102.403 691.985 103.293C691.47 103.716 690.978 104.172 690.463 104.598C689.308 105.552 688.263 105.518 687.283 104.378C686.754 103.762 686.321 103.041 685.953 102.315C685.599 101.618 685.712 100.873 686.12 100.2C686.294 99.9132 686.265 99.7283 686.018 99.4817C685.424 98.884 684.871 98.2434 684.31 97.6163C684.205 97.4983 684.084 97.367 684.049 97.225C684.012 97.0641 684.065 96.8819 684.081 96.7103C684.248 96.7532 684.471 96.7452 684.57 96.8524C684.978 97.2893 685.336 97.769 685.733 98.2139C686.144 98.6723 686.579 99.1038 686.971 99.5139C689.455 97.9593 691.813 98.3024 694.04 99.8248C694.794 100.342 695.316 100.409 696.086 99.932C698.898 98.1845 701.973 97.962 705.15 98.5597C706.649 98.8411 708.067 98.6669 709.388 97.9245C710.839 97.1097 712.348 96.571 714.043 96.579C715.042 96.5817 715.678 95.9465 716.129 95.1049C716.266 94.8503 716.344 94.3759 716.758 94.6064C717.128 94.8128 716.873 95.2014 716.704 95.4372C716.301 96.0001 715.842 96.5227 715.393 97.0802C715.581 97.3027 715.874 97.6029 716.116 97.9379C716.825 98.9269 716.774 99.9668 716.154 100.95C715.517 101.956 714.502 102.264 713.387 102.041C712.641 101.894 711.924 101.572 711.212 101.277C709.77 100.682 708.392 99.7899 706.896 99.5031C704.294 99.0046 701.616 98.5088 698.976 99.3852C698.039 99.6961 697.15 100.149 696.293 100.653C697.048 100.749 697.827 100.76 698.554 100.958C699.564 101.237 700.558 101.604 701.519 102.023C703.324 102.811 705.081 103.703 706.891 104.475C708.865 105.317 710.965 105.544 713.095 105.467C714.263 105.424 715.27 104.925 716.154 104.183C717.389 103.146 718.409 101.923 719.288 100.573C719.395 100.406 719.707 100.208 719.838 100.256C720.158 100.374 720.018 100.664 719.884 100.873C718.694 102.722 717.33 104.413 715.377 105.518C714.37 106.088 713.25 106.217 712.106 106.177C709.574 106.088 707.148 105.552 704.914 104.341C704.291 104.003 703.743 104.084 703.193 104.362C699.962 106.005 696.468 106.785 692.971 107.611C690.033 108.302 687.452 107.643 684.962 106.131C683.303 105.124 681.723 104.022 680.287 102.711C679.347 101.856 678.323 101.092 677.386 100.235C676.798 99.6961 676.443 99.0287 676.473 98.1603C676.591 94.668 676.658 91.1757 676.774 87.6834C676.806 86.6622 676.838 86.6837 675.925 86.1852C673.051 84.6172 670.981 82.39 670.683 79.0102C670.317 74.872 671.644 71.385 675.05 68.7852C678.78 65.9388 682.98 64.1538 687.522 63.0898C691.625 62.1276 695.791 62.0338 699.962 62.3393C702.784 62.5457 705.636 62.7092 708.397 63.2801C713.175 64.2691 717.51 66.2095 720.494 70.3424C722.258 72.7868 723.187 75.4536 722.615 78.509C722.314 80.1172 721.498 81.4331 720.249 82.4463C719.508 83.0466 719.341 83.7328 719.454 84.6226C720.029 89.1307 720.547 93.6442 721.154 98.1469C721.256 98.9108 721.192 99.5031 720.59 100.112C720.531 99.7497 720.467 99.4415 720.434 99.1306C720.233 97.0883 720.061 95.0406 719.833 93.0009C719.583 90.7683 719.288 88.5411 719.011 86.3111C718.936 85.7027 718.882 85.0863 718.769 84.4859C718.576 83.4621 718.904 82.6875 719.709 82.0308C721.079 80.9185 721.89 79.4739 722.057 77.7023C722.231 75.8503 721.879 74.0947 721.004 72.4598C719.105 68.9165 716.148 66.6169 712.429 65.1964C708.693 63.7705 704.82 63.1702 700.845 63.3444C698.2 63.4596 695.624 64.0814 693.081 64.7917C689.539 65.778 686.155 67.1449 683.093 69.214C681.24 70.4657 679.588 71.9291 678.412 73.8615C676.535 76.9438 676.827 80.1681 679.274 82.8242C679.9 83.5049 680.628 84.1026 681.361 84.6735C681.745 84.9737 681.954 85.29 681.96 85.767C681.973 86.9088 682.013 88.0479 682.016 89.1897C682.022 91.1382 681.992 93.0867 682.013 95.0352C682.019 95.6061 681.882 96.0591 681.433 96.4262C680.029 97.5814 679.51 99.0689 679.852 100.846C679.905 101.127 680.002 101.454 680.195 101.645C682.489 103.899 685.099 105.684 688.113 106.86C689.412 107.367 690.734 107.313 692.06 107.061C695.434 106.421 698.772 105.649 701.917 104.22C702.253 104.068 702.58 103.896 702.911 103.73C702.967 103.7 703.018 103.657 703.117 103.593L703.104 103.59ZM694.04 100.661C692.971 99.5809 690.812 98.9698 689.096 99.3021C688.357 99.4442 687.739 99.7712 687.242 100.331C686.464 101.21 686.383 101.966 687.009 102.945C687.272 103.355 687.597 103.735 687.935 104.086C688.472 104.641 689.036 104.689 689.686 104.266C689.907 104.124 690.089 103.928 690.293 103.759C691.534 102.73 692.775 101.704 694.037 100.661H694.04ZM708.274 99.2056C708.483 99.3155 708.663 99.4227 708.851 99.5058C709.971 100.01 711.08 100.546 712.222 100.996C712.764 101.21 713.368 101.339 713.951 101.369C715.122 101.428 715.931 100.581 715.936 99.3959C715.941 98.3908 714.864 97.241 713.903 97.2652C712.861 97.292 711.838 97.442 710.89 97.9191C710.046 98.3426 709.195 98.7527 708.274 99.2029V99.2056Z" fill="#52100F" stroke="#511212" stroke-width="0.54" stroke-miterlimit="10"/>
<path d="M699.033 87.611C699.301 87.6593 699.755 87.6753 700.155 87.8281C701.431 88.3213 702.688 88.2248 703.985 87.9085C704.707 87.7316 705.473 87.6566 706.219 87.6593C707.143 87.6619 707.691 88.2489 707.809 89.1682C707.941 90.2055 707.637 91.1221 706.985 91.9128C705.723 93.4458 704.149 94.4616 702.129 94.6948C701.192 94.802 700.311 94.6117 699.473 94.2017C698.434 93.6897 697.531 92.9983 696.785 92.1165C696.035 91.2293 695.649 90.2135 696.154 89.1012C696.664 87.9755 697.701 87.6512 699.033 87.611Z" fill="#52100F"/>
<path d="M709.079 87.4797C706.794 87.1125 705.54 85.6813 705.083 83.5639C704.581 81.2295 705.088 79.104 706.928 77.4691C708.768 75.8342 711.354 76.1317 712.812 78.115C714.163 79.951 714.246 81.9772 713.562 84.0839C713.519 84.2152 713.465 84.3465 713.419 84.4779C713.414 84.4913 713.422 84.5127 713.43 84.5717C713.562 84.5529 713.707 84.4886 713.822 84.5208C714.002 84.569 714.166 84.6843 714.335 84.77C714.204 84.9094 714.088 85.1479 713.94 85.1747C711.961 85.5017 710.586 86.6971 709.415 88.2141C709.308 88.3535 709.052 88.3829 708.867 88.466C708.864 88.2623 708.832 88.0533 708.867 87.8549C708.886 87.729 708.999 87.6191 709.079 87.4797ZM711.515 85.2176C710.363 85.097 709.477 84.569 708.905 83.5612C708.365 82.6098 708.462 82.2694 709.428 81.7735C709.78 81.594 710.14 81.4305 710.597 81.2107C710.092 81.015 709.697 80.881 709.318 80.7122C708.768 80.4683 708.663 80.1011 709.02 79.6267C709.251 79.3185 709.517 79.0344 709.794 78.7663C710.218 78.3563 710.664 77.973 711.137 77.5468C711.01 77.4691 710.943 77.4209 710.868 77.3834C709.557 76.7669 707.941 77.177 706.893 78.442C705.679 79.9054 705.335 81.602 705.728 83.4353C706.16 85.4588 707.414 86.5631 709.45 86.7936C709.571 86.807 709.732 86.7802 709.818 86.7051C710.376 86.2307 710.922 85.7403 711.512 85.2176H711.515Z" fill="#52100F"/>
<path d="M690.224 85.7805C689.654 84.6226 689.439 83.5211 689.52 82.3578C689.695 79.8599 691.44 77.8497 693.788 77.4772C694.84 77.311 695.818 77.5683 696.712 78.1204C700.064 80.1842 700.096 85.6143 696.734 87.6566C696.025 88.0881 695.152 88.2543 694.282 88.5706C694.298 88.6805 694.389 88.9378 694.362 89.1843C694.341 89.372 694.172 89.5408 694.07 89.7204C693.943 89.5783 693.737 89.455 693.699 89.2942C693.323 87.5843 692.19 86.614 690.371 86.4907C690.003 86.4666 689.627 86.5122 689.265 86.4559C689.101 86.4318 688.961 86.2415 688.811 86.1262C688.948 86.011 689.072 85.826 689.225 85.7966C689.512 85.7429 689.815 85.7805 690.218 85.7805H690.224ZM697.719 85.6625C697.472 85.6786 697.279 85.6947 697.088 85.7001C695.638 85.7429 694.545 85.1372 694.158 84.0839C693.892 83.3629 694.013 83.0547 694.703 82.7384C695.138 82.5401 695.582 82.3578 696.164 82.1032C695.595 81.8272 695.176 81.6154 694.749 81.4171C694.196 81.1571 694.088 80.8837 694.346 80.3262C694.663 79.6481 695.219 79.2461 695.907 78.9995C696.073 78.9406 696.242 78.8896 696.465 78.8173C695.036 77.7747 693.095 77.9328 691.773 79.1309C690.038 80.7041 689.652 83.6175 690.938 85.5982C691.056 85.7805 691.293 85.9332 691.507 86.0029C692.364 86.2817 693.108 86.7132 693.686 87.4154C693.766 87.5146 693.892 87.6164 694.013 87.6432C695.289 87.922 697.12 86.9571 697.719 85.6572V85.6625Z" fill="#52100F"/>
<path d="M707.664 71.5673C709.112 71.8782 710.535 72.2025 711.416 73.5426C711.548 73.7436 711.516 74.0518 711.559 74.3091C711.311 74.3198 711.043 74.4056 710.825 74.3332C709.711 73.9634 708.615 73.5453 707.42 73.4729C707.076 73.4515 706.7 73.2772 706.416 73.0682C705.894 72.6849 705.986 72.0792 706.587 71.8272C706.92 71.6879 707.294 71.653 707.664 71.5673Z" fill="#52100F"/>
<path d="M696.436 73.0334C696.089 73.3523 695.858 73.682 695.541 73.824C695.017 74.0626 694.427 74.1403 693.89 74.3547C693.229 74.6201 692.6 74.9712 691.945 75.2526C691.744 75.3384 691.497 75.3169 691.271 75.3437C691.287 75.1373 691.244 74.9042 691.325 74.7273C691.945 73.3336 693.092 72.5724 694.523 72.232C694.907 72.1409 695.367 72.2105 695.753 72.3312C695.987 72.4062 696.145 72.7198 696.436 73.0334Z" fill="#52100F"/>
<path d="M694.04 100.661C692.78 101.704 691.537 102.733 690.296 103.759C690.092 103.928 689.909 104.121 689.689 104.266C689.039 104.689 688.475 104.641 687.938 104.086C687.597 103.735 687.275 103.355 687.011 102.945C686.383 101.966 686.466 101.21 687.245 100.331C687.739 99.7712 688.36 99.4469 689.098 99.3021C690.812 98.9725 692.973 99.5809 694.042 100.661H694.04Z" fill="white"/>
<path d="M708.274 99.2056C709.192 98.7553 710.044 98.3453 710.89 97.9218C711.84 97.4447 712.861 97.2946 713.903 97.2678C714.865 97.2437 715.941 98.3962 715.936 99.3986C715.931 100.583 715.122 101.43 713.951 101.371C713.369 101.342 712.764 101.213 712.222 100.999C711.08 100.548 709.971 100.012 708.851 99.5085C708.661 99.4227 708.481 99.3155 708.274 99.2083V99.2056Z" fill="white"/>
<path d="M711.515 85.2176C710.924 85.7402 710.379 86.2334 709.821 86.7051C709.735 86.7802 709.571 86.807 709.453 86.7936C707.417 86.5631 706.163 85.4588 705.73 83.4352C705.338 81.602 705.682 79.9054 706.896 78.442C707.946 77.177 709.56 76.7642 710.871 77.3833C710.946 77.4182 711.013 77.4691 711.139 77.5468C710.667 77.973 710.218 78.3589 709.797 78.7663C709.52 79.0343 709.254 79.3211 709.023 79.6267C708.666 80.1011 708.771 80.4683 709.321 80.7122C709.7 80.881 710.095 81.015 710.6 81.2107C710.143 81.4304 709.783 81.5939 709.431 81.7735C708.464 82.2694 708.365 82.6097 708.908 83.5612C709.48 84.569 710.369 85.097 711.518 85.2176H711.515Z" fill="white"/>
<path d="M697.722 85.6652C697.125 86.9651 695.294 87.93 694.015 87.6513C693.895 87.6244 693.771 87.5226 693.688 87.4234C693.11 86.7212 692.366 86.2897 691.51 86.011C691.295 85.9413 691.059 85.7885 690.94 85.6062C689.657 83.6256 690.041 80.7122 691.776 79.1389C693.097 77.9408 695.039 77.7827 696.467 78.8253C696.245 78.8977 696.075 78.9459 695.909 79.0076C695.221 79.2541 694.663 79.6535 694.349 80.3343C694.088 80.8918 694.195 81.1651 694.751 81.4251C695.176 81.6235 695.595 81.8352 696.167 82.1113C695.581 82.3632 695.138 82.5454 694.706 82.7465C694.015 83.0627 693.895 83.371 694.161 84.0919C694.547 85.1453 695.643 85.751 697.091 85.7081C697.281 85.7027 697.475 85.6867 697.722 85.6706V85.6652Z" fill="white"/>
<path d="M699.153 90.6959C701.066 90.6129 702.776 91.1275 704.227 92.4166C704.764 92.8964 704.758 92.9875 704.133 93.2957C701.651 94.5179 698.874 93.5423 697.319 91.4625C696.924 90.9345 697.222 90.7629 697.649 90.7093C698.144 90.6477 698.651 90.6959 699.153 90.6959Z" fill="#B57138"/>
</g>
<g clip-path="url(#clip2_264_686)">
<path d="M465.478 102.578C471.246 97.6937 471.665 90.0141 470.44 83.1276C465.039 66.6718 447.428 59.1849 431.059 58.527C413.948 56.875 395.716 58.7401 381.54 69.5309C376.153 73.4046 371.694 78.6371 370.603 85.3739C368.498 94.4944 371.926 104.834 380.453 109.376C382.069 110.735 380.633 114.678 380.951 116.752C380.84 132.44 377.821 131.87 390.998 142.304C397.151 146.907 403.947 151.914 412.033 150.857C419.142 149.957 426.225 147.84 432.676 144.727C433.355 144.386 433.921 144.323 434.667 144.673C437.617 146.053 440.733 146.926 443.928 147.553C451.204 148.977 458.754 145.723 462.723 139.564C464.087 136.84 467.029 135.184 467.689 132.081C468.379 125.629 466.249 118.99 466.024 112.475C466.305 110.095 464.225 103.926 465.478 102.578Z" fill="#FFF5E9"/>
<path d="M465.148 89.0711C465.015 88.9194 464.902 88.7513 464.812 88.5648C464.231 87.3536 464.04 86.1341 464.034 84.7978C463.193 83.2524 462.83 81.5349 461.807 80.0715C461.097 79.0591 460.24 78.1614 459.536 77.1407C459.312 76.8169 458.556 75.6138 458.674 75.6507C457.754 75.3555 457.179 74.7468 456.892 74.0315C456.697 73.9168 456.502 73.8122 456.309 73.6913C455.378 73.1113 454.644 72.4513 454.057 71.7504C453.011 71.363 452.129 70.8281 451.415 70.1784C450.275 70.3813 448.999 70.285 447.598 69.75C444.706 68.6474 441.822 67.3849 438.881 66.354C438.741 66.3478 438.602 66.354 438.462 66.3355C436.68 66.1224 434.885 66.1449 433.1 65.9379C431.818 65.7903 430.856 65.612 429.689 65.2349C429.595 65.2042 429.414 65.1611 429.201 65.114C428.937 65.1939 428.647 65.241 428.329 65.241C427.802 65.241 427.353 65.1181 426.976 64.9131C426.805 64.9213 426.637 64.9275 426.467 64.9193C426.098 64.9008 425.751 64.8147 425.425 64.6918C423.378 64.9418 421.323 65.3538 419.189 65.8067C412.833 67.1574 404.966 67.6964 398.278 69.8894C396.286 71.0617 394.134 71.7422 392.017 72.7649C391.771 72.8838 391.529 72.9596 391.285 73.0539C388.278 75.8126 385.542 78.8152 383.464 82.4203C382.239 84.5457 381.421 86.8248 380.619 89.1141C380.086 91.5941 379.872 94.0494 380.069 96.5314C380.902 98.128 382.034 99.4909 383.158 100.866C388.108 102.289 389.615 108.331 387.691 112.583C387.936 116.93 387.468 121.599 387.384 125.75C387.626 126.047 387.862 126.362 388.081 126.713C389.33 128.719 389.993 130.871 391.445 132.718C392.264 133.759 393.121 134.782 393.997 135.786C394.229 135.969 394.475 136.137 394.702 136.323C395.227 136.649 395.722 137.036 396.167 137.502C396.489 137.862 396.92 138.326 397.367 138.799C399.812 140.365 402.357 141.763 404.813 143.318C405.44 143.441 406.045 143.64 406.614 143.919C408.273 144.083 409.912 144.435 411.579 144.495C411.598 144.485 411.614 144.474 411.633 144.464C414.065 143.189 416.576 142.753 419.273 142.687C419.55 142.548 419.827 142.414 420.1 142.3C421.462 141.722 422.851 141.359 424.254 140.918C425.8 140.433 427.218 139.627 428.799 139.266C429.113 139.195 429.408 139.176 429.687 139.195C430.126 138.984 430.577 138.799 431.045 138.658C431.49 137.914 432.264 137.381 433.373 137.381C434.483 137.381 435.193 137.867 435.644 138.559C436.22 138.725 436.772 138.965 437.277 139.287C437.515 139.311 437.765 139.365 438.025 139.463C439.941 140.183 441.875 140.197 443.847 140.633C445.481 140.996 447.163 141.209 448.841 141.297C450.81 139.648 453.278 138.611 455.778 137.414C455.994 137.311 456.217 137.2 456.439 137.092C456.98 135.464 458.053 134.087 459.157 132.737C459.961 131.753 460.865 130.769 461.854 129.898C460.568 123.79 460.455 116.98 460.332 112.085C460.11 111.173 459.998 110.282 459.883 109.261C459.833 108.888 459.803 108.511 459.768 108.136C457.92 104.053 459.366 100.198 462.535 97.8636C462.549 97.8411 462.561 97.8165 462.578 97.7939C462.607 97.63 462.633 97.4639 462.66 97.3041C462.822 96.3367 463.288 95.3796 463.708 94.5126C463.956 93.9982 464.276 93.5227 464.619 93.0615C464.633 92.9529 464.652 92.8463 464.676 92.7398C464.686 92.6988 464.734 92.461 464.771 92.2909C464.785 92.1515 464.812 91.9179 464.816 91.8666C464.844 91.3789 464.842 90.889 464.842 90.4012C464.842 89.9237 464.955 89.483 465.148 89.0957C465.148 89.0895 465.148 89.0834 465.148 89.0772V89.0711Z" fill="white"/>
<path d="M431.706 136.991C427.693 134.768 423.765 132.612 419.035 133.249C416.582 133.579 414.627 134.911 412.783 136.469C411.906 137.211 411.071 138.008 410.195 138.754C408.23 140.426 406.454 140.363 404.786 138.369C403.883 137.291 403.149 136.028 402.521 134.755C401.918 133.534 402.109 132.228 402.804 131.052C403.102 130.548 403.053 130.228 402.632 129.793C401.621 128.746 400.684 127.627 399.726 126.526C399.547 126.321 399.34 126.092 399.285 125.842C399.221 125.561 399.313 125.241 399.34 124.938C399.623 125.014 400.005 125 400.173 125.184C400.866 125.946 401.473 126.791 402.15 127.568C402.848 128.369 403.59 129.127 404.259 129.845C408.486 127.125 412.5 127.723 416.289 130.392C417.573 131.296 418.461 131.413 419.77 130.576C424.555 127.516 429.79 127.127 435.195 128.172C437.744 128.666 440.156 128.361 442.407 127.061C444.876 125.635 447.442 124.692 450.326 124.704C452.029 124.711 453.108 123.598 453.877 122.122C454.109 121.677 454.244 120.843 454.947 121.247C455.577 121.608 455.146 122.288 454.857 122.702C454.17 123.688 453.391 124.604 452.626 125.577C452.948 125.969 453.444 126.494 453.852 127.08C455.058 128.81 454.974 130.632 453.916 132.351C452.835 134.11 451.104 134.651 449.208 134.261C447.939 134.001 446.716 133.437 445.508 132.925C443.053 131.884 440.71 130.318 438.163 129.818C433.734 128.945 429.179 128.076 424.682 129.611C423.089 130.156 421.577 130.949 420.116 131.829C421.403 131.997 422.726 132.015 423.962 132.366C425.681 132.851 427.373 133.495 429.008 134.229C432.079 135.606 435.07 137.17 438.15 138.522C441.51 139.996 445.083 140.394 448.708 140.258C450.693 140.185 452.41 139.311 453.916 138.012C456.018 136.198 457.758 134.056 459.247 131.689C459.429 131.4 459.959 131.054 460.182 131.138C460.728 131.343 460.488 131.851 460.258 132.216C458.233 135.454 455.912 138.414 452.589 140.349C450.876 141.347 448.97 141.574 447.024 141.504C442.714 141.351 438.589 140.408 434.782 138.289C433.72 137.696 432.789 137.838 431.851 138.328C426.354 141.205 420.41 142.57 414.457 144.013C409.459 145.224 405.063 144.068 400.831 141.422C398.009 139.658 395.32 137.729 392.873 135.438C391.275 133.94 389.533 132.603 387.938 131.103C386.937 130.162 386.334 128.99 386.383 127.473C386.586 121.362 386.699 115.246 386.893 109.132C386.951 107.347 387.004 107.384 385.452 106.511C380.562 103.764 377.038 99.868 376.531 93.949C375.909 86.7038 378.168 80.5962 383.96 76.0483C390.309 71.0638 397.457 67.9403 405.184 66.0752C412.168 64.3884 419.253 64.2265 426.354 64.7594C431.156 65.1201 436.013 65.4071 440.706 66.4052C448.837 68.135 456.213 71.5331 461.292 78.7701C464.297 83.0516 465.876 87.7163 464.902 93.0656C464.389 95.8817 463.002 98.1833 460.873 99.9582C459.612 101.01 459.329 102.209 459.522 103.768C460.5 111.659 461.38 119.564 462.416 127.449C462.59 128.785 462.479 129.822 461.454 130.888C461.355 130.252 461.243 129.713 461.189 129.168C460.845 125.592 460.551 122.009 460.166 118.437C459.743 114.528 459.239 110.628 458.767 106.726C458.638 105.658 458.547 104.584 458.354 103.529C458.024 101.737 458.582 100.378 459.954 99.2306C462.285 97.2815 463.663 94.7524 463.95 91.6514C464.25 88.4111 463.651 85.3368 462.157 82.4715C458.927 76.2655 453.895 72.2423 447.565 69.7562C441.207 67.2598 434.618 66.2084 427.853 66.5138C423.353 66.7167 418.972 67.8071 414.642 69.047C408.611 70.7769 402.856 73.1666 397.644 76.7923C394.491 78.9832 391.681 81.5472 389.679 84.9289C386.485 90.3233 386.984 95.9719 391.144 100.622C392.21 101.815 393.447 102.862 394.694 103.863C395.351 104.389 395.703 104.941 395.714 105.777C395.736 107.775 395.804 109.771 395.81 111.768C395.82 115.178 395.769 118.591 395.804 122.001C395.814 123.001 395.578 123.792 394.815 124.438C392.428 126.463 391.541 129.064 392.122 132.175C392.214 132.667 392.378 133.241 392.704 133.573C396.61 137.518 401.049 140.644 406.177 142.703C408.388 143.591 410.638 143.497 412.896 143.056C418.638 141.937 424.315 140.584 429.669 138.082C430.241 137.815 430.797 137.514 431.359 137.225C431.457 137.174 431.544 137.1 431.71 136.983L431.706 136.991ZM416.281 131.865C414.461 129.976 410.786 128.906 407.869 129.486C406.611 129.736 405.559 130.306 404.716 131.285C403.391 132.825 403.252 134.147 404.32 135.86C404.767 136.579 405.319 137.243 405.898 137.86C406.81 138.834 407.77 138.918 408.878 138.176C409.251 137.926 409.565 137.586 409.91 137.291C412.02 135.491 414.135 133.692 416.279 131.865H416.281ZM440.503 129.316C440.858 129.509 441.166 129.693 441.488 129.843C443.393 130.726 445.278 131.665 447.221 132.454C448.146 132.829 449.173 133.054 450.166 133.105C452.16 133.208 453.532 131.726 453.542 129.652C453.553 127.896 451.719 125.879 450.08 125.922C448.306 125.967 446.566 126.233 444.95 127.068C443.514 127.809 442.066 128.527 440.501 129.316H440.503Z" fill="#52100F" stroke="#511212" stroke-width="0.3" stroke-miterlimit="10"/>
<path d="M424.773 109.013C425.228 109.099 426.002 109.124 426.683 109.394C428.855 110.257 430.994 110.087 433.201 109.534C434.432 109.224 435.734 109.095 437.006 109.099C438.577 109.105 439.513 110.13 439.712 111.743C439.935 113.559 439.418 115.164 438.311 116.547C436.161 119.232 433.484 121.011 430.048 121.415C428.455 121.603 426.953 121.271 425.528 120.55C423.76 119.656 422.225 118.441 420.954 116.898C419.678 115.346 419.019 113.569 419.879 111.618C420.746 109.648 422.51 109.079 424.777 109.011L424.773 109.013Z" fill="#52100F"/>
<path d="M441.871 108.784C437.98 108.14 435.845 105.635 435.069 101.93C434.212 97.8431 435.078 94.1211 438.208 91.26C441.34 88.3968 445.738 88.9194 448.224 92.3934C450.523 95.6071 450.662 99.1548 449.502 102.842C449.428 103.074 449.337 103.299 449.259 103.529C449.251 103.553 449.266 103.588 449.278 103.69C449.504 103.656 449.748 103.547 449.947 103.602C450.254 103.688 450.531 103.887 450.822 104.039C450.599 104.283 450.404 104.703 450.15 104.746C446.782 105.316 444.441 107.41 442.45 110.069C442.265 110.315 441.832 110.366 441.516 110.507C441.51 110.151 441.459 109.786 441.512 109.437C441.545 109.218 441.734 109.023 441.875 108.779L441.871 108.784ZM446.017 104.824C444.058 104.611 442.548 103.688 441.572 101.924C440.653 100.26 440.819 99.6631 442.464 98.7962C443.063 98.4805 443.674 98.1956 444.454 97.8124C443.594 97.4701 442.923 97.2344 442.279 96.9393C441.344 96.5109 441.166 95.8694 441.773 95.0393C442.167 94.5003 442.616 94.0002 443.087 93.5309C443.807 92.8156 444.57 92.1413 445.375 91.3953C445.159 91.262 445.044 91.1739 444.915 91.1104C442.685 90.0282 439.935 90.7517 438.15 92.9632C436.083 95.5251 435.498 98.4969 436.167 101.704C436.905 105.246 439.036 107.179 442.501 107.583C442.706 107.607 442.981 107.558 443.129 107.429C444.08 106.601 445.005 105.74 446.012 104.822L446.017 104.824Z" fill="#52100F"/>
<path d="M409.787 105.812C408.819 103.785 408.452 101.856 408.591 99.8189C408.891 95.4472 411.859 91.924 415.854 91.2743C417.645 90.9833 419.308 91.4363 420.83 92.4016C426.533 96.0149 426.588 105.521 420.869 109.097C419.661 109.853 418.176 110.144 416.695 110.696C416.724 110.888 416.878 111.339 416.831 111.77C416.796 112.098 416.507 112.395 416.332 112.706C416.115 112.46 415.764 112.243 415.705 111.962C415.063 108.97 413.134 107.267 410.043 107.054C409.418 107.011 408.778 107.091 408.162 106.994C407.883 106.951 407.648 106.617 407.391 106.416C407.625 106.215 407.834 105.89 408.095 105.838C408.583 105.744 409.102 105.812 409.787 105.812ZM422.543 105.607C422.121 105.633 421.794 105.664 421.468 105.672C419.003 105.746 417.14 104.689 416.48 102.844C416.029 101.581 416.234 101.042 417.407 100.487C418.145 100.139 418.9 99.8189 419.895 99.3762C418.925 98.8925 418.211 98.5236 417.489 98.1751C416.546 97.7201 416.363 97.2426 416.804 96.267C417.341 95.0783 418.291 94.3753 419.46 93.9449C419.743 93.8404 420.033 93.7543 420.412 93.6272C417.983 91.8011 414.677 92.0798 412.429 94.1765C409.477 96.9311 408.821 102.03 411.007 105.498C411.21 105.82 411.612 106.086 411.975 106.207C413.432 106.697 414.699 107.451 415.682 108.683C415.821 108.857 416.033 109.036 416.238 109.081C418.41 109.569 421.526 107.878 422.543 105.605V105.607Z" fill="#52100F"/>
<path d="M439.465 80.9241C441.929 81.4693 444.349 82.0391 445.851 84.3838C446.074 84.7342 446.019 85.2753 446.091 85.7283C445.672 85.7488 445.213 85.8943 444.841 85.7672C442.944 85.1175 441.082 84.3899 439.045 84.2608C438.458 84.2239 437.82 83.9165 437.338 83.5516C436.454 82.8794 436.608 81.8177 437.632 81.3791C438.196 81.1373 438.834 81.0737 439.465 80.9241Z" fill="#52100F"/>
<path d="M420.356 83.4922C419.766 84.0476 419.372 84.6256 418.835 84.8777C417.944 85.2938 416.935 85.4331 416.024 85.8082C414.898 86.2734 413.832 86.8883 412.716 87.3802C412.375 87.5298 411.955 87.4909 411.571 87.538C411.596 87.1752 411.528 86.7715 411.662 86.4579C412.716 84.0169 414.669 82.6847 417.107 82.0883C417.762 81.9284 418.543 82.0493 419.198 82.2625C419.598 82.3916 419.864 82.945 420.356 83.4922Z" fill="#52100F"/>
<path d="M416.279 131.863C414.133 133.692 412.02 135.489 409.91 137.289C409.565 137.584 409.251 137.924 408.878 138.174C407.77 138.916 406.81 138.832 405.898 137.858C405.319 137.241 404.767 136.577 404.32 135.858C403.252 134.143 403.391 132.823 404.716 131.283C405.559 130.304 406.614 129.732 407.869 129.484C410.786 128.904 414.461 129.974 416.281 131.863H416.279Z" fill="white"/>
<path d="M440.503 129.314C442.068 128.525 443.516 127.805 444.952 127.065C446.568 126.231 448.308 125.965 450.082 125.92C451.721 125.879 453.553 127.894 453.544 129.65C453.534 131.726 452.16 133.206 450.168 133.103C449.175 133.052 448.148 132.827 447.223 132.452C445.28 131.663 443.395 130.724 441.49 129.841C441.168 129.691 440.86 129.504 440.505 129.314H440.503Z" fill="white"/>
<path d="M446.017 104.822C445.01 105.738 444.085 106.599 443.133 107.429C442.985 107.558 442.708 107.607 442.505 107.583C439.041 107.179 436.907 105.244 436.171 101.704C435.502 98.4949 436.087 95.5251 438.155 92.9631C439.939 90.7496 442.69 90.0282 444.919 91.1104C445.047 91.1718 445.163 91.26 445.379 91.3952C444.575 92.1433 443.814 92.8156 443.092 93.5309C442.62 93.9982 442.169 94.5003 441.777 95.0393C441.17 95.8694 441.348 96.5109 442.284 96.9392C442.928 97.2344 443.598 97.4701 444.458 97.8124C443.68 98.1956 443.067 98.4826 442.468 98.7961C440.821 99.6631 440.655 100.26 441.576 101.924C442.552 103.688 444.06 104.611 446.021 104.824L446.017 104.822Z" fill="white"/>
<path d="M422.543 105.607C421.526 107.88 418.412 109.571 416.238 109.083C416.033 109.038 415.821 108.859 415.682 108.685C414.699 107.453 413.434 106.699 411.975 106.209C411.612 106.086 411.208 105.82 411.007 105.5C408.821 102.032 409.477 96.9331 412.429 94.1785C414.677 92.0798 417.983 91.8031 420.412 93.6292C420.032 93.7542 419.743 93.8424 419.46 93.9469C418.291 94.3773 417.341 95.0803 416.804 96.269C416.361 97.2446 416.545 97.7221 417.489 98.1771C418.211 98.5256 418.927 98.8924 419.895 99.3782C418.898 99.8209 418.145 100.139 417.407 100.489C416.232 101.044 416.028 101.583 416.48 102.846C417.14 104.691 419.001 105.748 421.468 105.674C421.794 105.664 422.12 105.635 422.543 105.609V105.607Z" fill="white"/>
<path d="M424.98 114.418C428.233 114.274 431.148 115.174 433.611 117.431C434.526 118.269 434.516 118.433 433.453 118.97C429.23 121.112 424.504 119.4 421.86 115.762C421.187 114.836 421.694 114.537 422.422 114.444C423.263 114.336 424.127 114.42 424.98 114.42V114.418Z" fill="#B57138"/>
</g>
<defs>
<clipPath id="clip0_264_686">
<rect width="211" height="55" fill="white" transform="translate(34 79)"/>
</clipPath>
<clipPath id="clip1_264_686">
<rect width="152" height="86" fill="white" transform="translate(627 58)"/>
</clipPath>
<clipPath id="clip2_264_686">
<rect width="101" height="93" fill="white" transform="translate(370 58)"/>
</clipPath>
</defs>
</svg>
