<?xml version="1.0" encoding="UTF-8"?>
<svg id="Capa_2" data-name="Capa 2" xmlns="http://www.w3.org/2000/svg" viewBox="0 0 277.6 195.55">
  <defs>
    <style>
      .cls-1 {
        fill: #112e31;
      }
    </style>
  </defs>
  <g id="Capa_1-2" data-name="Capa 1">
    <path class="cls-1" d="m136.12,179.05v16.5H.07c-.02-.28-.04-.54-.04-.8,0-6.34-.02-12.68-.02-19.01,0-27.37-.02-54.73.02-82.1,0-2.86.35-5.72.48-8.58.19-4.16.75-8.27,1.4-12.37.74-4.63,1.75-9.21,3-13.73,1.69-6.1,3.87-12.01,6.71-17.66,2.57-5.13,5.6-10,9.38-14.36,4.8-5.51,10.49-9.93,16.81-13.56,2.79-1.6,5.6-3.18,8.52-4.51,5.7-2.61,11.63-4.58,17.8-5.74,3.93-.74,7.9-1.38,11.87-1.86C88.19-.23,100.45.02,112.7,0c12.85-.01,25.7.04,38.55.05,10.21,0,20.42-.1,30.63-.01,4.78.04,9.56.33,14.32.68,3.95.29,7.92.65,11.82,1.31,3.92.66,7.81,1.6,11.65,2.63,7.67,2.06,14.79,5.43,21.55,9.58,4.32,2.66,8.41,5.6,12.01,9.18,2.48,2.46,4.73,5.13,6.82,7.93,2.98,3.99,5.18,8.4,7.29,12.87,2.44,5.16,4.16,10.57,5.64,16.07,1.53,5.68,2.6,11.45,3.37,17.28.69,5.2,1.11,10.41,1.14,15.65.05,10.26.05,20.53.06,30.79.01,10.87,0,21.74.04,32.6,0,.84-.24,1.33-.98,1.79-4.49,2.79-9.26,4.95-14.38,6.29-5.29,1.38-10.69,2.08-16.16,1.95-3.76-.09-7.52-.31-11.27-.61-3.64-.3-7.28-.72-10.9-1.19-5.95-.78-11.72-2.35-17.3-4.55-5.35-2.11-10.35-4.85-14.58-8.81-1.12-1.05-2.12-2.23-3.12-3.39-2.54-2.95-5.61-5.05-9.46-5.86-5.22-1.11-9.72.88-12.37,5.52-1.69,2.96-3.25,5.98-4.88,8.97-2.72,4.99-5.42,10-8.18,14.97-1.12,2.03-2.56,3.83-4.36,5.33-1.62,1.35-3.48,2.06-5.62,2.03-2.31-.03-4.62,0-6.92,0-.31,0-.62,0-1,0Z"/>
  </g>
</svg>