<?xml version="1.0" encoding="UTF-8"?>
<svg id="Capa_2" data-name="Capa 2" xmlns="http://www.w3.org/2000/svg" viewBox="0 0 238.39 220.26">
  <defs>
    <style>
      .cls-1 {
        fill: #f3ddeb;
      }

      .cls-2 {
        fill: #a42d26;
      }
    </style>
  </defs>
  <g id="Capa_1-2" data-name="Capa 1">
    <g>
      <rect class="cls-1" x="0" width="238.39" height="220.26" rx="24.23" ry="24.23"/>
      <g>
        <path class="cls-2" d="m75.97,93.85c-1.88,0-3.53-.39-4.97-1.16l-1.74,3.4c1.74,1.16,3.84,1.74,6.32,1.74,4.22,0,6.63-1.74,6.63-4.64,0-2.73-2.26-4.28-6.1-4.5-.91-.06-1.35-.28-1.35-.63,0-.47.52-.69,1.57-.69,1.41,0,2.6.25,3.56.75l1.85-3.29c-1.55-.94-3.42-1.41-5.6-1.41-3.89,0-6.29,1.79-6.29,4.58,0,2.57,2.29,4.31,5.71,4.44,1.13.06,1.71.3,1.71.75s-.44.66-1.3.66Z"/>
        <path class="cls-2" d="m89.77,97.71c1.74,0,3.2-.63,4.36-1.88l.28,1.6h4.36v-13.64h-4.36l-.28,1.57c-1.16-1.24-2.62-1.85-4.36-1.85-1.88,0-3.42.66-4.61,1.99-1.19,1.33-1.79,3.04-1.79,5.11s.61,3.78,1.79,5.11c1.19,1.33,2.73,1.99,4.61,1.99Zm-.66-9.25c.5-.52,1.16-.8,1.96-.8s1.46.28,1.99.8c.5.55.75,1.27.75,2.15s-.25,1.6-.75,2.13c-.52.55-1.19.83-1.99.83s-1.46-.28-1.96-.83c-.52-.52-.77-1.24-.77-2.13s.25-1.6.77-2.15Z"/>
        <rect class="cls-2" x="101.75" y="78.11" width="5.02" height="19.32"/>
        <path class="cls-2" d="m112.27,82.83c1.68,0,2.87-1.08,2.87-2.6s-1.19-2.62-2.87-2.62-2.84,1.08-2.84,2.62,1.19,2.6,2.84,2.6Z"/>
        <rect class="cls-2" x="109.76" y="83.8" width="5.02" height="13.64"/>
        <path class="cls-2" d="m122.78,90.81c0-2.02.99-3.01,2.62-3.01.69,0,1.35.22,2.04.66l2.04-3.53c-.94-.97-2.1-1.44-3.51-1.44-1.52,0-2.68.63-3.48,1.93l-.33-1.63h-4.42v13.64h5.02v-6.63Z"/>
        <path class="cls-2" d="m136.48,88.68c-.91-.06-1.35-.28-1.35-.63,0-.47.52-.69,1.57-.69,1.41,0,2.6.25,3.56.75l1.85-3.29c-1.55-.94-3.42-1.41-5.6-1.41-3.89,0-6.29,1.79-6.29,4.58,0,2.57,2.29,4.31,5.71,4.44,1.13.06,1.71.3,1.71.75s-.44.66-1.3.66c-1.88,0-3.53-.39-4.97-1.16l-1.74,3.4c1.74,1.16,3.84,1.74,6.32,1.74,4.22,0,6.63-1.74,6.63-4.64,0-2.73-2.26-4.28-6.1-4.5Z"/>
        <path class="cls-2" d="m145.86,95.83c1.41,1.27,3.34,1.9,5.8,1.9s4.56-.72,6.27-2.18l-2.46-2.76c-1.02.69-2.21,1.05-3.53,1.05-1.68,0-2.82-.75-3.12-1.85h9.58c.5-2.48.08-4.53-1.24-6.13-1.35-1.57-3.31-2.37-5.91-2.37-2.24,0-4.06.66-5.44,1.99-1.38,1.33-2.07,3.06-2.07,5.19s.72,3.92,2.13,5.16Zm5.55-8.53c1.46,0,2.37.83,2.4,2.18h-4.97c.03-1.35,1.05-2.18,2.57-2.18Z"/>
        <path class="cls-2" d="m80.25,109.64c-1.2-1.11-2.68-1.66-4.44-1.66-2.1,0-3.82.74-5.15,2.22-1.32,1.48-2,3.39-2,5.7s.68,4.22,2,5.7c1.32,1.48,3.05,2.22,5.15,2.22,1.94,0,3.57-.71,4.87-2.09l.31,1.79h4.87v-21.57h-5.61v7.7Zm-.77,8.63c-.59.62-1.32.92-2.22.92s-1.63-.31-2.19-.92c-.59-.59-.86-1.39-.86-2.37s.28-1.79.86-2.4c.55-.59,1.29-.89,2.19-.89s1.63.31,2.22.89c.55.62.83,1.42.83,2.4s-.28,1.79-.83,2.37Z"/>
        <path class="cls-2" d="m96.76,107.95c-2.5,0-4.53.74-6.07,2.22-1.54,1.48-2.31,3.42-2.31,5.79s.8,4.38,2.37,5.76c1.57,1.42,3.73,2.13,6.47,2.13s5.08-.8,6.99-2.43l-2.74-3.08c-1.14.77-2.46,1.17-3.94,1.17-1.88,0-3.14-.83-3.48-2.06h10.69c.55-2.77.09-5.05-1.39-6.84-1.51-1.76-3.7-2.65-6.59-2.65Zm-2.68,6.69c.03-1.51,1.17-2.43,2.87-2.43s2.65.92,2.68,2.43h-5.55Z"/>
        <path class="cls-2" d="m133.28,107.95c-2.19,0-3.91.74-5.11,2.25-.92-1.51-2.34-2.25-4.28-2.25-1.73,0-3.17.65-4.34,1.94l-.28-1.6h-4.87v15.22h5.61v-8.26c0-1.63.86-2.68,2.19-2.68,1.23,0,1.94.89,1.94,2.37v8.57h5.55v-8.26c0-1.63.86-2.68,2.19-2.68,1.23,0,1.94.89,1.94,2.37v8.57h5.61v-9.4c0-3.82-2.34-6.16-6.13-6.16Z"/>
        <path class="cls-2" d="m158.97,108.29h-4.87l-.31,1.76c-1.29-1.39-2.93-2.06-4.87-2.06-2.09,0-3.82.74-5.15,2.22-1.32,1.48-2,3.39-2,5.7s.68,4.22,2,5.7c1.33,1.48,3.05,2.22,5.15,2.22,1.94,0,3.57-.71,4.87-2.09l.15.84h-.1v7.06c-1.1-1.02-2.46-1.52-4.07-1.52-1.92,0-3.5.68-4.72,2.03-1.21,1.36-1.84,3.11-1.84,5.23s.62,3.87,1.84,5.23c1.21,1.36,2.8,2.03,4.72,2.03,1.78,0,3.28-.65,4.46-1.92l.28,1.64h4.46v-19.77h-.01v-14.28Zm-6.38,9.98c-.59.62-1.32.92-2.22.92s-1.63-.31-2.19-.92c-.59-.59-.86-1.39-.86-2.37s.28-1.79.86-2.4c.55-.59,1.29-.89,2.19-.89s1.63.31,2.22.89c.55.62.83,1.42.83,2.4s-.28,1.79-.83,2.37Zm.54,19.26c-.54.56-1.21.85-2.03.85s-1.5-.28-2.01-.85c-.54-.54-.79-1.27-.79-2.18s.25-1.64.79-2.2c.51-.54,1.19-.82,2.01-.82s1.5.28,2.03.82c.51.56.76,1.3.76,2.2s-.25,1.64-.76,2.18Z"/>
        <path class="cls-2" d="m166.89,130.05l-.34-1.67h-4.52v13.95h5.14v-6.78c0-2.06,1.02-3.08,2.68-3.08.71,0,1.38.23,2.09.68l2.09-3.62c-.96-.99-2.15-1.47-3.59-1.47-1.55,0-2.74.65-3.56,1.98Z"/>
        <path class="cls-2" d="m181.95,128.07c-2.29,0-4.15.68-5.56,2.03-1.41,1.36-2.12,3.14-2.12,5.31s.73,4.01,2.18,5.28c1.44,1.3,3.42,1.95,5.93,1.95s4.66-.73,6.41-2.23l-2.51-2.83c-1.05.71-2.26,1.07-3.62,1.07-1.72,0-2.88-.76-3.19-1.89h9.8c.51-2.54.08-4.63-1.27-6.27-1.38-1.61-3.39-2.43-6.04-2.43Zm-2.46,6.13c.03-1.38,1.07-2.23,2.63-2.23s2.43.85,2.46,2.23h-5.08Z"/>
        <path class="cls-2" d="m195.7,138.01c-.54-.51-1.24-.76-2.06-.76s-1.53.25-2.06.76c-1.07,1.02-1.07,2.82,0,3.84.54.51,1.24.76,2.06.76s1.53-.25,2.06-.76c1.07-1.02,1.07-2.83,0-3.84Z"/>
        <path class="cls-2" d="m47.98,87.52c-1.07,0-1.96.34-2.69,1.01v-4.68h-3.4v13.09h2.95l.19-1.08c.79.84,1.78,1.27,2.95,1.27,1.27,0,2.32-.45,3.12-1.35.8-.9,1.22-2.06,1.22-3.46s-.41-2.56-1.22-3.46-1.85-1.35-3.12-1.35Zm.47,6.25c-.36.37-.8.56-1.35.56s-.99-.19-1.33-.56c-.36-.36-.52-.84-.52-1.44s.17-1.08.52-1.46c.34-.36.79-.54,1.33-.54s.99.19,1.35.54c.34.37.51.86.51,1.46s-.17,1.08-.51,1.44Z"/>
        <polygon class="cls-2" points="58.96 89.91 57.87 93.09 56.84 89.91 56.06 87.7 52.41 87.7 55.98 96.73 54.21 100.79 57.8 100.79 63.52 87.7 59.84 87.7 58.96 89.91"/>
      </g>
    </g>
  </g>
</svg>