<?xml version="1.0" encoding="UTF-8"?>
<svg id="Capa_2" data-name="Capa 2" xmlns="http://www.w3.org/2000/svg" viewBox="0 0 238.6 220.76">
  <defs>
    <style>
      .cls-1 {
        fill: none;
        stroke: #000;
        stroke-miterlimit: 10;
        stroke-width: .5px;
      }
    </style>
  </defs>
  <g id="Capa_1-2" data-name="Capa 1">
    <g>
      <rect class="cls-1" x=".25" y=".25" width="238.1" height="220.26" rx="25.06" ry="25.06"/>
      <path d="m158.35,93.33c-2.66,7.23-5.32,14.46-8,21.75.18.2.41.46.64.7.95,1.01,1.72,2.14,2.27,3.42.13.31.31.42.65.42,4.1.02,8.19.04,12.29.08.5,0,.99.05,1.49.09.08,0,.16.07.24.1v.14c-.28.03-.56.1-.84.1-2.62,0-5.24,0-7.85-.01-1.85,0-3.7-.03-5.55-.04-.1,0-.19.02-.35.03.06.22.09.42.16.62.54,1.67.77,3.4.79,5.15.04,2.41,0,4.82.02,7.23.01,1.65.38,3.23,1.18,4.69,1.13,2.05,2.89,2.82,5.16,2.23,1.27-.33,2.44-.86,3.35-1.84.09-.09.24-.12.37-.19.03.04.06.07.09.11-.09.11-.16.24-.27.33-1.93,1.71-4.15,2.7-6.78,2.61-.89-.03-1.8,0-2.68-.14-2.1-.34-4.02-1.13-5.56-2.64-2.03-1.98-3.28-4.39-3.77-7.18-.08-.47-.05-.96-.08-1.44-.02-.29-.08-.57-.2-.84-1.28,3.53-2.56,7.05-3.86,10.65.4,0,.7,0,.99,0,1.39,0,2.79,0,4.18,0,.1,0,.21,0,.29.03.07.04.13.14.14.22,0,.04-.09.13-.16.15-.11.03-.23.01-.34.01-3.64-.01-7.28-.02-10.92-.05-.12,0-.33-.13-.35-.22-.04-.24.14-.29.36-.29,1.58.02,3.16.01,4.74.04.37,0,.55-.11.68-.47.77-2.11,1.58-4.21,2.36-6.32.56-1.51,1.12-3.03,1.65-4.55.12-.34.18-.72.18-1.08.02-2.38.02-4.77,0-7.15-.02-2.35-.78-4.42-2.42-6.14-1.36-1.43-3.09-2.23-4.96-2.77-1.8-.53-3.67-.64-5.53-.68-1.88-.04-3.75.02-5.63.04-.15,0-.31,0-.48,0-.03-.42.22-.43.49-.44,2.25-.04,4.49-.08,6.74-.11,1.59-.02,3.15-.23,4.62-.86,2.04-.88,3.33-2.44,4.02-4.53.88-2.67.93-5.43.89-8.2-.03-2.1-.32-4.16-1.07-6.13-1.59-4.19-4.66-6.57-9.12-6.98-2.26-.21-4.55-.1-6.82-.14-.47,0-.94-.03-1.41-.05-.32-.01-.5.08-.5.45.01,8.69.02,17.39.02,26.08,0,7.48,0,14.97,0,22.45,0,2.35,0,4.71,0,7.06,0,.65.02.64.68.64,1.96-.01,3.93-.01,5.89-.01.1,0,.21-.01.29.03.08.04.17.14.17.21,0,.06-.12.16-.19.17-.21.02-.43,0-.64,0-8.75-.02-17.5-.04-26.25-.06-.22,0-.41,0-.42-.28-.01-.3.22-.29.41-.29,1.64,0,3.27,0,4.91.01.47,0,.93,0,1.48,0-.19-.54-.36-1.02-.53-1.49-1.68-4.57-3.37-9.14-5.05-13.71-.47-1.28-.95-2.55-1.4-3.83-.1-.28-.24-.36-.52-.36-6.17,0-12.35,0-18.52,0-.65,0-.65,0-.87.62-.67,1.95-1.32,3.91-2.02,5.86-1.12,3.11-2.27,6.22-3.42,9.32-.4,1.07-.83,2.14-1.24,3.2-.04.1-.05.21-.09.43.75-.16,1.45-.26,2.12-.45,5.58-1.6,9.31-5.13,11.1-10.65.47-1.45.65-2.96.67-4.48,0-.21.09-.41.14-.62.07,0,.14.01.2.02.02.2.06.39.06.59-.02,4.62-.04,9.25-.06,13.87,0,.72,0,1.44,0,2.19h-44.7c11.07-19,22.12-37.94,33.22-56.98-.28-.01-.42-.03-.57-.03-3.83,0-7.65.01-11.48.03-1.86,0-3.73-.05-5.55.44-4.74,1.28-8.24,4.09-10.44,8.47-1.12,2.22-1.6,4.59-1.55,7.07,0,.24.07.48.05.72,0,.11-.12.29-.21.31-.22.06-.27-.11-.27-.31.02-2.28.03-4.57.03-6.85,0-3.25,0-6.5,0-9.74q0-.65.67-.65c6.87,0,13.74-.02,20.61-.02,2.72,0,5.43.03,8.15.04,2.99,0,5.97,0,8.96-.01.62,0,1.24,0,1.88,0-11.06,19.02-22.1,37.99-33.18,57.04.24.01.39.02.54.02,6.06,0,12.12,0,18.18.01.98,0,.97.01,1.3-.92.62-1.75,1.25-3.49,1.88-5.23,1.03-2.85,2.04-5.7,3.09-8.54,1.24-3.37,2.52-6.73,3.76-10.1.98-2.66,1.92-5.32,2.9-7.98,1.19-3.25,2.4-6.5,3.6-9.75,1.95-5.3,3.9-10.6,5.86-15.89.07-.2.21-.38.39-.7.2.35.38.57.47.82,1.9,5.18,3.79,10.37,5.68,15.56,1.89,5.2,3.78,10.41,5.67,15.6,1.51,4.15,3.04,8.29,4.56,12.44.26.7.51,1.4.84,2.12.03-.22.08-.44.08-.66,0-10.31,0-20.62,0-30.93,0-3.96,0-7.91.01-11.87,0-.39-.18-.45-.49-.44-1.85.03-3.7.05-5.55.07-.25,0-.51-.01-.76-.06-.11-.02-.21-.15-.31-.23.11-.07.21-.15.33-.19.1-.03.23,0,.34,0,8.11,0,16.22-.03,24.33.02,3.69.03,7.27.75,10.59,2.41,3.49,1.75,6.17,4.29,7.49,8.05.69,1.97.79,4.01.43,6.04-.22,1.22-.71,2.38-1.39,3.45-1.91,3.01-4.69,4.89-7.95,6.13-1.15.44-2.35.75-3.53,1.11-.14.04-.28.1-.41.19,4.34.34,8.1,2.06,11.53,4.76.2-.52.4-1.01.58-1.5,1.86-5.05,3.73-10.09,5.58-15.14,2.04-5.55,4.07-11.11,6.11-16.67.1-.26.23-.52.36-.77.11-.21.24-.18.34,0,.12.24.23.49.32.74,1.64,4.48,3.27,8.96,4.92,13.44,1.09,2.95,2.2,5.89,3.28,8.84,1.07,2.9,2.11,5.8,3.17,8.7,1.06,2.88,2.13,5.76,3.19,8.65,1.13,3.08,2.26,6.17,3.39,9.25,1.11,3.02,2.23,6.03,3.33,9.05.09.26.23.34.5.34,2.2-.05,4.41-.08,6.61-.12.11,0,.24-.02.33.02.08.04.15.16.15.25,0,.06-.11.15-.19.18-.09.03-.2,0-.3,0-5.41-.02-10.81-.05-16.22-.07-2.16,0-4.32.02-6.49.02-.2,0-.39-.02-.6-.04-.08-.35.11-.41.37-.41.71,0,1.42,0,2.13,0,1.25,0,2.5.03,3.75.04.17,0,.34-.02.6-.03-.06-.24-.08-.46-.15-.66-1-2.72-2.02-5.44-3.02-8.17-1.13-3.07-2.25-6.14-3.37-9.21-.08-.23-.19-.44-.25-.67-.12-.45-.18-.93-.34-1.37-1.21-3.34-2.44-6.68-3.66-10.01-1.6-4.37-3.19-8.75-4.79-13.13-.34-.94-.7-1.88-1.04-2.82l-.12-.03Zm-74.53,26.19h19.41c-3.25-8.83-6.47-17.59-9.69-26.36-.03.02-.07.03-.1.05-3.2,8.75-6.41,17.51-9.63,26.31Z"/>
    </g>
  </g>
</svg>